  0
SECTION
  2
HEADER
  9
$ANGBASE
  50
0.0
  9
$ANGDIR
  70
1
  9
$MEASUREMENT
  70
1
  0
ENDSEC
  0
SECTION
  2
TABLES
  0
TABLE
  2
LTYPE
  70
4
  0
LTYPE
  5
40F
  2
CONTINUOUS
  70
0
  3
Solid line
  72
65
  73
0
  40
0.0
  0
LTYPE
  5
410
  2
DASHDOT
 70
0
  3
Dash Dot ____ _ ____ _
 72
65
 73
4
 40
2.0
 49
1.25
 49
-0.25
 49
0.25
 49
-0.25
  0
LTYPE
  5
411
  2
DASHED
 70
0
  3
Dashed __ __ __ __ __
 72
65
 73
2
 40
0.75
 49
0.5
 49
-0.25
  0
LTYPE
  5
43B
  2
DOTTED
 70
0
  3
Dotted .  .  .  .
 72
65
 73
2
 40
0.2
 49
0.0
 49
-0.2
  0
ENDTAB
  0
TABLE
  2
STYLE
  70
4
  0
STYLE
  2
KICAD
  70
0
  40
0
  41
1
  42
1
  50
0
  71
0
  3
isocp.shx
  0
STYLE
  2
KICADB
  70
0
  40
0
  41
1
  42
1
  50
0
  71
0
  3
isocp.shx
  0
STYLE
  2
KICADI
  70
0
  40
0
  41
1
  42
1
  50
15
  71
0
  3
isocp.shx
  0
STYLE
  2
KICADBI
  70
0
  40
0
  41
1
  42
1
  50
15
  71
0
  3
isocp.shx
  0
ENDTAB
  0
TABLE
  2
LAYER
  70
1
  0
LAYER
  2
BLACK
  70
0
  62
7
  6
CONTINUOUS
  0
ENDTAB
  0
ENDSEC
  0
SECTION
  2
ENTITIES
0
LINE
8
BLACK
6
CONTINUOUS
10
207.76
20
-79.9267
11
207.763
21
-79.9261
0
LINE
8
BLACK
6
CONTINUOUS
10
207.763
20
-79.9261
11
207.766
21
-79.9278
0
LINE
8
BLACK
6
CONTINUOUS
10
207.766
20
-79.9278
11
207.776
21
-79.9295
0
LINE
8
BLACK
6
CONTINUOUS
10
207.776
20
-79.9295
11
207.791
21
-79.942
0
LINE
8
BLACK
6
CONTINUOUS
10
207.791
20
-79.942
11
207.807
21
-79.9518
0
LINE
8
BLACK
6
CONTINUOUS
10
207.807
20
-79.9518
11
207.81
21
-79.9582
0
LINE
8
BLACK
6
CONTINUOUS
10
207.81
20
-79.9582
11
207.815
21
-79.9625
0
LINE
8
BLACK
6
CONTINUOUS
10
207.815
20
-79.9625
11
207.818
21
-79.9817
0
LINE
8
BLACK
6
CONTINUOUS
10
207.818
20
-79.9817
11
207.825
21
-80
0
LINE
8
BLACK
6
CONTINUOUS
10
207.825
20
-80
11
207.825
21
-130
0
LINE
8
BLACK
6
CONTINUOUS
10
207.825
20
-130
11
207.823
21
-130.01
0
LINE
8
BLACK
6
CONTINUOUS
10
207.823
20
-130.01
11
207.824
21
-130.013
0
LINE
8
BLACK
6
CONTINUOUS
10
207.824
20
-130.013
11
207.822
21
-130.016
0
LINE
8
BLACK
6
CONTINUOUS
10
207.822
20
-130.016
11
207.82
21
-130.026
0
LINE
8
BLACK
6
CONTINUOUS
10
207.82
20
-130.026
11
207.808
21
-130.041
0
LINE
8
BLACK
6
CONTINUOUS
10
207.808
20
-130.041
11
207.798
21
-130.057
0
LINE
8
BLACK
6
CONTINUOUS
10
207.798
20
-130.057
11
207.792
21
-130.06
0
LINE
8
BLACK
6
CONTINUOUS
10
207.792
20
-130.06
11
207.787
21
-130.065
0
LINE
8
BLACK
6
CONTINUOUS
10
207.787
20
-130.065
11
207.768
21
-130.068
0
LINE
8
BLACK
6
CONTINUOUS
10
207.768
20
-130.068
11
207.75
21
-130.075
0
LINE
8
BLACK
6
CONTINUOUS
10
207.75
20
-130.075
11
182.5
21
-130.075
0
LINE
8
BLACK
6
CONTINUOUS
10
182.5
20
-130.075
11
182.49
21
-130.073
0
LINE
8
BLACK
6
CONTINUOUS
10
182.49
20
-130.073
11
182.487
21
-130.074
0
LINE
8
BLACK
6
CONTINUOUS
10
182.487
20
-130.074
11
182.484
21
-130.072
0
LINE
8
BLACK
6
CONTINUOUS
10
182.484
20
-130.072
11
182.474
21
-130.07
0
LINE
8
BLACK
6
CONTINUOUS
10
182.474
20
-130.07
11
182.459
21
-130.058
0
LINE
8
BLACK
6
CONTINUOUS
10
182.459
20
-130.058
11
182.443
21
-130.048
0
LINE
8
BLACK
6
CONTINUOUS
10
182.443
20
-130.048
11
182.44
21
-130.042
0
LINE
8
BLACK
6
CONTINUOUS
10
182.44
20
-130.042
11
182.435
21
-130.037
0
LINE
8
BLACK
6
CONTINUOUS
10
182.435
20
-130.037
11
182.432
21
-130.018
0
LINE
8
BLACK
6
CONTINUOUS
10
182.432
20
-130.018
11
182.425
21
-130
0
LINE
8
BLACK
6
CONTINUOUS
10
182.425
20
-130
11
182.425
21
-113.575
0
LINE
8
BLACK
6
CONTINUOUS
10
182.425
20
-113.575
11
115.075
21
-113.575
0
LINE
8
BLACK
6
CONTINUOUS
10
115.075
20
-113.575
11
115.075
21
-130
0
LINE
8
BLACK
6
CONTINUOUS
10
115.075
20
-130
11
115.073
21
-130.01
0
LINE
8
BLACK
6
CONTINUOUS
10
115.073
20
-130.01
11
115.074
21
-130.013
0
LINE
8
BLACK
6
CONTINUOUS
10
115.074
20
-130.013
11
115.072
21
-130.016
0
LINE
8
BLACK
6
CONTINUOUS
10
115.072
20
-130.016
11
115.07
21
-130.026
0
LINE
8
BLACK
6
CONTINUOUS
10
115.07
20
-130.026
11
115.058
21
-130.041
0
LINE
8
BLACK
6
CONTINUOUS
10
115.058
20
-130.041
11
115.048
21
-130.057
0
LINE
8
BLACK
6
CONTINUOUS
10
115.048
20
-130.057
11
115.042
21
-130.06
0
LINE
8
BLACK
6
CONTINUOUS
10
115.042
20
-130.06
11
115.037
21
-130.065
0
LINE
8
BLACK
6
CONTINUOUS
10
115.037
20
-130.065
11
115.018
21
-130.068
0
LINE
8
BLACK
6
CONTINUOUS
10
115.018
20
-130.068
11
115
21
-130.075
0
LINE
8
BLACK
6
CONTINUOUS
10
115
20
-130.075
11
82.75
21
-130.075
0
LINE
8
BLACK
6
CONTINUOUS
10
82.75
20
-130.075
11
82.7403
21
-130.073
0
LINE
8
BLACK
6
CONTINUOUS
10
82.7403
20
-130.073
11
82.737
21
-130.074
0
LINE
8
BLACK
6
CONTINUOUS
10
82.737
20
-130.074
11
82.7341
21
-130.072
0
LINE
8
BLACK
6
CONTINUOUS
10
82.7341
20
-130.072
11
82.7243
21
-130.07
0
LINE
8
BLACK
6
CONTINUOUS
10
82.7243
20
-130.07
11
82.7094
21
-130.058
0
LINE
8
BLACK
6
CONTINUOUS
10
82.7094
20
-130.058
11
82.6925
21
-130.048
0
LINE
8
BLACK
6
CONTINUOUS
10
82.6925
20
-130.048
11
82.6902
21
-130.042
0
LINE
8
BLACK
6
CONTINUOUS
10
82.6902
20
-130.042
11
82.685
21
-130.037
0
LINE
8
BLACK
6
CONTINUOUS
10
82.685
20
-130.037
11
82.6817
21
-130.018
0
LINE
8
BLACK
6
CONTINUOUS
10
82.6817
20
-130.018
11
82.675
21
-130
0
LINE
8
BLACK
6
CONTINUOUS
10
82.675
20
-130
11
82.675
21
-124
0
LINE
8
BLACK
6
CONTINUOUS
10
82.675
20
-124
11
82.6767
21
-123.99
0
LINE
8
BLACK
6
CONTINUOUS
10
82.6767
20
-123.99
11
82.6761
21
-123.987
0
LINE
8
BLACK
6
CONTINUOUS
10
82.6761
20
-123.987
11
82.6778
21
-123.984
0
LINE
8
BLACK
6
CONTINUOUS
10
82.6778
20
-123.984
11
82.6795
21
-123.974
0
LINE
8
BLACK
6
CONTINUOUS
10
82.6795
20
-123.974
11
82.692
21
-123.959
0
LINE
8
BLACK
6
CONTINUOUS
10
82.692
20
-123.959
11
82.7018
21
-123.943
0
LINE
8
BLACK
6
CONTINUOUS
10
82.7018
20
-123.943
11
82.7081
21
-123.94
0
LINE
8
BLACK
6
CONTINUOUS
10
82.7081
20
-123.94
11
82.7125
21
-123.935
0
LINE
8
BLACK
6
CONTINUOUS
10
82.7125
20
-123.935
11
82.7317
21
-123.932
0
LINE
8
BLACK
6
CONTINUOUS
10
82.7317
20
-123.932
11
82.75
21
-123.925
0
LINE
8
BLACK
6
CONTINUOUS
10
82.75
20
-123.925
11
87.675
21
-123.925
0
LINE
8
BLACK
6
CONTINUOUS
10
87.675
20
-123.925
11
87.675
21
-86.075
0
LINE
8
BLACK
6
CONTINUOUS
10
87.675
20
-86.075
11
82.75
21
-86.075
0
LINE
8
BLACK
6
CONTINUOUS
10
82.75
20
-86.075
11
82.7403
21
-86.0733
0
LINE
8
BLACK
6
CONTINUOUS
10
82.7403
20
-86.0733
11
82.737
21
-86.0739
0
LINE
8
BLACK
6
CONTINUOUS
10
82.737
20
-86.0739
11
82.7341
21
-86.0722
0
LINE
8
BLACK
6
CONTINUOUS
10
82.7341
20
-86.0722
11
82.7243
21
-86.0705
0
LINE
8
BLACK
6
CONTINUOUS
10
82.7243
20
-86.0705
11
82.7094
21
-86.058
0
LINE
8
BLACK
6
CONTINUOUS
10
82.7094
20
-86.058
11
82.6925
21
-86.0482
0
LINE
8
BLACK
6
CONTINUOUS
10
82.6925
20
-86.0482
11
82.6902
21
-86.0418
0
LINE
8
BLACK
6
CONTINUOUS
10
82.6902
20
-86.0418
11
82.685
21
-86.0375
0
LINE
8
BLACK
6
CONTINUOUS
10
82.685
20
-86.0375
11
82.6817
21
-86.0183
0
LINE
8
BLACK
6
CONTINUOUS
10
82.6817
20
-86.0183
11
82.675
21
-86
0
LINE
8
BLACK
6
CONTINUOUS
10
82.675
20
-86
11
82.675
21
-80
0
LINE
8
BLACK
6
CONTINUOUS
10
82.675
20
-80
11
82.6767
21
-79.9903
0
LINE
8
BLACK
6
CONTINUOUS
10
82.6767
20
-79.9903
11
82.6761
21
-79.987
0
LINE
8
BLACK
6
CONTINUOUS
10
82.6761
20
-79.987
11
82.6778
21
-79.9841
0
LINE
8
BLACK
6
CONTINUOUS
10
82.6778
20
-79.9841
11
82.6795
21
-79.9743
0
LINE
8
BLACK
6
CONTINUOUS
10
82.6795
20
-79.9743
11
82.692
21
-79.9594
0
LINE
8
BLACK
6
CONTINUOUS
10
82.692
20
-79.9594
11
82.7018
21
-79.9425
0
LINE
8
BLACK
6
CONTINUOUS
10
82.7018
20
-79.9425
11
82.7081
21
-79.9402
0
LINE
8
BLACK
6
CONTINUOUS
10
82.7081
20
-79.9402
11
82.7125
21
-79.935
0
LINE
8
BLACK
6
CONTINUOUS
10
82.7125
20
-79.935
11
82.7317
21
-79.9317
0
LINE
8
BLACK
6
CONTINUOUS
10
82.7317
20
-79.9317
11
82.75
21
-79.925
0
LINE
8
BLACK
6
CONTINUOUS
10
82.75
20
-79.925
11
207.75
21
-79.925
0
LINE
8
BLACK
6
CONTINUOUS
10
207.75
20
-79.925
11
207.76
21
-79.9267
0
LINE
8
BLACK
6
CONTINUOUS
10
82.825
20
-80.075
11
82.825
21
-85.925
0
LINE
8
BLACK
6
CONTINUOUS
10
82.825
20
-85.925
11
87.75
21
-85.925
0
LINE
8
BLACK
6
CONTINUOUS
10
87.75
20
-85.925
11
87.7597
21
-85.9267
0
LINE
8
BLACK
6
CONTINUOUS
10
87.7597
20
-85.9267
11
87.763
21
-85.9261
0
LINE
8
BLACK
6
CONTINUOUS
10
87.763
20
-85.9261
11
87.7659
21
-85.9278
0
LINE
8
BLACK
6
CONTINUOUS
10
87.7659
20
-85.9278
11
87.7757
21
-85.9295
0
LINE
8
BLACK
6
CONTINUOUS
10
87.7757
20
-85.9295
11
87.7906
21
-85.942
0
LINE
8
BLACK
6
CONTINUOUS
10
87.7906
20
-85.942
11
87.8075
21
-85.9518
0
LINE
8
BLACK
6
CONTINUOUS
10
87.8075
20
-85.9518
11
87.8098
21
-85.9581
0
LINE
8
BLACK
6
CONTINUOUS
10
87.8098
20
-85.9581
11
87.815
21
-85.9625
0
LINE
8
BLACK
6
CONTINUOUS
10
87.815
20
-85.9625
11
87.8183
21
-85.9817
0
LINE
8
BLACK
6
CONTINUOUS
10
87.8183
20
-85.9817
11
87.825
21
-86
0
LINE
8
BLACK
6
CONTINUOUS
10
87.825
20
-86
11
87.825
21
-124
0
LINE
8
BLACK
6
CONTINUOUS
10
87.825
20
-124
11
87.8233
21
-124.01
0
LINE
8
BLACK
6
CONTINUOUS
10
87.8233
20
-124.01
11
87.8239
21
-124.013
0
LINE
8
BLACK
6
CONTINUOUS
10
87.8239
20
-124.013
11
87.8222
21
-124.016
0
LINE
8
BLACK
6
CONTINUOUS
10
87.8222
20
-124.016
11
87.8205
21
-124.026
0
LINE
8
BLACK
6
CONTINUOUS
10
87.8205
20
-124.026
11
87.808
21
-124.041
0
LINE
8
BLACK
6
CONTINUOUS
10
87.808
20
-124.041
11
87.7982
21
-124.057
0
LINE
8
BLACK
6
CONTINUOUS
10
87.7982
20
-124.057
11
87.7918
21
-124.06
0
LINE
8
BLACK
6
CONTINUOUS
10
87.7918
20
-124.06
11
87.7875
21
-124.065
0
LINE
8
BLACK
6
CONTINUOUS
10
87.7875
20
-124.065
11
87.7683
21
-124.068
0
LINE
8
BLACK
6
CONTINUOUS
10
87.7683
20
-124.068
11
87.75
21
-124.075
0
LINE
8
BLACK
6
CONTINUOUS
10
87.75
20
-124.075
11
82.825
21
-124.075
0
LINE
8
BLACK
6
CONTINUOUS
10
82.825
20
-124.075
11
82.825
21
-129.925
0
LINE
8
BLACK
6
CONTINUOUS
10
82.825
20
-129.925
11
114.925
21
-129.925
0
LINE
8
BLACK
6
CONTINUOUS
10
114.925
20
-129.925
11
114.925
21
-113.5
0
LINE
8
BLACK
6
CONTINUOUS
10
114.925
20
-113.5
11
114.927
21
-113.49
0
LINE
8
BLACK
6
CONTINUOUS
10
114.927
20
-113.49
11
114.926
21
-113.487
0
LINE
8
BLACK
6
CONTINUOUS
10
114.926
20
-113.487
11
114.928
21
-113.484
0
LINE
8
BLACK
6
CONTINUOUS
10
114.928
20
-113.484
11
114.93
21
-113.474
0
LINE
8
BLACK
6
CONTINUOUS
10
114.93
20
-113.474
11
114.942
21
-113.459
0
LINE
8
BLACK
6
CONTINUOUS
10
114.942
20
-113.459
11
114.952
21
-113.443
0
LINE
8
BLACK
6
CONTINUOUS
10
114.952
20
-113.443
11
114.958
21
-113.44
0
LINE
8
BLACK
6
CONTINUOUS
10
114.958
20
-113.44
11
114.962
21
-113.435
0
LINE
8
BLACK
6
CONTINUOUS
10
114.962
20
-113.435
11
114.982
21
-113.432
0
LINE
8
BLACK
6
CONTINUOUS
10
114.982
20
-113.432
11
115
21
-113.425
0
LINE
8
BLACK
6
CONTINUOUS
10
115
20
-113.425
11
182.5
21
-113.425
0
LINE
8
BLACK
6
CONTINUOUS
10
182.5
20
-113.425
11
182.51
21
-113.427
0
LINE
8
BLACK
6
CONTINUOUS
10
182.51
20
-113.427
11
182.513
21
-113.426
0
LINE
8
BLACK
6
CONTINUOUS
10
182.513
20
-113.426
11
182.516
21
-113.428
0
LINE
8
BLACK
6
CONTINUOUS
10
182.516
20
-113.428
11
182.526
21
-113.43
0
LINE
8
BLACK
6
CONTINUOUS
10
182.526
20
-113.43
11
182.541
21
-113.442
0
LINE
8
BLACK
6
CONTINUOUS
10
182.541
20
-113.442
11
182.557
21
-113.452
0
LINE
8
BLACK
6
CONTINUOUS
10
182.557
20
-113.452
11
182.56
21
-113.458
0
LINE
8
BLACK
6
CONTINUOUS
10
182.56
20
-113.458
11
182.565
21
-113.462
0
LINE
8
BLACK
6
CONTINUOUS
10
182.565
20
-113.462
11
182.568
21
-113.482
0
LINE
8
BLACK
6
CONTINUOUS
10
182.568
20
-113.482
11
182.575
21
-113.5
0
LINE
8
BLACK
6
CONTINUOUS
10
182.575
20
-113.5
11
182.575
21
-129.925
0
LINE
8
BLACK
6
CONTINUOUS
10
182.575
20
-129.925
11
207.675
21
-129.925
0
LINE
8
BLACK
6
CONTINUOUS
10
207.675
20
-129.925
11
207.675
21
-80.075
0
LINE
8
BLACK
6
CONTINUOUS
10
207.675
20
-80.075
11
82.825
21
-80.075
  0
ENDSEC
  0
EOF
