M48
; DRILL file {KiCad (6.0.10)} date lun. 09 janv. 2023 18:14:40
; FORMAT={-:-/ absolute / inch / decimal}
; #@! TF.CreationDate,2023-01-09T18:14:40+01:00
; #@! TF.GenerationSoftware,Kicad,Pcbnew,(6.0.10)
; #@! TF.FileFunction,Plated,1,4,PTH
FMAT,2
INCH
; #@! TA.AperFunction,Plated,PTH,ComponentDrill
T1C0.0118
; #@! TA.AperFunction,Plated,PTH,ViaDrill
T2C0.0120
; #@! TA.AperFunction,Plated,PTH,ViaDrill
T3C0.0157
; #@! TA.AperFunction,Plated,PTH,ComponentDrill
T4C0.0300
; #@! TA.AperFunction,Plated,PTH,ComponentDrill
T5C0.0354
; #@! TA.AperFunction,Plated,PTH,ComponentDrill
T6C0.0394
; #@! TA.AperFunction,Plated,PTH,ComponentDrill
T7C0.0433
; #@! TA.AperFunction,Plated,PTH,ComponentDrill
T8C0.0500
; #@! TA.AperFunction,Plated,PTH,ComponentDrill
T9C0.1181
%
G90
G05
T1
X4.0453Y-3.9764
X4.0453Y-4.2913
X4.0685Y-3.9209
X4.0685Y-4.0319
X4.0685Y-4.2358
X4.0685Y-4.3469
X4.124Y-3.8976
X4.124Y-4.0551
X4.124Y-4.2126
X4.124Y-4.3701
X4.1795Y-3.9209
X4.1795Y-4.0319
X4.1795Y-4.2358
X4.1795Y-4.3469
X4.2028Y-3.9764
X4.2028Y-4.2913
X6.8209Y-4.1339
X6.8441Y-4.0783
X6.8441Y-4.1894
X6.8996Y-4.0551
X6.8996Y-4.2126
X6.9551Y-4.0783
X6.9551Y-4.1894
X6.9783Y-4.1339
X7.2736Y-3.9764
X7.2736Y-4.2913
X7.2969Y-3.9209
X7.2969Y-4.0319
X7.2969Y-4.2358
X7.2969Y-4.3469
X7.3524Y-3.8976
X7.3524Y-4.0551
X7.3524Y-4.2126
X7.3524Y-4.3701
X7.4079Y-3.9209
X7.4079Y-4.0319
X7.4079Y-4.2358
X7.4079Y-4.3469
X7.4311Y-3.9764
X7.4311Y-4.2913
T2
X3.562Y-4.464
X3.563Y-3.4882
X3.5634Y-4.6752
X3.5978Y-4.112
X3.5978Y-4.1612
X3.6569Y-4.0505
X3.6614Y-3.2677
X3.6766Y-4.2124
X3.7264Y-4.4291
X3.7362Y-3.4945
X3.743Y-3.297
X3.756Y-4.112
X3.7579Y-4.5669
X3.7833Y-4.4644
X3.7874Y-3.2839
X3.7953Y-4.8173
X3.798Y-4.068
X3.798Y-4.18
X3.8453Y-4.6307
X3.8453Y-4.6654
X3.8453Y-4.7102
X3.8453Y-4.7638
X3.8453Y-4.8173
X4.0346Y-4.724
X4.7626Y-4.0741
X4.7626Y-4.1922
X4.874Y-4.002
X4.9Y-4.36
X4.9018Y-4.1922
X4.9063Y-4.0741
X4.9567Y-4.3005
X5.03Y-4.328
X5.0374Y-4.1529
X5.0374Y-4.2119
X5.046Y-3.897
X5.0472Y-4.0407
X5.0964Y-4.1529
X5.0964Y-4.2119
X5.1444Y-3.9757
X5.1874Y-4.3526
X5.2138Y-4.2513
X5.2303Y-3.8723
X5.2834Y-4.2812
X5.3429Y-4.2812
X5.5138Y-3.6713
X5.6339Y-3.7303
X5.924Y-3.8087
T3
X3.804Y-3.824
X4.2841Y-4.3511
X4.3196Y-4.3246
X4.3356Y-4.3542
X4.452Y-4.222
X4.478Y-4.436
X5.164Y-4.058
X5.188Y-4.036
X5.73Y-4.116
X5.732Y-3.432
X5.738Y-3.958
X6.018Y-4.0
X6.21Y-3.984
X6.752Y-3.83
T4
X3.3858Y-3.2177
X3.3858Y-3.3177
X3.3858Y-4.95
X3.3858Y-5.05
T5
X6.0548Y-3.5118
X6.1532Y-3.5118
T6
X4.1Y-4.6
X4.2Y-4.6
X4.298Y-4.832
X4.3Y-4.6
X4.3972Y-4.832
X4.4Y-4.6
X4.582Y-4.276
X5.4Y-4.224
X5.5212Y-4.2993
X5.524Y-3.426
X6.8651Y-3.2083
X6.9694Y-3.2103
X7.0422Y-3.2103
X7.1151Y-3.2103
X7.1879Y-3.2103
T7
X3.7205Y-4.8713
X3.7205Y-4.9713
X4.404Y-3.558
X4.404Y-3.658
X4.404Y-3.758
X4.6457Y-3.3421
X4.7244Y-3.3421
X4.8031Y-3.3421
X5.215Y-3.726
X5.315Y-3.726
X5.415Y-3.726
X5.932Y-4.394
X6.032Y-4.394
X6.132Y-4.394
X6.232Y-4.394
X7.482Y-3.266
X7.5832Y-3.266
X7.6832Y-3.266
X7.7844Y-3.266
X8.0781Y-3.298
X8.0781Y-3.398
X8.0781Y-3.498
T8
X6.4229Y-3.2103
X6.5332Y-3.2103
X6.6434Y-3.2103
X6.7536Y-3.2103
T9
X4.124Y-3.9764
X4.124Y-4.2913
X6.8996Y-4.1339
X7.3524Y-3.9764
X7.3524Y-4.2913
T0
M30
