%TF.GenerationSoftware,KiCad,Pcbnew,(6.0.10)*%
%TF.CreationDate,2023-01-09T18:14:30+01:00*%
%TF.ProjectId,carinsitu,63617269-6e73-4697-9475-2e6b69636164,1*%
%TF.SameCoordinates,Original*%
%TF.FileFunction,Copper,L4,Bot*%
%TF.FilePolarity,Positive*%
%FSLAX46Y46*%
G04 Gerber Fmt 4.6, Leading zero omitted, Abs format (unit mm)*
G04 Created by KiCad (PCBNEW (6.0.10)) date 2023-01-09 18:14:30*
%MOMM*%
%LPD*%
G01*
G04 APERTURE LIST*
%ADD10C,0.152400*%
%TA.AperFunction,NonConductor*%
%ADD11C,0.152400*%
%TD*%
%TA.AperFunction,ComponentPad*%
%ADD12C,0.800000*%
%TD*%
%TA.AperFunction,ComponentPad*%
%ADD13C,5.000000*%
%TD*%
%TA.AperFunction,ComponentPad*%
%ADD14C,1.524000*%
%TD*%
%TA.AperFunction,ComponentPad*%
%ADD15C,1.800000*%
%TD*%
%TA.AperFunction,ComponentPad*%
%ADD16C,1.500000*%
%TD*%
%TA.AperFunction,ComponentPad*%
%ADD17C,1.700000*%
%TD*%
%TA.AperFunction,ComponentPad*%
%ADD18R,1.800000X1.800000*%
%TD*%
%TA.AperFunction,ViaPad*%
%ADD19C,0.711200*%
%TD*%
%TA.AperFunction,ViaPad*%
%ADD20C,0.600000*%
%TD*%
%TA.AperFunction,Conductor*%
%ADD21C,0.406400*%
%TD*%
%TA.AperFunction,Conductor*%
%ADD22C,0.203200*%
%TD*%
%TA.AperFunction,Conductor*%
%ADD23C,0.304800*%
%TD*%
%TA.AperFunction,Conductor*%
%ADD24C,2.048000*%
%TD*%
%TA.AperFunction,Conductor*%
%ADD25C,1.016000*%
%TD*%
G04 APERTURE END LIST*
D10*
D11*
X113347619Y-128328571D02*
X113347619Y-128861904D01*
X113538095Y-128023809D02*
X113728571Y-128595238D01*
X113233333Y-128595238D01*
D12*
%TO.P,FIX1,1,1*%
%TO.N,GND*%
X103340000Y-102410000D03*
X102750000Y-101000000D03*
X104750000Y-99000000D03*
X106750000Y-101000000D03*
D13*
X104750000Y-101000000D03*
D12*
X104750000Y-103000000D03*
X103340000Y-99590000D03*
X106160000Y-99590000D03*
X106160000Y-102410000D03*
%TD*%
%TO.P,FIX2,1,1*%
%TO.N,GND*%
X106160000Y-107590000D03*
X103340000Y-107590000D03*
X104750000Y-111000000D03*
D13*
X104750000Y-109000000D03*
D12*
X102750000Y-109000000D03*
X104750000Y-107000000D03*
X106160000Y-110410000D03*
X106750000Y-109000000D03*
X103340000Y-110410000D03*
%TD*%
%TO.P,FIX3,1,1*%
%TO.N,GND*%
X173250000Y-105000000D03*
X173840000Y-106410000D03*
X176660000Y-103590000D03*
X175250000Y-107000000D03*
X177250000Y-105000000D03*
X175250000Y-103000000D03*
X176660000Y-106410000D03*
D13*
X175250000Y-105000000D03*
D12*
X173840000Y-103590000D03*
%TD*%
%TO.P,FIX4,1,1*%
%TO.N,GND*%
X185340000Y-99590000D03*
X184750000Y-101000000D03*
X186750000Y-99000000D03*
X185340000Y-102410000D03*
X186750000Y-103000000D03*
D13*
X186750000Y-101000000D03*
D12*
X188160000Y-99590000D03*
X188160000Y-102410000D03*
X188750000Y-101000000D03*
%TD*%
%TO.P,FIX5,1,1*%
%TO.N,GND*%
X188160000Y-107590000D03*
X186750000Y-107000000D03*
D13*
X186750000Y-109000000D03*
D12*
X188160000Y-110410000D03*
X185340000Y-110410000D03*
X188750000Y-109000000D03*
X186750000Y-111000000D03*
X185340000Y-107590000D03*
X184750000Y-109000000D03*
%TD*%
D14*
%TO.P,P2,1,P1*%
%TO.N,Net-(MOD1-Pad2)*%
X156291600Y-89200000D03*
%TO.P,P2,2,PM*%
%TO.N,Net-(MOD1-Pad3)*%
X153791600Y-89200000D03*
%TD*%
D15*
%TO.P,MOD1,1,BAT-*%
%TO.N,GND*%
X163142400Y-81541600D03*
%TO.P,MOD1,2,MOT-*%
%TO.N,Net-(MOD1-Pad2)*%
X165942400Y-81541600D03*
%TO.P,MOD1,3,MOT+*%
%TO.N,Net-(MOD1-Pad3)*%
X168742400Y-81541600D03*
%TO.P,MOD1,4,BAT+*%
%TO.N,+VBAT*%
X171542400Y-81541600D03*
%TO.P,MOD1,5,SW*%
%TO.N,Net-(MOD1-Pad5)*%
X174372400Y-81491600D03*
D16*
%TO.P,MOD1,6,SW*%
X177022400Y-81541600D03*
%TO.P,MOD1,7,GND*%
%TO.N,GND*%
X178872400Y-81541600D03*
%TO.P,MOD1,8,PWR*%
%TO.N,+5V*%
X180722400Y-81541600D03*
%TO.P,MOD1,9,PWM*%
%TO.N,PPM_ESC*%
X182572400Y-81541600D03*
%TD*%
D15*
%TO.P,D4,1,DOUT*%
%TO.N,unconnected-(D4-Pad1)*%
X190042800Y-82956400D03*
%TO.P,D4,2,GND*%
%TO.N,GND*%
X192612800Y-82956400D03*
%TO.P,D4,3,VDD*%
%TO.N,+5V*%
X195152800Y-82956400D03*
%TO.P,D4,4,DIN*%
%TO.N,Net-(D4-Pad4)*%
X197722800Y-82956400D03*
%TD*%
D14*
%TO.P,D1,1,A*%
%TO.N,+5V*%
X86000000Y-128270000D03*
%TO.P,D1,2,K*%
%TO.N,Net-(D1-Pad2)*%
X86000000Y-125730000D03*
%TD*%
%TO.P,D2,1,A*%
%TO.N,+5V*%
X86000000Y-84270000D03*
%TO.P,D2,2,K*%
%TO.N,Net-(D2-Pad2)*%
X86000000Y-81730000D03*
%TD*%
D15*
%TO.P,P1,1,P1*%
%TO.N,Net-(P1-Pad1)*%
X94500000Y-126270000D03*
%TO.P,P1,2,PM*%
%TO.N,Net-(P1-Pad2)*%
X94500000Y-123730000D03*
%TD*%
D17*
%TO.P,SW1,1,1*%
%TO.N,+VBAT*%
X122000000Y-84890000D03*
%TO.P,SW1,2,2*%
%TO.N,Net-(P1-Pad1)*%
X120000000Y-84890000D03*
%TO.P,SW1,3,3*%
%TO.N,unconnected-(SW1-Pad3)*%
X118000000Y-84890000D03*
%TD*%
D15*
%TO.P,P3,1,P1*%
%TO.N,Net-(P3-Pad1)*%
X137540000Y-94640400D03*
%TO.P,P3,2,P2*%
%TO.N,+5V*%
X135000000Y-94640400D03*
%TO.P,P3,3,P3*%
%TO.N,GND*%
X132460000Y-94640400D03*
%TD*%
D14*
%TO.P,TP2,1,1*%
%TO.N,SDA*%
X106680000Y-116840000D03*
%TD*%
%TO.P,TP3,1,1*%
%TO.N,SCL*%
X109220000Y-116840000D03*
%TD*%
%TO.P,TP4,1,1*%
%TO.N,+VBAT*%
X104140000Y-116840000D03*
%TD*%
%TO.P,TP5,1,1*%
%TO.N,GND*%
X111760000Y-116840000D03*
%TD*%
D15*
%TO.P,D5,1,DOUT*%
%TO.N,IR_RX*%
X111861600Y-90373200D03*
%TO.P,D5,2,GND*%
%TO.N,GND*%
X111861600Y-92913200D03*
%TO.P,D5,3,VDD*%
%TO.N,+3V3*%
X111861600Y-95453200D03*
%TD*%
D14*
%TO.P,TP6,1,1*%
%TO.N,PPM_SERVO*%
X140309600Y-87020400D03*
%TD*%
%TO.P,TP7,1,1*%
%TO.N,PPM_ESC*%
X137160000Y-107289600D03*
%TD*%
%TO.P,TP8,1,1*%
%TO.N,HL_PWM*%
X116382800Y-108610400D03*
%TD*%
%TO.P,TP9,1,1*%
%TO.N,RL_DAT*%
X140239260Y-109202960D03*
%TD*%
D18*
%TO.P,P5,1,P1*%
%TO.N,GND*%
X150672800Y-111607600D03*
D15*
%TO.P,P5,2,P2*%
%TO.N,U0_TX*%
X153212800Y-111607600D03*
%TO.P,P5,3,P3*%
%TO.N,U0_RX*%
X155752800Y-111607600D03*
%TO.P,P5,4*%
%TO.N,HL_PWM*%
X158292800Y-111607600D03*
%TD*%
D14*
%TO.P,TP11,1,1*%
%TO.N,+3V3*%
X111689200Y-122732800D03*
%TD*%
D15*
%TO.P,P4,1,P1*%
%TO.N,+5V*%
X205183145Y-83769200D03*
%TO.P,P4,2,P2*%
%TO.N,VTX*%
X205183145Y-86309200D03*
%TO.P,P4,3,P3*%
%TO.N,GND*%
X205183145Y-88849200D03*
%TD*%
D14*
%TO.P,TP10,1,1*%
%TO.N,+5V*%
X109169200Y-122732800D03*
%TD*%
D19*
%TO.N,GND*%
X127949260Y-106982960D03*
X91385200Y-105693906D03*
X97670000Y-118500000D03*
D20*
X152857200Y-101600000D03*
D19*
X94650000Y-112500000D03*
X129449260Y-106982960D03*
X128168400Y-98982960D03*
X97670000Y-122360000D03*
X90510000Y-118750000D03*
X120969260Y-103482960D03*
X127949260Y-105482960D03*
X94900000Y-88760000D03*
X150469600Y-96740400D03*
D20*
X145592800Y-87172800D03*
D19*
X90500000Y-88600000D03*
X95403294Y-104443906D03*
X143100000Y-94750000D03*
X124460000Y-110744000D03*
X96400000Y-122360000D03*
X97670000Y-119640000D03*
X120969260Y-106482960D03*
D20*
X145745200Y-100533200D03*
D19*
X129449260Y-105482960D03*
X93385200Y-106993906D03*
X96200000Y-83410000D03*
D20*
X157734000Y-101193600D03*
D19*
X91385200Y-104443906D03*
X123799600Y-101650800D03*
X92885200Y-102883906D03*
X97670000Y-117620000D03*
X97670000Y-121000000D03*
X132849260Y-98356060D03*
X93000000Y-83000000D03*
X95450000Y-116000000D03*
X130668400Y-100982960D03*
X135709260Y-108742960D03*
%TO.N,+5V*%
X95072200Y-83743800D03*
X140050000Y-93250000D03*
%TO.N,HL_PWM*%
X131761150Y-110554850D03*
D20*
%TO.N,+3V3*%
X113080800Y-107238800D03*
X96621600Y-97129600D03*
X113741200Y-112674400D03*
X145542000Y-104546400D03*
D19*
X96469200Y-106172000D03*
X96469200Y-103327200D03*
X132429260Y-107982960D03*
D20*
X171500800Y-97282000D03*
D19*
X124504640Y-106482960D03*
X124619260Y-103482960D03*
X127762000Y-109931200D03*
X128199260Y-102632960D03*
X134199260Y-108742960D03*
%TO.N,+VBAT*%
X102480000Y-119990000D03*
D20*
%TO.N,SDA*%
X109717840Y-109845060D03*
X108815346Y-110518752D03*
%TO.N,SCL*%
X110124240Y-110596460D03*
D19*
%TO.N,IR_RX*%
X125899260Y-109232960D03*
D20*
%TO.N,U0_TX*%
X131165600Y-103073200D03*
%TO.N,U0_RX*%
X131775200Y-102514400D03*
D19*
%TO.N,Net-(R11-Pad2)*%
X90474800Y-113385600D03*
X96095947Y-113395946D03*
%TD*%
D21*
%TO.N,+5V*%
X87180000Y-84270000D02*
X88250000Y-85340000D01*
X88250000Y-85340000D02*
X88250000Y-126020000D01*
X88250000Y-126020000D02*
X86000000Y-128270000D01*
X86000000Y-84270000D02*
X87180000Y-84270000D01*
D22*
%TO.N,HL_PWM*%
X131761150Y-110554850D02*
X125794850Y-110554850D01*
D23*
X134240860Y-113034560D02*
X131761150Y-110554850D01*
D22*
X125794850Y-110554850D02*
X123850400Y-108610400D01*
D23*
X158292800Y-111607600D02*
X156865840Y-113034560D01*
X156865840Y-113034560D02*
X134240860Y-113034560D01*
D22*
X123850400Y-108610400D02*
X116382800Y-108610400D01*
D24*
%TO.N,Net-(P1-Pad1)*%
X100380800Y-122986800D02*
X97097600Y-126270000D01*
D25*
X120000000Y-85702963D02*
X120026400Y-85729363D01*
D24*
X100380800Y-96194550D02*
X100380800Y-122986800D01*
X109655350Y-86920000D02*
X100380800Y-96194550D01*
X120026400Y-85729363D02*
X118835763Y-86920000D01*
D25*
X120000000Y-84890000D02*
X120000000Y-85702963D01*
D24*
X118835763Y-86920000D02*
X109655350Y-86920000D01*
X97097600Y-126270000D02*
X94500000Y-126270000D01*
D21*
%TO.N,+VBAT*%
X104140000Y-119140000D02*
X103290000Y-119990000D01*
X103290000Y-119990000D02*
X102480000Y-119990000D01*
D24*
X127606400Y-84890000D02*
X122298873Y-84890000D01*
D21*
X122000000Y-84890000D02*
X122000000Y-86889600D01*
X111175800Y-88620600D02*
X107899200Y-91897200D01*
D24*
X171542400Y-81541600D02*
X171542400Y-83422800D01*
D21*
X122000000Y-84890000D02*
X127606400Y-84890000D01*
D24*
X170075200Y-84890000D02*
X127606400Y-84890000D01*
D21*
X120269000Y-88620600D02*
X111175800Y-88620600D01*
X107899200Y-113080800D02*
X104140000Y-116840000D01*
X122000000Y-86889600D02*
X120269000Y-88620600D01*
D24*
X171542400Y-83422800D02*
X170075200Y-84890000D01*
D21*
X107899200Y-91897200D02*
X107899200Y-113080800D01*
X104140000Y-116840000D02*
X104140000Y-119140000D01*
D22*
%TO.N,SDA*%
X106680000Y-116840000D02*
X108864400Y-114655600D01*
X108864400Y-110698500D02*
X109717840Y-109845060D01*
X108864400Y-114655600D02*
X108864400Y-110698500D01*
%TO.N,SCL*%
X110124240Y-110596460D02*
X109519940Y-110596460D01*
X109519940Y-110596460D02*
X109220000Y-110896400D01*
X109220000Y-110896400D02*
X109220000Y-116840000D01*
D21*
%TO.N,IR_RX*%
X125831600Y-99263200D02*
X116941600Y-90373200D01*
X125831600Y-109165300D02*
X125831600Y-99263200D01*
X125899260Y-109232960D02*
X125831600Y-109165300D01*
X116941600Y-90373200D02*
X111861600Y-90373200D01*
D22*
%TO.N,U0_TX*%
X153212800Y-109570494D02*
X153212800Y-111607600D01*
X131165600Y-103073200D02*
X146715506Y-103073200D01*
X146715506Y-103073200D02*
X153212800Y-109570494D01*
%TO.N,U0_RX*%
X146659600Y-102514400D02*
X155752800Y-111607600D01*
X131775200Y-102514400D02*
X146659600Y-102514400D01*
%TO.N,Net-(R11-Pad2)*%
X90474800Y-113385600D02*
X96085601Y-113385600D01*
X96085601Y-113385600D02*
X96095947Y-113395946D01*
%TD*%
M02*
