%TF.GenerationSoftware,KiCad,Pcbnew,(6.0.11)*%
%TF.CreationDate,2023-02-13T14:33:55+01:00*%
%TF.ProjectId,carinsitu,63617269-6e73-4697-9475-2e6b69636164,1*%
%TF.SameCoordinates,Original*%
%TF.FileFunction,Copper,L2,Bot*%
%TF.FilePolarity,Positive*%
%FSLAX46Y46*%
G04 Gerber Fmt 4.6, Leading zero omitted, Abs format (unit mm)*
G04 Created by KiCad (PCBNEW (6.0.11)) date 2023-02-13 14:33:55*
%MOMM*%
%LPD*%
G01*
G04 APERTURE LIST*
%TA.AperFunction,ComponentPad*%
%ADD10C,0.800000*%
%TD*%
%TA.AperFunction,ComponentPad*%
%ADD11C,5.000000*%
%TD*%
%TA.AperFunction,ComponentPad*%
%ADD12C,1.524000*%
%TD*%
%TA.AperFunction,ComponentPad*%
%ADD13C,1.800000*%
%TD*%
%TA.AperFunction,ComponentPad*%
%ADD14C,1.500000*%
%TD*%
%TA.AperFunction,ComponentPad*%
%ADD15C,1.700000*%
%TD*%
%TA.AperFunction,ComponentPad*%
%ADD16O,2.000000X1.600000*%
%TD*%
%TA.AperFunction,ComponentPad*%
%ADD17C,2.000000*%
%TD*%
%TA.AperFunction,ComponentPad*%
%ADD18R,1.800000X1.800000*%
%TD*%
%TA.AperFunction,ViaPad*%
%ADD19C,0.600000*%
%TD*%
%TA.AperFunction,Conductor*%
%ADD20C,0.406400*%
%TD*%
%TA.AperFunction,Conductor*%
%ADD21C,0.203200*%
%TD*%
G04 APERTURE END LIST*
D10*
%TO.P,FIX1,1,1*%
%TO.N,GND*%
X103340000Y-99590000D03*
X106160000Y-99590000D03*
X103340000Y-102410000D03*
X104750000Y-99000000D03*
X106750000Y-101000000D03*
X102750000Y-101000000D03*
D11*
X104750000Y-101000000D03*
D10*
X104750000Y-103000000D03*
X106160000Y-102410000D03*
%TD*%
%TO.P,FIX2,1,1*%
%TO.N,GND*%
X106160000Y-107590000D03*
X104750000Y-111000000D03*
X106160000Y-110410000D03*
D11*
X104750000Y-109000000D03*
D10*
X102750000Y-109000000D03*
X103340000Y-107590000D03*
X106750000Y-109000000D03*
X103340000Y-110410000D03*
X104750000Y-107000000D03*
%TD*%
%TO.P,FIX3,1,1*%
%TO.N,GND*%
X176660000Y-106410000D03*
X175250000Y-107000000D03*
X175250000Y-103000000D03*
X173840000Y-106410000D03*
X177250000Y-105000000D03*
D11*
X175250000Y-105000000D03*
D10*
X173840000Y-103590000D03*
X173250000Y-105000000D03*
X176660000Y-103590000D03*
%TD*%
%TO.P,FIX4,1,1*%
%TO.N,GND*%
X185340000Y-99590000D03*
X184750000Y-101000000D03*
X186750000Y-103000000D03*
X185340000Y-102410000D03*
D11*
X186750000Y-101000000D03*
D10*
X188160000Y-102410000D03*
X188750000Y-101000000D03*
X186750000Y-99000000D03*
X188160000Y-99590000D03*
%TD*%
%TO.P,FIX5,1,1*%
%TO.N,GND*%
X186750000Y-107000000D03*
X185340000Y-110410000D03*
X186750000Y-111000000D03*
D11*
X186750000Y-109000000D03*
D10*
X188160000Y-110410000D03*
X185340000Y-107590000D03*
X184750000Y-109000000D03*
X188160000Y-107590000D03*
X188750000Y-109000000D03*
%TD*%
D12*
%TO.P,P2,1,P1*%
%TO.N,Net-(MOD1-Pad3)*%
X146893600Y-89728400D03*
%TO.P,P2,2,PM*%
%TO.N,Net-(MOD1-Pad2)*%
X144393600Y-89728400D03*
%TD*%
D13*
%TO.P,MOD1,1,BAT-*%
%TO.N,GND*%
X151250000Y-84070000D03*
%TO.P,MOD1,2,MOT-*%
%TO.N,Net-(MOD1-Pad2)*%
X154050000Y-84070000D03*
%TO.P,MOD1,3,MOT+*%
%TO.N,Net-(MOD1-Pad3)*%
X156850000Y-84070000D03*
%TO.P,MOD1,4,BAT+*%
%TO.N,+VBAT*%
X159650000Y-84070000D03*
%TO.P,MOD1,5,SW*%
%TO.N,Net-(MOD1-Pad5)*%
X162480000Y-84020000D03*
D14*
%TO.P,MOD1,6,SW*%
X165130000Y-84070000D03*
%TO.P,MOD1,7,GND*%
%TO.N,GND*%
X166980000Y-84070000D03*
%TO.P,MOD1,8,PWR*%
%TO.N,+5V*%
X168830000Y-84070000D03*
%TO.P,MOD1,9,PWM*%
%TO.N,PPM_ESC*%
X170680000Y-84070000D03*
%TD*%
D13*
%TO.P,P1,1,P1*%
%TO.N,Net-(P1-Pad1)*%
X190728600Y-125552200D03*
%TO.P,P1,2,PM*%
%TO.N,GNDD*%
X190728600Y-128092200D03*
%TD*%
D15*
%TO.P,SW1,1,1*%
%TO.N,Net-(P1-Pad1)*%
X195224400Y-124764800D03*
%TO.P,SW1,2,2*%
%TO.N,Net-(F1-Pad1)*%
X197224400Y-124764800D03*
%TO.P,SW1,3,3*%
%TO.N,unconnected-(SW1-Pad3)*%
X199224400Y-124764800D03*
%TD*%
D13*
%TO.P,P3,1,P1*%
%TO.N,Net-(P3-Pad1)*%
X142976600Y-100355400D03*
%TO.P,P3,2,P2*%
%TO.N,+5V*%
X145516600Y-100355400D03*
%TO.P,P3,3,P3*%
%TO.N,GND*%
X148056600Y-100355400D03*
%TD*%
D16*
%TO.P,U1,1,~{RST}*%
%TO.N,Net-(C18-Pad2)*%
X116512200Y-88595200D03*
%TO.P,U1,2,A0*%
%TO.N,Net-(R1-Pad1)*%
X116512200Y-91135200D03*
%TO.P,U1,3,D0*%
%TO.N,Net-(RB4-Pad1)*%
X116512200Y-93675200D03*
%TO.P,U1,4,SCK/D5*%
%TO.N,Net-(RB6-Pad1)*%
X116512200Y-96215200D03*
%TO.P,U1,5,MISO/D6*%
%TO.N,Net-(RB7-Pad1)*%
X116512200Y-98755200D03*
%TO.P,U1,6,MOSI/D7*%
%TO.N,/LOLIN_RX_SWAP*%
X116512200Y-101295200D03*
%TO.P,U1,7,CS/D8*%
%TO.N,/LOLIN_TX_SWAP*%
X116512200Y-103835200D03*
%TO.P,U1,8,3V3*%
%TO.N,+3V3*%
X116512200Y-106375200D03*
%TO.P,U1,9,5V*%
%TO.N,+5V*%
X139372200Y-106375200D03*
%TO.P,U1,10,GND*%
%TO.N,GND*%
X139372200Y-103835200D03*
%TO.P,U1,11,D4*%
%TO.N,Net-(RB3-Pad1)*%
X139372200Y-101295200D03*
%TO.P,U1,12,D3*%
%TO.N,Net-(RB5-Pad1)*%
X139372200Y-98755200D03*
%TO.P,U1,13,SDA/D2*%
%TO.N,SDA*%
X139372200Y-96215200D03*
%TO.P,U1,14,SCL/D1*%
%TO.N,SCL*%
X139372200Y-93675200D03*
%TO.P,U1,15,RX*%
%TO.N,unconnected-(U1-Pad15)*%
X139372200Y-91135200D03*
%TO.P,U1,16,TX*%
%TO.N,unconnected-(U1-Pad16)*%
X139372200Y-88595200D03*
%TD*%
D12*
%TO.P,TP7,1,1*%
%TO.N,PPM_ESC*%
X174010000Y-84230000D03*
%TD*%
%TO.P,TP9,1,1*%
%TO.N,Net-(D4-Pad4)*%
X178189800Y-86081200D03*
%TD*%
D13*
%TO.P,D4,1,DOUT*%
%TO.N,unconnected-(D4-Pad1)*%
X185810200Y-83718400D03*
%TO.P,D4,2,GND*%
%TO.N,GND*%
X183240200Y-83718400D03*
%TO.P,D4,3,VDD*%
%TO.N,+5V*%
X180700200Y-83718400D03*
%TO.P,D4,4,DIN*%
%TO.N,Net-(D4-Pad4)*%
X178130200Y-83718400D03*
%TD*%
D12*
%TO.P,TP11,1,1*%
%TO.N,+3V3*%
X101015800Y-116763800D03*
%TD*%
D17*
%TO.P,F1,1*%
%TO.N,Net-(F1-Pad1)*%
X200319800Y-107181200D03*
%TO.P,F1,2*%
%TO.N,Net-(D3-Pad2)*%
X200329800Y-102101200D03*
%TD*%
D12*
%TO.P,TP5,1,1*%
%TO.N,GND*%
X108635800Y-116763800D03*
%TD*%
%TO.P,TP8,1,1*%
%TO.N,HL_PWM*%
X93980000Y-90982800D03*
%TD*%
D18*
%TO.P,P4,1,P1*%
%TO.N,VTX_TX*%
X165963600Y-110642400D03*
D13*
%TO.P,P4,2,P2*%
%TO.N,VTX_RX*%
X168503600Y-110642400D03*
%TO.P,P4,3,P3*%
%TO.N,GND*%
X171043600Y-110642400D03*
%TO.P,P4,4*%
%TO.N,+VBAT*%
X173583600Y-110642400D03*
%TD*%
D12*
%TO.P,TP1,1,1*%
%TO.N,Net-(U3-Pad12)*%
X180519800Y-95531200D03*
%TD*%
%TO.P,TP10,1,1*%
%TO.N,+5V*%
X99000000Y-82050000D03*
%TD*%
%TO.P,TP13,1,1*%
%TO.N,Net-(TP13-Pad1)*%
X90987600Y-101650800D03*
%TD*%
%TO.P,TP6,1,1*%
%TO.N,Net-(P3-Pad1)*%
X143850000Y-98200000D03*
%TD*%
%TO.P,TP2,1,1*%
%TO.N,SDA*%
X103555800Y-116763800D03*
%TD*%
%TO.P,TP4,1,1*%
%TO.N,+VBAT*%
X180390800Y-111937800D03*
%TD*%
D13*
%TO.P,D5,1,DOUT*%
%TO.N,IR_RX*%
X107848400Y-87833200D03*
%TO.P,D5,2,GND*%
%TO.N,GND*%
X107848400Y-90373200D03*
%TO.P,D5,3,VDD*%
%TO.N,+3V3*%
X107848400Y-92913200D03*
%TD*%
D12*
%TO.P,TP3,1,1*%
%TO.N,SCL*%
X106095800Y-116763800D03*
%TD*%
%TO.P,TP12,1,1*%
%TO.N,Net-(TP12-Pad1)*%
X91530000Y-108430000D03*
%TD*%
D13*
%TO.P,D2,1,A*%
%TO.N,+5V*%
X86004400Y-84277200D03*
%TO.P,D2,2,K*%
%TO.N,Net-(D2-Pad2)*%
X86004400Y-81737200D03*
%TD*%
%TO.P,D1,1,A*%
%TO.N,+5V*%
X86080600Y-128270000D03*
%TO.P,D1,2,K*%
%TO.N,Net-(D1-Pad2)*%
X86080600Y-125730000D03*
%TD*%
D19*
%TO.N,GND*%
X180619800Y-100181200D03*
X146950000Y-103875000D03*
X161819800Y-106581200D03*
X92511600Y-102971600D03*
X156965516Y-109158516D03*
X181619800Y-107181200D03*
X93878400Y-106375200D03*
X133319300Y-102180700D03*
X176469800Y-94181200D03*
X142500000Y-81100000D03*
X132350000Y-106400000D03*
X140800000Y-93175000D03*
X137617200Y-91160600D03*
X178075500Y-107825500D03*
X171590000Y-88030000D03*
X179501800Y-84861400D03*
X96339100Y-102155700D03*
X93065600Y-82804000D03*
X164425000Y-112825000D03*
X144250000Y-103125000D03*
X112823665Y-97513665D03*
X178819800Y-101381200D03*
X143650000Y-105275000D03*
X138878648Y-107795717D03*
X177794300Y-102455700D03*
X141625000Y-110525000D03*
X160525000Y-86350000D03*
X90779600Y-89662000D03*
X158804650Y-86854650D03*
X106349800Y-91998800D03*
X91444800Y-105342006D03*
X167419800Y-106781200D03*
X137617200Y-93649800D03*
X113900000Y-80800000D03*
X155750000Y-81275000D03*
X136328000Y-107139400D03*
X187019800Y-88181200D03*
X159867600Y-104063800D03*
X182338600Y-109000000D03*
X106349800Y-93802200D03*
X87825000Y-128225000D03*
X145625000Y-90675000D03*
X127450000Y-88050000D03*
X136499600Y-105200400D03*
X92100000Y-80600000D03*
%TO.N,+5V*%
X133425000Y-106375000D03*
%TO.N,+VBAT*%
X163969800Y-106031200D03*
X165807762Y-107869162D03*
%TO.N,SDA*%
X96461027Y-107012539D03*
X97104200Y-104089200D03*
X137546300Y-96215200D03*
%TO.N,SCL*%
X97212203Y-106979500D03*
X97104200Y-105669300D03*
%TO.N,GNDD*%
X183319800Y-114081200D03*
X188419800Y-88481200D03*
X201519800Y-128881200D03*
X183519800Y-128981200D03*
X202019800Y-84881200D03*
%TO.N,Net-(U3-Pad12)*%
X176212657Y-95527700D03*
%TD*%
D20*
%TO.N,GND*%
X95523200Y-102971600D02*
X96339100Y-102155700D01*
X87825000Y-128225000D02*
X90850000Y-128225000D01*
X143650000Y-105275000D02*
X146675000Y-105275000D01*
X96215200Y-86106000D02*
X101904800Y-91795600D01*
X180001000Y-109000000D02*
X180901000Y-109000000D01*
X99187000Y-117551200D02*
X100355400Y-118719600D01*
X182919800Y-106281200D02*
X183519800Y-106881200D01*
X170319800Y-106781200D02*
X167419800Y-106781200D01*
X121801000Y-109000000D02*
X124401000Y-106400000D01*
X95523200Y-102971600D02*
X92511600Y-102971600D01*
X106349800Y-91998800D02*
X106349800Y-94208600D01*
X100355400Y-118719600D02*
X103352600Y-118719600D01*
X180651800Y-87089200D02*
X181559800Y-86181200D01*
X97586800Y-103403400D02*
X96339100Y-102155700D01*
X103340000Y-102410000D02*
X102346600Y-103403400D01*
X180619800Y-100181200D02*
X179419800Y-101381200D01*
X179419800Y-101381200D02*
X178819800Y-101381200D01*
X136499600Y-103835200D02*
X136499600Y-101269800D01*
X133319300Y-102180700D02*
X134230200Y-101269800D01*
X146950000Y-101462000D02*
X146950000Y-103875000D01*
X106349800Y-94208600D02*
X109654865Y-97513665D01*
X184631200Y-106881200D02*
X185340000Y-107590000D01*
X172662400Y-112261200D02*
X175988800Y-112261200D01*
X171043600Y-110642400D02*
X172662400Y-112261200D01*
X149707600Y-96792400D02*
X149707600Y-98704400D01*
X92100000Y-80600000D02*
X92100000Y-81838400D01*
X154045000Y-81275000D02*
X151250000Y-84070000D01*
X158804650Y-86854650D02*
X156233700Y-89425600D01*
X134506600Y-88050000D02*
X127450000Y-88050000D01*
D21*
X179247800Y-108991400D02*
X179244600Y-108994600D01*
D20*
X175969800Y-98531200D02*
X178819800Y-101381200D01*
X176469800Y-94181200D02*
X173819800Y-94181200D01*
X90779600Y-89662000D02*
X91236800Y-89662000D01*
X173840000Y-106410000D02*
X173068800Y-107181200D01*
X161495032Y-106256432D02*
X161819800Y-106581200D01*
X165175000Y-85875000D02*
X166980000Y-84070000D01*
X186750000Y-109000000D02*
X183401000Y-109000000D01*
X170719800Y-107181200D02*
X170319800Y-106781200D01*
X101904800Y-91795600D02*
X101904800Y-98154800D01*
X173819800Y-94181200D02*
X171590000Y-91951400D01*
X91444800Y-104038400D02*
X92511600Y-102971600D01*
X168861000Y-112825000D02*
X164425000Y-112825000D01*
X106700000Y-91648600D02*
X106349800Y-91998800D01*
X151250000Y-84070000D02*
X152230000Y-85050000D01*
X183240200Y-83718400D02*
X181869800Y-85088800D01*
X133089400Y-107139400D02*
X132350000Y-106400000D01*
X179501800Y-87089200D02*
X179501800Y-86568200D01*
X137617200Y-91160600D02*
X134506600Y-88050000D01*
X148280000Y-81100000D02*
X151250000Y-84070000D01*
X149175000Y-110525000D02*
X149725000Y-110525000D01*
X109654865Y-97513665D02*
X112823665Y-97513665D01*
X181869800Y-85088800D02*
X181869800Y-85871200D01*
X113900000Y-84321600D02*
X113900000Y-80800000D01*
X124401000Y-106400000D02*
X132350000Y-106400000D01*
X136328000Y-107139400D02*
X133089400Y-107139400D01*
X151400000Y-109150000D02*
X151100000Y-109150000D01*
X160525000Y-86350000D02*
X161079200Y-86904200D01*
X141625000Y-110525000D02*
X149175000Y-110525000D01*
X137617200Y-93649800D02*
X136499600Y-94767400D01*
X92477994Y-106375200D02*
X91444800Y-105342006D01*
X173068800Y-107181200D02*
X170719800Y-107181200D01*
X181869800Y-85871200D02*
X181559800Y-86181200D01*
X93065600Y-82804000D02*
X94792800Y-84531200D01*
X175988800Y-112261200D02*
X179250000Y-109000000D01*
X144250000Y-103125000D02*
X142920400Y-103125000D01*
X146950000Y-103875000D02*
X146950000Y-105000000D01*
X137617200Y-93649800D02*
X137617200Y-91160600D01*
X101904800Y-98154800D02*
X104750000Y-101000000D01*
X171590000Y-88030000D02*
X170940000Y-88030000D01*
X171590000Y-88030000D02*
X178561000Y-88030000D01*
X90850000Y-128225000D02*
X100355400Y-118719600D01*
X173819800Y-96381200D02*
X175969800Y-98531200D01*
X99187000Y-114563000D02*
X101414000Y-112336000D01*
X134230200Y-101269800D02*
X136499600Y-101269800D01*
X136499600Y-94767400D02*
X136499600Y-101269800D01*
X178819800Y-101430200D02*
X177794300Y-102455700D01*
X178819800Y-101381200D02*
X178819800Y-101430200D01*
X107848400Y-90373200D02*
X113900000Y-84321600D01*
X183401000Y-109000000D02*
X182338600Y-109000000D01*
X99187000Y-114563000D02*
X99187000Y-117551200D01*
X102346600Y-103403400D02*
X97586800Y-103403400D01*
X152230000Y-89425600D02*
X149707600Y-91948000D01*
X142920400Y-103125000D02*
X142210200Y-103835200D01*
X146325000Y-91375000D02*
X149134600Y-91375000D01*
X171590000Y-91951400D02*
X171590000Y-88030000D01*
X173819800Y-94181200D02*
X173819800Y-96381200D01*
X187019800Y-87498000D02*
X187019800Y-88181200D01*
X146675000Y-105275000D02*
X146950000Y-105000000D01*
X185340000Y-102410000D02*
X184468800Y-103281200D01*
X181619800Y-108281200D02*
X181619800Y-107181200D01*
X91444800Y-105342006D02*
X91444800Y-104038400D01*
X156965516Y-109158516D02*
X151408516Y-109158516D01*
X178561000Y-88030000D02*
X179501800Y-87089200D01*
X151408516Y-109158516D02*
X151400000Y-109150000D01*
X179250000Y-109000000D02*
X175250000Y-105000000D01*
X107826800Y-90373200D02*
X106700000Y-91500000D01*
X171043600Y-110642400D02*
X168861000Y-112825000D01*
X139372200Y-103835200D02*
X142210200Y-103835200D01*
X182338600Y-109000000D02*
X181619800Y-108281200D01*
X136499600Y-105200400D02*
X133549600Y-105200400D01*
X92100000Y-81838400D02*
X93065600Y-82804000D01*
X93878400Y-106375200D02*
X92477994Y-106375200D01*
X159867600Y-104063800D02*
X159867600Y-106256432D01*
X102346600Y-106596600D02*
X102346600Y-103403400D01*
X139372200Y-103835200D02*
X136499600Y-103835200D01*
X103352600Y-118719600D02*
X105791000Y-118719600D01*
X179501800Y-86568200D02*
X179501800Y-84861400D01*
X170940000Y-88030000D02*
X166980000Y-84070000D01*
X152230000Y-85050000D02*
X152230000Y-89425600D01*
X149707600Y-98704400D02*
X148056600Y-100355400D01*
X155750000Y-81275000D02*
X154045000Y-81275000D01*
X141625000Y-110525000D02*
X141607931Y-110525000D01*
X161079200Y-86904200D02*
X164145800Y-86904200D01*
X149725000Y-110525000D02*
X151100000Y-109150000D01*
X94792800Y-84531200D02*
X94792800Y-86106000D01*
X183240200Y-83718400D02*
X187019800Y-87498000D01*
X106750000Y-109000000D02*
X121801000Y-109000000D01*
X159867600Y-106256432D02*
X156965516Y-109158516D01*
X183519800Y-106881200D02*
X184631200Y-106881200D01*
X142210200Y-103835200D02*
X143650000Y-105275000D01*
X160525000Y-86350000D02*
X159309300Y-86350000D01*
X184468800Y-103281200D02*
X183519800Y-103281200D01*
X180901000Y-109000000D02*
X181619800Y-108281200D01*
X179501800Y-87089200D02*
X180651800Y-87089200D01*
X183519800Y-103281200D02*
X182919800Y-103881200D01*
X145625000Y-90675000D02*
X146325000Y-91375000D01*
X103340000Y-107590000D02*
X102346600Y-106596600D01*
X151100000Y-109150000D02*
X147387500Y-105437500D01*
X146950000Y-101462000D02*
X148056600Y-100355400D01*
X182919800Y-103881200D02*
X182919800Y-106281200D01*
X156233700Y-89425600D02*
X152230000Y-89425600D01*
X105740200Y-91389200D02*
X102311200Y-91389200D01*
X147387500Y-105437500D02*
X146950000Y-105000000D01*
X164145800Y-86904200D02*
X165175000Y-85875000D01*
X159867600Y-106256432D02*
X161495032Y-106256432D01*
X106680000Y-118719600D02*
X108635800Y-116763800D01*
X149707600Y-91948000D02*
X149707600Y-96792400D01*
X136499600Y-105200400D02*
X136499600Y-103835200D01*
X159309300Y-86350000D02*
X158804650Y-86854650D01*
X94792800Y-86106000D02*
X96215200Y-86106000D01*
X145625000Y-90675000D02*
X143125000Y-93175000D01*
X104750000Y-109000000D02*
X101414000Y-112336000D01*
X106700000Y-91500000D02*
X106700000Y-91648600D01*
X102311200Y-91389200D02*
X101904800Y-91795600D01*
X142500000Y-81100000D02*
X148280000Y-81100000D01*
X149134600Y-91375000D02*
X149707600Y-91948000D01*
X91236800Y-89662000D02*
X94792800Y-86106000D01*
X141607931Y-110525000D02*
X138878648Y-107795717D01*
X133549600Y-105200400D02*
X132350000Y-106400000D01*
X106349800Y-91998800D02*
X105740200Y-91389200D01*
X105791000Y-118719600D02*
X106680000Y-118719600D01*
X143125000Y-93175000D02*
X140800000Y-93175000D01*
X177794300Y-102455700D02*
X176660000Y-103590000D01*
X180001000Y-109000000D02*
X179250000Y-109000000D01*
%TO.N,+5V*%
X133425200Y-106375200D02*
X133425000Y-106375000D01*
X139372200Y-106375200D02*
X133425200Y-106375200D01*
%TO.N,+VBAT*%
X165807762Y-107869162D02*
X163969800Y-106031200D01*
D21*
%TO.N,SDA*%
X96461027Y-107012539D02*
X96461027Y-105528998D01*
X97104200Y-104885825D02*
X97104200Y-104089200D01*
X96461027Y-105528998D02*
X97104200Y-104885825D01*
X137546300Y-96215200D02*
X139372200Y-96215200D01*
%TO.N,SCL*%
X97104200Y-106871497D02*
X97212203Y-106979500D01*
X97104200Y-105669300D02*
X97104200Y-106871497D01*
D20*
%TO.N,GNDD*%
X192719800Y-99381200D02*
X202019800Y-90081200D01*
X191917600Y-129281200D02*
X201119800Y-129281200D01*
X190728600Y-128092200D02*
X187019800Y-124383400D01*
X188719800Y-88781200D02*
X188419800Y-88481200D01*
X183519800Y-127883400D02*
X187019800Y-124383400D01*
X192719800Y-110981200D02*
X192719800Y-99381200D01*
X183319800Y-114081200D02*
X184419800Y-114081200D01*
X187019800Y-124383400D02*
X187019800Y-116681200D01*
X188719800Y-95381200D02*
X188719800Y-91781200D01*
X183519800Y-128981200D02*
X183519800Y-127883400D01*
X192719800Y-99381200D02*
X188719800Y-95381200D01*
X190728600Y-128092200D02*
X191917600Y-129281200D01*
X201119800Y-129281200D02*
X201519800Y-128881200D01*
X188719800Y-91781200D02*
X188719800Y-88781200D01*
X184419800Y-114081200D02*
X187019800Y-116681200D01*
X202019800Y-90081200D02*
X202019800Y-84881200D01*
X187019800Y-116681200D02*
X192719800Y-110981200D01*
D21*
%TO.N,Net-(U3-Pad12)*%
X180519800Y-95531200D02*
X176216157Y-95531200D01*
X176216157Y-95531200D02*
X176212657Y-95527700D01*
%TD*%
%TA.AperFunction,Conductor*%
%TO.N,GND*%
G36*
X114442121Y-80220502D02*
G01*
X114488614Y-80274158D01*
X114500000Y-80326500D01*
X114500000Y-86800000D01*
X115000000Y-87300000D01*
X141000000Y-87300000D01*
X141500000Y-86800000D01*
X141500000Y-86067696D01*
X177222737Y-86067696D01*
X177238532Y-86255790D01*
X177290560Y-86437234D01*
X177376840Y-86605117D01*
X177380665Y-86609943D01*
X177380667Y-86609946D01*
X177490256Y-86748214D01*
X177490260Y-86748219D01*
X177494085Y-86753044D01*
X177637830Y-86875380D01*
X177643208Y-86878386D01*
X177643210Y-86878387D01*
X177720215Y-86921423D01*
X177802600Y-86967467D01*
X177982117Y-87025795D01*
X178169545Y-87048145D01*
X178175680Y-87047673D01*
X178175682Y-87047673D01*
X178351603Y-87034137D01*
X178351607Y-87034136D01*
X178357745Y-87033664D01*
X178363677Y-87032008D01*
X178363681Y-87032007D01*
X178533604Y-86984563D01*
X178533608Y-86984562D01*
X178539548Y-86982903D01*
X178632187Y-86936108D01*
X178702528Y-86900577D01*
X178702530Y-86900576D01*
X178708029Y-86897798D01*
X178856770Y-86781588D01*
X178860796Y-86776924D01*
X178860799Y-86776921D01*
X178976078Y-86643369D01*
X178976079Y-86643367D01*
X178980107Y-86638701D01*
X179073342Y-86474578D01*
X179132923Y-86295472D01*
X179156580Y-86108205D01*
X179156957Y-86081200D01*
X179138538Y-85893345D01*
X179083981Y-85712645D01*
X178995366Y-85545983D01*
X178876066Y-85399708D01*
X178870275Y-85394917D01*
X178735377Y-85283320D01*
X178735374Y-85283318D01*
X178730627Y-85279391D01*
X178564588Y-85189614D01*
X178384274Y-85133797D01*
X178378156Y-85133154D01*
X178378151Y-85133153D01*
X178202681Y-85114711D01*
X178202679Y-85114711D01*
X178196552Y-85114067D01*
X178080925Y-85124590D01*
X178014714Y-85130615D01*
X178014713Y-85130615D01*
X178008573Y-85131174D01*
X177827497Y-85184468D01*
X177822032Y-85187325D01*
X177693871Y-85254326D01*
X177660220Y-85271918D01*
X177513116Y-85390193D01*
X177391786Y-85534788D01*
X177388816Y-85540191D01*
X177388815Y-85540192D01*
X177303819Y-85694799D01*
X177300852Y-85700196D01*
X177243778Y-85880117D01*
X177243092Y-85886236D01*
X177243091Y-85886239D01*
X177238274Y-85929183D01*
X177222737Y-86067696D01*
X141500000Y-86067696D01*
X141500000Y-85231406D01*
X150453423Y-85231406D01*
X150458704Y-85238461D01*
X150635080Y-85341527D01*
X150644363Y-85345974D01*
X150851003Y-85424883D01*
X150860901Y-85427759D01*
X151077653Y-85471857D01*
X151087883Y-85473076D01*
X151308914Y-85481182D01*
X151319223Y-85480714D01*
X151538623Y-85452608D01*
X151548688Y-85450468D01*
X151760557Y-85386905D01*
X151770152Y-85383144D01*
X151968778Y-85285838D01*
X151977636Y-85280559D01*
X152035097Y-85239572D01*
X152043497Y-85228874D01*
X152036510Y-85215721D01*
X151262811Y-84442021D01*
X151248868Y-84434408D01*
X151247034Y-84434539D01*
X151240420Y-84438790D01*
X150460180Y-85219031D01*
X150453423Y-85231406D01*
X141500000Y-85231406D01*
X141500000Y-84040638D01*
X149837893Y-84040638D01*
X149850627Y-84261468D01*
X149852061Y-84271670D01*
X149900685Y-84487439D01*
X149903773Y-84497292D01*
X149986986Y-84702220D01*
X149991634Y-84711421D01*
X150080097Y-84855781D01*
X150090553Y-84865242D01*
X150099331Y-84861458D01*
X150877979Y-84082811D01*
X150884356Y-84071132D01*
X151614408Y-84071132D01*
X151614539Y-84072966D01*
X151618790Y-84079580D01*
X152396307Y-84857096D01*
X152408313Y-84863652D01*
X152420052Y-84854684D01*
X152458010Y-84801859D01*
X152463321Y-84793020D01*
X152561318Y-84594737D01*
X152565117Y-84585142D01*
X152629415Y-84373517D01*
X152631594Y-84363436D01*
X152660702Y-84142338D01*
X152661221Y-84135663D01*
X152662744Y-84073364D01*
X152662550Y-84066646D01*
X152660447Y-84041069D01*
X152945164Y-84041069D01*
X152958392Y-84242894D01*
X153008178Y-84438928D01*
X153092856Y-84622607D01*
X153096189Y-84627323D01*
X153197586Y-84770797D01*
X153209588Y-84787780D01*
X153354466Y-84928913D01*
X153359270Y-84932123D01*
X153381716Y-84947121D01*
X153522637Y-85041282D01*
X153527940Y-85043560D01*
X153527943Y-85043562D01*
X153701601Y-85118171D01*
X153708470Y-85121122D01*
X153905740Y-85165760D01*
X153911509Y-85165987D01*
X153911512Y-85165987D01*
X153987683Y-85168979D01*
X154107842Y-85173700D01*
X154199131Y-85160464D01*
X154302286Y-85145508D01*
X154302291Y-85145507D01*
X154308007Y-85144678D01*
X154313479Y-85142820D01*
X154313481Y-85142820D01*
X154494067Y-85081519D01*
X154494069Y-85081518D01*
X154499531Y-85079664D01*
X154640501Y-85000718D01*
X154670964Y-84983658D01*
X154670965Y-84983657D01*
X154676001Y-84980837D01*
X154738433Y-84928913D01*
X154827073Y-84855191D01*
X154831505Y-84851505D01*
X154960837Y-84696001D01*
X154966174Y-84686472D01*
X155018961Y-84592212D01*
X155059664Y-84519531D01*
X155074929Y-84474564D01*
X155122820Y-84333481D01*
X155122820Y-84333479D01*
X155124678Y-84328007D01*
X155125507Y-84322291D01*
X155125508Y-84322286D01*
X155148680Y-84162467D01*
X155153700Y-84127842D01*
X155155215Y-84070000D01*
X155152557Y-84041069D01*
X155745164Y-84041069D01*
X155758392Y-84242894D01*
X155808178Y-84438928D01*
X155892856Y-84622607D01*
X155896189Y-84627323D01*
X155997586Y-84770797D01*
X156009588Y-84787780D01*
X156154466Y-84928913D01*
X156159270Y-84932123D01*
X156181716Y-84947121D01*
X156322637Y-85041282D01*
X156327940Y-85043560D01*
X156327943Y-85043562D01*
X156501601Y-85118171D01*
X156508470Y-85121122D01*
X156705740Y-85165760D01*
X156711509Y-85165987D01*
X156711512Y-85165987D01*
X156787683Y-85168979D01*
X156907842Y-85173700D01*
X156999131Y-85160464D01*
X157102286Y-85145508D01*
X157102291Y-85145507D01*
X157108007Y-85144678D01*
X157113479Y-85142820D01*
X157113481Y-85142820D01*
X157294067Y-85081519D01*
X157294069Y-85081518D01*
X157299531Y-85079664D01*
X157440501Y-85000718D01*
X157470964Y-84983658D01*
X157470965Y-84983657D01*
X157476001Y-84980837D01*
X157538433Y-84928913D01*
X157627073Y-84855191D01*
X157631505Y-84851505D01*
X157760837Y-84696001D01*
X157766174Y-84686472D01*
X157818961Y-84592212D01*
X157859664Y-84519531D01*
X157874929Y-84474564D01*
X157922820Y-84333481D01*
X157922820Y-84333479D01*
X157924678Y-84328007D01*
X157925507Y-84322291D01*
X157925508Y-84322286D01*
X157948680Y-84162467D01*
X157953700Y-84127842D01*
X157955215Y-84070000D01*
X157952557Y-84041069D01*
X158545164Y-84041069D01*
X158558392Y-84242894D01*
X158608178Y-84438928D01*
X158692856Y-84622607D01*
X158696189Y-84627323D01*
X158797586Y-84770797D01*
X158809588Y-84787780D01*
X158954466Y-84928913D01*
X158959270Y-84932123D01*
X158981716Y-84947121D01*
X159122637Y-85041282D01*
X159127940Y-85043560D01*
X159127943Y-85043562D01*
X159301601Y-85118171D01*
X159308470Y-85121122D01*
X159505740Y-85165760D01*
X159511509Y-85165987D01*
X159511512Y-85165987D01*
X159587683Y-85168979D01*
X159707842Y-85173700D01*
X159799131Y-85160464D01*
X159902286Y-85145508D01*
X159902291Y-85145507D01*
X159908007Y-85144678D01*
X159913479Y-85142820D01*
X159913481Y-85142820D01*
X160094067Y-85081519D01*
X160094069Y-85081518D01*
X160099531Y-85079664D01*
X160240501Y-85000718D01*
X160270964Y-84983658D01*
X160270965Y-84983657D01*
X160276001Y-84980837D01*
X160338433Y-84928913D01*
X160427073Y-84855191D01*
X160431505Y-84851505D01*
X160560837Y-84696001D01*
X160566174Y-84686472D01*
X160618961Y-84592212D01*
X160659664Y-84519531D01*
X160674929Y-84474564D01*
X160722820Y-84333481D01*
X160722820Y-84333479D01*
X160724678Y-84328007D01*
X160725507Y-84322291D01*
X160725508Y-84322286D01*
X160748680Y-84162467D01*
X160753700Y-84127842D01*
X160755215Y-84070000D01*
X160747962Y-83991069D01*
X161375164Y-83991069D01*
X161388392Y-84192894D01*
X161409366Y-84275481D01*
X161426870Y-84344401D01*
X161438178Y-84388928D01*
X161522856Y-84572607D01*
X161639588Y-84737780D01*
X161643730Y-84741815D01*
X161690628Y-84787501D01*
X161784466Y-84878913D01*
X161952637Y-84991282D01*
X161957940Y-84993560D01*
X161957943Y-84993562D01*
X162118148Y-85062391D01*
X162138470Y-85071122D01*
X162234361Y-85092820D01*
X162324692Y-85113260D01*
X162335740Y-85115760D01*
X162341509Y-85115987D01*
X162341512Y-85115987D01*
X162414188Y-85118842D01*
X162537842Y-85123700D01*
X162562251Y-85120161D01*
X166294393Y-85120161D01*
X166303687Y-85132175D01*
X166344088Y-85160464D01*
X166353584Y-85165947D01*
X166543113Y-85254326D01*
X166553405Y-85258072D01*
X166755401Y-85312196D01*
X166766196Y-85314099D01*
X166974525Y-85332326D01*
X166985475Y-85332326D01*
X167193804Y-85314099D01*
X167204599Y-85312196D01*
X167406595Y-85258072D01*
X167416887Y-85254326D01*
X167606416Y-85165947D01*
X167615912Y-85160464D01*
X167657148Y-85131590D01*
X167665523Y-85121112D01*
X167658457Y-85107668D01*
X166992811Y-84442021D01*
X166978868Y-84434408D01*
X166977034Y-84434539D01*
X166970420Y-84438790D01*
X166300820Y-85108391D01*
X166294393Y-85120161D01*
X162562251Y-85120161D01*
X162624132Y-85111189D01*
X162732286Y-85095508D01*
X162732291Y-85095507D01*
X162738007Y-85094678D01*
X162743479Y-85092820D01*
X162743481Y-85092820D01*
X162924067Y-85031519D01*
X162924069Y-85031518D01*
X162929531Y-85029664D01*
X163076924Y-84947121D01*
X163100964Y-84933658D01*
X163100965Y-84933657D01*
X163106001Y-84930837D01*
X163113164Y-84924880D01*
X163257073Y-84805191D01*
X163261505Y-84801505D01*
X163357177Y-84686472D01*
X163387146Y-84650439D01*
X163390837Y-84646001D01*
X163398646Y-84632058D01*
X163470259Y-84504181D01*
X163489664Y-84469531D01*
X163493418Y-84458474D01*
X163552820Y-84283481D01*
X163552820Y-84283479D01*
X163554678Y-84278007D01*
X163555507Y-84272291D01*
X163555508Y-84272286D01*
X163574349Y-84142338D01*
X163583700Y-84077842D01*
X163584255Y-84056665D01*
X164174994Y-84056665D01*
X164178057Y-84093145D01*
X164189848Y-84233550D01*
X164190592Y-84242414D01*
X164192291Y-84248339D01*
X164238794Y-84410515D01*
X164241971Y-84421595D01*
X164253653Y-84444326D01*
X164316887Y-84567364D01*
X164327176Y-84587385D01*
X164442959Y-84733468D01*
X164447652Y-84737462D01*
X164447653Y-84737463D01*
X164448688Y-84738344D01*
X164584912Y-84854279D01*
X164590290Y-84857285D01*
X164590292Y-84857286D01*
X164629494Y-84879195D01*
X164747627Y-84945217D01*
X164924907Y-85002819D01*
X165109998Y-85024890D01*
X165116133Y-85024418D01*
X165116135Y-85024418D01*
X165289710Y-85011062D01*
X165289715Y-85011061D01*
X165295851Y-85010589D01*
X165301781Y-85008933D01*
X165301783Y-85008933D01*
X165415631Y-84977146D01*
X165475387Y-84960462D01*
X165641768Y-84876417D01*
X165784988Y-84764521D01*
X165850980Y-84738344D01*
X165920650Y-84752001D01*
X165927326Y-84756344D01*
X165942334Y-84748455D01*
X166607979Y-84082811D01*
X166614356Y-84071132D01*
X167344408Y-84071132D01*
X167344539Y-84072966D01*
X167348790Y-84079580D01*
X168018391Y-84749180D01*
X168032329Y-84756791D01*
X168035753Y-84756546D01*
X168088107Y-84736066D01*
X168157712Y-84750055D01*
X168180752Y-84765633D01*
X168276445Y-84847073D01*
X168284912Y-84854279D01*
X168290290Y-84857285D01*
X168290292Y-84857286D01*
X168329494Y-84879195D01*
X168447627Y-84945217D01*
X168624907Y-85002819D01*
X168809998Y-85024890D01*
X168816133Y-85024418D01*
X168816135Y-85024418D01*
X168989710Y-85011062D01*
X168989715Y-85011061D01*
X168995851Y-85010589D01*
X169001781Y-85008933D01*
X169001783Y-85008933D01*
X169115631Y-84977146D01*
X169175387Y-84960462D01*
X169341768Y-84876417D01*
X169356072Y-84865242D01*
X169483794Y-84765454D01*
X169483795Y-84765453D01*
X169488655Y-84761656D01*
X169610454Y-84620550D01*
X169626552Y-84592212D01*
X169644334Y-84560911D01*
X169695373Y-84511560D01*
X169764992Y-84497638D01*
X169831085Y-84523564D01*
X169865955Y-84565552D01*
X169877176Y-84587385D01*
X169992959Y-84733468D01*
X169997652Y-84737462D01*
X169997653Y-84737463D01*
X169998688Y-84738344D01*
X170134912Y-84854279D01*
X170140290Y-84857285D01*
X170140292Y-84857286D01*
X170179494Y-84879195D01*
X170297627Y-84945217D01*
X170474907Y-85002819D01*
X170659998Y-85024890D01*
X170666133Y-85024418D01*
X170666135Y-85024418D01*
X170839710Y-85011062D01*
X170839715Y-85011061D01*
X170845851Y-85010589D01*
X170851781Y-85008933D01*
X170851783Y-85008933D01*
X170965631Y-84977146D01*
X171025387Y-84960462D01*
X171191768Y-84876417D01*
X171206072Y-84865242D01*
X171333794Y-84765454D01*
X171333795Y-84765453D01*
X171338655Y-84761656D01*
X171460454Y-84620550D01*
X171552526Y-84458474D01*
X171611364Y-84281601D01*
X171619589Y-84216496D01*
X173042937Y-84216496D01*
X173047074Y-84265764D01*
X173056123Y-84373517D01*
X173058732Y-84404590D01*
X173060431Y-84410515D01*
X173096186Y-84535207D01*
X173110760Y-84586034D01*
X173126944Y-84617525D01*
X173189037Y-84738344D01*
X173197040Y-84753917D01*
X173200865Y-84758743D01*
X173200867Y-84758746D01*
X173310456Y-84897014D01*
X173310460Y-84897019D01*
X173314285Y-84901844D01*
X173458030Y-85024180D01*
X173463408Y-85027186D01*
X173463410Y-85027187D01*
X173511875Y-85054273D01*
X173622800Y-85116267D01*
X173802317Y-85174595D01*
X173989745Y-85196945D01*
X173995880Y-85196473D01*
X173995882Y-85196473D01*
X174171803Y-85182937D01*
X174171807Y-85182936D01*
X174177945Y-85182464D01*
X174183877Y-85180808D01*
X174183881Y-85180807D01*
X174353804Y-85133363D01*
X174353808Y-85133362D01*
X174359748Y-85131703D01*
X174439297Y-85091520D01*
X174522728Y-85049377D01*
X174522730Y-85049376D01*
X174528229Y-85046598D01*
X174676970Y-84930388D01*
X174680996Y-84925724D01*
X174680999Y-84925721D01*
X174720632Y-84879806D01*
X182443623Y-84879806D01*
X182448904Y-84886861D01*
X182625280Y-84989927D01*
X182634563Y-84994374D01*
X182841203Y-85073283D01*
X182851101Y-85076159D01*
X183067853Y-85120257D01*
X183078083Y-85121476D01*
X183299114Y-85129582D01*
X183309423Y-85129114D01*
X183528823Y-85101008D01*
X183538888Y-85098868D01*
X183750757Y-85035305D01*
X183760352Y-85031544D01*
X183958978Y-84934238D01*
X183967836Y-84928959D01*
X184025297Y-84887972D01*
X184033697Y-84877274D01*
X184026710Y-84864121D01*
X183253011Y-84090421D01*
X183239068Y-84082808D01*
X183237234Y-84082939D01*
X183230620Y-84087190D01*
X182450380Y-84867431D01*
X182443623Y-84879806D01*
X174720632Y-84879806D01*
X174796278Y-84792169D01*
X174796279Y-84792167D01*
X174800307Y-84787501D01*
X174893542Y-84623378D01*
X174953123Y-84444272D01*
X174976780Y-84257005D01*
X174977157Y-84230000D01*
X174958738Y-84042145D01*
X174904181Y-83861445D01*
X174815566Y-83694783D01*
X174811232Y-83689469D01*
X177025364Y-83689469D01*
X177038592Y-83891294D01*
X177040015Y-83896896D01*
X177084832Y-84073364D01*
X177088378Y-84087328D01*
X177173056Y-84271007D01*
X177180543Y-84281601D01*
X177275292Y-84415668D01*
X177289788Y-84436180D01*
X177293930Y-84440215D01*
X177342407Y-84487439D01*
X177434666Y-84577313D01*
X177602837Y-84689682D01*
X177608140Y-84691960D01*
X177608143Y-84691962D01*
X177759501Y-84756990D01*
X177788670Y-84769522D01*
X177985940Y-84814160D01*
X177991709Y-84814387D01*
X177991712Y-84814387D01*
X178067883Y-84817379D01*
X178188042Y-84822100D01*
X178274332Y-84809589D01*
X178382486Y-84793908D01*
X178382491Y-84793907D01*
X178388207Y-84793078D01*
X178393679Y-84791220D01*
X178393681Y-84791220D01*
X178574267Y-84729919D01*
X178574269Y-84729918D01*
X178579731Y-84728064D01*
X178726040Y-84646128D01*
X178751164Y-84632058D01*
X178751165Y-84632057D01*
X178756201Y-84629237D01*
X178800719Y-84592212D01*
X178907273Y-84503591D01*
X178911705Y-84499905D01*
X179041037Y-84344401D01*
X179047153Y-84333481D01*
X179072929Y-84287453D01*
X179139864Y-84167931D01*
X179146959Y-84147032D01*
X179203020Y-83981881D01*
X179203020Y-83981879D01*
X179204878Y-83976407D01*
X179205707Y-83970691D01*
X179205708Y-83970686D01*
X179227760Y-83818591D01*
X179233900Y-83776242D01*
X179235415Y-83718400D01*
X179232757Y-83689469D01*
X179595364Y-83689469D01*
X179608592Y-83891294D01*
X179610015Y-83896896D01*
X179654832Y-84073364D01*
X179658378Y-84087328D01*
X179743056Y-84271007D01*
X179750543Y-84281601D01*
X179845292Y-84415668D01*
X179859788Y-84436180D01*
X179863930Y-84440215D01*
X179912407Y-84487439D01*
X180004666Y-84577313D01*
X180172837Y-84689682D01*
X180178140Y-84691960D01*
X180178143Y-84691962D01*
X180329501Y-84756990D01*
X180358670Y-84769522D01*
X180555940Y-84814160D01*
X180561709Y-84814387D01*
X180561712Y-84814387D01*
X180637883Y-84817379D01*
X180758042Y-84822100D01*
X180844332Y-84809589D01*
X180952486Y-84793908D01*
X180952491Y-84793907D01*
X180958207Y-84793078D01*
X180963679Y-84791220D01*
X180963681Y-84791220D01*
X181144267Y-84729919D01*
X181144269Y-84729918D01*
X181149731Y-84728064D01*
X181296040Y-84646128D01*
X181321164Y-84632058D01*
X181321165Y-84632057D01*
X181326201Y-84629237D01*
X181370719Y-84592212D01*
X181477273Y-84503591D01*
X181481705Y-84499905D01*
X181611037Y-84344401D01*
X181617153Y-84333481D01*
X181679226Y-84222639D01*
X181693756Y-84196694D01*
X181744493Y-84147032D01*
X181814025Y-84132684D01*
X181880275Y-84158206D01*
X181920433Y-84210855D01*
X181977186Y-84350620D01*
X181981834Y-84359821D01*
X182070297Y-84504181D01*
X182080753Y-84513642D01*
X182089531Y-84509858D01*
X182868179Y-83731211D01*
X182874556Y-83719532D01*
X183604608Y-83719532D01*
X183604739Y-83721366D01*
X183608990Y-83727980D01*
X184386507Y-84505496D01*
X184398513Y-84512052D01*
X184410252Y-84503084D01*
X184448210Y-84450259D01*
X184453521Y-84441420D01*
X184551518Y-84243137D01*
X184555314Y-84233550D01*
X184570431Y-84183794D01*
X184609373Y-84124429D01*
X184674227Y-84095542D01*
X184744403Y-84106303D01*
X184797621Y-84153296D01*
X184805416Y-84167670D01*
X184825102Y-84210371D01*
X184853056Y-84271007D01*
X184860543Y-84281601D01*
X184955292Y-84415668D01*
X184969788Y-84436180D01*
X184973930Y-84440215D01*
X185022407Y-84487439D01*
X185114666Y-84577313D01*
X185282837Y-84689682D01*
X185288140Y-84691960D01*
X185288143Y-84691962D01*
X185439501Y-84756990D01*
X185468670Y-84769522D01*
X185665940Y-84814160D01*
X185671709Y-84814387D01*
X185671712Y-84814387D01*
X185747883Y-84817379D01*
X185868042Y-84822100D01*
X185954332Y-84809589D01*
X186062486Y-84793908D01*
X186062491Y-84793907D01*
X186068207Y-84793078D01*
X186073679Y-84791220D01*
X186073681Y-84791220D01*
X186254267Y-84729919D01*
X186254269Y-84729918D01*
X186259731Y-84728064D01*
X186406040Y-84646128D01*
X186431164Y-84632058D01*
X186431165Y-84632057D01*
X186436201Y-84629237D01*
X186480719Y-84592212D01*
X186587273Y-84503591D01*
X186591705Y-84499905D01*
X186721037Y-84344401D01*
X186727153Y-84333481D01*
X186752929Y-84287453D01*
X186819864Y-84167931D01*
X186826959Y-84147032D01*
X186883020Y-83981881D01*
X186883020Y-83981879D01*
X186884878Y-83976407D01*
X186885707Y-83970691D01*
X186885708Y-83970686D01*
X186907760Y-83818591D01*
X186913900Y-83776242D01*
X186915415Y-83718400D01*
X186896908Y-83516991D01*
X186890009Y-83492527D01*
X186858303Y-83380108D01*
X186842007Y-83322326D01*
X186752551Y-83140927D01*
X186744147Y-83129672D01*
X186634988Y-82983491D01*
X186634987Y-82983490D01*
X186631535Y-82978867D01*
X186627299Y-82974951D01*
X186487253Y-82845494D01*
X186487251Y-82845492D01*
X186483012Y-82841574D01*
X186478129Y-82838493D01*
X186316837Y-82736725D01*
X186311957Y-82733646D01*
X186124098Y-82658698D01*
X185925726Y-82619239D01*
X185919952Y-82619163D01*
X185919948Y-82619163D01*
X185817457Y-82617822D01*
X185723486Y-82616592D01*
X185717789Y-82617571D01*
X185717788Y-82617571D01*
X185529846Y-82649865D01*
X185529845Y-82649865D01*
X185524149Y-82650844D01*
X185334393Y-82720849D01*
X185329432Y-82723801D01*
X185329431Y-82723801D01*
X185179992Y-82812708D01*
X185160571Y-82824262D01*
X185008505Y-82957620D01*
X184883289Y-83116457D01*
X184880600Y-83121568D01*
X184880598Y-83121571D01*
X184803350Y-83268395D01*
X184753931Y-83319368D01*
X184684798Y-83335531D01*
X184617902Y-83311752D01*
X184576293Y-83259971D01*
X184487393Y-83055518D01*
X184482515Y-83046420D01*
X184409424Y-82933438D01*
X184398738Y-82924235D01*
X184389173Y-82928638D01*
X183612221Y-83705589D01*
X183604608Y-83719532D01*
X182874556Y-83719532D01*
X182875792Y-83717268D01*
X182875661Y-83715434D01*
X182871410Y-83708820D01*
X182094062Y-82931473D01*
X182082530Y-82925176D01*
X182070248Y-82934799D01*
X182014667Y-83016277D01*
X182009579Y-83025233D01*
X181914802Y-83229414D01*
X181867978Y-83282781D01*
X181799734Y-83302362D01*
X181731739Y-83281938D01*
X181687509Y-83232093D01*
X181658322Y-83172908D01*
X181645106Y-83146107D01*
X181645103Y-83146103D01*
X181642551Y-83140927D01*
X181634147Y-83129672D01*
X181524988Y-82983491D01*
X181524987Y-82983490D01*
X181521535Y-82978867D01*
X181517299Y-82974951D01*
X181377253Y-82845494D01*
X181377251Y-82845492D01*
X181373012Y-82841574D01*
X181368129Y-82838493D01*
X181206837Y-82736725D01*
X181201957Y-82733646D01*
X181014098Y-82658698D01*
X180815726Y-82619239D01*
X180809952Y-82619163D01*
X180809948Y-82619163D01*
X180707457Y-82617822D01*
X180613486Y-82616592D01*
X180607789Y-82617571D01*
X180607788Y-82617571D01*
X180419846Y-82649865D01*
X180419845Y-82649865D01*
X180414149Y-82650844D01*
X180224393Y-82720849D01*
X180219432Y-82723801D01*
X180219431Y-82723801D01*
X180069992Y-82812708D01*
X180050571Y-82824262D01*
X179898505Y-82957620D01*
X179773289Y-83116457D01*
X179679114Y-83295453D01*
X179619137Y-83488613D01*
X179595364Y-83689469D01*
X179232757Y-83689469D01*
X179216908Y-83516991D01*
X179210009Y-83492527D01*
X179178303Y-83380108D01*
X179162007Y-83322326D01*
X179072551Y-83140927D01*
X179064147Y-83129672D01*
X178954988Y-82983491D01*
X178954987Y-82983490D01*
X178951535Y-82978867D01*
X178947299Y-82974951D01*
X178807253Y-82845494D01*
X178807251Y-82845492D01*
X178803012Y-82841574D01*
X178798129Y-82838493D01*
X178636837Y-82736725D01*
X178631957Y-82733646D01*
X178444098Y-82658698D01*
X178245726Y-82619239D01*
X178239952Y-82619163D01*
X178239948Y-82619163D01*
X178137457Y-82617822D01*
X178043486Y-82616592D01*
X178037789Y-82617571D01*
X178037788Y-82617571D01*
X177849846Y-82649865D01*
X177849845Y-82649865D01*
X177844149Y-82650844D01*
X177654393Y-82720849D01*
X177649432Y-82723801D01*
X177649431Y-82723801D01*
X177499992Y-82812708D01*
X177480571Y-82824262D01*
X177328505Y-82957620D01*
X177203289Y-83116457D01*
X177109114Y-83295453D01*
X177049137Y-83488613D01*
X177025364Y-83689469D01*
X174811232Y-83689469D01*
X174803809Y-83680367D01*
X174700161Y-83553284D01*
X174696266Y-83548508D01*
X174687742Y-83541456D01*
X174555577Y-83432120D01*
X174555574Y-83432118D01*
X174550827Y-83428191D01*
X174384788Y-83338414D01*
X174204474Y-83282597D01*
X174198356Y-83281954D01*
X174198351Y-83281953D01*
X174022881Y-83263511D01*
X174022879Y-83263511D01*
X174016752Y-83262867D01*
X173901125Y-83273390D01*
X173834914Y-83279415D01*
X173834913Y-83279415D01*
X173828773Y-83279974D01*
X173647697Y-83333268D01*
X173642232Y-83336125D01*
X173494187Y-83413521D01*
X173480420Y-83420718D01*
X173333316Y-83538993D01*
X173211986Y-83683588D01*
X173209016Y-83688991D01*
X173209015Y-83688992D01*
X173124019Y-83843599D01*
X173121052Y-83848996D01*
X173063978Y-84028917D01*
X173063292Y-84035036D01*
X173063291Y-84035039D01*
X173047820Y-84172964D01*
X173042937Y-84216496D01*
X171619589Y-84216496D01*
X171621863Y-84198496D01*
X171634285Y-84100170D01*
X171634286Y-84100163D01*
X171634727Y-84096668D01*
X171635099Y-84070000D01*
X171616909Y-83884487D01*
X171615128Y-83878588D01*
X171615127Y-83878583D01*
X171564814Y-83711939D01*
X171563033Y-83706040D01*
X171511943Y-83609953D01*
X171478416Y-83546898D01*
X171478413Y-83546894D01*
X171475522Y-83541456D01*
X171471632Y-83536686D01*
X171471629Y-83536682D01*
X171361605Y-83401780D01*
X171361602Y-83401777D01*
X171357710Y-83397005D01*
X171352056Y-83392327D01*
X171283401Y-83335531D01*
X171214085Y-83278187D01*
X171050116Y-83189529D01*
X170961083Y-83161969D01*
X170877936Y-83136231D01*
X170877933Y-83136230D01*
X170872049Y-83134409D01*
X170865924Y-83133765D01*
X170865923Y-83133765D01*
X170692796Y-83115568D01*
X170692795Y-83115568D01*
X170686668Y-83114924D01*
X170613673Y-83121567D01*
X170507171Y-83131259D01*
X170507168Y-83131260D01*
X170501032Y-83131818D01*
X170495122Y-83133557D01*
X170495119Y-83133558D01*
X170343989Y-83178039D01*
X170322214Y-83184448D01*
X170157023Y-83270807D01*
X170152223Y-83274667D01*
X170152222Y-83274667D01*
X170126370Y-83295453D01*
X170011752Y-83387608D01*
X169891935Y-83530401D01*
X169888969Y-83535797D01*
X169888966Y-83535801D01*
X169865782Y-83577973D01*
X169815437Y-83628032D01*
X169746020Y-83642926D01*
X169679571Y-83617926D01*
X169644116Y-83576427D01*
X169631811Y-83553284D01*
X169625522Y-83541456D01*
X169621632Y-83536686D01*
X169621629Y-83536682D01*
X169511605Y-83401780D01*
X169511602Y-83401777D01*
X169507710Y-83397005D01*
X169502056Y-83392327D01*
X169433401Y-83335531D01*
X169364085Y-83278187D01*
X169200116Y-83189529D01*
X169111083Y-83161969D01*
X169027936Y-83136231D01*
X169027933Y-83136230D01*
X169022049Y-83134409D01*
X169015924Y-83133765D01*
X169015923Y-83133765D01*
X168842796Y-83115568D01*
X168842795Y-83115568D01*
X168836668Y-83114924D01*
X168763673Y-83121567D01*
X168657171Y-83131259D01*
X168657168Y-83131260D01*
X168651032Y-83131818D01*
X168645122Y-83133557D01*
X168645119Y-83133558D01*
X168493989Y-83178039D01*
X168472214Y-83184448D01*
X168307023Y-83270807D01*
X168302227Y-83274663D01*
X168302215Y-83274671D01*
X168177298Y-83375108D01*
X168111676Y-83402205D01*
X168041821Y-83389522D01*
X168032669Y-83383659D01*
X168017666Y-83391545D01*
X167352021Y-84057189D01*
X167344408Y-84071132D01*
X166614356Y-84071132D01*
X166615592Y-84068868D01*
X166615461Y-84067034D01*
X166611210Y-84060420D01*
X165941609Y-83390820D01*
X165927671Y-83383209D01*
X165923558Y-83383504D01*
X165872471Y-83403487D01*
X165802866Y-83389499D01*
X165781172Y-83375051D01*
X165772501Y-83367877D01*
X165664085Y-83278187D01*
X165500116Y-83189529D01*
X165411083Y-83161969D01*
X165327936Y-83136231D01*
X165327933Y-83136230D01*
X165322049Y-83134409D01*
X165315924Y-83133765D01*
X165315923Y-83133765D01*
X165142796Y-83115568D01*
X165142795Y-83115568D01*
X165136668Y-83114924D01*
X165063673Y-83121567D01*
X164957171Y-83131259D01*
X164957168Y-83131260D01*
X164951032Y-83131818D01*
X164945122Y-83133557D01*
X164945119Y-83133558D01*
X164793989Y-83178039D01*
X164772214Y-83184448D01*
X164607023Y-83270807D01*
X164602223Y-83274667D01*
X164602222Y-83274667D01*
X164576370Y-83295453D01*
X164461752Y-83387608D01*
X164341935Y-83530401D01*
X164338971Y-83535793D01*
X164338968Y-83535797D01*
X164293368Y-83618743D01*
X164252135Y-83693746D01*
X164250274Y-83699613D01*
X164250273Y-83699615D01*
X164198436Y-83863027D01*
X164195772Y-83871424D01*
X164174994Y-84056665D01*
X163584255Y-84056665D01*
X163585215Y-84020000D01*
X163566708Y-83818591D01*
X163554765Y-83776242D01*
X163529977Y-83688351D01*
X163511807Y-83623926D01*
X163422351Y-83442527D01*
X163406066Y-83420718D01*
X163356141Y-83353861D01*
X163301335Y-83280467D01*
X163288276Y-83268395D01*
X163157053Y-83147094D01*
X163157051Y-83147092D01*
X163152812Y-83143174D01*
X163125374Y-83125862D01*
X162986637Y-83038325D01*
X162981757Y-83035246D01*
X162940753Y-83018887D01*
X166294477Y-83018887D01*
X166301545Y-83032334D01*
X166967189Y-83697979D01*
X166981132Y-83705592D01*
X166982966Y-83705461D01*
X166989580Y-83701210D01*
X167659180Y-83031609D01*
X167665607Y-83019839D01*
X167656313Y-83007825D01*
X167615912Y-82979536D01*
X167606416Y-82974053D01*
X167416887Y-82885674D01*
X167406595Y-82881928D01*
X167204599Y-82827804D01*
X167193804Y-82825901D01*
X166985475Y-82807674D01*
X166974525Y-82807674D01*
X166766196Y-82825901D01*
X166755401Y-82827804D01*
X166553405Y-82881928D01*
X166543113Y-82885674D01*
X166353583Y-82974054D01*
X166344093Y-82979534D01*
X166302851Y-83008411D01*
X166294477Y-83018887D01*
X162940753Y-83018887D01*
X162793898Y-82960298D01*
X162595526Y-82920839D01*
X162589752Y-82920763D01*
X162589748Y-82920763D01*
X162487257Y-82919422D01*
X162393286Y-82918192D01*
X162387589Y-82919171D01*
X162387588Y-82919171D01*
X162199646Y-82951465D01*
X162199645Y-82951465D01*
X162193949Y-82952444D01*
X162004193Y-83022449D01*
X161999232Y-83025401D01*
X161999231Y-83025401D01*
X161837584Y-83121571D01*
X161830371Y-83125862D01*
X161678305Y-83259220D01*
X161553089Y-83418057D01*
X161458914Y-83597053D01*
X161398937Y-83790213D01*
X161375164Y-83991069D01*
X160747962Y-83991069D01*
X160736708Y-83868591D01*
X160731222Y-83849137D01*
X160697052Y-83727980D01*
X160681807Y-83673926D01*
X160592351Y-83492527D01*
X160574079Y-83468057D01*
X160474788Y-83335091D01*
X160474787Y-83335090D01*
X160471335Y-83330467D01*
X160453264Y-83313762D01*
X160327053Y-83197094D01*
X160327051Y-83197092D01*
X160322812Y-83193174D01*
X160294629Y-83175392D01*
X160156637Y-83088325D01*
X160151757Y-83085246D01*
X159963898Y-83010298D01*
X159765526Y-82970839D01*
X159759752Y-82970763D01*
X159759748Y-82970763D01*
X159657257Y-82969422D01*
X159563286Y-82968192D01*
X159557589Y-82969171D01*
X159557588Y-82969171D01*
X159369646Y-83001465D01*
X159369645Y-83001465D01*
X159363949Y-83002444D01*
X159174193Y-83072449D01*
X159169232Y-83075401D01*
X159169231Y-83075401D01*
X159059092Y-83140927D01*
X159000371Y-83175862D01*
X158848305Y-83309220D01*
X158723089Y-83468057D01*
X158628914Y-83647053D01*
X158568937Y-83840213D01*
X158545164Y-84041069D01*
X157952557Y-84041069D01*
X157936708Y-83868591D01*
X157931222Y-83849137D01*
X157897052Y-83727980D01*
X157881807Y-83673926D01*
X157792351Y-83492527D01*
X157774079Y-83468057D01*
X157674788Y-83335091D01*
X157674787Y-83335090D01*
X157671335Y-83330467D01*
X157653264Y-83313762D01*
X157527053Y-83197094D01*
X157527051Y-83197092D01*
X157522812Y-83193174D01*
X157494629Y-83175392D01*
X157356637Y-83088325D01*
X157351757Y-83085246D01*
X157163898Y-83010298D01*
X156965526Y-82970839D01*
X156959752Y-82970763D01*
X156959748Y-82970763D01*
X156857257Y-82969422D01*
X156763286Y-82968192D01*
X156757589Y-82969171D01*
X156757588Y-82969171D01*
X156569646Y-83001465D01*
X156569645Y-83001465D01*
X156563949Y-83002444D01*
X156374193Y-83072449D01*
X156369232Y-83075401D01*
X156369231Y-83075401D01*
X156259092Y-83140927D01*
X156200371Y-83175862D01*
X156048305Y-83309220D01*
X155923089Y-83468057D01*
X155828914Y-83647053D01*
X155768937Y-83840213D01*
X155745164Y-84041069D01*
X155152557Y-84041069D01*
X155136708Y-83868591D01*
X155131222Y-83849137D01*
X155097052Y-83727980D01*
X155081807Y-83673926D01*
X154992351Y-83492527D01*
X154974079Y-83468057D01*
X154874788Y-83335091D01*
X154874787Y-83335090D01*
X154871335Y-83330467D01*
X154853264Y-83313762D01*
X154727053Y-83197094D01*
X154727051Y-83197092D01*
X154722812Y-83193174D01*
X154694629Y-83175392D01*
X154556637Y-83088325D01*
X154551757Y-83085246D01*
X154363898Y-83010298D01*
X154165526Y-82970839D01*
X154159752Y-82970763D01*
X154159748Y-82970763D01*
X154057257Y-82969422D01*
X153963286Y-82968192D01*
X153957589Y-82969171D01*
X153957588Y-82969171D01*
X153769646Y-83001465D01*
X153769645Y-83001465D01*
X153763949Y-83002444D01*
X153574193Y-83072449D01*
X153569232Y-83075401D01*
X153569231Y-83075401D01*
X153459092Y-83140927D01*
X153400371Y-83175862D01*
X153248305Y-83309220D01*
X153123089Y-83468057D01*
X153028914Y-83647053D01*
X152968937Y-83840213D01*
X152945164Y-84041069D01*
X152660447Y-84041069D01*
X152644279Y-83844400D01*
X152642596Y-83834238D01*
X152588710Y-83619708D01*
X152585389Y-83609953D01*
X152497193Y-83407118D01*
X152492315Y-83398020D01*
X152419224Y-83285038D01*
X152408538Y-83275835D01*
X152398973Y-83280238D01*
X151622021Y-84057189D01*
X151614408Y-84071132D01*
X150884356Y-84071132D01*
X150885592Y-84068868D01*
X150885461Y-84067034D01*
X150881210Y-84060420D01*
X150103862Y-83283073D01*
X150092330Y-83276776D01*
X150080048Y-83286399D01*
X150024467Y-83367877D01*
X150019379Y-83376833D01*
X149926252Y-83577459D01*
X149922689Y-83587146D01*
X149863581Y-83800280D01*
X149861650Y-83810400D01*
X149838145Y-84030349D01*
X149837893Y-84040638D01*
X141500000Y-84040638D01*
X141500000Y-82910711D01*
X150455508Y-82910711D01*
X150462251Y-82923040D01*
X151237189Y-83697979D01*
X151251132Y-83705592D01*
X151252966Y-83705461D01*
X151259580Y-83701210D01*
X152038994Y-82921795D01*
X152046011Y-82908944D01*
X152038237Y-82898274D01*
X152035902Y-82896430D01*
X152027320Y-82890729D01*
X151833678Y-82783833D01*
X151824272Y-82779606D01*
X151615772Y-82705772D01*
X151605809Y-82703140D01*
X151388047Y-82664350D01*
X151377796Y-82663381D01*
X151156616Y-82660679D01*
X151146332Y-82661399D01*
X150927693Y-82694855D01*
X150917666Y-82697244D01*
X150707426Y-82765961D01*
X150697916Y-82769958D01*
X150501725Y-82872089D01*
X150493007Y-82877578D01*
X150463961Y-82899386D01*
X150455508Y-82910711D01*
X141500000Y-82910711D01*
X141500000Y-82559111D01*
X182445708Y-82559111D01*
X182452451Y-82571440D01*
X183227389Y-83346379D01*
X183241332Y-83353992D01*
X183243166Y-83353861D01*
X183249780Y-83349610D01*
X184029194Y-82570195D01*
X184036211Y-82557344D01*
X184028437Y-82546674D01*
X184026102Y-82544830D01*
X184017520Y-82539129D01*
X183823878Y-82432233D01*
X183814472Y-82428006D01*
X183605972Y-82354172D01*
X183596009Y-82351540D01*
X183378247Y-82312750D01*
X183367996Y-82311781D01*
X183146816Y-82309079D01*
X183136532Y-82309799D01*
X182917893Y-82343255D01*
X182907866Y-82345644D01*
X182697626Y-82414361D01*
X182688116Y-82418358D01*
X182491925Y-82520489D01*
X182483207Y-82525978D01*
X182454161Y-82547786D01*
X182445708Y-82559111D01*
X141500000Y-82559111D01*
X141500000Y-80326500D01*
X141520002Y-80258379D01*
X141573658Y-80211886D01*
X141626000Y-80200500D01*
X201712920Y-80200500D01*
X201730242Y-80202466D01*
X201735811Y-80202476D01*
X201749641Y-80205656D01*
X201763482Y-80202524D01*
X201764605Y-80202526D01*
X201776731Y-80203133D01*
X201831618Y-80208539D01*
X201893626Y-80214646D01*
X201917848Y-80219464D01*
X202044085Y-80257757D01*
X202066897Y-80267206D01*
X202113623Y-80292182D01*
X202183232Y-80329389D01*
X202203770Y-80343112D01*
X202305739Y-80426796D01*
X202323204Y-80444261D01*
X202406888Y-80546230D01*
X202420610Y-80566766D01*
X202482793Y-80683102D01*
X202492242Y-80705912D01*
X202530538Y-80832156D01*
X202535354Y-80856373D01*
X202546917Y-80973770D01*
X202547503Y-80985905D01*
X202544344Y-80999641D01*
X202547475Y-81013480D01*
X202547467Y-81018310D01*
X202549500Y-81036504D01*
X202549500Y-83849700D01*
X202529498Y-83917821D01*
X202475842Y-83964314D01*
X202423500Y-83975700D01*
X194351567Y-83975700D01*
X194301328Y-83981936D01*
X194241591Y-83996997D01*
X194194402Y-84015324D01*
X194190980Y-84017167D01*
X194190977Y-84017168D01*
X187792142Y-87462694D01*
X187792135Y-87462699D01*
X187788635Y-87464583D01*
X187785395Y-87466898D01*
X187749714Y-87492390D01*
X187749710Y-87492394D01*
X187746473Y-87494706D01*
X187700212Y-87537524D01*
X187687273Y-87550624D01*
X187642626Y-87630442D01*
X187622624Y-87698563D01*
X187621984Y-87703011D01*
X187621983Y-87703018D01*
X187614939Y-87752011D01*
X187614938Y-87752018D01*
X187614300Y-87756459D01*
X187614300Y-98438719D01*
X187622673Y-98496780D01*
X187626985Y-98511420D01*
X187640126Y-98556034D01*
X187642789Y-98565077D01*
X187651420Y-98588866D01*
X187656764Y-98596134D01*
X187656766Y-98596137D01*
X187701405Y-98656842D01*
X187701408Y-98656845D01*
X187705600Y-98662546D01*
X187759333Y-98708950D01*
X187808592Y-98740491D01*
X187846004Y-98757501D01*
X187912707Y-98787829D01*
X187926103Y-98794921D01*
X188123594Y-98915234D01*
X188170043Y-98943531D01*
X188182495Y-98952186D01*
X188406824Y-99129032D01*
X188418137Y-99139111D01*
X188619601Y-99341633D01*
X188629622Y-99353000D01*
X188805282Y-99578239D01*
X188813871Y-99590737D01*
X188961204Y-99835456D01*
X188968230Y-99848895D01*
X189085093Y-100109535D01*
X189090453Y-100123721D01*
X189175159Y-100396517D01*
X189178777Y-100411244D01*
X189230093Y-100692230D01*
X189231915Y-100707285D01*
X189249603Y-101000678D01*
X189249824Y-101009577D01*
X189249477Y-101042784D01*
X189249069Y-101051671D01*
X189236169Y-101210280D01*
X189225242Y-101344616D01*
X189223106Y-101359629D01*
X189202824Y-101458873D01*
X189167614Y-101631171D01*
X189165912Y-101639497D01*
X189161987Y-101654144D01*
X189075482Y-101913437D01*
X189071589Y-101925105D01*
X189065932Y-101939176D01*
X189045806Y-101981656D01*
X189001561Y-102075045D01*
X188943640Y-102197301D01*
X188936335Y-102210591D01*
X188783907Y-102452174D01*
X188775058Y-102464488D01*
X188594714Y-102686007D01*
X188584449Y-102697170D01*
X188441684Y-102834796D01*
X188378806Y-102895410D01*
X188367274Y-102905259D01*
X188139301Y-103077360D01*
X188126671Y-103085752D01*
X187879651Y-103229232D01*
X187866117Y-103236038D01*
X187738679Y-103290791D01*
X187738639Y-103290697D01*
X187733533Y-103292873D01*
X187733580Y-103292982D01*
X187733579Y-103292982D01*
X187603678Y-103348793D01*
X187589427Y-103353924D01*
X187315305Y-103434342D01*
X187300529Y-103437725D01*
X187064495Y-103477012D01*
X187018774Y-103484622D01*
X187003693Y-103486207D01*
X186718324Y-103498916D01*
X186703162Y-103498678D01*
X186418339Y-103477012D01*
X186403319Y-103474955D01*
X186367336Y-103467797D01*
X186342881Y-103462933D01*
X186342877Y-103462932D01*
X186340472Y-103462454D01*
X186308661Y-103458672D01*
X186269528Y-103457094D01*
X186237513Y-103458302D01*
X186235074Y-103458586D01*
X186235069Y-103458586D01*
X183609952Y-103763832D01*
X183609945Y-103763833D01*
X183607512Y-103764116D01*
X183605098Y-103764590D01*
X183605092Y-103764591D01*
X183595891Y-103766398D01*
X183576022Y-103770300D01*
X183573664Y-103770958D01*
X183573655Y-103770960D01*
X183544942Y-103778971D01*
X183544940Y-103778972D01*
X183538233Y-103780843D01*
X183532099Y-103784139D01*
X183532096Y-103784140D01*
X183481011Y-103811588D01*
X183458884Y-103823477D01*
X183405228Y-103869970D01*
X183387273Y-103887563D01*
X183342626Y-103967381D01*
X183322624Y-104035502D01*
X183321984Y-104039950D01*
X183321983Y-104039957D01*
X183314939Y-104088950D01*
X183314938Y-104088957D01*
X183314300Y-104093398D01*
X183314300Y-105966377D01*
X183317187Y-106000703D01*
X183324218Y-106042204D01*
X183326963Y-106048797D01*
X183356980Y-106120893D01*
X183356982Y-106120897D01*
X183359726Y-106127487D01*
X183401049Y-106185219D01*
X183402266Y-106186716D01*
X183411222Y-106197737D01*
X183411224Y-106197739D01*
X183416905Y-106204729D01*
X183424326Y-106209836D01*
X183486420Y-106252568D01*
X183486424Y-106252570D01*
X183492245Y-106256576D01*
X183498812Y-106259186D01*
X183498815Y-106259188D01*
X183533193Y-106272853D01*
X183558220Y-106282801D01*
X183562595Y-106283851D01*
X183562601Y-106283853D01*
X183610714Y-106295401D01*
X183610721Y-106295402D01*
X183615095Y-106296452D01*
X184657216Y-106393394D01*
X186251987Y-106541745D01*
X186252001Y-106541746D01*
X186254099Y-106541941D01*
X186256207Y-106541995D01*
X186256220Y-106541996D01*
X186279512Y-106542595D01*
X186279518Y-106542595D01*
X186281619Y-106542649D01*
X186306920Y-106541603D01*
X186313172Y-106541345D01*
X186313176Y-106541345D01*
X186315274Y-106541258D01*
X186317365Y-106541031D01*
X186317372Y-106541030D01*
X186340539Y-106538510D01*
X186340553Y-106538508D01*
X186342649Y-106538280D01*
X186344723Y-106537912D01*
X186344740Y-106537910D01*
X186455233Y-106518328D01*
X186470296Y-106516585D01*
X186670049Y-106505591D01*
X186755508Y-106500888D01*
X186770667Y-106500968D01*
X186913183Y-106510309D01*
X187055695Y-106519650D01*
X187070740Y-106521550D01*
X187351467Y-106574340D01*
X187366175Y-106578035D01*
X187632393Y-106662229D01*
X187632401Y-106662231D01*
X187634019Y-106662743D01*
X187635649Y-106663164D01*
X187635662Y-106663168D01*
X187653615Y-106667808D01*
X187653635Y-106667813D01*
X187655254Y-106668231D01*
X187656921Y-106668568D01*
X187679938Y-106673223D01*
X187679954Y-106673226D01*
X187681577Y-106673554D01*
X187683220Y-106673796D01*
X187684842Y-106674079D01*
X187738504Y-106697205D01*
X187741535Y-106699466D01*
X187744938Y-106702405D01*
X187748726Y-106704830D01*
X187748728Y-106704832D01*
X187777241Y-106723089D01*
X187794197Y-106733946D01*
X187893069Y-106778900D01*
X187912707Y-106787829D01*
X187926103Y-106794921D01*
X188102524Y-106902398D01*
X188170043Y-106943531D01*
X188182495Y-106952186D01*
X188406820Y-107129029D01*
X188418142Y-107139117D01*
X188433987Y-107155045D01*
X188572782Y-107294569D01*
X188572783Y-107294569D01*
X188619598Y-107341630D01*
X188629626Y-107353005D01*
X188805282Y-107578239D01*
X188813871Y-107590737D01*
X188961204Y-107835456D01*
X188968230Y-107848895D01*
X189049870Y-108030976D01*
X189085093Y-108109535D01*
X189090453Y-108123721D01*
X189175159Y-108396517D01*
X189178777Y-108411244D01*
X189230093Y-108692230D01*
X189231915Y-108707285D01*
X189249603Y-109000678D01*
X189249824Y-109009577D01*
X189249477Y-109042784D01*
X189249069Y-109051671D01*
X189235363Y-109220186D01*
X189225242Y-109344616D01*
X189223106Y-109359629D01*
X189218343Y-109382937D01*
X189179125Y-109574844D01*
X189165912Y-109639497D01*
X189161987Y-109654144D01*
X189080315Y-109898951D01*
X189071589Y-109925105D01*
X189065934Y-109939172D01*
X189020097Y-110035921D01*
X188943640Y-110197302D01*
X188936335Y-110210591D01*
X188783907Y-110452174D01*
X188775058Y-110464488D01*
X188594714Y-110686007D01*
X188584449Y-110697170D01*
X188378806Y-110895410D01*
X188367276Y-110905258D01*
X188147685Y-111071032D01*
X188139305Y-111077358D01*
X188126674Y-111085750D01*
X187879661Y-111229226D01*
X187866114Y-111236039D01*
X187603682Y-111348790D01*
X187589414Y-111353928D01*
X187315305Y-111434342D01*
X187300529Y-111437725D01*
X187064495Y-111477012D01*
X187018774Y-111484622D01*
X187003693Y-111486207D01*
X186718324Y-111498916D01*
X186703162Y-111498678D01*
X186612942Y-111491815D01*
X186418341Y-111477012D01*
X186403317Y-111474954D01*
X186123169Y-111419229D01*
X186108500Y-111415381D01*
X185837066Y-111326401D01*
X185822966Y-111320818D01*
X185564195Y-111199875D01*
X185550869Y-111192640D01*
X185447379Y-111128098D01*
X185446053Y-111127271D01*
X185443163Y-111125664D01*
X185429425Y-111118025D01*
X185429409Y-111118017D01*
X185428041Y-111117256D01*
X185419615Y-111113110D01*
X185410856Y-111108799D01*
X185410853Y-111108798D01*
X185405401Y-111106115D01*
X185329328Y-111085523D01*
X185258513Y-111080458D01*
X185256600Y-111080438D01*
X185256589Y-111080438D01*
X185242388Y-111080293D01*
X185242387Y-111080293D01*
X185233373Y-111080201D01*
X185145364Y-111105072D01*
X185121643Y-111118025D01*
X185087003Y-111136940D01*
X185086998Y-111136943D01*
X185083052Y-111139098D01*
X185036230Y-111174150D01*
X182837144Y-113373236D01*
X182774832Y-113407262D01*
X182704017Y-113402197D01*
X182661478Y-113371316D01*
X182660950Y-113371977D01*
X182653831Y-113366284D01*
X182651948Y-113364397D01*
X182649440Y-113362577D01*
X182646733Y-113359174D01*
X182641084Y-113353515D01*
X182637148Y-113350373D01*
X182628305Y-113339276D01*
X182615523Y-113333111D01*
X182611296Y-113329737D01*
X182605453Y-113326058D01*
X182600590Y-113323707D01*
X182589508Y-113314844D01*
X182575680Y-113311664D01*
X182571149Y-113309474D01*
X182563603Y-113306824D01*
X182558693Y-113305700D01*
X182545913Y-113299535D01*
X182522845Y-113299515D01*
X182522847Y-113297490D01*
X182522781Y-113297474D01*
X182522781Y-113299500D01*
X182505892Y-113299500D01*
X182454437Y-113299455D01*
X182454441Y-113294650D01*
X182454343Y-113294644D01*
X182454343Y-113299500D01*
X115005892Y-113299500D01*
X114968626Y-113299467D01*
X114968624Y-113299467D01*
X114954437Y-113299455D01*
X114941646Y-113305597D01*
X114936733Y-113306713D01*
X114929183Y-113309350D01*
X114924649Y-113311532D01*
X114910815Y-113314688D01*
X114899720Y-113323529D01*
X114894846Y-113325875D01*
X114888994Y-113329546D01*
X114884762Y-113332912D01*
X114871976Y-113339052D01*
X114863116Y-113350131D01*
X114859176Y-113353265D01*
X114853515Y-113358916D01*
X114850373Y-113362852D01*
X114839276Y-113371695D01*
X114833111Y-113384477D01*
X114829737Y-113388704D01*
X114826058Y-113394547D01*
X114823707Y-113399410D01*
X114814844Y-113410492D01*
X114811664Y-113424320D01*
X114809474Y-113428851D01*
X114806824Y-113436397D01*
X114805700Y-113441307D01*
X114799535Y-113454087D01*
X114799515Y-113477155D01*
X114797490Y-113477153D01*
X114797474Y-113477219D01*
X114799500Y-113477219D01*
X114799500Y-113494108D01*
X114799455Y-113545563D01*
X114794650Y-113545559D01*
X114794644Y-113545657D01*
X114799500Y-113545657D01*
X114799500Y-128962920D01*
X114797534Y-128980242D01*
X114797524Y-128985811D01*
X114794344Y-128999641D01*
X114797476Y-129013482D01*
X114797474Y-129014605D01*
X114796867Y-129026736D01*
X114785354Y-129143626D01*
X114780536Y-129167848D01*
X114742243Y-129294085D01*
X114732794Y-129316897D01*
X114702432Y-129373700D01*
X114670611Y-129433232D01*
X114656888Y-129453770D01*
X114573204Y-129555739D01*
X114555739Y-129573204D01*
X114453770Y-129656888D01*
X114433234Y-129670610D01*
X114316898Y-129732793D01*
X114294088Y-129742242D01*
X114167844Y-129780538D01*
X114143627Y-129785354D01*
X114118814Y-129787798D01*
X114026230Y-129796917D01*
X114014095Y-129797503D01*
X114000359Y-129794344D01*
X113986520Y-129797475D01*
X113981690Y-129797467D01*
X113963496Y-129799500D01*
X83787080Y-129799500D01*
X83769758Y-129797534D01*
X83764189Y-129797524D01*
X83750359Y-129794344D01*
X83736518Y-129797476D01*
X83735395Y-129797474D01*
X83723269Y-129796867D01*
X83668382Y-129791461D01*
X83606374Y-129785354D01*
X83582152Y-129780536D01*
X83455915Y-129742243D01*
X83433102Y-129732793D01*
X83316766Y-129670610D01*
X83296230Y-129656888D01*
X83194261Y-129573204D01*
X83176796Y-129555739D01*
X83093112Y-129453770D01*
X83079389Y-129433232D01*
X83047569Y-129373700D01*
X83017206Y-129316897D01*
X83007758Y-129294088D01*
X82969462Y-129167844D01*
X82964646Y-129143626D01*
X82953860Y-129034114D01*
X82954078Y-129007523D01*
X82955655Y-129000718D01*
X82955656Y-129000000D01*
X82953654Y-128991225D01*
X82950500Y-128963210D01*
X82950500Y-128241069D01*
X84975764Y-128241069D01*
X84988992Y-128442894D01*
X85038778Y-128638928D01*
X85123456Y-128822607D01*
X85126789Y-128827323D01*
X85234861Y-128980242D01*
X85240188Y-128987780D01*
X85244330Y-128991815D01*
X85262211Y-129009234D01*
X85385066Y-129128913D01*
X85553237Y-129241282D01*
X85558540Y-129243560D01*
X85558543Y-129243562D01*
X85646891Y-129281519D01*
X85739070Y-129321122D01*
X85936340Y-129365760D01*
X85942109Y-129365987D01*
X85942112Y-129365987D01*
X86018283Y-129368979D01*
X86138442Y-129373700D01*
X86224732Y-129361189D01*
X86332886Y-129345508D01*
X86332891Y-129345507D01*
X86338607Y-129344678D01*
X86344079Y-129342820D01*
X86344081Y-129342820D01*
X86524667Y-129281519D01*
X86524669Y-129281518D01*
X86530131Y-129279664D01*
X86706601Y-129180837D01*
X86769033Y-129128913D01*
X86857673Y-129055191D01*
X86862105Y-129051505D01*
X86991437Y-128896001D01*
X87090264Y-128719531D01*
X87146100Y-128555046D01*
X87153420Y-128533481D01*
X87153420Y-128533479D01*
X87155278Y-128528007D01*
X87156107Y-128522291D01*
X87156108Y-128522286D01*
X87183767Y-128331516D01*
X87184300Y-128327842D01*
X87185815Y-128270000D01*
X87167308Y-128068591D01*
X87165655Y-128062728D01*
X87113976Y-127879490D01*
X87112407Y-127873926D01*
X87022951Y-127692527D01*
X87004679Y-127668057D01*
X86905388Y-127535091D01*
X86905387Y-127535090D01*
X86901935Y-127530467D01*
X86878950Y-127509220D01*
X86757653Y-127397094D01*
X86757651Y-127397092D01*
X86753412Y-127393174D01*
X86725974Y-127375862D01*
X86587237Y-127288325D01*
X86582357Y-127285246D01*
X86394498Y-127210298D01*
X86196126Y-127170839D01*
X86190352Y-127170763D01*
X86190348Y-127170763D01*
X86087857Y-127169422D01*
X85993886Y-127168192D01*
X85988189Y-127169171D01*
X85988188Y-127169171D01*
X85800246Y-127201465D01*
X85800245Y-127201465D01*
X85794549Y-127202444D01*
X85604793Y-127272449D01*
X85430971Y-127375862D01*
X85278905Y-127509220D01*
X85153689Y-127668057D01*
X85059514Y-127847053D01*
X84999537Y-128040213D01*
X84975764Y-128241069D01*
X82950500Y-128241069D01*
X82950500Y-125701069D01*
X84975764Y-125701069D01*
X84988992Y-125902894D01*
X85038778Y-126098928D01*
X85123456Y-126282607D01*
X85240188Y-126447780D01*
X85385066Y-126588913D01*
X85553237Y-126701282D01*
X85558540Y-126703560D01*
X85558543Y-126703562D01*
X85733763Y-126778842D01*
X85739070Y-126781122D01*
X85936340Y-126825760D01*
X85942109Y-126825987D01*
X85942112Y-126825987D01*
X86018283Y-126828979D01*
X86138442Y-126833700D01*
X86224732Y-126821189D01*
X86332886Y-126805508D01*
X86332891Y-126805507D01*
X86338607Y-126804678D01*
X86344079Y-126802820D01*
X86344081Y-126802820D01*
X86524667Y-126741519D01*
X86524669Y-126741518D01*
X86530131Y-126739664D01*
X86706601Y-126640837D01*
X86769033Y-126588913D01*
X86857673Y-126515191D01*
X86862105Y-126511505D01*
X86991437Y-126356001D01*
X87090264Y-126179531D01*
X87155278Y-125988007D01*
X87156107Y-125982291D01*
X87156108Y-125982286D01*
X87183767Y-125791516D01*
X87184300Y-125787842D01*
X87185815Y-125730000D01*
X87167308Y-125528591D01*
X87112407Y-125333926D01*
X87022951Y-125152527D01*
X87004679Y-125128057D01*
X86905388Y-124995091D01*
X86905387Y-124995090D01*
X86901935Y-124990467D01*
X86897699Y-124986551D01*
X86757653Y-124857094D01*
X86757651Y-124857092D01*
X86753412Y-124853174D01*
X86725974Y-124835862D01*
X86587237Y-124748325D01*
X86582357Y-124745246D01*
X86394498Y-124670298D01*
X86196126Y-124630839D01*
X86190352Y-124630763D01*
X86190348Y-124630763D01*
X86087857Y-124629422D01*
X85993886Y-124628192D01*
X85988189Y-124629171D01*
X85988188Y-124629171D01*
X85800246Y-124661465D01*
X85800245Y-124661465D01*
X85794549Y-124662444D01*
X85604793Y-124732449D01*
X85599832Y-124735401D01*
X85599831Y-124735401D01*
X85437214Y-124832148D01*
X85430971Y-124835862D01*
X85278905Y-124969220D01*
X85153689Y-125128057D01*
X85059514Y-125307053D01*
X84999537Y-125500213D01*
X84975764Y-125701069D01*
X82950500Y-125701069D01*
X82950500Y-125037371D01*
X82953755Y-125008918D01*
X82954043Y-125007676D01*
X82954044Y-125007669D01*
X82955655Y-125000718D01*
X82955656Y-125000000D01*
X82954074Y-124993064D01*
X82954010Y-124992493D01*
X82953836Y-124966133D01*
X82964646Y-124856374D01*
X82969462Y-124832156D01*
X83007758Y-124705912D01*
X83017207Y-124683102D01*
X83024653Y-124669171D01*
X83079390Y-124566766D01*
X83093112Y-124546230D01*
X83176796Y-124444261D01*
X83194261Y-124426796D01*
X83296230Y-124343112D01*
X83316768Y-124329389D01*
X83386378Y-124292182D01*
X83433103Y-124267206D01*
X83455912Y-124257758D01*
X83582156Y-124219462D01*
X83606373Y-124214646D01*
X83631186Y-124212202D01*
X83723770Y-124203083D01*
X83735905Y-124202497D01*
X83749641Y-124205656D01*
X83763480Y-124202525D01*
X83768310Y-124202533D01*
X83786504Y-124200500D01*
X87744108Y-124200500D01*
X87781374Y-124200533D01*
X87781376Y-124200533D01*
X87795563Y-124200545D01*
X87808354Y-124194403D01*
X87813267Y-124193287D01*
X87820817Y-124190650D01*
X87825351Y-124188468D01*
X87839185Y-124185312D01*
X87850280Y-124176471D01*
X87855154Y-124174125D01*
X87861006Y-124170454D01*
X87865238Y-124167088D01*
X87878024Y-124160948D01*
X87886884Y-124149869D01*
X87890824Y-124146735D01*
X87896485Y-124141084D01*
X87899627Y-124137148D01*
X87910724Y-124128305D01*
X87916889Y-124115523D01*
X87920263Y-124111296D01*
X87923942Y-124105453D01*
X87926293Y-124100590D01*
X87935156Y-124089508D01*
X87938336Y-124075680D01*
X87940526Y-124071149D01*
X87943176Y-124063603D01*
X87944300Y-124058693D01*
X87950465Y-124045913D01*
X87950485Y-124022845D01*
X87952510Y-124022847D01*
X87952526Y-124022781D01*
X87950500Y-124022781D01*
X87950500Y-124005892D01*
X87950545Y-123954437D01*
X87955350Y-123954441D01*
X87955356Y-123954343D01*
X87950500Y-123954343D01*
X87950500Y-117822577D01*
X107941577Y-117822577D01*
X107950874Y-117834593D01*
X107993869Y-117864698D01*
X108003355Y-117870176D01*
X108194793Y-117959445D01*
X108205085Y-117963191D01*
X108409109Y-118017859D01*
X108419904Y-118019762D01*
X108630325Y-118038172D01*
X108641275Y-118038172D01*
X108851696Y-118019762D01*
X108862491Y-118017859D01*
X109066515Y-117963191D01*
X109076807Y-117959445D01*
X109268245Y-117870176D01*
X109277731Y-117864698D01*
X109321564Y-117834007D01*
X109329939Y-117823529D01*
X109322871Y-117810081D01*
X108648612Y-117135822D01*
X108634668Y-117128208D01*
X108632835Y-117128339D01*
X108626220Y-117132590D01*
X107948007Y-117810803D01*
X107941577Y-117822577D01*
X87950500Y-117822577D01*
X87950500Y-116750296D01*
X100048737Y-116750296D01*
X100064532Y-116938390D01*
X100116560Y-117119834D01*
X100202840Y-117287717D01*
X100206665Y-117292543D01*
X100206667Y-117292546D01*
X100316256Y-117430814D01*
X100316260Y-117430819D01*
X100320085Y-117435644D01*
X100463830Y-117557980D01*
X100469208Y-117560986D01*
X100469210Y-117560987D01*
X100546215Y-117604023D01*
X100628600Y-117650067D01*
X100808117Y-117708395D01*
X100995545Y-117730745D01*
X101001680Y-117730273D01*
X101001682Y-117730273D01*
X101177603Y-117716737D01*
X101177607Y-117716736D01*
X101183745Y-117716264D01*
X101189677Y-117714608D01*
X101189681Y-117714607D01*
X101359604Y-117667163D01*
X101359608Y-117667162D01*
X101365548Y-117665503D01*
X101445097Y-117625320D01*
X101528528Y-117583177D01*
X101528530Y-117583176D01*
X101534029Y-117580398D01*
X101682770Y-117464188D01*
X101686796Y-117459524D01*
X101686799Y-117459521D01*
X101802078Y-117325969D01*
X101802079Y-117325967D01*
X101806107Y-117321301D01*
X101899342Y-117157178D01*
X101958923Y-116978072D01*
X101982580Y-116790805D01*
X101982957Y-116763800D01*
X101981633Y-116750296D01*
X102588737Y-116750296D01*
X102604532Y-116938390D01*
X102656560Y-117119834D01*
X102742840Y-117287717D01*
X102746665Y-117292543D01*
X102746667Y-117292546D01*
X102856256Y-117430814D01*
X102856260Y-117430819D01*
X102860085Y-117435644D01*
X103003830Y-117557980D01*
X103009208Y-117560986D01*
X103009210Y-117560987D01*
X103086215Y-117604023D01*
X103168600Y-117650067D01*
X103348117Y-117708395D01*
X103535545Y-117730745D01*
X103541680Y-117730273D01*
X103541682Y-117730273D01*
X103717603Y-117716737D01*
X103717607Y-117716736D01*
X103723745Y-117716264D01*
X103729677Y-117714608D01*
X103729681Y-117714607D01*
X103899604Y-117667163D01*
X103899608Y-117667162D01*
X103905548Y-117665503D01*
X103985097Y-117625320D01*
X104068528Y-117583177D01*
X104068530Y-117583176D01*
X104074029Y-117580398D01*
X104222770Y-117464188D01*
X104226796Y-117459524D01*
X104226799Y-117459521D01*
X104342078Y-117325969D01*
X104342079Y-117325967D01*
X104346107Y-117321301D01*
X104439342Y-117157178D01*
X104498923Y-116978072D01*
X104522580Y-116790805D01*
X104522957Y-116763800D01*
X104521633Y-116750296D01*
X105128737Y-116750296D01*
X105144532Y-116938390D01*
X105196560Y-117119834D01*
X105282840Y-117287717D01*
X105286665Y-117292543D01*
X105286667Y-117292546D01*
X105396256Y-117430814D01*
X105396260Y-117430819D01*
X105400085Y-117435644D01*
X105543830Y-117557980D01*
X105549208Y-117560986D01*
X105549210Y-117560987D01*
X105626215Y-117604023D01*
X105708600Y-117650067D01*
X105888117Y-117708395D01*
X106075545Y-117730745D01*
X106081680Y-117730273D01*
X106081682Y-117730273D01*
X106257603Y-117716737D01*
X106257607Y-117716736D01*
X106263745Y-117716264D01*
X106269677Y-117714608D01*
X106269681Y-117714607D01*
X106439604Y-117667163D01*
X106439608Y-117667162D01*
X106445548Y-117665503D01*
X106525097Y-117625320D01*
X106608528Y-117583177D01*
X106608530Y-117583176D01*
X106614029Y-117580398D01*
X106762770Y-117464188D01*
X106766796Y-117459524D01*
X106766799Y-117459521D01*
X106882078Y-117325969D01*
X106882079Y-117325967D01*
X106886107Y-117321301D01*
X106979342Y-117157178D01*
X107038923Y-116978072D01*
X107062580Y-116790805D01*
X107062881Y-116769275D01*
X107361428Y-116769275D01*
X107379838Y-116979696D01*
X107381741Y-116990491D01*
X107436409Y-117194515D01*
X107440155Y-117204807D01*
X107529423Y-117396241D01*
X107534903Y-117405732D01*
X107565594Y-117449565D01*
X107576071Y-117457940D01*
X107589518Y-117450872D01*
X108263778Y-116776612D01*
X108270156Y-116764932D01*
X109000208Y-116764932D01*
X109000339Y-116766765D01*
X109004590Y-116773380D01*
X109682803Y-117451593D01*
X109694577Y-117458023D01*
X109706593Y-117448726D01*
X109736697Y-117405732D01*
X109742177Y-117396241D01*
X109831445Y-117204807D01*
X109835191Y-117194515D01*
X109889859Y-116990491D01*
X109891762Y-116979696D01*
X109910172Y-116769275D01*
X109910172Y-116758325D01*
X109891762Y-116547904D01*
X109889859Y-116537109D01*
X109835191Y-116333085D01*
X109831445Y-116322793D01*
X109742177Y-116131359D01*
X109736697Y-116121868D01*
X109706006Y-116078035D01*
X109695529Y-116069660D01*
X109682082Y-116076728D01*
X109007822Y-116750988D01*
X109000208Y-116764932D01*
X108270156Y-116764932D01*
X108271392Y-116762668D01*
X108271261Y-116760835D01*
X108267010Y-116754220D01*
X107588797Y-116076007D01*
X107577023Y-116069577D01*
X107565007Y-116078874D01*
X107534903Y-116121868D01*
X107529423Y-116131359D01*
X107440155Y-116322793D01*
X107436409Y-116333085D01*
X107381741Y-116537109D01*
X107379838Y-116547904D01*
X107361428Y-116758325D01*
X107361428Y-116769275D01*
X107062881Y-116769275D01*
X107062957Y-116763800D01*
X107044538Y-116575945D01*
X106989981Y-116395245D01*
X106901366Y-116228583D01*
X106782066Y-116082308D01*
X106775321Y-116076728D01*
X106641377Y-115965920D01*
X106641374Y-115965918D01*
X106636627Y-115961991D01*
X106470588Y-115872214D01*
X106290274Y-115816397D01*
X106284156Y-115815754D01*
X106284151Y-115815753D01*
X106108681Y-115797311D01*
X106108679Y-115797311D01*
X106102552Y-115796667D01*
X105986925Y-115807190D01*
X105920714Y-115813215D01*
X105920713Y-115813215D01*
X105914573Y-115813774D01*
X105733497Y-115867068D01*
X105566220Y-115954518D01*
X105419116Y-116072793D01*
X105297786Y-116217388D01*
X105206852Y-116382796D01*
X105149778Y-116562717D01*
X105128737Y-116750296D01*
X104521633Y-116750296D01*
X104504538Y-116575945D01*
X104449981Y-116395245D01*
X104361366Y-116228583D01*
X104242066Y-116082308D01*
X104235321Y-116076728D01*
X104101377Y-115965920D01*
X104101374Y-115965918D01*
X104096627Y-115961991D01*
X103930588Y-115872214D01*
X103750274Y-115816397D01*
X103744156Y-115815754D01*
X103744151Y-115815753D01*
X103568681Y-115797311D01*
X103568679Y-115797311D01*
X103562552Y-115796667D01*
X103446925Y-115807190D01*
X103380714Y-115813215D01*
X103380713Y-115813215D01*
X103374573Y-115813774D01*
X103193497Y-115867068D01*
X103026220Y-115954518D01*
X102879116Y-116072793D01*
X102757786Y-116217388D01*
X102666852Y-116382796D01*
X102609778Y-116562717D01*
X102588737Y-116750296D01*
X101981633Y-116750296D01*
X101964538Y-116575945D01*
X101909981Y-116395245D01*
X101821366Y-116228583D01*
X101702066Y-116082308D01*
X101695321Y-116076728D01*
X101561377Y-115965920D01*
X101561374Y-115965918D01*
X101556627Y-115961991D01*
X101390588Y-115872214D01*
X101210274Y-115816397D01*
X101204156Y-115815754D01*
X101204151Y-115815753D01*
X101028681Y-115797311D01*
X101028679Y-115797311D01*
X101022552Y-115796667D01*
X100906925Y-115807190D01*
X100840714Y-115813215D01*
X100840713Y-115813215D01*
X100834573Y-115813774D01*
X100653497Y-115867068D01*
X100486220Y-115954518D01*
X100339116Y-116072793D01*
X100217786Y-116217388D01*
X100126852Y-116382796D01*
X100069778Y-116562717D01*
X100048737Y-116750296D01*
X87950500Y-116750296D01*
X87950500Y-115704071D01*
X107941660Y-115704071D01*
X107948728Y-115717518D01*
X108622988Y-116391778D01*
X108636932Y-116399392D01*
X108638765Y-116399261D01*
X108645380Y-116395010D01*
X109323593Y-115716797D01*
X109330023Y-115705023D01*
X109320726Y-115693007D01*
X109277731Y-115662902D01*
X109268245Y-115657424D01*
X109076807Y-115568155D01*
X109066515Y-115564409D01*
X108862491Y-115509741D01*
X108851696Y-115507838D01*
X108641275Y-115489428D01*
X108630325Y-115489428D01*
X108419904Y-115507838D01*
X108409109Y-115509741D01*
X108205085Y-115564409D01*
X108194793Y-115568155D01*
X108003359Y-115657423D01*
X107993868Y-115662903D01*
X107950035Y-115693594D01*
X107941660Y-115704071D01*
X87950500Y-115704071D01*
X87950500Y-111803806D01*
X170247023Y-111803806D01*
X170252304Y-111810861D01*
X170428680Y-111913927D01*
X170437963Y-111918374D01*
X170644603Y-111997283D01*
X170654501Y-112000159D01*
X170871253Y-112044257D01*
X170881483Y-112045476D01*
X171102514Y-112053582D01*
X171112823Y-112053114D01*
X171332223Y-112025008D01*
X171342288Y-112022868D01*
X171554157Y-111959305D01*
X171563752Y-111955544D01*
X171627537Y-111924296D01*
X179423737Y-111924296D01*
X179439532Y-112112390D01*
X179491560Y-112293834D01*
X179577840Y-112461717D01*
X179581665Y-112466543D01*
X179581667Y-112466546D01*
X179691256Y-112604814D01*
X179691260Y-112604819D01*
X179695085Y-112609644D01*
X179838830Y-112731980D01*
X179844208Y-112734986D01*
X179844210Y-112734987D01*
X179921215Y-112778024D01*
X180003600Y-112824067D01*
X180183117Y-112882395D01*
X180370545Y-112904745D01*
X180376680Y-112904273D01*
X180376682Y-112904273D01*
X180552603Y-112890737D01*
X180552607Y-112890736D01*
X180558745Y-112890264D01*
X180564677Y-112888608D01*
X180564681Y-112888607D01*
X180734604Y-112841163D01*
X180734608Y-112841162D01*
X180740548Y-112839503D01*
X180820097Y-112799320D01*
X180903528Y-112757177D01*
X180903530Y-112757176D01*
X180909029Y-112754398D01*
X181057770Y-112638188D01*
X181061796Y-112633524D01*
X181061799Y-112633521D01*
X181177078Y-112499969D01*
X181177079Y-112499967D01*
X181181107Y-112495301D01*
X181274342Y-112331178D01*
X181333923Y-112152072D01*
X181357580Y-111964805D01*
X181357957Y-111937800D01*
X181339538Y-111749945D01*
X181284981Y-111569245D01*
X181196366Y-111402583D01*
X181077066Y-111256308D01*
X181071275Y-111251517D01*
X180936377Y-111139920D01*
X180936374Y-111139918D01*
X180931627Y-111135991D01*
X180765588Y-111046214D01*
X180585274Y-110990397D01*
X180579156Y-110989754D01*
X180579151Y-110989753D01*
X180403681Y-110971311D01*
X180403679Y-110971311D01*
X180397552Y-110970667D01*
X180281925Y-110981190D01*
X180215714Y-110987215D01*
X180215713Y-110987215D01*
X180209573Y-110987774D01*
X180028497Y-111041068D01*
X180023032Y-111043925D01*
X179884096Y-111116559D01*
X179861220Y-111128518D01*
X179714116Y-111246793D01*
X179592786Y-111391388D01*
X179589816Y-111396791D01*
X179589815Y-111396792D01*
X179540659Y-111486207D01*
X179501852Y-111556796D01*
X179444778Y-111736717D01*
X179444092Y-111742836D01*
X179444091Y-111742839D01*
X179431739Y-111852959D01*
X179423737Y-111924296D01*
X171627537Y-111924296D01*
X171762378Y-111858238D01*
X171771236Y-111852959D01*
X171828697Y-111811972D01*
X171837097Y-111801274D01*
X171830110Y-111788121D01*
X171056411Y-111014421D01*
X171042468Y-111006808D01*
X171040634Y-111006939D01*
X171034020Y-111011190D01*
X170253780Y-111791431D01*
X170247023Y-111803806D01*
X87950500Y-111803806D01*
X87950500Y-111562148D01*
X164863100Y-111562148D01*
X164874733Y-111620631D01*
X164919048Y-111686952D01*
X164985369Y-111731267D01*
X164997538Y-111733688D01*
X164997539Y-111733688D01*
X165037784Y-111741693D01*
X165043852Y-111742900D01*
X166883348Y-111742900D01*
X166889416Y-111741693D01*
X166929661Y-111733688D01*
X166929662Y-111733688D01*
X166941831Y-111731267D01*
X167008152Y-111686952D01*
X167052467Y-111620631D01*
X167064100Y-111562148D01*
X167064100Y-110613469D01*
X167398764Y-110613469D01*
X167411992Y-110815294D01*
X167413415Y-110820896D01*
X167456925Y-110992218D01*
X167461778Y-111011328D01*
X167546456Y-111195007D01*
X167549789Y-111199723D01*
X167658770Y-111353928D01*
X167663188Y-111360180D01*
X167667330Y-111364215D01*
X167701813Y-111397807D01*
X167808066Y-111501313D01*
X167976237Y-111613682D01*
X167981540Y-111615960D01*
X167981543Y-111615962D01*
X168146778Y-111686952D01*
X168162070Y-111693522D01*
X168257961Y-111715220D01*
X168328878Y-111731267D01*
X168359340Y-111738160D01*
X168365109Y-111738387D01*
X168365112Y-111738387D01*
X168441283Y-111741379D01*
X168561442Y-111746100D01*
X168647732Y-111733589D01*
X168755886Y-111717908D01*
X168755891Y-111717907D01*
X168761607Y-111717078D01*
X168767079Y-111715220D01*
X168767081Y-111715220D01*
X168947667Y-111653919D01*
X168947669Y-111653918D01*
X168953131Y-111652064D01*
X169090481Y-111575145D01*
X169124564Y-111556058D01*
X169124565Y-111556057D01*
X169129601Y-111553237D01*
X169192033Y-111501313D01*
X169280673Y-111427591D01*
X169285105Y-111423905D01*
X169414437Y-111268401D01*
X169423893Y-111251517D01*
X169482415Y-111147017D01*
X169497156Y-111120694D01*
X169547893Y-111071032D01*
X169617425Y-111056684D01*
X169683675Y-111082206D01*
X169723833Y-111134855D01*
X169780586Y-111274620D01*
X169785234Y-111283821D01*
X169873697Y-111428181D01*
X169884153Y-111437642D01*
X169892931Y-111433858D01*
X170671579Y-110655211D01*
X170677956Y-110643532D01*
X171408008Y-110643532D01*
X171408139Y-110645366D01*
X171412390Y-110651980D01*
X172189907Y-111429496D01*
X172201913Y-111436052D01*
X172213652Y-111427084D01*
X172251610Y-111374259D01*
X172256921Y-111365420D01*
X172354918Y-111167137D01*
X172358717Y-111157542D01*
X172361915Y-111147017D01*
X172400856Y-111087653D01*
X172465711Y-111058766D01*
X172535887Y-111069528D01*
X172589104Y-111116521D01*
X172596899Y-111130894D01*
X172626456Y-111195007D01*
X172629789Y-111199723D01*
X172738770Y-111353928D01*
X172743188Y-111360180D01*
X172747330Y-111364215D01*
X172781813Y-111397807D01*
X172888066Y-111501313D01*
X173056237Y-111613682D01*
X173061540Y-111615960D01*
X173061543Y-111615962D01*
X173226778Y-111686952D01*
X173242070Y-111693522D01*
X173337961Y-111715220D01*
X173408878Y-111731267D01*
X173439340Y-111738160D01*
X173445109Y-111738387D01*
X173445112Y-111738387D01*
X173521283Y-111741379D01*
X173641442Y-111746100D01*
X173727732Y-111733589D01*
X173835886Y-111717908D01*
X173835891Y-111717907D01*
X173841607Y-111717078D01*
X173847079Y-111715220D01*
X173847081Y-111715220D01*
X174027667Y-111653919D01*
X174027669Y-111653918D01*
X174033131Y-111652064D01*
X174170481Y-111575145D01*
X174204564Y-111556058D01*
X174204565Y-111556057D01*
X174209601Y-111553237D01*
X174272033Y-111501313D01*
X174360673Y-111427591D01*
X174365105Y-111423905D01*
X174494437Y-111268401D01*
X174503893Y-111251517D01*
X174545434Y-111177338D01*
X174593264Y-111091931D01*
X174596414Y-111082653D01*
X174656420Y-110905881D01*
X174656420Y-110905879D01*
X174658278Y-110900407D01*
X174659107Y-110894691D01*
X174659108Y-110894686D01*
X174686767Y-110703916D01*
X174687300Y-110700242D01*
X174688815Y-110642400D01*
X174670308Y-110440991D01*
X174615407Y-110246326D01*
X174525951Y-110064927D01*
X174511494Y-110045566D01*
X174408388Y-109907491D01*
X174408387Y-109907490D01*
X174404935Y-109902867D01*
X174381950Y-109881620D01*
X174260653Y-109769494D01*
X174260651Y-109769492D01*
X174256412Y-109765574D01*
X174228974Y-109748262D01*
X174090237Y-109660725D01*
X174085357Y-109657646D01*
X173897498Y-109582698D01*
X173699126Y-109543239D01*
X173693352Y-109543163D01*
X173693348Y-109543163D01*
X173590857Y-109541822D01*
X173496886Y-109540592D01*
X173491189Y-109541571D01*
X173491188Y-109541571D01*
X173303246Y-109573865D01*
X173303245Y-109573865D01*
X173297549Y-109574844D01*
X173107793Y-109644849D01*
X173102832Y-109647801D01*
X173102831Y-109647801D01*
X172977018Y-109722652D01*
X172933971Y-109748262D01*
X172781905Y-109881620D01*
X172656689Y-110040457D01*
X172597608Y-110152752D01*
X172593175Y-110161177D01*
X172543756Y-110212149D01*
X172474623Y-110228312D01*
X172407727Y-110204533D01*
X172366118Y-110152752D01*
X172290793Y-109979517D01*
X172285915Y-109970420D01*
X172212824Y-109857438D01*
X172202138Y-109848235D01*
X172192573Y-109852638D01*
X171415621Y-110629589D01*
X171408008Y-110643532D01*
X170677956Y-110643532D01*
X170679192Y-110641268D01*
X170679061Y-110639434D01*
X170674810Y-110632820D01*
X169897462Y-109855473D01*
X169885930Y-109849176D01*
X169873648Y-109858799D01*
X169818067Y-109940277D01*
X169812979Y-109949233D01*
X169718202Y-110153414D01*
X169671378Y-110206781D01*
X169603134Y-110226362D01*
X169535139Y-110205938D01*
X169490909Y-110156093D01*
X169448506Y-110070108D01*
X169448506Y-110070107D01*
X169448503Y-110070103D01*
X169445951Y-110064927D01*
X169431494Y-110045566D01*
X169328388Y-109907491D01*
X169328387Y-109907490D01*
X169324935Y-109902867D01*
X169301950Y-109881620D01*
X169180653Y-109769494D01*
X169180651Y-109769492D01*
X169176412Y-109765574D01*
X169148974Y-109748262D01*
X169010237Y-109660725D01*
X169005357Y-109657646D01*
X168817498Y-109582698D01*
X168619126Y-109543239D01*
X168613352Y-109543163D01*
X168613348Y-109543163D01*
X168510857Y-109541822D01*
X168416886Y-109540592D01*
X168411189Y-109541571D01*
X168411188Y-109541571D01*
X168223246Y-109573865D01*
X168223245Y-109573865D01*
X168217549Y-109574844D01*
X168027793Y-109644849D01*
X168022832Y-109647801D01*
X168022831Y-109647801D01*
X167897018Y-109722652D01*
X167853971Y-109748262D01*
X167701905Y-109881620D01*
X167576689Y-110040457D01*
X167482514Y-110219453D01*
X167422537Y-110412613D01*
X167398764Y-110613469D01*
X167064100Y-110613469D01*
X167064100Y-109722652D01*
X167052467Y-109664169D01*
X167008152Y-109597848D01*
X166973725Y-109574844D01*
X166952147Y-109560426D01*
X166941831Y-109553533D01*
X166929662Y-109551112D01*
X166929661Y-109551112D01*
X166889416Y-109543107D01*
X166883348Y-109541900D01*
X165043852Y-109541900D01*
X165037784Y-109543107D01*
X164997539Y-109551112D01*
X164997538Y-109551112D01*
X164985369Y-109553533D01*
X164975053Y-109560426D01*
X164953475Y-109574844D01*
X164919048Y-109597848D01*
X164874733Y-109664169D01*
X164863100Y-109722652D01*
X164863100Y-111562148D01*
X87950500Y-111562148D01*
X87950500Y-109483111D01*
X170249108Y-109483111D01*
X170255851Y-109495440D01*
X171030789Y-110270379D01*
X171044732Y-110277992D01*
X171046566Y-110277861D01*
X171053180Y-110273610D01*
X171832594Y-109494195D01*
X171839611Y-109481344D01*
X171831837Y-109470674D01*
X171829502Y-109468830D01*
X171820920Y-109463129D01*
X171627278Y-109356233D01*
X171617872Y-109352006D01*
X171409372Y-109278172D01*
X171399409Y-109275540D01*
X171181647Y-109236750D01*
X171171396Y-109235781D01*
X170950216Y-109233079D01*
X170939932Y-109233799D01*
X170721293Y-109267255D01*
X170711266Y-109269644D01*
X170501026Y-109338361D01*
X170491516Y-109342358D01*
X170295325Y-109444489D01*
X170286607Y-109449978D01*
X170257561Y-109471786D01*
X170249108Y-109483111D01*
X87950500Y-109483111D01*
X87950500Y-108416496D01*
X90562937Y-108416496D01*
X90578732Y-108604590D01*
X90630760Y-108786034D01*
X90717040Y-108953917D01*
X90720865Y-108958743D01*
X90720867Y-108958746D01*
X90830456Y-109097014D01*
X90830460Y-109097019D01*
X90834285Y-109101844D01*
X90978030Y-109224180D01*
X90983408Y-109227186D01*
X90983410Y-109227187D01*
X91059378Y-109269644D01*
X91142800Y-109316267D01*
X91322317Y-109374595D01*
X91509745Y-109396945D01*
X91515880Y-109396473D01*
X91515882Y-109396473D01*
X91691803Y-109382937D01*
X91691807Y-109382936D01*
X91697945Y-109382464D01*
X91703877Y-109380808D01*
X91703881Y-109380807D01*
X91873804Y-109333363D01*
X91873808Y-109333362D01*
X91879748Y-109331703D01*
X91959297Y-109291520D01*
X92042728Y-109249377D01*
X92042730Y-109249376D01*
X92048229Y-109246598D01*
X92196970Y-109130388D01*
X92200996Y-109125724D01*
X92200999Y-109125721D01*
X92316278Y-108992169D01*
X92316279Y-108992167D01*
X92320307Y-108987501D01*
X92413542Y-108823378D01*
X92473123Y-108644272D01*
X92496780Y-108457005D01*
X92497157Y-108430000D01*
X92478738Y-108242145D01*
X92424181Y-108061445D01*
X92335566Y-107894783D01*
X92328657Y-107886311D01*
X92220161Y-107753284D01*
X92216266Y-107748508D01*
X92210475Y-107743717D01*
X92075577Y-107632120D01*
X92075574Y-107632118D01*
X92070827Y-107628191D01*
X91904788Y-107538414D01*
X91724474Y-107482597D01*
X91718356Y-107481954D01*
X91718351Y-107481953D01*
X91542881Y-107463511D01*
X91542879Y-107463511D01*
X91536752Y-107462867D01*
X91437461Y-107471903D01*
X91354914Y-107479415D01*
X91354913Y-107479415D01*
X91348773Y-107479974D01*
X91167697Y-107533268D01*
X91162232Y-107536125D01*
X91057769Y-107590737D01*
X91000420Y-107620718D01*
X90853316Y-107738993D01*
X90731986Y-107883588D01*
X90729016Y-107888991D01*
X90729015Y-107888992D01*
X90660268Y-108014043D01*
X90641052Y-108048996D01*
X90583978Y-108228917D01*
X90583292Y-108235036D01*
X90583291Y-108235039D01*
X90573138Y-108325552D01*
X90562937Y-108416496D01*
X87950500Y-108416496D01*
X87950500Y-107006362D01*
X95955418Y-107006362D01*
X95974007Y-107148518D01*
X96031747Y-107279742D01*
X96037524Y-107286615D01*
X96037525Y-107286616D01*
X96118217Y-107382611D01*
X96123997Y-107389487D01*
X96243340Y-107468929D01*
X96380184Y-107511681D01*
X96389156Y-107511845D01*
X96389159Y-107511846D01*
X96454490Y-107513043D01*
X96523526Y-107514309D01*
X96532560Y-107511846D01*
X96653185Y-107478960D01*
X96653187Y-107478959D01*
X96661844Y-107476599D01*
X96770072Y-107410147D01*
X96776370Y-107406280D01*
X96776371Y-107406280D01*
X96784018Y-107401584D01*
X96784955Y-107400548D01*
X96846643Y-107373934D01*
X96916688Y-107385518D01*
X96931758Y-107394114D01*
X96994516Y-107435890D01*
X97131360Y-107478642D01*
X97140332Y-107478806D01*
X97140335Y-107478807D01*
X97205666Y-107480004D01*
X97274702Y-107481270D01*
X97283736Y-107478807D01*
X97404361Y-107445921D01*
X97404363Y-107445920D01*
X97413020Y-107443560D01*
X97535194Y-107368545D01*
X97568952Y-107331250D01*
X97625381Y-107268907D01*
X97631403Y-107262254D01*
X97683345Y-107155045D01*
X97689998Y-107141314D01*
X97689998Y-107141313D01*
X97693913Y-107133233D01*
X97717699Y-106991854D01*
X97717850Y-106979500D01*
X97703138Y-106876770D01*
X97698799Y-106846468D01*
X97698798Y-106846465D01*
X97697526Y-106837582D01*
X97638187Y-106707072D01*
X97600357Y-106663168D01*
X97550463Y-106605263D01*
X97550460Y-106605260D01*
X97544603Y-106598463D01*
X97463766Y-106546067D01*
X97417484Y-106492232D01*
X97406300Y-106440336D01*
X97406300Y-106424326D01*
X115307741Y-106424326D01*
X115338135Y-106625297D01*
X115408319Y-106816052D01*
X115411679Y-106821472D01*
X115411680Y-106821473D01*
X115512063Y-106983376D01*
X115512066Y-106983380D01*
X115515426Y-106988799D01*
X115519812Y-106993437D01*
X115643640Y-107124381D01*
X115655081Y-107136480D01*
X115821579Y-107253063D01*
X116008119Y-107333786D01*
X116045666Y-107341630D01*
X116202344Y-107374362D01*
X116202349Y-107374363D01*
X116207080Y-107375351D01*
X116211962Y-107375607D01*
X116212071Y-107375613D01*
X116212087Y-107375613D01*
X116213739Y-107375700D01*
X116763000Y-107375700D01*
X116810993Y-107370825D01*
X116908068Y-107360965D01*
X116908070Y-107360965D01*
X116914416Y-107360320D01*
X117108372Y-107299538D01*
X117286144Y-107200997D01*
X117440471Y-107068723D01*
X117565048Y-106908119D01*
X117654787Y-106725745D01*
X117659651Y-106707072D01*
X117704412Y-106535234D01*
X117704412Y-106535231D01*
X117706022Y-106529052D01*
X117714419Y-106368823D01*
X132919391Y-106368823D01*
X132937980Y-106510979D01*
X132949830Y-106537910D01*
X132985470Y-106618907D01*
X132995720Y-106642203D01*
X133001497Y-106649076D01*
X133001498Y-106649077D01*
X133013343Y-106663168D01*
X133087970Y-106751948D01*
X133207313Y-106831390D01*
X133344157Y-106874142D01*
X133353129Y-106874306D01*
X133353132Y-106874307D01*
X133418463Y-106875504D01*
X133487499Y-106876770D01*
X133496533Y-106874307D01*
X133617158Y-106841421D01*
X133617160Y-106841420D01*
X133625817Y-106839060D01*
X133693463Y-106797525D01*
X133759392Y-106778900D01*
X138175153Y-106778900D01*
X138243274Y-106798902D01*
X138282239Y-106838503D01*
X138375426Y-106988799D01*
X138379812Y-106993437D01*
X138503640Y-107124381D01*
X138515081Y-107136480D01*
X138681579Y-107253063D01*
X138868119Y-107333786D01*
X138905666Y-107341630D01*
X139062344Y-107374362D01*
X139062349Y-107374363D01*
X139067080Y-107375351D01*
X139071962Y-107375607D01*
X139072071Y-107375613D01*
X139072087Y-107375613D01*
X139073739Y-107375700D01*
X139623000Y-107375700D01*
X139670993Y-107370825D01*
X139768068Y-107360965D01*
X139768070Y-107360965D01*
X139774416Y-107360320D01*
X139968372Y-107299538D01*
X140146144Y-107200997D01*
X140300471Y-107068723D01*
X140425048Y-106908119D01*
X140514787Y-106725745D01*
X140519651Y-106707072D01*
X140564412Y-106535234D01*
X140564412Y-106535231D01*
X140566022Y-106529052D01*
X140576659Y-106326074D01*
X140546265Y-106125103D01*
X140509443Y-106025023D01*
X163464191Y-106025023D01*
X163465355Y-106033925D01*
X163465355Y-106033928D01*
X163472774Y-106090659D01*
X163482780Y-106167179D01*
X163540520Y-106298403D01*
X163632770Y-106408148D01*
X163752113Y-106487590D01*
X163760685Y-106490268D01*
X163760687Y-106490269D01*
X163823306Y-106509832D01*
X163872548Y-106525216D01*
X163924069Y-106556387D01*
X165282620Y-107914938D01*
X165316646Y-107977250D01*
X165318458Y-107987672D01*
X165320742Y-108005141D01*
X165324359Y-108013361D01*
X165372919Y-108123721D01*
X165378482Y-108136365D01*
X165384259Y-108143238D01*
X165384260Y-108143239D01*
X165391554Y-108151916D01*
X165470732Y-108246110D01*
X165590075Y-108325552D01*
X165726919Y-108368304D01*
X165735891Y-108368468D01*
X165735894Y-108368469D01*
X165801225Y-108369666D01*
X165870261Y-108370932D01*
X165879295Y-108368469D01*
X165999920Y-108335583D01*
X165999922Y-108335582D01*
X166008579Y-108333222D01*
X166130753Y-108258207D01*
X166145292Y-108242145D01*
X166220940Y-108158569D01*
X166226962Y-108151916D01*
X166289472Y-108022895D01*
X166313258Y-107881516D01*
X166313409Y-107869162D01*
X166305235Y-107812086D01*
X166294358Y-107736130D01*
X166294357Y-107736127D01*
X166293085Y-107727244D01*
X166233746Y-107596734D01*
X166162582Y-107514144D01*
X166146022Y-107494925D01*
X166146019Y-107494922D01*
X166140162Y-107488125D01*
X166019857Y-107410147D01*
X165907406Y-107376517D01*
X165854413Y-107344895D01*
X164494220Y-105984702D01*
X164460194Y-105922390D01*
X164458588Y-105913470D01*
X164456397Y-105898170D01*
X164456395Y-105898162D01*
X164455123Y-105889282D01*
X164449311Y-105876498D01*
X164428676Y-105831114D01*
X164395784Y-105758772D01*
X164377398Y-105737434D01*
X164308060Y-105656963D01*
X164308057Y-105656960D01*
X164302200Y-105650163D01*
X164181895Y-105572185D01*
X164044539Y-105531107D01*
X164035563Y-105531052D01*
X164035562Y-105531052D01*
X163975355Y-105530684D01*
X163901176Y-105530231D01*
X163763329Y-105569628D01*
X163642080Y-105646130D01*
X163636138Y-105652858D01*
X163636137Y-105652859D01*
X163614353Y-105677525D01*
X163547177Y-105753588D01*
X163486247Y-105883363D01*
X163480171Y-105922390D01*
X163467978Y-106000703D01*
X163464191Y-106025023D01*
X140509443Y-106025023D01*
X140476081Y-105934348D01*
X140467724Y-105920869D01*
X140372337Y-105767024D01*
X140372334Y-105767020D01*
X140368974Y-105761601D01*
X140263592Y-105650163D01*
X140233708Y-105618561D01*
X140233707Y-105618560D01*
X140229319Y-105613920D01*
X140062821Y-105497337D01*
X139876281Y-105416614D01*
X139818223Y-105404485D01*
X139682056Y-105376038D01*
X139682051Y-105376037D01*
X139677320Y-105375049D01*
X139672438Y-105374793D01*
X139672329Y-105374787D01*
X139672313Y-105374787D01*
X139670661Y-105374700D01*
X139121400Y-105374700D01*
X139074932Y-105379420D01*
X138976332Y-105389435D01*
X138976330Y-105389435D01*
X138969984Y-105390080D01*
X138776028Y-105450862D01*
X138598256Y-105549403D01*
X138443929Y-105681677D01*
X138440022Y-105686714D01*
X138440020Y-105686716D01*
X138323264Y-105837237D01*
X138323262Y-105837240D01*
X138319352Y-105842281D01*
X138290394Y-105901131D01*
X138242373Y-105953420D01*
X138177341Y-105971500D01*
X133760006Y-105971500D01*
X133691476Y-105951233D01*
X133637095Y-105915985D01*
X133499739Y-105874907D01*
X133490763Y-105874852D01*
X133490762Y-105874852D01*
X133430555Y-105874484D01*
X133356376Y-105874031D01*
X133218529Y-105913428D01*
X133097280Y-105989930D01*
X133091338Y-105996658D01*
X133091337Y-105996659D01*
X133049828Y-106043659D01*
X133002377Y-106097388D01*
X132941447Y-106227163D01*
X132936461Y-106259188D01*
X132927031Y-106319756D01*
X132919391Y-106368823D01*
X117714419Y-106368823D01*
X117716659Y-106326074D01*
X117686265Y-106125103D01*
X117616081Y-105934348D01*
X117607724Y-105920869D01*
X117512337Y-105767024D01*
X117512334Y-105767020D01*
X117508974Y-105761601D01*
X117403592Y-105650163D01*
X117373708Y-105618561D01*
X117373707Y-105618560D01*
X117369319Y-105613920D01*
X117202821Y-105497337D01*
X117016281Y-105416614D01*
X116958223Y-105404485D01*
X116822056Y-105376038D01*
X116822051Y-105376037D01*
X116817320Y-105375049D01*
X116812438Y-105374793D01*
X116812329Y-105374787D01*
X116812313Y-105374787D01*
X116810661Y-105374700D01*
X116261400Y-105374700D01*
X116214932Y-105379420D01*
X116116332Y-105389435D01*
X116116330Y-105389435D01*
X116109984Y-105390080D01*
X115916028Y-105450862D01*
X115738256Y-105549403D01*
X115583929Y-105681677D01*
X115459352Y-105842281D01*
X115369613Y-106024655D01*
X115368004Y-106030833D01*
X115368003Y-106030835D01*
X115321377Y-106209836D01*
X115318378Y-106221348D01*
X115314771Y-106290183D01*
X115308589Y-106408148D01*
X115307741Y-106424326D01*
X97406300Y-106424326D01*
X97406300Y-106129982D01*
X97426302Y-106061861D01*
X97438884Y-106045427D01*
X97517378Y-105958707D01*
X97523400Y-105952054D01*
X97559531Y-105877480D01*
X97581995Y-105831114D01*
X97581995Y-105831113D01*
X97585910Y-105823033D01*
X97609696Y-105681654D01*
X97609847Y-105669300D01*
X97592677Y-105549403D01*
X97590796Y-105536268D01*
X97590795Y-105536265D01*
X97589523Y-105527382D01*
X97577528Y-105500999D01*
X97556140Y-105453960D01*
X97530184Y-105396872D01*
X97511079Y-105374700D01*
X97442460Y-105295063D01*
X97442457Y-105295060D01*
X97436600Y-105288263D01*
X97379030Y-105250948D01*
X97332746Y-105197112D01*
X97322915Y-105126800D01*
X97350674Y-105068933D01*
X97349849Y-105068411D01*
X97354307Y-105061359D01*
X97355186Y-105059527D01*
X97356063Y-105058582D01*
X97356066Y-105058577D01*
X97363977Y-105050049D01*
X97368288Y-105039244D01*
X97370716Y-105035403D01*
X97376757Y-105024089D01*
X97378600Y-105019931D01*
X97385180Y-105010338D01*
X97390914Y-104986178D01*
X97396477Y-104968588D01*
X97402384Y-104953781D01*
X97405680Y-104945520D01*
X97406300Y-104939197D01*
X97406300Y-104936088D01*
X97406302Y-104936069D01*
X97406450Y-104933046D01*
X97406655Y-104933056D01*
X97408033Y-104921278D01*
X97408479Y-104912160D01*
X97411166Y-104900838D01*
X97407451Y-104873540D01*
X97406300Y-104856549D01*
X97406300Y-104549882D01*
X97426302Y-104481761D01*
X97438884Y-104465327D01*
X97517378Y-104378607D01*
X97523400Y-104371954D01*
X97585910Y-104242933D01*
X97609696Y-104101554D01*
X97609847Y-104089200D01*
X97595505Y-103989052D01*
X97590796Y-103956168D01*
X97590795Y-103956165D01*
X97589523Y-103947282D01*
X97560899Y-103884326D01*
X115307741Y-103884326D01*
X115338135Y-104085297D01*
X115340341Y-104091292D01*
X115340341Y-104091293D01*
X115341359Y-104094059D01*
X115408319Y-104276052D01*
X115411679Y-104281472D01*
X115411680Y-104281473D01*
X115512063Y-104443376D01*
X115512066Y-104443380D01*
X115515426Y-104448799D01*
X115519812Y-104453437D01*
X115613051Y-104552034D01*
X115655081Y-104596480D01*
X115821579Y-104713063D01*
X116008119Y-104793786D01*
X116054147Y-104803402D01*
X116202344Y-104834362D01*
X116202349Y-104834363D01*
X116207080Y-104835351D01*
X116211962Y-104835607D01*
X116212071Y-104835613D01*
X116212087Y-104835613D01*
X116213739Y-104835700D01*
X116763000Y-104835700D01*
X116810993Y-104830825D01*
X116908068Y-104820965D01*
X116908070Y-104820965D01*
X116914416Y-104820320D01*
X117108372Y-104759538D01*
X117286144Y-104660997D01*
X117440471Y-104528723D01*
X117448465Y-104518418D01*
X117506673Y-104443376D01*
X117565048Y-104368119D01*
X117654787Y-104185745D01*
X117675468Y-104106349D01*
X117704412Y-103995234D01*
X117704412Y-103995231D01*
X117706022Y-103989052D01*
X117712192Y-103871322D01*
X117716325Y-103792456D01*
X117716325Y-103792452D01*
X117716659Y-103786074D01*
X117686265Y-103585103D01*
X117616081Y-103394348D01*
X117612720Y-103388927D01*
X117512337Y-103227024D01*
X117512334Y-103227020D01*
X117508974Y-103221601D01*
X117380508Y-103085752D01*
X117373708Y-103078561D01*
X117373707Y-103078560D01*
X117369319Y-103073920D01*
X117202821Y-102957337D01*
X117016281Y-102876614D01*
X116970253Y-102866998D01*
X116822056Y-102836038D01*
X116822051Y-102836037D01*
X116817320Y-102835049D01*
X116812438Y-102834793D01*
X116812329Y-102834787D01*
X116812313Y-102834787D01*
X116810661Y-102834700D01*
X116261400Y-102834700D01*
X116213407Y-102839575D01*
X116116332Y-102849435D01*
X116116330Y-102849435D01*
X116109984Y-102850080D01*
X115916028Y-102910862D01*
X115738256Y-103009403D01*
X115583929Y-103141677D01*
X115459352Y-103302281D01*
X115369613Y-103484655D01*
X115368004Y-103490833D01*
X115368003Y-103490835D01*
X115331124Y-103632417D01*
X115318378Y-103681348D01*
X115314124Y-103762528D01*
X115308560Y-103868704D01*
X115307741Y-103884326D01*
X97560899Y-103884326D01*
X97530184Y-103816772D01*
X97502066Y-103784140D01*
X97442460Y-103714963D01*
X97442457Y-103714960D01*
X97436600Y-103708163D01*
X97316295Y-103630185D01*
X97178939Y-103589107D01*
X97169963Y-103589052D01*
X97169962Y-103589052D01*
X97109755Y-103588684D01*
X97035576Y-103588231D01*
X96897729Y-103627628D01*
X96776480Y-103704130D01*
X96681577Y-103811588D01*
X96620647Y-103941363D01*
X96598591Y-104083023D01*
X96599755Y-104091925D01*
X96599755Y-104091928D01*
X96601014Y-104101554D01*
X96617180Y-104225179D01*
X96674920Y-104356403D01*
X96680697Y-104363276D01*
X96680698Y-104363277D01*
X96767170Y-104466148D01*
X96765794Y-104467304D01*
X96797533Y-104518418D01*
X96802100Y-104552034D01*
X96802100Y-104708501D01*
X96782098Y-104776622D01*
X96765195Y-104797596D01*
X96284662Y-105278129D01*
X96282588Y-105279919D01*
X96277787Y-105282266D01*
X96269875Y-105290795D01*
X96269874Y-105290796D01*
X96244293Y-105318373D01*
X96241013Y-105321778D01*
X96227542Y-105335249D01*
X96224810Y-105339232D01*
X96222448Y-105341922D01*
X96211436Y-105353794D01*
X96201250Y-105364774D01*
X96196939Y-105375579D01*
X96194511Y-105379420D01*
X96188470Y-105390734D01*
X96186627Y-105394892D01*
X96180047Y-105404485D01*
X96177169Y-105416614D01*
X96174314Y-105428643D01*
X96168750Y-105446235D01*
X96166904Y-105450862D01*
X96159547Y-105469303D01*
X96158927Y-105475626D01*
X96158927Y-105478735D01*
X96158925Y-105478754D01*
X96158777Y-105481777D01*
X96158572Y-105481767D01*
X96157194Y-105493545D01*
X96156748Y-105502663D01*
X96154061Y-105513985D01*
X96155630Y-105525514D01*
X96155630Y-105525515D01*
X96157776Y-105541283D01*
X96158927Y-105558274D01*
X96158927Y-106550786D01*
X96138925Y-106618907D01*
X96127370Y-106634192D01*
X96038404Y-106734927D01*
X95977474Y-106864702D01*
X95975979Y-106874307D01*
X95957677Y-106991854D01*
X95955418Y-107006362D01*
X87950500Y-107006362D01*
X87950500Y-101637296D01*
X90020537Y-101637296D01*
X90036332Y-101825390D01*
X90038031Y-101831315D01*
X90083167Y-101988723D01*
X90088360Y-102006834D01*
X90174640Y-102174717D01*
X90178465Y-102179543D01*
X90178467Y-102179546D01*
X90288056Y-102317814D01*
X90288060Y-102317819D01*
X90291885Y-102322644D01*
X90435630Y-102444980D01*
X90441008Y-102447986D01*
X90441010Y-102447987D01*
X90518015Y-102491023D01*
X90600400Y-102537067D01*
X90779917Y-102595395D01*
X90967345Y-102617745D01*
X90973480Y-102617273D01*
X90973482Y-102617273D01*
X91149403Y-102603737D01*
X91149407Y-102603736D01*
X91155545Y-102603264D01*
X91161477Y-102601608D01*
X91161481Y-102601607D01*
X91331404Y-102554163D01*
X91331408Y-102554162D01*
X91337348Y-102552503D01*
X91416897Y-102512320D01*
X91500328Y-102470177D01*
X91500330Y-102470176D01*
X91505829Y-102467398D01*
X91654570Y-102351188D01*
X91658596Y-102346524D01*
X91658599Y-102346521D01*
X91773878Y-102212969D01*
X91773879Y-102212967D01*
X91777907Y-102208301D01*
X91871142Y-102044178D01*
X91930723Y-101865072D01*
X91954380Y-101677805D01*
X91954757Y-101650800D01*
X91936338Y-101462945D01*
X91900525Y-101344326D01*
X115307741Y-101344326D01*
X115338135Y-101545297D01*
X115408319Y-101736052D01*
X115411679Y-101741472D01*
X115411680Y-101741473D01*
X115512063Y-101903376D01*
X115512066Y-101903380D01*
X115515426Y-101908799D01*
X115519812Y-101913437D01*
X115643448Y-102044178D01*
X115655081Y-102056480D01*
X115821579Y-102173063D01*
X116008119Y-102253786D01*
X116054147Y-102263402D01*
X116202344Y-102294362D01*
X116202349Y-102294363D01*
X116207080Y-102295351D01*
X116211962Y-102295607D01*
X116212071Y-102295613D01*
X116212087Y-102295613D01*
X116213739Y-102295700D01*
X116763000Y-102295700D01*
X116810993Y-102290825D01*
X116908068Y-102280965D01*
X116908070Y-102280965D01*
X116914416Y-102280320D01*
X117108372Y-102219538D01*
X117286144Y-102120997D01*
X117440471Y-101988723D01*
X117565048Y-101828119D01*
X117654787Y-101645745D01*
X117656397Y-101639565D01*
X117704412Y-101455234D01*
X117704412Y-101455231D01*
X117706022Y-101449052D01*
X117711510Y-101344326D01*
X138167741Y-101344326D01*
X138198135Y-101545297D01*
X138268319Y-101736052D01*
X138271679Y-101741472D01*
X138271680Y-101741473D01*
X138372063Y-101903376D01*
X138372066Y-101903380D01*
X138375426Y-101908799D01*
X138379812Y-101913437D01*
X138503448Y-102044178D01*
X138515081Y-102056480D01*
X138681579Y-102173063D01*
X138868119Y-102253786D01*
X138914147Y-102263402D01*
X139062344Y-102294362D01*
X139062349Y-102294363D01*
X139067080Y-102295351D01*
X139071962Y-102295607D01*
X139072071Y-102295613D01*
X139072087Y-102295613D01*
X139073739Y-102295700D01*
X139623000Y-102295700D01*
X139670993Y-102290825D01*
X139768068Y-102280965D01*
X139768070Y-102280965D01*
X139774416Y-102280320D01*
X139968372Y-102219538D01*
X140146144Y-102120997D01*
X140300471Y-101988723D01*
X140425048Y-101828119D01*
X140514787Y-101645745D01*
X140516397Y-101639565D01*
X140548374Y-101516806D01*
X147260023Y-101516806D01*
X147265304Y-101523861D01*
X147441680Y-101626927D01*
X147450963Y-101631374D01*
X147657603Y-101710283D01*
X147667501Y-101713159D01*
X147884253Y-101757257D01*
X147894483Y-101758476D01*
X148115514Y-101766582D01*
X148125823Y-101766114D01*
X148345223Y-101738008D01*
X148355288Y-101735868D01*
X148567157Y-101672305D01*
X148576752Y-101668544D01*
X148775378Y-101571238D01*
X148784236Y-101565959D01*
X148841697Y-101524972D01*
X148850097Y-101514274D01*
X148843110Y-101501121D01*
X148069411Y-100727421D01*
X148055468Y-100719808D01*
X148053634Y-100719939D01*
X148047020Y-100724190D01*
X147266780Y-101504431D01*
X147260023Y-101516806D01*
X140548374Y-101516806D01*
X140564412Y-101455234D01*
X140564412Y-101455231D01*
X140566022Y-101449052D01*
X140572603Y-101323472D01*
X140576325Y-101252456D01*
X140576325Y-101252452D01*
X140576659Y-101246074D01*
X140546265Y-101045103D01*
X140476081Y-100854348D01*
X140448562Y-100809964D01*
X140372337Y-100687024D01*
X140372334Y-100687020D01*
X140368974Y-100681601D01*
X140229319Y-100533920D01*
X140062821Y-100417337D01*
X139876281Y-100336614D01*
X139830253Y-100326998D01*
X139827721Y-100326469D01*
X141871764Y-100326469D01*
X141884992Y-100528294D01*
X141902574Y-100597525D01*
X141930450Y-100707285D01*
X141934778Y-100724328D01*
X142019456Y-100908007D01*
X142022789Y-100912723D01*
X142120810Y-101051420D01*
X142136188Y-101073180D01*
X142140330Y-101077215D01*
X142174813Y-101110807D01*
X142281066Y-101214313D01*
X142449237Y-101326682D01*
X142454540Y-101328960D01*
X142454543Y-101328962D01*
X142542891Y-101366919D01*
X142635070Y-101406522D01*
X142832340Y-101451160D01*
X142838109Y-101451387D01*
X142838112Y-101451387D01*
X142914283Y-101454379D01*
X143034442Y-101459100D01*
X143139677Y-101443842D01*
X143228886Y-101430908D01*
X143228891Y-101430907D01*
X143234607Y-101430078D01*
X143240079Y-101428220D01*
X143240081Y-101428220D01*
X143420667Y-101366919D01*
X143420669Y-101366918D01*
X143426131Y-101365064D01*
X143563481Y-101288145D01*
X143597564Y-101269058D01*
X143597565Y-101269057D01*
X143602601Y-101266237D01*
X143665033Y-101214313D01*
X143753673Y-101140591D01*
X143758105Y-101136905D01*
X143887437Y-100981401D01*
X143896893Y-100964517D01*
X143961625Y-100848927D01*
X143986264Y-100804931D01*
X143993359Y-100784032D01*
X144049420Y-100618881D01*
X144049420Y-100618879D01*
X144051278Y-100613407D01*
X144052107Y-100607691D01*
X144052108Y-100607686D01*
X144079767Y-100416916D01*
X144080300Y-100413242D01*
X144081815Y-100355400D01*
X144079157Y-100326469D01*
X144411764Y-100326469D01*
X144424992Y-100528294D01*
X144442574Y-100597525D01*
X144470450Y-100707285D01*
X144474778Y-100724328D01*
X144559456Y-100908007D01*
X144562789Y-100912723D01*
X144660810Y-101051420D01*
X144676188Y-101073180D01*
X144680330Y-101077215D01*
X144714813Y-101110807D01*
X144821066Y-101214313D01*
X144989237Y-101326682D01*
X144994540Y-101328960D01*
X144994543Y-101328962D01*
X145082891Y-101366919D01*
X145175070Y-101406522D01*
X145372340Y-101451160D01*
X145378109Y-101451387D01*
X145378112Y-101451387D01*
X145454283Y-101454379D01*
X145574442Y-101459100D01*
X145679677Y-101443842D01*
X145768886Y-101430908D01*
X145768891Y-101430907D01*
X145774607Y-101430078D01*
X145780079Y-101428220D01*
X145780081Y-101428220D01*
X145960667Y-101366919D01*
X145960669Y-101366918D01*
X145966131Y-101365064D01*
X146103481Y-101288145D01*
X146137564Y-101269058D01*
X146137565Y-101269057D01*
X146142601Y-101266237D01*
X146205033Y-101214313D01*
X146293673Y-101140591D01*
X146298105Y-101136905D01*
X146427437Y-100981401D01*
X146436893Y-100964517D01*
X146510156Y-100833694D01*
X146560893Y-100784032D01*
X146630425Y-100769684D01*
X146696675Y-100795206D01*
X146736833Y-100847855D01*
X146793586Y-100987620D01*
X146798234Y-100996821D01*
X146886697Y-101141181D01*
X146897153Y-101150642D01*
X146905931Y-101146858D01*
X147684579Y-100368211D01*
X147690956Y-100356532D01*
X148421008Y-100356532D01*
X148421139Y-100358366D01*
X148425390Y-100364980D01*
X149202907Y-101142496D01*
X149214913Y-101149052D01*
X149226652Y-101140084D01*
X149264610Y-101087259D01*
X149269921Y-101078420D01*
X149367918Y-100880137D01*
X149371717Y-100870542D01*
X149436015Y-100658917D01*
X149438194Y-100648836D01*
X149467302Y-100427738D01*
X149467821Y-100421063D01*
X149469344Y-100358764D01*
X149469150Y-100352046D01*
X149450879Y-100129800D01*
X149449196Y-100119638D01*
X149395310Y-99905108D01*
X149391989Y-99895353D01*
X149303793Y-99692518D01*
X149298915Y-99683420D01*
X149225824Y-99570438D01*
X149215138Y-99561235D01*
X149205573Y-99565638D01*
X148428621Y-100342589D01*
X148421008Y-100356532D01*
X147690956Y-100356532D01*
X147692192Y-100354268D01*
X147692061Y-100352434D01*
X147687810Y-100345820D01*
X146910462Y-99568473D01*
X146898930Y-99562176D01*
X146886648Y-99571799D01*
X146831067Y-99653277D01*
X146825979Y-99662233D01*
X146731202Y-99866414D01*
X146684378Y-99919781D01*
X146616134Y-99939362D01*
X146548139Y-99918938D01*
X146503909Y-99869093D01*
X146461506Y-99783108D01*
X146461506Y-99783107D01*
X146461503Y-99783103D01*
X146458951Y-99777927D01*
X146440679Y-99753457D01*
X146341388Y-99620491D01*
X146341387Y-99620490D01*
X146337935Y-99615867D01*
X146314950Y-99594620D01*
X146193653Y-99482494D01*
X146193651Y-99482492D01*
X146189412Y-99478574D01*
X146161974Y-99461262D01*
X146023237Y-99373725D01*
X146018357Y-99370646D01*
X145830498Y-99295698D01*
X145632126Y-99256239D01*
X145626352Y-99256163D01*
X145626348Y-99256163D01*
X145523857Y-99254822D01*
X145429886Y-99253592D01*
X145424189Y-99254571D01*
X145424188Y-99254571D01*
X145236246Y-99286865D01*
X145236245Y-99286865D01*
X145230549Y-99287844D01*
X145040793Y-99357849D01*
X144866971Y-99461262D01*
X144714905Y-99594620D01*
X144589689Y-99753457D01*
X144495514Y-99932453D01*
X144435537Y-100125613D01*
X144411764Y-100326469D01*
X144079157Y-100326469D01*
X144063308Y-100153991D01*
X144056486Y-100129800D01*
X144016102Y-99986610D01*
X144008407Y-99959326D01*
X143918951Y-99777927D01*
X143900679Y-99753457D01*
X143801388Y-99620491D01*
X143801387Y-99620490D01*
X143797935Y-99615867D01*
X143774950Y-99594620D01*
X143653653Y-99482494D01*
X143653651Y-99482492D01*
X143649412Y-99478574D01*
X143621974Y-99461262D01*
X143483237Y-99373725D01*
X143478357Y-99370646D01*
X143290498Y-99295698D01*
X143092126Y-99256239D01*
X143086352Y-99256163D01*
X143086348Y-99256163D01*
X142983857Y-99254822D01*
X142889886Y-99253592D01*
X142884189Y-99254571D01*
X142884188Y-99254571D01*
X142696246Y-99286865D01*
X142696245Y-99286865D01*
X142690549Y-99287844D01*
X142500793Y-99357849D01*
X142326971Y-99461262D01*
X142174905Y-99594620D01*
X142049689Y-99753457D01*
X141955514Y-99932453D01*
X141895537Y-100125613D01*
X141871764Y-100326469D01*
X139827721Y-100326469D01*
X139682056Y-100296038D01*
X139682051Y-100296037D01*
X139677320Y-100295049D01*
X139672438Y-100294793D01*
X139672329Y-100294787D01*
X139672313Y-100294787D01*
X139670661Y-100294700D01*
X139121400Y-100294700D01*
X139073407Y-100299575D01*
X138976332Y-100309435D01*
X138976330Y-100309435D01*
X138969984Y-100310080D01*
X138776028Y-100370862D01*
X138598256Y-100469403D01*
X138443929Y-100601677D01*
X138319352Y-100762281D01*
X138229613Y-100944655D01*
X138228004Y-100950833D01*
X138228003Y-100950835D01*
X138180690Y-101132473D01*
X138178378Y-101141348D01*
X138177891Y-101150642D01*
X138168666Y-101326682D01*
X138167741Y-101344326D01*
X117711510Y-101344326D01*
X117712603Y-101323472D01*
X117716325Y-101252456D01*
X117716325Y-101252452D01*
X117716659Y-101246074D01*
X117686265Y-101045103D01*
X117616081Y-100854348D01*
X117588562Y-100809964D01*
X117512337Y-100687024D01*
X117512334Y-100687020D01*
X117508974Y-100681601D01*
X117369319Y-100533920D01*
X117202821Y-100417337D01*
X117016281Y-100336614D01*
X116970253Y-100326998D01*
X116822056Y-100296038D01*
X116822051Y-100296037D01*
X116817320Y-100295049D01*
X116812438Y-100294793D01*
X116812329Y-100294787D01*
X116812313Y-100294787D01*
X116810661Y-100294700D01*
X116261400Y-100294700D01*
X116213407Y-100299575D01*
X116116332Y-100309435D01*
X116116330Y-100309435D01*
X116109984Y-100310080D01*
X115916028Y-100370862D01*
X115738256Y-100469403D01*
X115583929Y-100601677D01*
X115459352Y-100762281D01*
X115369613Y-100944655D01*
X115368004Y-100950833D01*
X115368003Y-100950835D01*
X115320690Y-101132473D01*
X115318378Y-101141348D01*
X115317891Y-101150642D01*
X115308666Y-101326682D01*
X115307741Y-101344326D01*
X91900525Y-101344326D01*
X91881781Y-101282245D01*
X91793166Y-101115583D01*
X91740836Y-101051420D01*
X91677761Y-100974084D01*
X91673866Y-100969308D01*
X91668075Y-100964517D01*
X91533177Y-100852920D01*
X91533174Y-100852918D01*
X91528427Y-100848991D01*
X91362388Y-100759214D01*
X91182074Y-100703397D01*
X91175956Y-100702754D01*
X91175951Y-100702753D01*
X91000481Y-100684311D01*
X91000479Y-100684311D01*
X90994352Y-100683667D01*
X90878726Y-100694190D01*
X90812514Y-100700215D01*
X90812513Y-100700215D01*
X90806373Y-100700774D01*
X90625297Y-100754068D01*
X90458020Y-100841518D01*
X90310916Y-100959793D01*
X90189586Y-101104388D01*
X90186616Y-101109791D01*
X90186615Y-101109792D01*
X90169962Y-101140084D01*
X90098652Y-101269796D01*
X90041578Y-101449717D01*
X90040892Y-101455836D01*
X90040891Y-101455839D01*
X90030184Y-101551293D01*
X90020537Y-101637296D01*
X87950500Y-101637296D01*
X87950500Y-98804326D01*
X115307741Y-98804326D01*
X115338135Y-99005297D01*
X115408319Y-99196052D01*
X115411679Y-99201472D01*
X115411680Y-99201473D01*
X115512063Y-99363376D01*
X115512066Y-99363380D01*
X115515426Y-99368799D01*
X115519812Y-99373437D01*
X115616322Y-99475493D01*
X115655081Y-99516480D01*
X115821579Y-99633063D01*
X116008119Y-99713786D01*
X116054147Y-99723402D01*
X116202344Y-99754362D01*
X116202349Y-99754363D01*
X116207080Y-99755351D01*
X116211962Y-99755607D01*
X116212071Y-99755613D01*
X116212087Y-99755613D01*
X116213739Y-99755700D01*
X116763000Y-99755700D01*
X116810993Y-99750825D01*
X116908068Y-99740965D01*
X116908070Y-99740965D01*
X116914416Y-99740320D01*
X117108372Y-99679538D01*
X117286144Y-99580997D01*
X117440471Y-99448723D01*
X117565048Y-99288119D01*
X117636607Y-99142691D01*
X117651969Y-99111472D01*
X117654787Y-99105745D01*
X117668953Y-99051361D01*
X117704412Y-98915234D01*
X117704412Y-98915231D01*
X117706022Y-98909052D01*
X117711510Y-98804326D01*
X138167741Y-98804326D01*
X138198135Y-99005297D01*
X138268319Y-99196052D01*
X138271679Y-99201472D01*
X138271680Y-99201473D01*
X138372063Y-99363376D01*
X138372066Y-99363380D01*
X138375426Y-99368799D01*
X138379812Y-99373437D01*
X138476322Y-99475493D01*
X138515081Y-99516480D01*
X138681579Y-99633063D01*
X138868119Y-99713786D01*
X138914147Y-99723402D01*
X139062344Y-99754362D01*
X139062349Y-99754363D01*
X139067080Y-99755351D01*
X139071962Y-99755607D01*
X139072071Y-99755613D01*
X139072087Y-99755613D01*
X139073739Y-99755700D01*
X139623000Y-99755700D01*
X139670993Y-99750825D01*
X139768068Y-99740965D01*
X139768070Y-99740965D01*
X139774416Y-99740320D01*
X139968372Y-99679538D01*
X140146144Y-99580997D01*
X140300471Y-99448723D01*
X140425048Y-99288119D01*
X140470321Y-99196111D01*
X147262108Y-99196111D01*
X147268851Y-99208440D01*
X148043789Y-99983379D01*
X148057732Y-99990992D01*
X148059566Y-99990861D01*
X148066180Y-99986610D01*
X148845594Y-99207195D01*
X148852611Y-99194344D01*
X148844837Y-99183674D01*
X148842502Y-99181830D01*
X148833920Y-99176129D01*
X148640278Y-99069233D01*
X148630872Y-99065006D01*
X148422372Y-98991172D01*
X148412409Y-98988540D01*
X148194647Y-98949750D01*
X148184396Y-98948781D01*
X147963216Y-98946079D01*
X147952932Y-98946799D01*
X147734293Y-98980255D01*
X147724266Y-98982644D01*
X147514026Y-99051361D01*
X147504516Y-99055358D01*
X147308325Y-99157489D01*
X147299607Y-99162978D01*
X147270561Y-99184786D01*
X147262108Y-99196111D01*
X140470321Y-99196111D01*
X140496607Y-99142691D01*
X140511969Y-99111472D01*
X140514787Y-99105745D01*
X140528953Y-99051361D01*
X140564412Y-98915234D01*
X140564412Y-98915231D01*
X140566022Y-98909052D01*
X140572375Y-98787829D01*
X140576325Y-98712456D01*
X140576325Y-98712452D01*
X140576659Y-98706074D01*
X140546265Y-98505103D01*
X140476081Y-98314348D01*
X140422545Y-98228002D01*
X140396810Y-98186496D01*
X142882937Y-98186496D01*
X142898732Y-98374590D01*
X142900431Y-98380515D01*
X142934437Y-98499107D01*
X142950760Y-98556034D01*
X143037040Y-98723917D01*
X143040865Y-98728743D01*
X143040867Y-98728746D01*
X143150456Y-98867014D01*
X143150460Y-98867019D01*
X143154285Y-98871844D01*
X143298030Y-98994180D01*
X143303408Y-98997186D01*
X143303410Y-98997187D01*
X143380415Y-99040224D01*
X143462800Y-99086267D01*
X143642317Y-99144595D01*
X143829745Y-99166945D01*
X143835880Y-99166473D01*
X143835882Y-99166473D01*
X144011803Y-99152937D01*
X144011807Y-99152936D01*
X144017945Y-99152464D01*
X144023877Y-99150808D01*
X144023881Y-99150807D01*
X144193804Y-99103363D01*
X144193808Y-99103362D01*
X144199748Y-99101703D01*
X144279297Y-99061520D01*
X144362728Y-99019377D01*
X144362730Y-99019376D01*
X144368229Y-99016598D01*
X144516970Y-98900388D01*
X144520996Y-98895724D01*
X144520999Y-98895721D01*
X144636278Y-98762169D01*
X144636279Y-98762167D01*
X144640307Y-98757501D01*
X144733542Y-98593378D01*
X144793123Y-98414272D01*
X144816780Y-98227005D01*
X144817157Y-98200000D01*
X144798738Y-98012145D01*
X144744181Y-97831445D01*
X144655566Y-97664783D01*
X144536266Y-97518508D01*
X144530475Y-97513717D01*
X144395577Y-97402120D01*
X144395574Y-97402118D01*
X144390827Y-97398191D01*
X144224788Y-97308414D01*
X144044474Y-97252597D01*
X144038356Y-97251954D01*
X144038351Y-97251953D01*
X143862881Y-97233511D01*
X143862879Y-97233511D01*
X143856752Y-97232867D01*
X143741125Y-97243390D01*
X143674914Y-97249415D01*
X143674913Y-97249415D01*
X143668773Y-97249974D01*
X143487697Y-97303268D01*
X143320420Y-97390718D01*
X143173316Y-97508993D01*
X143051986Y-97653588D01*
X143049016Y-97658991D01*
X143049015Y-97658992D01*
X142988298Y-97769435D01*
X142961052Y-97818996D01*
X142903978Y-97998917D01*
X142882937Y-98186496D01*
X140396810Y-98186496D01*
X140372337Y-98147024D01*
X140372334Y-98147020D01*
X140368974Y-98141601D01*
X140239834Y-98005039D01*
X140233708Y-97998561D01*
X140233707Y-97998560D01*
X140229319Y-97993920D01*
X140062821Y-97877337D01*
X139876281Y-97796614D01*
X139830253Y-97786998D01*
X139682056Y-97756038D01*
X139682051Y-97756037D01*
X139677320Y-97755049D01*
X139672438Y-97754793D01*
X139672329Y-97754787D01*
X139672313Y-97754787D01*
X139670661Y-97754700D01*
X139121400Y-97754700D01*
X139073407Y-97759575D01*
X138976332Y-97769435D01*
X138976330Y-97769435D01*
X138969984Y-97770080D01*
X138776028Y-97830862D01*
X138598256Y-97929403D01*
X138443929Y-98061677D01*
X138319352Y-98222281D01*
X138229613Y-98404655D01*
X138228004Y-98410833D01*
X138228003Y-98410835D01*
X138181979Y-98587525D01*
X138178378Y-98601348D01*
X138178044Y-98607727D01*
X138168234Y-98794925D01*
X138167741Y-98804326D01*
X117711510Y-98804326D01*
X117712375Y-98787829D01*
X117716325Y-98712456D01*
X117716325Y-98712452D01*
X117716659Y-98706074D01*
X117686265Y-98505103D01*
X117616081Y-98314348D01*
X117562545Y-98228002D01*
X117512337Y-98147024D01*
X117512334Y-98147020D01*
X117508974Y-98141601D01*
X117379834Y-98005039D01*
X117373708Y-97998561D01*
X117373707Y-97998560D01*
X117369319Y-97993920D01*
X117202821Y-97877337D01*
X117016281Y-97796614D01*
X116970253Y-97786998D01*
X116822056Y-97756038D01*
X116822051Y-97756037D01*
X116817320Y-97755049D01*
X116812438Y-97754793D01*
X116812329Y-97754787D01*
X116812313Y-97754787D01*
X116810661Y-97754700D01*
X116261400Y-97754700D01*
X116213407Y-97759575D01*
X116116332Y-97769435D01*
X116116330Y-97769435D01*
X116109984Y-97770080D01*
X115916028Y-97830862D01*
X115738256Y-97929403D01*
X115583929Y-98061677D01*
X115459352Y-98222281D01*
X115369613Y-98404655D01*
X115368004Y-98410833D01*
X115368003Y-98410835D01*
X115321979Y-98587525D01*
X115318378Y-98601348D01*
X115318044Y-98607727D01*
X115308234Y-98794925D01*
X115307741Y-98804326D01*
X87950500Y-98804326D01*
X87950500Y-96264326D01*
X115307741Y-96264326D01*
X115338135Y-96465297D01*
X115340341Y-96471292D01*
X115340341Y-96471293D01*
X115342266Y-96476524D01*
X115408319Y-96656052D01*
X115411679Y-96661472D01*
X115411680Y-96661473D01*
X115512063Y-96823376D01*
X115512066Y-96823380D01*
X115515426Y-96828799D01*
X115655081Y-96976480D01*
X115821579Y-97093063D01*
X116008119Y-97173786D01*
X116054147Y-97183402D01*
X116202344Y-97214362D01*
X116202349Y-97214363D01*
X116207080Y-97215351D01*
X116211962Y-97215607D01*
X116212071Y-97215613D01*
X116212087Y-97215613D01*
X116213739Y-97215700D01*
X116763000Y-97215700D01*
X116810993Y-97210825D01*
X116908068Y-97200965D01*
X116908070Y-97200965D01*
X116914416Y-97200320D01*
X117108372Y-97139538D01*
X117286144Y-97040997D01*
X117440471Y-96908723D01*
X117565048Y-96748119D01*
X117654787Y-96565745D01*
X117656397Y-96559565D01*
X117704412Y-96375234D01*
X117704412Y-96375231D01*
X117706022Y-96369052D01*
X117713226Y-96231588D01*
X117714409Y-96209023D01*
X137040691Y-96209023D01*
X137041855Y-96217925D01*
X137041855Y-96217928D01*
X137047088Y-96257944D01*
X137059280Y-96351179D01*
X137117020Y-96482403D01*
X137209270Y-96592148D01*
X137227443Y-96604245D01*
X137313415Y-96661473D01*
X137328613Y-96671590D01*
X137465457Y-96714342D01*
X137474429Y-96714506D01*
X137474432Y-96714507D01*
X137539763Y-96715704D01*
X137608799Y-96716970D01*
X137617833Y-96714507D01*
X137738458Y-96681621D01*
X137738460Y-96681620D01*
X137747117Y-96679260D01*
X137869291Y-96604245D01*
X137910475Y-96558745D01*
X137971018Y-96521664D01*
X138003891Y-96517300D01*
X138129369Y-96517300D01*
X138197490Y-96537302D01*
X138243983Y-96590958D01*
X138247619Y-96599792D01*
X138250985Y-96608941D01*
X138268319Y-96656052D01*
X138271677Y-96661468D01*
X138271679Y-96661472D01*
X138372063Y-96823376D01*
X138372066Y-96823380D01*
X138375426Y-96828799D01*
X138515081Y-96976480D01*
X138681579Y-97093063D01*
X138868119Y-97173786D01*
X138914147Y-97183402D01*
X139062344Y-97214362D01*
X139062349Y-97214363D01*
X139067080Y-97215351D01*
X139071962Y-97215607D01*
X139072071Y-97215613D01*
X139072087Y-97215613D01*
X139073739Y-97215700D01*
X139623000Y-97215700D01*
X139670993Y-97210825D01*
X139768068Y-97200965D01*
X139768070Y-97200965D01*
X139774416Y-97200320D01*
X139968372Y-97139538D01*
X140146144Y-97040997D01*
X140300471Y-96908723D01*
X140425048Y-96748119D01*
X140514787Y-96565745D01*
X140516397Y-96559565D01*
X140564412Y-96375234D01*
X140564412Y-96375231D01*
X140566022Y-96369052D01*
X140573226Y-96231588D01*
X140576325Y-96172456D01*
X140576325Y-96172452D01*
X140576659Y-96166074D01*
X140546265Y-95965103D01*
X140476081Y-95774348D01*
X140467849Y-95761071D01*
X140372337Y-95607024D01*
X140372334Y-95607020D01*
X140368974Y-95601601D01*
X140293248Y-95521523D01*
X175707048Y-95521523D01*
X175708212Y-95530425D01*
X175708212Y-95530428D01*
X175712303Y-95561709D01*
X175725637Y-95663679D01*
X175747880Y-95714231D01*
X175774333Y-95774348D01*
X175783377Y-95794903D01*
X175789154Y-95801776D01*
X175789155Y-95801777D01*
X175832466Y-95853302D01*
X175875627Y-95904648D01*
X175994970Y-95984090D01*
X176131814Y-96026842D01*
X176140786Y-96027006D01*
X176140789Y-96027007D01*
X176206120Y-96028204D01*
X176275156Y-96029470D01*
X176284190Y-96027007D01*
X176404815Y-95994121D01*
X176404817Y-95994120D01*
X176413474Y-95991760D01*
X176535648Y-95916745D01*
X176573664Y-95874745D01*
X176634207Y-95837664D01*
X176667080Y-95833300D01*
X179515931Y-95833300D01*
X179584052Y-95853302D01*
X179627997Y-95901705D01*
X179706840Y-96055117D01*
X179710665Y-96059943D01*
X179710667Y-96059946D01*
X179820256Y-96198214D01*
X179820260Y-96198219D01*
X179824085Y-96203044D01*
X179967830Y-96325380D01*
X179973208Y-96328386D01*
X179973210Y-96328387D01*
X180013992Y-96351179D01*
X180132600Y-96417467D01*
X180312117Y-96475795D01*
X180499545Y-96498145D01*
X180505680Y-96497673D01*
X180505682Y-96497673D01*
X180681603Y-96484137D01*
X180681607Y-96484136D01*
X180687745Y-96483664D01*
X180693677Y-96482008D01*
X180693681Y-96482007D01*
X180863604Y-96434563D01*
X180863608Y-96434562D01*
X180869548Y-96432903D01*
X180949097Y-96392720D01*
X181032528Y-96350577D01*
X181032530Y-96350576D01*
X181038029Y-96347798D01*
X181186770Y-96231588D01*
X181190796Y-96226924D01*
X181190799Y-96226921D01*
X181306078Y-96093369D01*
X181306079Y-96093367D01*
X181310107Y-96088701D01*
X181403342Y-95924578D01*
X181462923Y-95745472D01*
X181486580Y-95558205D01*
X181486957Y-95531200D01*
X181468538Y-95343345D01*
X181413981Y-95162645D01*
X181325366Y-94995983D01*
X181206066Y-94849708D01*
X181200275Y-94844917D01*
X181065377Y-94733320D01*
X181065374Y-94733318D01*
X181060627Y-94729391D01*
X180894588Y-94639614D01*
X180714274Y-94583797D01*
X180708156Y-94583154D01*
X180708151Y-94583153D01*
X180532681Y-94564711D01*
X180532679Y-94564711D01*
X180526552Y-94564067D01*
X180410925Y-94574590D01*
X180344714Y-94580615D01*
X180344713Y-94580615D01*
X180338573Y-94581174D01*
X180157497Y-94634468D01*
X180152032Y-94637325D01*
X180078794Y-94675613D01*
X179990220Y-94721918D01*
X179843116Y-94840193D01*
X179721786Y-94984788D01*
X179630852Y-95150196D01*
X179629816Y-95153463D01*
X179585198Y-95207469D01*
X179514606Y-95229100D01*
X176673843Y-95229100D01*
X176605722Y-95209098D01*
X176578390Y-95185348D01*
X176554142Y-95157206D01*
X176545057Y-95146663D01*
X176424752Y-95068685D01*
X176287396Y-95027607D01*
X176278420Y-95027552D01*
X176278419Y-95027552D01*
X176218212Y-95027184D01*
X176144033Y-95026731D01*
X176006186Y-95066128D01*
X175884937Y-95142630D01*
X175790034Y-95250088D01*
X175729104Y-95379863D01*
X175727723Y-95388735D01*
X175717574Y-95453920D01*
X175707048Y-95521523D01*
X140293248Y-95521523D01*
X140229319Y-95453920D01*
X140062821Y-95337337D01*
X139876281Y-95256614D01*
X139812833Y-95243359D01*
X139682056Y-95216038D01*
X139682051Y-95216037D01*
X139677320Y-95215049D01*
X139672438Y-95214793D01*
X139672329Y-95214787D01*
X139672313Y-95214787D01*
X139670661Y-95214700D01*
X139121400Y-95214700D01*
X139073407Y-95219575D01*
X138976332Y-95229435D01*
X138976330Y-95229435D01*
X138969984Y-95230080D01*
X138776028Y-95290862D01*
X138598256Y-95389403D01*
X138443929Y-95521677D01*
X138440022Y-95526714D01*
X138440020Y-95526716D01*
X138437141Y-95530428D01*
X138319352Y-95682281D01*
X138316539Y-95687998D01*
X138316532Y-95688009D01*
X138240400Y-95842730D01*
X138192378Y-95895021D01*
X138127346Y-95913100D01*
X138004471Y-95913100D01*
X137936350Y-95893098D01*
X137909019Y-95869349D01*
X137884560Y-95840964D01*
X137878700Y-95834163D01*
X137758395Y-95756185D01*
X137621039Y-95715107D01*
X137612063Y-95715052D01*
X137612062Y-95715052D01*
X137551855Y-95714684D01*
X137477676Y-95714231D01*
X137339829Y-95753628D01*
X137218580Y-95830130D01*
X137123677Y-95937588D01*
X137062747Y-96067363D01*
X137059425Y-96088701D01*
X137042374Y-96198214D01*
X137040691Y-96209023D01*
X117714409Y-96209023D01*
X117716325Y-96172456D01*
X117716325Y-96172452D01*
X117716659Y-96166074D01*
X117686265Y-95965103D01*
X117616081Y-95774348D01*
X117607849Y-95761071D01*
X117512337Y-95607024D01*
X117512334Y-95607020D01*
X117508974Y-95601601D01*
X117369319Y-95453920D01*
X117202821Y-95337337D01*
X117016281Y-95256614D01*
X116952833Y-95243359D01*
X116822056Y-95216038D01*
X116822051Y-95216037D01*
X116817320Y-95215049D01*
X116812438Y-95214793D01*
X116812329Y-95214787D01*
X116812313Y-95214787D01*
X116810661Y-95214700D01*
X116261400Y-95214700D01*
X116213407Y-95219575D01*
X116116332Y-95229435D01*
X116116330Y-95229435D01*
X116109984Y-95230080D01*
X115916028Y-95290862D01*
X115738256Y-95389403D01*
X115583929Y-95521677D01*
X115580022Y-95526714D01*
X115580020Y-95526716D01*
X115577141Y-95530428D01*
X115459352Y-95682281D01*
X115369613Y-95864655D01*
X115368004Y-95870833D01*
X115368003Y-95870835D01*
X115326682Y-96029470D01*
X115318378Y-96061348D01*
X115316945Y-96088701D01*
X115309258Y-96235382D01*
X115307741Y-96264326D01*
X87950500Y-96264326D01*
X87950500Y-92884269D01*
X106743564Y-92884269D01*
X106756792Y-93086094D01*
X106758215Y-93091696D01*
X106795965Y-93240337D01*
X106806578Y-93282128D01*
X106891256Y-93465807D01*
X106894589Y-93470523D01*
X107000056Y-93619756D01*
X107007988Y-93630980D01*
X107152866Y-93772113D01*
X107321037Y-93884482D01*
X107326340Y-93886760D01*
X107326343Y-93886762D01*
X107501563Y-93962042D01*
X107506870Y-93964322D01*
X107704140Y-94008960D01*
X107709909Y-94009187D01*
X107709912Y-94009187D01*
X107786083Y-94012179D01*
X107906242Y-94016900D01*
X107992532Y-94004389D01*
X108100686Y-93988708D01*
X108100691Y-93988707D01*
X108106407Y-93987878D01*
X108111879Y-93986020D01*
X108111881Y-93986020D01*
X108292467Y-93924719D01*
X108292469Y-93924718D01*
X108297931Y-93922864D01*
X108474401Y-93824037D01*
X108536833Y-93772113D01*
X108594290Y-93724326D01*
X115307741Y-93724326D01*
X115338135Y-93925297D01*
X115408319Y-94116052D01*
X115411679Y-94121472D01*
X115411680Y-94121473D01*
X115512063Y-94283376D01*
X115512066Y-94283380D01*
X115515426Y-94288799D01*
X115655081Y-94436480D01*
X115821579Y-94553063D01*
X116008119Y-94633786D01*
X116036016Y-94639614D01*
X116202344Y-94674362D01*
X116202349Y-94674363D01*
X116207080Y-94675351D01*
X116211962Y-94675607D01*
X116212071Y-94675613D01*
X116212087Y-94675613D01*
X116213739Y-94675700D01*
X116763000Y-94675700D01*
X116810993Y-94670825D01*
X116908068Y-94660965D01*
X116908070Y-94660965D01*
X116914416Y-94660320D01*
X117108372Y-94599538D01*
X117286144Y-94500997D01*
X117440471Y-94368723D01*
X117565048Y-94208119D01*
X117654787Y-94025745D01*
X117659159Y-94008960D01*
X117704412Y-93835234D01*
X117704412Y-93835231D01*
X117706022Y-93829052D01*
X117711510Y-93724326D01*
X138167741Y-93724326D01*
X138198135Y-93925297D01*
X138268319Y-94116052D01*
X138271679Y-94121472D01*
X138271680Y-94121473D01*
X138372063Y-94283376D01*
X138372066Y-94283380D01*
X138375426Y-94288799D01*
X138515081Y-94436480D01*
X138681579Y-94553063D01*
X138868119Y-94633786D01*
X138896016Y-94639614D01*
X139062344Y-94674362D01*
X139062349Y-94674363D01*
X139067080Y-94675351D01*
X139071962Y-94675607D01*
X139072071Y-94675613D01*
X139072087Y-94675613D01*
X139073739Y-94675700D01*
X139623000Y-94675700D01*
X139670993Y-94670825D01*
X139768068Y-94660965D01*
X139768070Y-94660965D01*
X139774416Y-94660320D01*
X139968372Y-94599538D01*
X140146144Y-94500997D01*
X140300471Y-94368723D01*
X140425048Y-94208119D01*
X140514787Y-94025745D01*
X140519159Y-94008960D01*
X140564412Y-93835234D01*
X140564412Y-93835231D01*
X140566022Y-93829052D01*
X140572869Y-93698391D01*
X140576325Y-93632456D01*
X140576325Y-93632452D01*
X140576659Y-93626074D01*
X140546265Y-93425103D01*
X140476081Y-93234348D01*
X140422545Y-93148002D01*
X140372337Y-93067024D01*
X140372334Y-93067020D01*
X140368974Y-93061601D01*
X140229319Y-92913920D01*
X140062821Y-92797337D01*
X139876281Y-92716614D01*
X139826561Y-92706227D01*
X139682056Y-92676038D01*
X139682051Y-92676037D01*
X139677320Y-92675049D01*
X139672438Y-92674793D01*
X139672329Y-92674787D01*
X139672313Y-92674787D01*
X139670661Y-92674700D01*
X139121400Y-92674700D01*
X139073407Y-92679575D01*
X138976332Y-92689435D01*
X138976330Y-92689435D01*
X138969984Y-92690080D01*
X138776028Y-92750862D01*
X138598256Y-92849403D01*
X138443929Y-92981677D01*
X138319352Y-93142281D01*
X138229613Y-93324655D01*
X138228004Y-93330833D01*
X138228003Y-93330835D01*
X138201803Y-93431420D01*
X138178378Y-93521348D01*
X138177210Y-93543639D01*
X138169526Y-93690273D01*
X138167741Y-93724326D01*
X117711510Y-93724326D01*
X117712869Y-93698391D01*
X117716325Y-93632456D01*
X117716325Y-93632452D01*
X117716659Y-93626074D01*
X117686265Y-93425103D01*
X117616081Y-93234348D01*
X117562545Y-93148002D01*
X117512337Y-93067024D01*
X117512334Y-93067020D01*
X117508974Y-93061601D01*
X117369319Y-92913920D01*
X117202821Y-92797337D01*
X117016281Y-92716614D01*
X116966561Y-92706227D01*
X116822056Y-92676038D01*
X116822051Y-92676037D01*
X116817320Y-92675049D01*
X116812438Y-92674793D01*
X116812329Y-92674787D01*
X116812313Y-92674787D01*
X116810661Y-92674700D01*
X116261400Y-92674700D01*
X116213407Y-92679575D01*
X116116332Y-92689435D01*
X116116330Y-92689435D01*
X116109984Y-92690080D01*
X115916028Y-92750862D01*
X115738256Y-92849403D01*
X115583929Y-92981677D01*
X115459352Y-93142281D01*
X115369613Y-93324655D01*
X115368004Y-93330833D01*
X115368003Y-93330835D01*
X115341803Y-93431420D01*
X115318378Y-93521348D01*
X115317210Y-93543639D01*
X115309526Y-93690273D01*
X115307741Y-93724326D01*
X108594290Y-93724326D01*
X108625473Y-93698391D01*
X108629905Y-93694705D01*
X108759237Y-93539201D01*
X108858064Y-93362731D01*
X108868892Y-93330835D01*
X108921220Y-93176681D01*
X108921220Y-93176679D01*
X108923078Y-93171207D01*
X108923907Y-93165491D01*
X108923908Y-93165486D01*
X108951567Y-92974716D01*
X108952100Y-92971042D01*
X108953615Y-92913200D01*
X108935108Y-92711791D01*
X108924739Y-92675023D01*
X108881776Y-92522690D01*
X108880207Y-92517126D01*
X108790751Y-92335727D01*
X108772479Y-92311257D01*
X108673188Y-92178291D01*
X108673187Y-92178290D01*
X108669735Y-92173667D01*
X108646750Y-92152420D01*
X108525453Y-92040294D01*
X108525451Y-92040292D01*
X108521212Y-92036374D01*
X108493774Y-92019062D01*
X108355037Y-91931525D01*
X108350157Y-91928446D01*
X108344795Y-91926307D01*
X108339647Y-91923684D01*
X108340686Y-91921644D01*
X108292670Y-91883965D01*
X108269380Y-91816897D01*
X108286046Y-91747884D01*
X108337378Y-91698838D01*
X108354158Y-91692053D01*
X108354135Y-91691995D01*
X108368552Y-91686344D01*
X108567178Y-91589038D01*
X108576036Y-91583759D01*
X108633497Y-91542772D01*
X108641897Y-91532074D01*
X108634910Y-91518921D01*
X108300315Y-91184326D01*
X115307741Y-91184326D01*
X115338135Y-91385297D01*
X115408319Y-91576052D01*
X115411679Y-91581472D01*
X115411680Y-91581473D01*
X115512063Y-91743376D01*
X115512066Y-91743380D01*
X115515426Y-91748799D01*
X115519812Y-91753437D01*
X115645325Y-91886163D01*
X115655081Y-91896480D01*
X115821579Y-92013063D01*
X116008119Y-92093786D01*
X116054147Y-92103402D01*
X116202344Y-92134362D01*
X116202349Y-92134363D01*
X116207080Y-92135351D01*
X116211962Y-92135607D01*
X116212071Y-92135613D01*
X116212087Y-92135613D01*
X116213739Y-92135700D01*
X116763000Y-92135700D01*
X116810993Y-92130825D01*
X116908068Y-92120965D01*
X116908070Y-92120965D01*
X116914416Y-92120320D01*
X117108372Y-92059538D01*
X117286144Y-91960997D01*
X117300123Y-91949016D01*
X117316167Y-91935264D01*
X117440471Y-91828723D01*
X117453915Y-91811392D01*
X117561139Y-91673158D01*
X117565048Y-91668119D01*
X117654787Y-91485745D01*
X117680952Y-91385297D01*
X117704412Y-91295234D01*
X117704412Y-91295231D01*
X117706022Y-91289052D01*
X117711510Y-91184326D01*
X138167741Y-91184326D01*
X138198135Y-91385297D01*
X138268319Y-91576052D01*
X138271679Y-91581472D01*
X138271680Y-91581473D01*
X138372063Y-91743376D01*
X138372066Y-91743380D01*
X138375426Y-91748799D01*
X138379812Y-91753437D01*
X138505325Y-91886163D01*
X138515081Y-91896480D01*
X138681579Y-92013063D01*
X138868119Y-92093786D01*
X138914147Y-92103402D01*
X139062344Y-92134362D01*
X139062349Y-92134363D01*
X139067080Y-92135351D01*
X139071962Y-92135607D01*
X139072071Y-92135613D01*
X139072087Y-92135613D01*
X139073739Y-92135700D01*
X139623000Y-92135700D01*
X139670993Y-92130825D01*
X139768068Y-92120965D01*
X139768070Y-92120965D01*
X139774416Y-92120320D01*
X139968372Y-92059538D01*
X140146144Y-91960997D01*
X140160123Y-91949016D01*
X140176167Y-91935264D01*
X140300471Y-91828723D01*
X140313915Y-91811392D01*
X140421139Y-91673158D01*
X140425048Y-91668119D01*
X140514787Y-91485745D01*
X140540952Y-91385297D01*
X140564412Y-91295234D01*
X140564412Y-91295231D01*
X140566022Y-91289052D01*
X140572611Y-91163315D01*
X140576325Y-91092456D01*
X140576325Y-91092452D01*
X140576659Y-91086074D01*
X140546265Y-90885103D01*
X140476081Y-90694348D01*
X140466693Y-90679207D01*
X140372337Y-90527024D01*
X140372334Y-90527020D01*
X140368974Y-90521601D01*
X140257990Y-90404239D01*
X140233708Y-90378561D01*
X140233707Y-90378560D01*
X140229319Y-90373920D01*
X140062821Y-90257337D01*
X139876281Y-90176614D01*
X139830253Y-90166998D01*
X139682056Y-90136038D01*
X139682051Y-90136037D01*
X139677320Y-90135049D01*
X139672438Y-90134793D01*
X139672329Y-90134787D01*
X139672313Y-90134787D01*
X139670661Y-90134700D01*
X139121400Y-90134700D01*
X139073407Y-90139575D01*
X138976332Y-90149435D01*
X138976330Y-90149435D01*
X138969984Y-90150080D01*
X138776028Y-90210862D01*
X138598256Y-90309403D01*
X138443929Y-90441677D01*
X138440022Y-90446714D01*
X138440020Y-90446716D01*
X138435127Y-90453024D01*
X138319352Y-90602281D01*
X138273918Y-90694616D01*
X138233950Y-90775842D01*
X138229613Y-90784655D01*
X138228004Y-90790833D01*
X138228003Y-90790835D01*
X138183113Y-90963171D01*
X138178378Y-90981348D01*
X138174124Y-91062528D01*
X138168657Y-91166852D01*
X138167741Y-91184326D01*
X117711510Y-91184326D01*
X117712611Y-91163315D01*
X117716325Y-91092456D01*
X117716325Y-91092452D01*
X117716659Y-91086074D01*
X117686265Y-90885103D01*
X117616081Y-90694348D01*
X117606693Y-90679207D01*
X117512337Y-90527024D01*
X117512334Y-90527020D01*
X117508974Y-90521601D01*
X117397990Y-90404239D01*
X117373708Y-90378561D01*
X117373707Y-90378560D01*
X117369319Y-90373920D01*
X117202821Y-90257337D01*
X117016281Y-90176614D01*
X116970253Y-90166998D01*
X116822056Y-90136038D01*
X116822051Y-90136037D01*
X116817320Y-90135049D01*
X116812438Y-90134793D01*
X116812329Y-90134787D01*
X116812313Y-90134787D01*
X116810661Y-90134700D01*
X116261400Y-90134700D01*
X116213407Y-90139575D01*
X116116332Y-90149435D01*
X116116330Y-90149435D01*
X116109984Y-90150080D01*
X115916028Y-90210862D01*
X115738256Y-90309403D01*
X115583929Y-90441677D01*
X115580022Y-90446714D01*
X115580020Y-90446716D01*
X115575127Y-90453024D01*
X115459352Y-90602281D01*
X115413918Y-90694616D01*
X115373950Y-90775842D01*
X115369613Y-90784655D01*
X115368004Y-90790833D01*
X115368003Y-90790835D01*
X115323113Y-90963171D01*
X115318378Y-90981348D01*
X115314124Y-91062528D01*
X115308657Y-91166852D01*
X115307741Y-91184326D01*
X108300315Y-91184326D01*
X107861211Y-90745221D01*
X107847268Y-90737608D01*
X107845434Y-90737739D01*
X107838820Y-90741990D01*
X107058580Y-91522231D01*
X107051823Y-91534606D01*
X107057104Y-91541661D01*
X107233480Y-91644727D01*
X107242763Y-91649174D01*
X107351418Y-91690666D01*
X107407921Y-91733654D01*
X107432214Y-91800365D01*
X107416584Y-91869619D01*
X107370892Y-91916661D01*
X107215010Y-92009401D01*
X107198771Y-92019062D01*
X107046705Y-92152420D01*
X106921489Y-92311257D01*
X106827314Y-92490253D01*
X106767337Y-92683413D01*
X106743564Y-92884269D01*
X87950500Y-92884269D01*
X87950500Y-90969296D01*
X93012937Y-90969296D01*
X93016043Y-91006280D01*
X93024338Y-91105059D01*
X93028732Y-91157390D01*
X93080760Y-91338834D01*
X93167040Y-91506717D01*
X93170865Y-91511543D01*
X93170867Y-91511546D01*
X93280456Y-91649814D01*
X93280460Y-91649819D01*
X93284285Y-91654644D01*
X93428030Y-91776980D01*
X93433408Y-91779986D01*
X93433410Y-91779987D01*
X93489603Y-91811392D01*
X93592800Y-91869067D01*
X93772317Y-91927395D01*
X93959745Y-91949745D01*
X93965880Y-91949273D01*
X93965882Y-91949273D01*
X94141803Y-91935737D01*
X94141807Y-91935736D01*
X94147945Y-91935264D01*
X94153877Y-91933608D01*
X94153881Y-91933607D01*
X94323804Y-91886163D01*
X94323808Y-91886162D01*
X94329748Y-91884503D01*
X94440175Y-91828723D01*
X94492728Y-91802177D01*
X94492730Y-91802176D01*
X94498229Y-91799398D01*
X94646970Y-91683188D01*
X94650996Y-91678524D01*
X94650999Y-91678521D01*
X94766278Y-91544969D01*
X94766279Y-91544967D01*
X94770307Y-91540301D01*
X94863542Y-91376178D01*
X94923123Y-91197072D01*
X94946780Y-91009805D01*
X94947157Y-90982800D01*
X94928738Y-90794945D01*
X94874181Y-90614245D01*
X94785566Y-90447583D01*
X94773332Y-90432582D01*
X94700953Y-90343838D01*
X106436293Y-90343838D01*
X106449027Y-90564668D01*
X106450461Y-90574870D01*
X106499085Y-90790639D01*
X106502173Y-90800492D01*
X106585386Y-91005420D01*
X106590034Y-91014621D01*
X106678497Y-91158981D01*
X106688953Y-91168442D01*
X106697731Y-91164658D01*
X107476379Y-90386011D01*
X107482756Y-90374332D01*
X108212808Y-90374332D01*
X108212939Y-90376166D01*
X108217190Y-90382780D01*
X108994707Y-91160296D01*
X109006713Y-91166852D01*
X109018452Y-91157884D01*
X109056410Y-91105059D01*
X109061721Y-91096220D01*
X109159718Y-90897937D01*
X109163517Y-90888342D01*
X109227815Y-90676717D01*
X109229994Y-90666636D01*
X109259102Y-90445538D01*
X109259621Y-90438863D01*
X109261144Y-90376564D01*
X109260950Y-90369846D01*
X109242679Y-90147600D01*
X109240996Y-90137438D01*
X109187110Y-89922908D01*
X109183789Y-89913153D01*
X109097584Y-89714896D01*
X143426537Y-89714896D01*
X143442332Y-89902990D01*
X143444031Y-89908915D01*
X143479387Y-90032215D01*
X143494360Y-90084434D01*
X143580640Y-90252317D01*
X143584465Y-90257143D01*
X143584467Y-90257146D01*
X143694056Y-90395414D01*
X143694060Y-90395419D01*
X143697885Y-90400244D01*
X143841630Y-90522580D01*
X143847008Y-90525586D01*
X143847010Y-90525587D01*
X143916937Y-90564668D01*
X144006400Y-90614667D01*
X144185917Y-90672995D01*
X144373345Y-90695345D01*
X144379480Y-90694873D01*
X144379482Y-90694873D01*
X144555403Y-90681337D01*
X144555407Y-90681336D01*
X144561545Y-90680864D01*
X144567477Y-90679208D01*
X144567481Y-90679207D01*
X144737404Y-90631763D01*
X144737408Y-90631762D01*
X144743348Y-90630103D01*
X144872889Y-90564668D01*
X144906328Y-90547777D01*
X144906330Y-90547776D01*
X144911829Y-90544998D01*
X145060570Y-90428788D01*
X145064596Y-90424124D01*
X145064599Y-90424121D01*
X145179878Y-90290569D01*
X145179879Y-90290567D01*
X145183907Y-90285901D01*
X145277142Y-90121778D01*
X145336723Y-89942672D01*
X145360380Y-89755405D01*
X145360757Y-89728400D01*
X145359433Y-89714896D01*
X145926537Y-89714896D01*
X145942332Y-89902990D01*
X145944031Y-89908915D01*
X145979387Y-90032215D01*
X145994360Y-90084434D01*
X146080640Y-90252317D01*
X146084465Y-90257143D01*
X146084467Y-90257146D01*
X146194056Y-90395414D01*
X146194060Y-90395419D01*
X146197885Y-90400244D01*
X146341630Y-90522580D01*
X146347008Y-90525586D01*
X146347010Y-90525587D01*
X146416937Y-90564668D01*
X146506400Y-90614667D01*
X146685917Y-90672995D01*
X146873345Y-90695345D01*
X146879480Y-90694873D01*
X146879482Y-90694873D01*
X147055403Y-90681337D01*
X147055407Y-90681336D01*
X147061545Y-90680864D01*
X147067477Y-90679208D01*
X147067481Y-90679207D01*
X147237404Y-90631763D01*
X147237408Y-90631762D01*
X147243348Y-90630103D01*
X147372889Y-90564668D01*
X147406328Y-90547777D01*
X147406330Y-90547776D01*
X147411829Y-90544998D01*
X147560570Y-90428788D01*
X147564596Y-90424124D01*
X147564599Y-90424121D01*
X147679878Y-90290569D01*
X147679879Y-90290567D01*
X147683907Y-90285901D01*
X147777142Y-90121778D01*
X147836723Y-89942672D01*
X147860380Y-89755405D01*
X147860757Y-89728400D01*
X147842338Y-89540545D01*
X147787781Y-89359845D01*
X147699166Y-89193183D01*
X147579866Y-89046908D01*
X147574075Y-89042117D01*
X147439177Y-88930520D01*
X147439174Y-88930518D01*
X147434427Y-88926591D01*
X147268388Y-88836814D01*
X147088074Y-88780997D01*
X147081956Y-88780354D01*
X147081951Y-88780353D01*
X146906481Y-88761911D01*
X146906479Y-88761911D01*
X146900352Y-88761267D01*
X146784725Y-88771790D01*
X146718514Y-88777815D01*
X146718513Y-88777815D01*
X146712373Y-88778374D01*
X146531297Y-88831668D01*
X146525832Y-88834525D01*
X146466682Y-88865448D01*
X146364020Y-88919118D01*
X146216916Y-89037393D01*
X146212952Y-89042117D01*
X146204924Y-89051684D01*
X146095586Y-89181988D01*
X146092616Y-89187391D01*
X146092615Y-89187392D01*
X146078297Y-89213437D01*
X146004652Y-89347396D01*
X145947578Y-89527317D01*
X145946892Y-89533436D01*
X145946891Y-89533439D01*
X145939918Y-89595604D01*
X145926537Y-89714896D01*
X145359433Y-89714896D01*
X145342338Y-89540545D01*
X145287781Y-89359845D01*
X145199166Y-89193183D01*
X145079866Y-89046908D01*
X145074075Y-89042117D01*
X144939177Y-88930520D01*
X144939174Y-88930518D01*
X144934427Y-88926591D01*
X144768388Y-88836814D01*
X144588074Y-88780997D01*
X144581956Y-88780354D01*
X144581951Y-88780353D01*
X144406481Y-88761911D01*
X144406479Y-88761911D01*
X144400352Y-88761267D01*
X144284725Y-88771790D01*
X144218514Y-88777815D01*
X144218513Y-88777815D01*
X144212373Y-88778374D01*
X144031297Y-88831668D01*
X144025832Y-88834525D01*
X143966682Y-88865448D01*
X143864020Y-88919118D01*
X143716916Y-89037393D01*
X143712952Y-89042117D01*
X143704924Y-89051684D01*
X143595586Y-89181988D01*
X143592616Y-89187391D01*
X143592615Y-89187392D01*
X143578297Y-89213437D01*
X143504652Y-89347396D01*
X143447578Y-89527317D01*
X143446892Y-89533436D01*
X143446891Y-89533439D01*
X143439918Y-89595604D01*
X143426537Y-89714896D01*
X109097584Y-89714896D01*
X109095593Y-89710318D01*
X109090715Y-89701220D01*
X109017624Y-89588238D01*
X109006938Y-89579035D01*
X108997373Y-89583438D01*
X108220421Y-90360389D01*
X108212808Y-90374332D01*
X107482756Y-90374332D01*
X107483992Y-90372068D01*
X107483861Y-90370234D01*
X107479610Y-90363620D01*
X106702262Y-89586273D01*
X106690730Y-89579976D01*
X106678448Y-89589599D01*
X106622867Y-89671077D01*
X106617779Y-89680033D01*
X106524652Y-89880659D01*
X106521089Y-89890346D01*
X106461981Y-90103480D01*
X106460050Y-90113600D01*
X106436545Y-90333549D01*
X106436293Y-90343838D01*
X94700953Y-90343838D01*
X94670161Y-90306084D01*
X94666266Y-90301308D01*
X94660475Y-90296517D01*
X94525577Y-90184920D01*
X94525574Y-90184918D01*
X94520827Y-90180991D01*
X94354788Y-90091214D01*
X94174474Y-90035397D01*
X94168356Y-90034754D01*
X94168351Y-90034753D01*
X93992881Y-90016311D01*
X93992879Y-90016311D01*
X93986752Y-90015667D01*
X93871125Y-90026190D01*
X93804914Y-90032215D01*
X93804913Y-90032215D01*
X93798773Y-90032774D01*
X93617697Y-90086068D01*
X93612232Y-90088925D01*
X93524489Y-90134796D01*
X93450420Y-90173518D01*
X93303316Y-90291793D01*
X93181986Y-90436388D01*
X93091052Y-90601796D01*
X93033978Y-90781717D01*
X93033292Y-90787836D01*
X93033291Y-90787839D01*
X93022381Y-90885103D01*
X93012937Y-90969296D01*
X87950500Y-90969296D01*
X87950500Y-87804269D01*
X106743564Y-87804269D01*
X106756792Y-88006094D01*
X106758215Y-88011696D01*
X106795965Y-88160337D01*
X106806578Y-88202128D01*
X106891256Y-88385807D01*
X106894589Y-88390523D01*
X107000056Y-88539756D01*
X107007988Y-88550980D01*
X107152866Y-88692113D01*
X107321037Y-88804482D01*
X107326342Y-88806761D01*
X107326349Y-88806765D01*
X107357570Y-88820179D01*
X107412263Y-88865448D01*
X107433799Y-88933099D01*
X107415341Y-89001654D01*
X107362749Y-89049348D01*
X107346975Y-89055711D01*
X107305829Y-89069159D01*
X107296316Y-89073158D01*
X107100125Y-89175289D01*
X107091407Y-89180778D01*
X107062361Y-89202586D01*
X107053908Y-89213911D01*
X107060651Y-89226240D01*
X107835589Y-90001179D01*
X107849532Y-90008792D01*
X107851366Y-90008661D01*
X107857980Y-90004410D01*
X108637394Y-89224995D01*
X108644411Y-89212144D01*
X108636637Y-89201474D01*
X108634302Y-89199630D01*
X108625720Y-89193929D01*
X108432078Y-89087033D01*
X108422673Y-89082806D01*
X108345915Y-89055625D01*
X108288378Y-89014031D01*
X108262462Y-88947934D01*
X108276396Y-88878318D01*
X108326408Y-88826917D01*
X108469364Y-88746858D01*
X108469365Y-88746857D01*
X108474401Y-88744037D01*
X108536833Y-88692113D01*
X108594290Y-88644326D01*
X115307741Y-88644326D01*
X115338135Y-88845297D01*
X115408319Y-89036052D01*
X115411679Y-89041472D01*
X115411680Y-89041473D01*
X115512063Y-89203376D01*
X115512066Y-89203380D01*
X115515426Y-89208799D01*
X115519812Y-89213437D01*
X115646491Y-89347396D01*
X115655081Y-89356480D01*
X115821579Y-89473063D01*
X116008119Y-89553786D01*
X116054147Y-89563402D01*
X116202344Y-89594362D01*
X116202349Y-89594363D01*
X116207080Y-89595351D01*
X116211962Y-89595607D01*
X116212071Y-89595613D01*
X116212087Y-89595613D01*
X116213739Y-89595700D01*
X116763000Y-89595700D01*
X116810993Y-89590825D01*
X116908068Y-89580965D01*
X116908070Y-89580965D01*
X116914416Y-89580320D01*
X117108372Y-89519538D01*
X117286144Y-89420997D01*
X117440471Y-89288723D01*
X117565048Y-89128119D01*
X117654787Y-88945745D01*
X117661723Y-88919118D01*
X117704412Y-88755234D01*
X117704412Y-88755231D01*
X117706022Y-88749052D01*
X117711510Y-88644326D01*
X138167741Y-88644326D01*
X138198135Y-88845297D01*
X138268319Y-89036052D01*
X138271679Y-89041472D01*
X138271680Y-89041473D01*
X138372063Y-89203376D01*
X138372066Y-89203380D01*
X138375426Y-89208799D01*
X138379812Y-89213437D01*
X138506491Y-89347396D01*
X138515081Y-89356480D01*
X138681579Y-89473063D01*
X138868119Y-89553786D01*
X138914147Y-89563402D01*
X139062344Y-89594362D01*
X139062349Y-89594363D01*
X139067080Y-89595351D01*
X139071962Y-89595607D01*
X139072071Y-89595613D01*
X139072087Y-89595613D01*
X139073739Y-89595700D01*
X139623000Y-89595700D01*
X139670993Y-89590825D01*
X139768068Y-89580965D01*
X139768070Y-89580965D01*
X139774416Y-89580320D01*
X139968372Y-89519538D01*
X140146144Y-89420997D01*
X140300471Y-89288723D01*
X140425048Y-89128119D01*
X140514787Y-88945745D01*
X140521723Y-88919118D01*
X140564412Y-88755234D01*
X140564412Y-88755231D01*
X140566022Y-88749052D01*
X140572869Y-88618391D01*
X140576325Y-88552456D01*
X140576325Y-88552452D01*
X140576659Y-88546074D01*
X140546265Y-88345103D01*
X140476081Y-88154348D01*
X140422545Y-88068002D01*
X140372337Y-87987024D01*
X140372334Y-87987020D01*
X140368974Y-87981601D01*
X140229319Y-87833920D01*
X140062821Y-87717337D01*
X139876281Y-87636614D01*
X139817174Y-87624266D01*
X139682056Y-87596038D01*
X139682051Y-87596037D01*
X139677320Y-87595049D01*
X139672438Y-87594793D01*
X139672329Y-87594787D01*
X139672313Y-87594787D01*
X139670661Y-87594700D01*
X139121400Y-87594700D01*
X139073407Y-87599575D01*
X138976332Y-87609435D01*
X138976330Y-87609435D01*
X138969984Y-87610080D01*
X138776028Y-87670862D01*
X138598256Y-87769403D01*
X138443929Y-87901677D01*
X138319352Y-88062281D01*
X138229613Y-88244655D01*
X138228004Y-88250833D01*
X138228003Y-88250835D01*
X138201803Y-88351420D01*
X138178378Y-88441348D01*
X138177210Y-88463639D01*
X138169526Y-88610273D01*
X138167741Y-88644326D01*
X117711510Y-88644326D01*
X117712869Y-88618391D01*
X117716325Y-88552456D01*
X117716325Y-88552452D01*
X117716659Y-88546074D01*
X117686265Y-88345103D01*
X117616081Y-88154348D01*
X117562545Y-88068002D01*
X117512337Y-87987024D01*
X117512334Y-87987020D01*
X117508974Y-87981601D01*
X117369319Y-87833920D01*
X117202821Y-87717337D01*
X117016281Y-87636614D01*
X116957174Y-87624266D01*
X116822056Y-87596038D01*
X116822051Y-87596037D01*
X116817320Y-87595049D01*
X116812438Y-87594793D01*
X116812329Y-87594787D01*
X116812313Y-87594787D01*
X116810661Y-87594700D01*
X116261400Y-87594700D01*
X116213407Y-87599575D01*
X116116332Y-87609435D01*
X116116330Y-87609435D01*
X116109984Y-87610080D01*
X115916028Y-87670862D01*
X115738256Y-87769403D01*
X115583929Y-87901677D01*
X115459352Y-88062281D01*
X115369613Y-88244655D01*
X115368004Y-88250833D01*
X115368003Y-88250835D01*
X115341803Y-88351420D01*
X115318378Y-88441348D01*
X115317210Y-88463639D01*
X115309526Y-88610273D01*
X115307741Y-88644326D01*
X108594290Y-88644326D01*
X108625473Y-88618391D01*
X108629905Y-88614705D01*
X108759237Y-88459201D01*
X108858064Y-88282731D01*
X108868892Y-88250835D01*
X108921220Y-88096681D01*
X108921220Y-88096679D01*
X108923078Y-88091207D01*
X108923907Y-88085491D01*
X108923908Y-88085486D01*
X108951567Y-87894716D01*
X108952100Y-87891042D01*
X108953615Y-87833200D01*
X108935108Y-87631791D01*
X108924739Y-87595023D01*
X108895793Y-87492390D01*
X108880207Y-87437126D01*
X108790751Y-87255727D01*
X108772479Y-87231257D01*
X108673188Y-87098291D01*
X108673187Y-87098290D01*
X108669735Y-87093667D01*
X108646750Y-87072420D01*
X108525453Y-86960294D01*
X108525451Y-86960292D01*
X108521212Y-86956374D01*
X108493774Y-86939062D01*
X108355037Y-86851525D01*
X108350157Y-86848446D01*
X108162298Y-86773498D01*
X107963926Y-86734039D01*
X107958152Y-86733963D01*
X107958148Y-86733963D01*
X107855657Y-86732622D01*
X107761686Y-86731392D01*
X107755989Y-86732371D01*
X107755988Y-86732371D01*
X107568046Y-86764665D01*
X107568045Y-86764665D01*
X107562349Y-86765644D01*
X107372593Y-86835649D01*
X107367632Y-86838601D01*
X107367631Y-86838601D01*
X107263459Y-86900577D01*
X107198771Y-86939062D01*
X107046705Y-87072420D01*
X106921489Y-87231257D01*
X106827314Y-87410253D01*
X106767337Y-87603413D01*
X106743564Y-87804269D01*
X87950500Y-87804269D01*
X87950500Y-86005892D01*
X87950545Y-85954437D01*
X87944403Y-85941646D01*
X87943287Y-85936733D01*
X87940650Y-85929183D01*
X87938468Y-85924649D01*
X87935312Y-85910815D01*
X87926471Y-85899720D01*
X87924125Y-85894846D01*
X87920454Y-85888994D01*
X87917088Y-85884762D01*
X87910948Y-85871976D01*
X87899869Y-85863116D01*
X87896735Y-85859176D01*
X87891084Y-85853515D01*
X87887148Y-85850373D01*
X87878305Y-85839276D01*
X87865523Y-85833111D01*
X87861296Y-85829737D01*
X87855453Y-85826058D01*
X87850590Y-85823707D01*
X87839508Y-85814844D01*
X87825680Y-85811664D01*
X87821149Y-85809474D01*
X87813603Y-85806824D01*
X87808693Y-85805700D01*
X87795913Y-85799535D01*
X87772845Y-85799515D01*
X87772847Y-85797490D01*
X87772781Y-85797474D01*
X87772781Y-85799500D01*
X87755892Y-85799500D01*
X87704437Y-85799455D01*
X87704441Y-85794650D01*
X87704343Y-85794644D01*
X87704343Y-85799500D01*
X83787080Y-85799500D01*
X83769758Y-85797534D01*
X83764189Y-85797524D01*
X83750359Y-85794344D01*
X83736518Y-85797476D01*
X83735395Y-85797474D01*
X83723269Y-85796867D01*
X83668382Y-85791461D01*
X83606374Y-85785354D01*
X83582152Y-85780536D01*
X83455915Y-85742243D01*
X83433102Y-85732793D01*
X83395408Y-85712645D01*
X83316766Y-85670610D01*
X83296230Y-85656888D01*
X83194261Y-85573204D01*
X83176796Y-85555739D01*
X83093112Y-85453770D01*
X83079389Y-85433232D01*
X83074927Y-85424883D01*
X83017206Y-85316897D01*
X83007758Y-85294088D01*
X82969462Y-85167844D01*
X82964646Y-85143626D01*
X82953860Y-85034114D01*
X82954078Y-85007523D01*
X82955655Y-85000718D01*
X82955656Y-85000000D01*
X82953654Y-84991225D01*
X82950500Y-84963210D01*
X82950500Y-84248269D01*
X84899564Y-84248269D01*
X84912792Y-84450094D01*
X84926528Y-84504181D01*
X84959005Y-84632058D01*
X84962578Y-84646128D01*
X85047256Y-84829807D01*
X85066542Y-84857096D01*
X85151562Y-84977397D01*
X85163988Y-84994980D01*
X85168130Y-84999015D01*
X85197050Y-85027187D01*
X85308866Y-85136113D01*
X85313670Y-85139323D01*
X85338591Y-85155975D01*
X85477037Y-85248482D01*
X85482340Y-85250760D01*
X85482343Y-85250762D01*
X85629765Y-85314099D01*
X85662870Y-85328322D01*
X85860140Y-85372960D01*
X85865909Y-85373187D01*
X85865912Y-85373187D01*
X85942083Y-85376179D01*
X86062242Y-85380900D01*
X86148532Y-85368389D01*
X86256686Y-85352708D01*
X86256691Y-85352707D01*
X86262407Y-85351878D01*
X86267879Y-85350020D01*
X86267881Y-85350020D01*
X86448467Y-85288719D01*
X86448469Y-85288718D01*
X86453931Y-85286864D01*
X86580967Y-85215721D01*
X86625364Y-85190858D01*
X86625365Y-85190857D01*
X86630401Y-85188037D01*
X86648853Y-85172691D01*
X86712013Y-85120161D01*
X86785905Y-85058705D01*
X86878709Y-84947121D01*
X86911546Y-84907639D01*
X86915237Y-84903201D01*
X86932363Y-84872621D01*
X86960782Y-84821873D01*
X87014064Y-84726731D01*
X87022385Y-84702220D01*
X87077220Y-84540681D01*
X87077220Y-84540679D01*
X87079078Y-84535207D01*
X87079907Y-84529491D01*
X87079908Y-84529486D01*
X87105841Y-84350620D01*
X87108100Y-84335042D01*
X87109615Y-84277200D01*
X87091108Y-84075791D01*
X87088492Y-84066513D01*
X87046556Y-83917821D01*
X87036207Y-83881126D01*
X86956518Y-83719532D01*
X86949306Y-83704908D01*
X86946751Y-83699727D01*
X86934809Y-83683734D01*
X86829188Y-83542291D01*
X86829187Y-83542290D01*
X86825735Y-83537667D01*
X86802750Y-83516420D01*
X86681453Y-83404294D01*
X86681451Y-83404292D01*
X86677212Y-83400374D01*
X86672329Y-83397293D01*
X86511037Y-83295525D01*
X86506157Y-83292446D01*
X86318298Y-83217498D01*
X86119926Y-83178039D01*
X86114152Y-83177963D01*
X86114148Y-83177963D01*
X86011657Y-83176622D01*
X85917686Y-83175392D01*
X85911989Y-83176371D01*
X85911988Y-83176371D01*
X85724046Y-83208665D01*
X85724045Y-83208665D01*
X85718349Y-83209644D01*
X85528593Y-83279649D01*
X85523632Y-83282601D01*
X85523631Y-83282601D01*
X85368141Y-83375108D01*
X85354771Y-83383062D01*
X85202705Y-83516420D01*
X85077489Y-83675257D01*
X84983314Y-83854253D01*
X84923337Y-84047413D01*
X84899564Y-84248269D01*
X82950500Y-84248269D01*
X82950500Y-81708269D01*
X84899564Y-81708269D01*
X84912792Y-81910094D01*
X84914215Y-81915696D01*
X84956072Y-82080509D01*
X84962578Y-82106128D01*
X85047256Y-82289807D01*
X85050589Y-82294523D01*
X85159579Y-82448741D01*
X85163988Y-82454980D01*
X85308866Y-82596113D01*
X85313670Y-82599323D01*
X85343476Y-82619239D01*
X85477037Y-82708482D01*
X85482340Y-82710760D01*
X85482343Y-82710762D01*
X85657563Y-82786042D01*
X85662870Y-82788322D01*
X85860140Y-82832960D01*
X85865909Y-82833187D01*
X85865912Y-82833187D01*
X85942083Y-82836179D01*
X86062242Y-82840900D01*
X86152565Y-82827804D01*
X86256686Y-82812708D01*
X86256691Y-82812707D01*
X86262407Y-82811878D01*
X86267879Y-82810020D01*
X86267881Y-82810020D01*
X86448467Y-82748719D01*
X86448469Y-82748718D01*
X86453931Y-82746864D01*
X86606541Y-82661399D01*
X86625364Y-82650858D01*
X86625365Y-82650857D01*
X86630401Y-82648037D01*
X86692833Y-82596113D01*
X86781473Y-82522391D01*
X86785905Y-82518705D01*
X86915237Y-82363201D01*
X86920294Y-82354172D01*
X86992862Y-82224590D01*
X87014064Y-82186731D01*
X87059289Y-82053505D01*
X87065063Y-82036496D01*
X98032937Y-82036496D01*
X98048732Y-82224590D01*
X98050431Y-82230515D01*
X98087034Y-82358164D01*
X98100760Y-82406034D01*
X98143900Y-82489976D01*
X98178523Y-82557344D01*
X98187040Y-82573917D01*
X98190865Y-82578743D01*
X98190867Y-82578746D01*
X98300456Y-82717014D01*
X98300460Y-82717019D01*
X98304285Y-82721844D01*
X98448030Y-82844180D01*
X98453408Y-82847186D01*
X98453410Y-82847187D01*
X98515572Y-82881928D01*
X98612800Y-82936267D01*
X98792317Y-82994595D01*
X98979745Y-83016945D01*
X98985880Y-83016473D01*
X98985882Y-83016473D01*
X99161803Y-83002937D01*
X99161807Y-83002936D01*
X99167945Y-83002464D01*
X99173877Y-83000808D01*
X99173881Y-83000807D01*
X99343804Y-82953363D01*
X99343808Y-82953362D01*
X99349748Y-82951703D01*
X99459171Y-82896430D01*
X99512728Y-82869377D01*
X99512730Y-82869376D01*
X99518229Y-82866598D01*
X99666970Y-82750388D01*
X99670996Y-82745724D01*
X99670999Y-82745721D01*
X99786278Y-82612169D01*
X99786279Y-82612167D01*
X99790307Y-82607501D01*
X99883542Y-82443378D01*
X99943123Y-82264272D01*
X99966780Y-82077005D01*
X99967157Y-82050000D01*
X99948738Y-81862145D01*
X99894181Y-81681445D01*
X99805566Y-81514783D01*
X99686266Y-81368508D01*
X99680475Y-81363717D01*
X99545577Y-81252120D01*
X99545574Y-81252118D01*
X99540827Y-81248191D01*
X99374788Y-81158414D01*
X99194474Y-81102597D01*
X99188356Y-81101954D01*
X99188351Y-81101953D01*
X99012881Y-81083511D01*
X99012879Y-81083511D01*
X99006752Y-81082867D01*
X98891125Y-81093390D01*
X98824914Y-81099415D01*
X98824913Y-81099415D01*
X98818773Y-81099974D01*
X98637697Y-81153268D01*
X98470420Y-81240718D01*
X98323316Y-81358993D01*
X98201986Y-81503588D01*
X98111052Y-81668996D01*
X98053978Y-81848917D01*
X98053292Y-81855036D01*
X98053291Y-81855039D01*
X98046487Y-81915696D01*
X98032937Y-82036496D01*
X87065063Y-82036496D01*
X87077220Y-82000681D01*
X87077220Y-82000679D01*
X87079078Y-81995207D01*
X87079907Y-81989491D01*
X87079908Y-81989486D01*
X87107567Y-81798716D01*
X87108100Y-81795042D01*
X87109615Y-81737200D01*
X87091108Y-81535791D01*
X87036207Y-81341126D01*
X86946751Y-81159727D01*
X86928479Y-81135257D01*
X86829188Y-81002291D01*
X86829187Y-81002290D01*
X86825735Y-80997667D01*
X86820138Y-80992493D01*
X86681453Y-80864294D01*
X86681451Y-80864292D01*
X86677212Y-80860374D01*
X86655813Y-80846872D01*
X86511037Y-80755525D01*
X86506157Y-80752446D01*
X86318298Y-80677498D01*
X86119926Y-80638039D01*
X86114152Y-80637963D01*
X86114148Y-80637963D01*
X86011657Y-80636622D01*
X85917686Y-80635392D01*
X85911989Y-80636371D01*
X85911988Y-80636371D01*
X85724046Y-80668665D01*
X85724045Y-80668665D01*
X85718349Y-80669644D01*
X85528593Y-80739649D01*
X85354771Y-80843062D01*
X85202705Y-80976420D01*
X85077489Y-81135257D01*
X84983314Y-81314253D01*
X84923337Y-81507413D01*
X84899564Y-81708269D01*
X82950500Y-81708269D01*
X82950500Y-81037371D01*
X82953755Y-81008918D01*
X82954043Y-81007676D01*
X82954044Y-81007669D01*
X82955655Y-81000718D01*
X82955656Y-81000000D01*
X82954074Y-80993064D01*
X82954010Y-80992493D01*
X82953836Y-80966133D01*
X82964646Y-80856374D01*
X82969462Y-80832156D01*
X83007758Y-80705912D01*
X83017207Y-80683102D01*
X83079390Y-80566766D01*
X83093112Y-80546230D01*
X83176796Y-80444261D01*
X83194261Y-80426796D01*
X83296230Y-80343112D01*
X83316768Y-80329389D01*
X83386378Y-80292182D01*
X83433103Y-80267206D01*
X83455912Y-80257758D01*
X83582156Y-80219462D01*
X83606373Y-80214646D01*
X83634395Y-80211886D01*
X83723770Y-80203083D01*
X83735905Y-80202497D01*
X83749641Y-80205656D01*
X83763480Y-80202525D01*
X83768310Y-80202533D01*
X83786504Y-80200500D01*
X114374000Y-80200500D01*
X114442121Y-80220502D01*
G37*
%TD.AperFunction*%
%TD*%
%TA.AperFunction,Conductor*%
%TO.N,GNDD*%
G36*
X202491621Y-84201202D02*
G01*
X202538114Y-84254858D01*
X202549500Y-84307200D01*
X202549500Y-128962920D01*
X202547534Y-128980242D01*
X202547524Y-128985811D01*
X202544344Y-128999641D01*
X202547476Y-129013482D01*
X202547474Y-129014605D01*
X202546867Y-129026736D01*
X202535354Y-129143626D01*
X202530536Y-129167848D01*
X202492243Y-129294085D01*
X202482793Y-129316898D01*
X202420611Y-129433232D01*
X202406888Y-129453770D01*
X202323204Y-129555739D01*
X202305739Y-129573204D01*
X202203770Y-129656888D01*
X202183234Y-129670610D01*
X202066898Y-129732793D01*
X202044088Y-129742242D01*
X201917844Y-129780538D01*
X201893627Y-129785354D01*
X201868814Y-129787798D01*
X201776230Y-129796917D01*
X201764095Y-129797503D01*
X201750359Y-129794344D01*
X201736520Y-129797475D01*
X201731690Y-129797467D01*
X201713496Y-129799500D01*
X183537080Y-129799500D01*
X183519758Y-129797534D01*
X183514189Y-129797524D01*
X183500359Y-129794344D01*
X183486518Y-129797476D01*
X183485395Y-129797474D01*
X183473269Y-129796867D01*
X183418382Y-129791461D01*
X183356374Y-129785354D01*
X183332152Y-129780536D01*
X183205915Y-129742243D01*
X183183102Y-129732793D01*
X183066766Y-129670610D01*
X183046230Y-129656888D01*
X182944261Y-129573204D01*
X182926796Y-129555739D01*
X182843112Y-129453770D01*
X182829389Y-129433232D01*
X182767207Y-129316898D01*
X182757758Y-129294088D01*
X182745478Y-129253606D01*
X189932023Y-129253606D01*
X189937304Y-129260661D01*
X190113680Y-129363727D01*
X190122963Y-129368174D01*
X190329603Y-129447083D01*
X190339501Y-129449959D01*
X190556253Y-129494057D01*
X190566483Y-129495276D01*
X190787514Y-129503382D01*
X190797823Y-129502914D01*
X191017223Y-129474808D01*
X191027288Y-129472668D01*
X191239157Y-129409105D01*
X191248752Y-129405344D01*
X191447378Y-129308038D01*
X191456236Y-129302759D01*
X191513697Y-129261772D01*
X191522097Y-129251074D01*
X191515110Y-129237921D01*
X190741411Y-128464221D01*
X190727468Y-128456608D01*
X190725634Y-128456739D01*
X190719020Y-128460990D01*
X189938780Y-129241231D01*
X189932023Y-129253606D01*
X182745478Y-129253606D01*
X182719462Y-129167844D01*
X182714646Y-129143626D01*
X182703860Y-129034114D01*
X182704078Y-129007523D01*
X182705655Y-129000718D01*
X182705656Y-129000000D01*
X182703654Y-128991225D01*
X182700500Y-128963210D01*
X182700500Y-128062838D01*
X189316493Y-128062838D01*
X189329227Y-128283668D01*
X189330661Y-128293870D01*
X189379285Y-128509639D01*
X189382373Y-128519492D01*
X189465586Y-128724420D01*
X189470234Y-128733621D01*
X189558697Y-128877981D01*
X189569153Y-128887442D01*
X189577931Y-128883658D01*
X190356579Y-128105011D01*
X190362956Y-128093332D01*
X191093008Y-128093332D01*
X191093139Y-128095166D01*
X191097390Y-128101780D01*
X191874907Y-128879296D01*
X191886913Y-128885852D01*
X191898652Y-128876884D01*
X191936610Y-128824059D01*
X191941921Y-128815220D01*
X192039918Y-128616937D01*
X192043717Y-128607342D01*
X192108015Y-128395717D01*
X192110194Y-128385636D01*
X192139302Y-128164538D01*
X192139821Y-128157863D01*
X192141344Y-128095564D01*
X192141150Y-128088846D01*
X192122879Y-127866600D01*
X192121197Y-127856441D01*
X192069906Y-127652244D01*
X192070744Y-127631038D01*
X192065257Y-127626892D01*
X192050911Y-127602075D01*
X191975793Y-127429318D01*
X191970915Y-127420220D01*
X191897824Y-127307238D01*
X191887138Y-127298035D01*
X191877573Y-127302438D01*
X191100621Y-128079389D01*
X191093008Y-128093332D01*
X190362956Y-128093332D01*
X190364192Y-128091068D01*
X190364061Y-128089234D01*
X190359810Y-128082620D01*
X189582462Y-127305273D01*
X189570930Y-127298976D01*
X189558648Y-127308599D01*
X189503067Y-127390077D01*
X189497979Y-127399033D01*
X189404852Y-127599659D01*
X189401289Y-127609346D01*
X189342181Y-127822480D01*
X189340250Y-127832600D01*
X189316745Y-128052549D01*
X189316493Y-128062838D01*
X182700500Y-128062838D01*
X182700500Y-125523269D01*
X189623764Y-125523269D01*
X189636992Y-125725094D01*
X189686778Y-125921128D01*
X189771456Y-126104807D01*
X189774789Y-126109523D01*
X189813730Y-126164623D01*
X189888188Y-126269980D01*
X190033066Y-126411113D01*
X190201237Y-126523482D01*
X190206542Y-126525761D01*
X190206549Y-126525765D01*
X190237770Y-126539179D01*
X190292463Y-126584448D01*
X190313999Y-126652099D01*
X190295541Y-126720654D01*
X190242949Y-126768348D01*
X190227175Y-126774711D01*
X190186029Y-126788159D01*
X190176516Y-126792158D01*
X189980325Y-126894289D01*
X189971607Y-126899778D01*
X189942561Y-126921586D01*
X189934108Y-126932911D01*
X189940851Y-126945240D01*
X190715789Y-127720179D01*
X190729732Y-127727792D01*
X190731566Y-127727661D01*
X190738180Y-127723410D01*
X191247663Y-127213926D01*
X192219941Y-127213926D01*
X192250335Y-127414897D01*
X192284710Y-127508326D01*
X192287166Y-127544955D01*
X192300716Y-127557667D01*
X192310359Y-127578038D01*
X192320519Y-127605652D01*
X192323879Y-127611072D01*
X192323880Y-127611073D01*
X192424263Y-127772976D01*
X192424266Y-127772980D01*
X192427626Y-127778399D01*
X192432012Y-127783037D01*
X192511034Y-127866600D01*
X192567281Y-127926080D01*
X192733779Y-128042663D01*
X192920319Y-128123386D01*
X192966347Y-128133002D01*
X193114544Y-128163962D01*
X193114549Y-128163963D01*
X193119280Y-128164951D01*
X193124162Y-128165207D01*
X193124271Y-128165213D01*
X193124287Y-128165213D01*
X193125939Y-128165300D01*
X193275200Y-128165300D01*
X193323193Y-128160425D01*
X193420268Y-128150565D01*
X193420270Y-128150565D01*
X193426616Y-128149920D01*
X193620572Y-128089138D01*
X193798344Y-127990597D01*
X193952671Y-127858323D01*
X194077248Y-127697719D01*
X194166987Y-127515345D01*
X194168816Y-127508324D01*
X194216612Y-127324834D01*
X194216612Y-127324831D01*
X194218222Y-127318652D01*
X194223710Y-127213926D01*
X200219941Y-127213926D01*
X200250335Y-127414897D01*
X200320519Y-127605652D01*
X200323879Y-127611072D01*
X200323880Y-127611073D01*
X200424263Y-127772976D01*
X200424266Y-127772980D01*
X200427626Y-127778399D01*
X200432012Y-127783037D01*
X200511034Y-127866600D01*
X200567281Y-127926080D01*
X200733779Y-128042663D01*
X200920319Y-128123386D01*
X200966347Y-128133002D01*
X201114544Y-128163962D01*
X201114549Y-128163963D01*
X201119280Y-128164951D01*
X201124162Y-128165207D01*
X201124271Y-128165213D01*
X201124287Y-128165213D01*
X201125939Y-128165300D01*
X201275200Y-128165300D01*
X201323193Y-128160425D01*
X201420268Y-128150565D01*
X201420270Y-128150565D01*
X201426616Y-128149920D01*
X201620572Y-128089138D01*
X201798344Y-127990597D01*
X201952671Y-127858323D01*
X202077248Y-127697719D01*
X202166987Y-127515345D01*
X202168816Y-127508324D01*
X202216612Y-127324834D01*
X202216612Y-127324831D01*
X202218222Y-127318652D01*
X202228859Y-127115674D01*
X202198465Y-126914703D01*
X202128281Y-126723948D01*
X202074745Y-126637602D01*
X202024537Y-126556624D01*
X202024534Y-126556620D01*
X202021174Y-126551201D01*
X201940469Y-126465858D01*
X201885908Y-126408161D01*
X201885907Y-126408160D01*
X201881519Y-126403520D01*
X201715021Y-126286937D01*
X201528481Y-126206214D01*
X201415634Y-126182639D01*
X201334256Y-126165638D01*
X201334251Y-126165637D01*
X201329520Y-126164649D01*
X201324638Y-126164393D01*
X201324529Y-126164387D01*
X201324513Y-126164387D01*
X201322861Y-126164300D01*
X201173600Y-126164300D01*
X201125607Y-126169175D01*
X201028532Y-126179035D01*
X201028530Y-126179035D01*
X201022184Y-126179680D01*
X200828228Y-126240462D01*
X200650456Y-126339003D01*
X200496129Y-126471277D01*
X200371552Y-126631881D01*
X200281813Y-126814255D01*
X200280204Y-126820433D01*
X200280203Y-126820435D01*
X200247694Y-126945240D01*
X200230578Y-127010948D01*
X200219941Y-127213926D01*
X194223710Y-127213926D01*
X194228859Y-127115674D01*
X194198465Y-126914703D01*
X194128281Y-126723948D01*
X194074745Y-126637602D01*
X194024537Y-126556624D01*
X194024534Y-126556620D01*
X194021174Y-126551201D01*
X193940469Y-126465858D01*
X193885908Y-126408161D01*
X193885907Y-126408160D01*
X193881519Y-126403520D01*
X193715021Y-126286937D01*
X193528481Y-126206214D01*
X193415634Y-126182639D01*
X193334256Y-126165638D01*
X193334251Y-126165637D01*
X193329520Y-126164649D01*
X193324638Y-126164393D01*
X193324529Y-126164387D01*
X193324513Y-126164387D01*
X193322861Y-126164300D01*
X193173600Y-126164300D01*
X193125607Y-126169175D01*
X193028532Y-126179035D01*
X193028530Y-126179035D01*
X193022184Y-126179680D01*
X192828228Y-126240462D01*
X192650456Y-126339003D01*
X192496129Y-126471277D01*
X192371552Y-126631881D01*
X192281813Y-126814255D01*
X192280204Y-126820433D01*
X192280203Y-126820435D01*
X192247694Y-126945240D01*
X192230578Y-127010948D01*
X192219941Y-127213926D01*
X191247663Y-127213926D01*
X191517594Y-126943995D01*
X191524611Y-126931144D01*
X191516837Y-126920474D01*
X191514502Y-126918630D01*
X191505920Y-126912929D01*
X191312278Y-126806033D01*
X191302873Y-126801806D01*
X191226115Y-126774625D01*
X191168578Y-126733031D01*
X191142662Y-126666934D01*
X191156596Y-126597318D01*
X191206608Y-126545917D01*
X191349564Y-126465858D01*
X191349565Y-126465857D01*
X191354601Y-126463037D01*
X191417033Y-126411113D01*
X191505673Y-126337391D01*
X191510105Y-126333705D01*
X191639437Y-126178201D01*
X191647027Y-126164649D01*
X191735445Y-126006764D01*
X191738264Y-126001731D01*
X191799903Y-125820151D01*
X191801420Y-125815681D01*
X191801420Y-125815679D01*
X191803278Y-125810207D01*
X191804107Y-125804491D01*
X191804108Y-125804486D01*
X191826177Y-125652269D01*
X191832300Y-125610042D01*
X191833815Y-125552200D01*
X191815308Y-125350791D01*
X191812673Y-125341446D01*
X191761976Y-125161690D01*
X191760407Y-125156126D01*
X191670951Y-124974727D01*
X191652679Y-124950257D01*
X191553388Y-124817291D01*
X191553387Y-124817290D01*
X191549935Y-124812667D01*
X191526950Y-124791420D01*
X191482209Y-124750062D01*
X194168920Y-124750062D01*
X194186159Y-124955353D01*
X194242944Y-125153386D01*
X194245759Y-125158863D01*
X194245760Y-125158866D01*
X194332760Y-125328150D01*
X194337112Y-125336618D01*
X194465077Y-125498070D01*
X194621964Y-125631591D01*
X194801798Y-125732097D01*
X194896638Y-125762913D01*
X194991871Y-125793856D01*
X194991875Y-125793857D01*
X194997729Y-125795759D01*
X195202294Y-125820151D01*
X195208429Y-125819679D01*
X195208431Y-125819679D01*
X195264439Y-125815369D01*
X195407700Y-125804346D01*
X195413630Y-125802690D01*
X195413632Y-125802690D01*
X195600197Y-125750600D01*
X195600196Y-125750600D01*
X195606125Y-125748945D01*
X195611614Y-125746172D01*
X195611620Y-125746170D01*
X195784516Y-125658833D01*
X195790010Y-125656058D01*
X195853656Y-125606333D01*
X195947501Y-125533013D01*
X195952351Y-125529224D01*
X195957492Y-125523269D01*
X196082940Y-125377934D01*
X196082940Y-125377933D01*
X196086964Y-125373272D01*
X196113083Y-125327294D01*
X196164122Y-125277944D01*
X196233740Y-125264021D01*
X196299833Y-125289947D01*
X196330163Y-125326465D01*
X196330955Y-125325955D01*
X196334297Y-125331140D01*
X196337112Y-125336618D01*
X196465077Y-125498070D01*
X196621964Y-125631591D01*
X196801798Y-125732097D01*
X196896638Y-125762913D01*
X196991871Y-125793856D01*
X196991875Y-125793857D01*
X196997729Y-125795759D01*
X197202294Y-125820151D01*
X197208429Y-125819679D01*
X197208431Y-125819679D01*
X197264439Y-125815369D01*
X197407700Y-125804346D01*
X197413630Y-125802690D01*
X197413632Y-125802690D01*
X197600197Y-125750600D01*
X197600196Y-125750600D01*
X197606125Y-125748945D01*
X197611614Y-125746172D01*
X197611620Y-125746170D01*
X197784516Y-125658833D01*
X197790010Y-125656058D01*
X197853656Y-125606333D01*
X197947501Y-125533013D01*
X197952351Y-125529224D01*
X197957492Y-125523269D01*
X198082940Y-125377934D01*
X198082940Y-125377933D01*
X198086964Y-125373272D01*
X198113083Y-125327294D01*
X198164122Y-125277944D01*
X198233740Y-125264021D01*
X198299833Y-125289947D01*
X198330163Y-125326465D01*
X198330955Y-125325955D01*
X198334297Y-125331140D01*
X198337112Y-125336618D01*
X198465077Y-125498070D01*
X198621964Y-125631591D01*
X198801798Y-125732097D01*
X198896638Y-125762913D01*
X198991871Y-125793856D01*
X198991875Y-125793857D01*
X198997729Y-125795759D01*
X199202294Y-125820151D01*
X199208429Y-125819679D01*
X199208431Y-125819679D01*
X199264439Y-125815369D01*
X199407700Y-125804346D01*
X199413630Y-125802690D01*
X199413632Y-125802690D01*
X199600197Y-125750600D01*
X199600196Y-125750600D01*
X199606125Y-125748945D01*
X199611614Y-125746172D01*
X199611620Y-125746170D01*
X199784516Y-125658833D01*
X199790010Y-125656058D01*
X199853656Y-125606333D01*
X199947501Y-125533013D01*
X199952351Y-125529224D01*
X199957492Y-125523269D01*
X200082940Y-125377934D01*
X200082940Y-125377933D01*
X200086964Y-125373272D01*
X200107787Y-125336618D01*
X200185676Y-125199507D01*
X200188723Y-125194144D01*
X200253751Y-124998663D01*
X200279571Y-124794274D01*
X200279983Y-124764800D01*
X200259880Y-124559770D01*
X200200335Y-124362549D01*
X200103618Y-124180649D01*
X200030259Y-124090702D01*
X199977306Y-124025775D01*
X199977303Y-124025772D01*
X199973411Y-124021000D01*
X199956186Y-124006750D01*
X199819425Y-123893611D01*
X199819421Y-123893609D01*
X199814675Y-123889682D01*
X199633455Y-123791697D01*
X199436654Y-123730777D01*
X199430529Y-123730133D01*
X199430528Y-123730133D01*
X199237898Y-123709887D01*
X199237896Y-123709887D01*
X199231769Y-123709243D01*
X199144929Y-123717146D01*
X199032742Y-123727355D01*
X199032739Y-123727356D01*
X199026603Y-123727914D01*
X198828972Y-123786080D01*
X198646402Y-123881526D01*
X198641601Y-123885386D01*
X198641598Y-123885388D01*
X198631371Y-123893611D01*
X198485847Y-124010615D01*
X198353424Y-124168430D01*
X198350453Y-124173833D01*
X198350451Y-124173837D01*
X198335399Y-124201217D01*
X198285054Y-124251276D01*
X198215637Y-124266170D01*
X198149188Y-124241170D01*
X198113733Y-124199672D01*
X198106512Y-124186091D01*
X198106510Y-124186087D01*
X198103618Y-124180649D01*
X198030259Y-124090702D01*
X197977306Y-124025775D01*
X197977303Y-124025772D01*
X197973411Y-124021000D01*
X197956186Y-124006750D01*
X197819425Y-123893611D01*
X197819421Y-123893609D01*
X197814675Y-123889682D01*
X197633455Y-123791697D01*
X197436654Y-123730777D01*
X197430529Y-123730133D01*
X197430528Y-123730133D01*
X197237898Y-123709887D01*
X197237896Y-123709887D01*
X197231769Y-123709243D01*
X197144929Y-123717146D01*
X197032742Y-123727355D01*
X197032739Y-123727356D01*
X197026603Y-123727914D01*
X196828972Y-123786080D01*
X196646402Y-123881526D01*
X196641601Y-123885386D01*
X196641598Y-123885388D01*
X196631371Y-123893611D01*
X196485847Y-124010615D01*
X196353424Y-124168430D01*
X196350453Y-124173833D01*
X196350451Y-124173837D01*
X196335399Y-124201217D01*
X196285054Y-124251276D01*
X196215637Y-124266170D01*
X196149188Y-124241170D01*
X196113733Y-124199672D01*
X196106512Y-124186091D01*
X196106510Y-124186087D01*
X196103618Y-124180649D01*
X196030259Y-124090702D01*
X195977306Y-124025775D01*
X195977303Y-124025772D01*
X195973411Y-124021000D01*
X195956186Y-124006750D01*
X195819425Y-123893611D01*
X195819421Y-123893609D01*
X195814675Y-123889682D01*
X195633455Y-123791697D01*
X195436654Y-123730777D01*
X195430529Y-123730133D01*
X195430528Y-123730133D01*
X195237898Y-123709887D01*
X195237896Y-123709887D01*
X195231769Y-123709243D01*
X195144929Y-123717146D01*
X195032742Y-123727355D01*
X195032739Y-123727356D01*
X195026603Y-123727914D01*
X194828972Y-123786080D01*
X194646402Y-123881526D01*
X194641601Y-123885386D01*
X194641598Y-123885388D01*
X194631371Y-123893611D01*
X194485847Y-124010615D01*
X194353424Y-124168430D01*
X194350456Y-124173828D01*
X194350453Y-124173833D01*
X194335399Y-124201217D01*
X194254176Y-124348962D01*
X194191884Y-124545332D01*
X194191198Y-124551449D01*
X194191197Y-124551453D01*
X194176858Y-124679294D01*
X194168920Y-124750062D01*
X191482209Y-124750062D01*
X191405653Y-124679294D01*
X191405651Y-124679292D01*
X191401412Y-124675374D01*
X191373974Y-124658062D01*
X191235237Y-124570525D01*
X191230357Y-124567446D01*
X191042498Y-124492498D01*
X190844126Y-124453039D01*
X190838352Y-124452963D01*
X190838348Y-124452963D01*
X190735857Y-124451622D01*
X190641886Y-124450392D01*
X190636189Y-124451371D01*
X190636188Y-124451371D01*
X190448246Y-124483665D01*
X190448245Y-124483665D01*
X190442549Y-124484644D01*
X190252793Y-124554649D01*
X190078971Y-124658062D01*
X189926905Y-124791420D01*
X189801689Y-124950257D01*
X189707514Y-125129253D01*
X189647537Y-125322413D01*
X189623764Y-125523269D01*
X182700500Y-125523269D01*
X182700500Y-117607165D01*
X189497866Y-117607165D01*
X189532952Y-117864970D01*
X189605758Y-118114757D01*
X189714686Y-118351039D01*
X189717246Y-118354944D01*
X189717249Y-118354949D01*
X189854775Y-118564712D01*
X189854779Y-118564717D01*
X189857341Y-118568625D01*
X190030591Y-118762735D01*
X190230629Y-118929105D01*
X190453061Y-119064080D01*
X190457375Y-119065889D01*
X190457377Y-119065890D01*
X190688686Y-119162886D01*
X190688691Y-119162888D01*
X190693001Y-119164695D01*
X190697533Y-119165846D01*
X190697536Y-119165847D01*
X190822815Y-119197663D01*
X190945177Y-119228739D01*
X191161286Y-119250500D01*
X192816044Y-119250500D01*
X192818369Y-119250327D01*
X192818375Y-119250327D01*
X193004814Y-119236472D01*
X193004818Y-119236471D01*
X193009466Y-119236126D01*
X193263232Y-119178705D01*
X193267586Y-119177012D01*
X193501370Y-119086098D01*
X193501372Y-119086097D01*
X193505723Y-119084405D01*
X193541285Y-119064080D01*
X193589038Y-119036786D01*
X193731612Y-118955299D01*
X193935936Y-118794223D01*
X194114208Y-118604714D01*
X194262511Y-118390937D01*
X194280258Y-118354949D01*
X194375521Y-118161775D01*
X194375522Y-118161772D01*
X194377586Y-118157587D01*
X194456906Y-117909792D01*
X194498728Y-117652994D01*
X194502134Y-117392835D01*
X194467048Y-117135030D01*
X194394242Y-116885243D01*
X194285314Y-116648961D01*
X194256637Y-116605221D01*
X194145225Y-116435288D01*
X194145221Y-116435283D01*
X194142659Y-116431375D01*
X193969409Y-116237265D01*
X193769371Y-116070895D01*
X193546939Y-115935920D01*
X193542623Y-115934110D01*
X193311314Y-115837114D01*
X193311309Y-115837112D01*
X193306999Y-115835305D01*
X193302467Y-115834154D01*
X193302464Y-115834153D01*
X193177185Y-115802337D01*
X193054823Y-115771261D01*
X192838714Y-115749500D01*
X191183956Y-115749500D01*
X191181631Y-115749673D01*
X191181625Y-115749673D01*
X190995186Y-115763528D01*
X190995182Y-115763529D01*
X190990534Y-115763874D01*
X190736768Y-115821295D01*
X190732416Y-115822987D01*
X190732414Y-115822988D01*
X190498630Y-115913902D01*
X190498628Y-115913903D01*
X190494277Y-115915595D01*
X190490223Y-115917912D01*
X190490221Y-115917913D01*
X190454467Y-115938348D01*
X190268388Y-116044701D01*
X190064064Y-116205777D01*
X189885792Y-116395286D01*
X189737489Y-116609063D01*
X189735423Y-116613253D01*
X189735421Y-116613256D01*
X189715720Y-116653207D01*
X189622414Y-116842413D01*
X189543094Y-117090208D01*
X189501272Y-117347006D01*
X189497866Y-117607165D01*
X182700500Y-117607165D01*
X182700500Y-113852690D01*
X182720502Y-113784569D01*
X182737405Y-113763595D01*
X185181540Y-111319460D01*
X185243852Y-111285434D01*
X185314667Y-111290499D01*
X185337307Y-111301640D01*
X185459078Y-111377583D01*
X185754063Y-111515451D01*
X186063474Y-111616881D01*
X186382830Y-111680405D01*
X186386602Y-111680692D01*
X186386610Y-111680693D01*
X186703728Y-111704815D01*
X186703733Y-111704815D01*
X186707505Y-111705102D01*
X187032795Y-111690615D01*
X187353989Y-111637154D01*
X187666434Y-111545493D01*
X187965604Y-111416959D01*
X187968882Y-111415055D01*
X187968888Y-111415052D01*
X188192040Y-111285434D01*
X188247165Y-111253415D01*
X188507040Y-111057230D01*
X188741464Y-110831245D01*
X188793126Y-110767788D01*
X188944643Y-110581678D01*
X188944647Y-110581672D01*
X188947040Y-110578733D01*
X189120792Y-110303354D01*
X189260202Y-110009095D01*
X189363251Y-109700218D01*
X189428446Y-109381199D01*
X189454843Y-109056658D01*
X189455436Y-109000000D01*
X189435841Y-108674977D01*
X189421473Y-108596300D01*
X189381335Y-108376529D01*
X189377342Y-108354663D01*
X189280784Y-108043696D01*
X189147567Y-107746582D01*
X188979621Y-107467624D01*
X188977294Y-107464640D01*
X188977289Y-107464633D01*
X188781713Y-107213858D01*
X188781711Y-107213856D01*
X188779377Y-107210863D01*
X188718474Y-107149640D01*
X199114570Y-107149640D01*
X199129000Y-107369804D01*
X199130421Y-107375400D01*
X199130422Y-107375405D01*
X199181890Y-107578057D01*
X199183311Y-107583652D01*
X199185728Y-107588894D01*
X199185728Y-107588895D01*
X199273265Y-107778776D01*
X199275683Y-107784021D01*
X199403022Y-107964202D01*
X199561064Y-108118161D01*
X199565860Y-108121366D01*
X199565863Y-108121368D01*
X199650061Y-108177627D01*
X199744517Y-108240740D01*
X199749820Y-108243018D01*
X199749823Y-108243020D01*
X199941929Y-108325555D01*
X199947236Y-108327835D01*
X200026888Y-108345858D01*
X200156795Y-108375254D01*
X200156801Y-108375255D01*
X200162432Y-108376529D01*
X200168203Y-108376756D01*
X200168205Y-108376756D01*
X200236011Y-108379420D01*
X200382898Y-108385191D01*
X200492075Y-108369361D01*
X200595538Y-108354360D01*
X200595543Y-108354359D01*
X200601252Y-108353531D01*
X200606716Y-108351676D01*
X200606721Y-108351675D01*
X200804707Y-108284468D01*
X200804712Y-108284466D01*
X200810179Y-108282610D01*
X201002684Y-108174802D01*
X201097866Y-108095640D01*
X201167886Y-108037404D01*
X201172318Y-108033718D01*
X201313402Y-107864084D01*
X201421210Y-107671579D01*
X201423066Y-107666112D01*
X201423068Y-107666107D01*
X201490275Y-107468121D01*
X201490276Y-107468116D01*
X201492131Y-107462652D01*
X201492959Y-107456943D01*
X201492960Y-107456938D01*
X201523258Y-107247972D01*
X201523791Y-107244298D01*
X201525443Y-107181200D01*
X201505254Y-106961489D01*
X201445365Y-106749136D01*
X201347780Y-106551253D01*
X201294736Y-106480218D01*
X201219220Y-106379091D01*
X201219220Y-106379090D01*
X201215767Y-106374467D01*
X201118386Y-106284449D01*
X201057989Y-106228618D01*
X201057986Y-106228616D01*
X201053749Y-106224699D01*
X200867150Y-106106964D01*
X200662221Y-106025206D01*
X200656561Y-106024080D01*
X200656557Y-106024079D01*
X200451491Y-105983289D01*
X200451488Y-105983289D01*
X200445824Y-105982162D01*
X200440049Y-105982086D01*
X200440045Y-105982086D01*
X200329304Y-105980637D01*
X200225206Y-105979274D01*
X200219509Y-105980253D01*
X200219508Y-105980253D01*
X200013454Y-106015659D01*
X200013453Y-106015659D01*
X200007757Y-106016638D01*
X199800757Y-106093004D01*
X199611141Y-106205814D01*
X199445257Y-106351290D01*
X199308663Y-106524560D01*
X199205931Y-106719820D01*
X199140503Y-106930533D01*
X199114570Y-107149640D01*
X188718474Y-107149640D01*
X188549738Y-106980018D01*
X188519177Y-106955925D01*
X188297010Y-106780783D01*
X188294029Y-106778433D01*
X188015954Y-106609029D01*
X187879254Y-106546875D01*
X187825521Y-106500471D01*
X187819800Y-106487972D01*
X187819800Y-106481200D01*
X187809247Y-106480218D01*
X187809246Y-106480218D01*
X187722308Y-106472131D01*
X187695985Y-106466808D01*
X187409085Y-106376073D01*
X187267071Y-106349368D01*
X187092805Y-106316597D01*
X187092800Y-106316596D01*
X187089081Y-106315897D01*
X186764166Y-106294601D01*
X186760386Y-106294809D01*
X186760385Y-106294809D01*
X186690318Y-106298665D01*
X186439045Y-106312494D01*
X186435318Y-106313155D01*
X186435314Y-106313155D01*
X186385544Y-106321976D01*
X186306788Y-106335933D01*
X186273133Y-106337324D01*
X185569398Y-106271860D01*
X183634129Y-106091835D01*
X183568154Y-106065610D01*
X183526831Y-106007878D01*
X183519800Y-105966377D01*
X183519800Y-104093398D01*
X183539802Y-104025277D01*
X183593458Y-103978784D01*
X183631247Y-103968241D01*
X186261248Y-103662427D01*
X186300381Y-103664005D01*
X186379113Y-103679666D01*
X186379119Y-103679667D01*
X186382830Y-103680405D01*
X186519276Y-103690784D01*
X186703728Y-103704815D01*
X186703733Y-103704815D01*
X186707505Y-103705102D01*
X187032795Y-103690615D01*
X187353989Y-103637154D01*
X187666434Y-103545493D01*
X187814699Y-103481793D01*
X187819800Y-103481200D01*
X187819800Y-103479602D01*
X187831483Y-103474582D01*
X187831485Y-103474582D01*
X187962115Y-103418458D01*
X187965604Y-103416959D01*
X187968882Y-103415055D01*
X187968888Y-103415052D01*
X188158417Y-103304964D01*
X188247165Y-103253415D01*
X188507040Y-103057230D01*
X188610594Y-102957404D01*
X188738730Y-102833881D01*
X188738733Y-102833877D01*
X188741464Y-102831245D01*
X188779859Y-102784084D01*
X188944643Y-102581678D01*
X188944647Y-102581672D01*
X188947040Y-102578733D01*
X189120792Y-102303354D01*
X189231518Y-102069640D01*
X199124570Y-102069640D01*
X199139000Y-102289804D01*
X199140421Y-102295400D01*
X199140422Y-102295405D01*
X199191890Y-102498057D01*
X199193311Y-102503652D01*
X199195728Y-102508894D01*
X199195728Y-102508895D01*
X199233846Y-102591579D01*
X199285683Y-102704021D01*
X199413022Y-102884202D01*
X199571064Y-103038161D01*
X199575860Y-103041366D01*
X199575863Y-103041368D01*
X199660061Y-103097627D01*
X199754517Y-103160740D01*
X199759820Y-103163018D01*
X199759823Y-103163020D01*
X199858177Y-103205276D01*
X199957236Y-103247835D01*
X200036888Y-103265858D01*
X200166795Y-103295254D01*
X200166801Y-103295255D01*
X200172432Y-103296529D01*
X200178203Y-103296756D01*
X200178205Y-103296756D01*
X200246011Y-103299420D01*
X200392898Y-103305191D01*
X200502075Y-103289361D01*
X200605538Y-103274360D01*
X200605543Y-103274359D01*
X200611252Y-103273531D01*
X200616716Y-103271676D01*
X200616721Y-103271675D01*
X200814707Y-103204468D01*
X200814712Y-103204466D01*
X200820179Y-103202610D01*
X201012684Y-103094802D01*
X201182318Y-102953718D01*
X201281986Y-102833881D01*
X201319708Y-102788526D01*
X201319710Y-102788523D01*
X201323402Y-102784084D01*
X201431210Y-102591579D01*
X201433066Y-102586112D01*
X201433068Y-102586107D01*
X201500275Y-102388121D01*
X201500276Y-102388116D01*
X201502131Y-102382652D01*
X201502959Y-102376943D01*
X201502960Y-102376938D01*
X201522146Y-102244613D01*
X201533791Y-102164298D01*
X201535443Y-102101200D01*
X201515254Y-101881489D01*
X201455365Y-101669136D01*
X201357780Y-101471253D01*
X201225767Y-101294467D01*
X201063749Y-101144699D01*
X200877150Y-101026964D01*
X200672221Y-100945206D01*
X200666561Y-100944080D01*
X200666557Y-100944079D01*
X200461491Y-100903289D01*
X200461488Y-100903289D01*
X200455824Y-100902162D01*
X200450049Y-100902086D01*
X200450045Y-100902086D01*
X200339304Y-100900637D01*
X200235206Y-100899274D01*
X200229509Y-100900253D01*
X200229508Y-100900253D01*
X200023454Y-100935659D01*
X200023453Y-100935659D01*
X200017757Y-100936638D01*
X199810757Y-101013004D01*
X199805796Y-101015956D01*
X199805795Y-101015956D01*
X199741147Y-101054418D01*
X199621141Y-101125814D01*
X199455257Y-101271290D01*
X199318663Y-101444560D01*
X199215931Y-101639820D01*
X199150503Y-101850533D01*
X199124570Y-102069640D01*
X189231518Y-102069640D01*
X189260202Y-102009095D01*
X189363251Y-101700218D01*
X189428446Y-101381199D01*
X189454843Y-101056658D01*
X189455436Y-101000000D01*
X189449606Y-100903289D01*
X189436069Y-100678755D01*
X189436069Y-100678751D01*
X189435841Y-100674977D01*
X189377342Y-100354663D01*
X189280784Y-100043696D01*
X189147567Y-99746582D01*
X188979621Y-99467624D01*
X188977294Y-99464640D01*
X188977289Y-99464633D01*
X188781713Y-99213858D01*
X188781711Y-99213856D01*
X188779377Y-99210863D01*
X188549738Y-98980018D01*
X188294029Y-98778433D01*
X188015954Y-98609029D01*
X187893649Y-98553420D01*
X187839916Y-98507016D01*
X187819800Y-98438719D01*
X187819800Y-92607165D01*
X189497866Y-92607165D01*
X189532952Y-92864970D01*
X189605758Y-93114757D01*
X189714686Y-93351039D01*
X189717246Y-93354944D01*
X189717249Y-93354949D01*
X189854775Y-93564712D01*
X189854779Y-93564717D01*
X189857341Y-93568625D01*
X190030591Y-93762735D01*
X190230629Y-93929105D01*
X190453061Y-94064080D01*
X190457375Y-94065889D01*
X190457377Y-94065890D01*
X190688686Y-94162886D01*
X190688691Y-94162888D01*
X190693001Y-94164695D01*
X190697533Y-94165846D01*
X190697536Y-94165847D01*
X190822815Y-94197663D01*
X190945177Y-94228739D01*
X191161286Y-94250500D01*
X192816044Y-94250500D01*
X192818369Y-94250327D01*
X192818375Y-94250327D01*
X193004814Y-94236472D01*
X193004818Y-94236471D01*
X193009466Y-94236126D01*
X193263232Y-94178705D01*
X193267586Y-94177012D01*
X193501370Y-94086098D01*
X193501372Y-94086097D01*
X193505723Y-94084405D01*
X193541285Y-94064080D01*
X193589038Y-94036786D01*
X193731612Y-93955299D01*
X193935936Y-93794223D01*
X194114208Y-93604714D01*
X194262511Y-93390937D01*
X194280258Y-93354949D01*
X194375521Y-93161775D01*
X194375522Y-93161772D01*
X194377586Y-93157587D01*
X194456906Y-92909792D01*
X194498728Y-92652994D01*
X194502134Y-92392835D01*
X194467048Y-92135030D01*
X194394242Y-91885243D01*
X194285314Y-91648961D01*
X194256637Y-91605221D01*
X194145225Y-91435288D01*
X194145221Y-91435283D01*
X194142659Y-91431375D01*
X193969409Y-91237265D01*
X193769371Y-91070895D01*
X193546939Y-90935920D01*
X193542623Y-90934110D01*
X193311314Y-90837114D01*
X193311309Y-90837112D01*
X193306999Y-90835305D01*
X193302467Y-90834154D01*
X193302464Y-90834153D01*
X193177185Y-90802337D01*
X193054823Y-90771261D01*
X192838714Y-90749500D01*
X191183956Y-90749500D01*
X191181631Y-90749673D01*
X191181625Y-90749673D01*
X190995186Y-90763528D01*
X190995182Y-90763529D01*
X190990534Y-90763874D01*
X190736768Y-90821295D01*
X190732416Y-90822987D01*
X190732414Y-90822988D01*
X190498630Y-90913902D01*
X190498628Y-90913903D01*
X190494277Y-90915595D01*
X190490223Y-90917912D01*
X190490221Y-90917913D01*
X190454467Y-90938348D01*
X190268388Y-91044701D01*
X190064064Y-91205777D01*
X189885792Y-91395286D01*
X189737489Y-91609063D01*
X189735423Y-91613253D01*
X189735421Y-91613256D01*
X189715720Y-91653207D01*
X189622414Y-91842413D01*
X189543094Y-92090208D01*
X189501272Y-92347006D01*
X189497866Y-92607165D01*
X187819800Y-92607165D01*
X187819800Y-87756459D01*
X187839802Y-87688338D01*
X187886063Y-87645520D01*
X194291830Y-84196261D01*
X194351567Y-84181200D01*
X202423500Y-84181200D01*
X202491621Y-84201202D01*
G37*
%TD.AperFunction*%
%TD*%
M02*
