%TF.GenerationSoftware,KiCad,Pcbnew,(6.0.11)*%
%TF.CreationDate,2023-02-13T14:33:55+01:00*%
%TF.ProjectId,carinsitu,63617269-6e73-4697-9475-2e6b69636164,1*%
%TF.SameCoordinates,Original*%
%TF.FileFunction,Paste,Top*%
%TF.FilePolarity,Positive*%
%FSLAX46Y46*%
G04 Gerber Fmt 4.6, Leading zero omitted, Abs format (unit mm)*
G04 Created by KiCad (PCBNEW (6.0.11)) date 2023-02-13 14:33:55*
%MOMM*%
%LPD*%
G01*
G04 APERTURE LIST*
G04 Aperture macros list*
%AMRoundRect*
0 Rectangle with rounded corners*
0 $1 Rounding radius*
0 $2 $3 $4 $5 $6 $7 $8 $9 X,Y pos of 4 corners*
0 Add a 4 corners polygon primitive as box body*
4,1,4,$2,$3,$4,$5,$6,$7,$8,$9,$2,$3,0*
0 Add four circle primitives for the rounded corners*
1,1,$1+$1,$2,$3*
1,1,$1+$1,$4,$5*
1,1,$1+$1,$6,$7*
1,1,$1+$1,$8,$9*
0 Add four rect primitives between the rounded corners*
20,1,$1+$1,$2,$3,$4,$5,0*
20,1,$1+$1,$4,$5,$6,$7,0*
20,1,$1+$1,$6,$7,$8,$9,0*
20,1,$1+$1,$8,$9,$2,$3,0*%
G04 Aperture macros list end*
%ADD10RoundRect,0.250000X0.450000X-0.262500X0.450000X0.262500X-0.450000X0.262500X-0.450000X-0.262500X0*%
%ADD11RoundRect,0.150000X0.512500X0.150000X-0.512500X0.150000X-0.512500X-0.150000X0.512500X-0.150000X0*%
%ADD12RoundRect,0.250000X-0.475000X0.250000X-0.475000X-0.250000X0.475000X-0.250000X0.475000X0.250000X0*%
%ADD13RoundRect,0.225000X-0.250000X0.225000X-0.250000X-0.225000X0.250000X-0.225000X0.250000X0.225000X0*%
%ADD14RoundRect,0.225000X-0.225000X-0.250000X0.225000X-0.250000X0.225000X0.250000X-0.225000X0.250000X0*%
%ADD15RoundRect,0.250000X-0.262500X-0.450000X0.262500X-0.450000X0.262500X0.450000X-0.262500X0.450000X0*%
%ADD16RoundRect,0.250000X-0.250000X-0.475000X0.250000X-0.475000X0.250000X0.475000X-0.250000X0.475000X0*%
%ADD17RoundRect,0.150000X-0.150000X0.512500X-0.150000X-0.512500X0.150000X-0.512500X0.150000X0.512500X0*%
%ADD18RoundRect,0.087500X-0.087500X0.225000X-0.087500X-0.225000X0.087500X-0.225000X0.087500X0.225000X0*%
%ADD19RoundRect,0.087500X-0.225000X0.087500X-0.225000X-0.087500X0.225000X-0.087500X0.225000X0.087500X0*%
%ADD20RoundRect,0.250000X0.262500X0.450000X-0.262500X0.450000X-0.262500X-0.450000X0.262500X-0.450000X0*%
%ADD21RoundRect,0.250000X-0.450000X0.262500X-0.450000X-0.262500X0.450000X-0.262500X0.450000X0.262500X0*%
%ADD22RoundRect,0.180000X0.295000X-0.180000X0.295000X0.180000X-0.295000X0.180000X-0.295000X-0.180000X0*%
%ADD23RoundRect,0.050000X0.050000X-0.337500X0.050000X0.337500X-0.050000X0.337500X-0.050000X-0.337500X0*%
%ADD24RoundRect,0.225000X0.250000X-0.225000X0.250000X0.225000X-0.250000X0.225000X-0.250000X-0.225000X0*%
%ADD25RoundRect,0.250000X0.475000X-0.250000X0.475000X0.250000X-0.475000X0.250000X-0.475000X-0.250000X0*%
%ADD26RoundRect,0.250000X-0.362500X-1.075000X0.362500X-1.075000X0.362500X1.075000X-0.362500X1.075000X0*%
%ADD27RoundRect,0.200000X0.275000X-0.200000X0.275000X0.200000X-0.275000X0.200000X-0.275000X-0.200000X0*%
%ADD28RoundRect,0.225000X0.225000X0.250000X-0.225000X0.250000X-0.225000X-0.250000X0.225000X-0.250000X0*%
%ADD29RoundRect,0.200000X-0.275000X0.200000X-0.275000X-0.200000X0.275000X-0.200000X0.275000X0.200000X0*%
%ADD30RoundRect,0.200000X0.200000X0.275000X-0.200000X0.275000X-0.200000X-0.275000X0.200000X-0.275000X0*%
%ADD31R,3.050000X2.750000*%
%ADD32R,2.200000X1.200000*%
%ADD33RoundRect,0.200000X-0.200000X-0.800000X0.200000X-0.800000X0.200000X0.800000X-0.200000X0.800000X0*%
%ADD34RoundRect,0.200000X-0.200000X-0.275000X0.200000X-0.275000X0.200000X0.275000X-0.200000X0.275000X0*%
%ADD35R,1.800000X2.500000*%
%ADD36RoundRect,0.150000X0.150000X-0.512500X0.150000X0.512500X-0.150000X0.512500X-0.150000X-0.512500X0*%
G04 APERTURE END LIST*
D10*
%TO.C,R2*%
X90601800Y-87424900D03*
X90601800Y-85599900D03*
%TD*%
D11*
%TO.C,U2*%
X91739300Y-84008000D03*
X91739300Y-83058000D03*
X91739300Y-82108000D03*
X89464300Y-82108000D03*
X89464300Y-83058000D03*
X89464300Y-84008000D03*
%TD*%
D12*
%TO.C,C1*%
X178150000Y-110075000D03*
X178150000Y-111975000D03*
%TD*%
D13*
%TO.C,C2*%
X176118000Y-110084900D03*
X176118000Y-111634900D03*
%TD*%
D14*
%TO.C,C3*%
X93852400Y-107619800D03*
X95402400Y-107619800D03*
%TD*%
D15*
%TO.C,R1*%
X119635900Y-89890600D03*
X121460900Y-89890600D03*
%TD*%
D16*
%TO.C,C4*%
X93845000Y-109474000D03*
X95745000Y-109474000D03*
%TD*%
D17*
%TO.C,U4*%
X147600000Y-95887500D03*
X146650000Y-95887500D03*
X145700000Y-95887500D03*
X145700000Y-98162500D03*
X147600000Y-98162500D03*
%TD*%
D15*
%TO.C,R6*%
X161482400Y-110109000D03*
X163307400Y-110109000D03*
%TD*%
%TO.C,R7*%
X161482400Y-112039400D03*
X163307400Y-112039400D03*
%TD*%
D18*
%TO.C,U7*%
X92514400Y-103781406D03*
X92014400Y-103781406D03*
X91514400Y-103781406D03*
X91014400Y-103781406D03*
D19*
X90851900Y-104443906D03*
X90851900Y-104943906D03*
X90851900Y-105443906D03*
D18*
X91014400Y-106106406D03*
X91514400Y-106106406D03*
X92014400Y-106106406D03*
X92514400Y-106106406D03*
D19*
X92676900Y-105443906D03*
X92676900Y-104943906D03*
X92676900Y-104443906D03*
%TD*%
D20*
%TO.C,R8*%
X94587700Y-88392000D03*
X92762700Y-88392000D03*
%TD*%
D10*
%TO.C,R9*%
X113790000Y-101812500D03*
X113790000Y-99987500D03*
%TD*%
D21*
%TO.C,R10*%
X113790000Y-103507500D03*
X113790000Y-105332500D03*
%TD*%
D22*
%TO.C,U3*%
X178209800Y-98706200D03*
X178209800Y-97816200D03*
X177029800Y-97816200D03*
X177029800Y-98706200D03*
D23*
X176419800Y-99748700D03*
X176819800Y-99748700D03*
X177219800Y-99748700D03*
X177619800Y-99748700D03*
X178019800Y-99748700D03*
X178419800Y-99748700D03*
X178819800Y-99748700D03*
X178819800Y-96773700D03*
X178419800Y-96773700D03*
X178019800Y-96773700D03*
X177619800Y-96773700D03*
X177219800Y-96773700D03*
X176819800Y-96773700D03*
X176419800Y-96773700D03*
%TD*%
D24*
%TO.C,C15*%
X184251600Y-87262000D03*
X184251600Y-85712000D03*
%TD*%
D25*
%TO.C,C16*%
X181940200Y-87411600D03*
X181940200Y-85511600D03*
%TD*%
D12*
%TO.C,C17*%
X94335600Y-82019100D03*
X94335600Y-83919100D03*
%TD*%
D15*
%TO.C,R12*%
X172917500Y-88650000D03*
X174742500Y-88650000D03*
%TD*%
D21*
%TO.C,RD1*%
X177819800Y-91656200D03*
X177819800Y-93481200D03*
%TD*%
D26*
%TO.C,RSense1*%
X179437500Y-105000000D03*
X184062500Y-105000000D03*
%TD*%
D27*
%TO.C,RB4*%
X111420000Y-89405000D03*
X111420000Y-87755000D03*
%TD*%
D28*
%TO.C,C8*%
X105575000Y-92950000D03*
X104025000Y-92950000D03*
%TD*%
D10*
%TO.C,RD2*%
X180119800Y-93481200D03*
X180119800Y-91656200D03*
%TD*%
D29*
%TO.C,RB2*%
X173469800Y-97381200D03*
X173469800Y-99031200D03*
%TD*%
D30*
%TO.C,RB8*%
X96087200Y-103378000D03*
X94437200Y-103378000D03*
%TD*%
D12*
%TO.C,C12*%
X139750000Y-108625000D03*
X139750000Y-110525000D03*
%TD*%
D25*
%TO.C,C18*%
X111350000Y-85500000D03*
X111350000Y-83600000D03*
%TD*%
D10*
%TO.C,R14*%
X152400000Y-108749000D03*
X152400000Y-106924000D03*
%TD*%
D27*
%TO.C,RB3*%
X150622000Y-108844000D03*
X150622000Y-107194000D03*
%TD*%
D10*
%TO.C,R4*%
X198725000Y-91062500D03*
X198725000Y-89237500D03*
%TD*%
D31*
%TO.C,Q1*%
X189290400Y-83285600D03*
X189290400Y-86335600D03*
X192640400Y-86335600D03*
X192640400Y-83285600D03*
D32*
X197265400Y-87090600D03*
X197265400Y-82530600D03*
%TD*%
D33*
%TO.C,SW2*%
X105400000Y-83600000D03*
X109600000Y-83600000D03*
%TD*%
D30*
%TO.C,RB9*%
X96087200Y-104952800D03*
X94437200Y-104952800D03*
%TD*%
D29*
%TO.C,RB1*%
X175019800Y-97381200D03*
X175019800Y-99031200D03*
%TD*%
%TO.C,RB10*%
X141800000Y-94305000D03*
X141800000Y-95955000D03*
%TD*%
D13*
%TO.C,C10*%
X157988000Y-107696000D03*
X157988000Y-109246000D03*
%TD*%
D34*
%TO.C,RB6*%
X173020000Y-86880000D03*
X174670000Y-86880000D03*
%TD*%
D14*
%TO.C,C6*%
X177244800Y-95031200D03*
X178794800Y-95031200D03*
%TD*%
D28*
%TO.C,C5*%
X174994800Y-100531200D03*
X173444800Y-100531200D03*
%TD*%
D12*
%TO.C,C13*%
X137725000Y-108625000D03*
X137725000Y-110525000D03*
%TD*%
D13*
%TO.C,C11*%
X96550000Y-82025000D03*
X96550000Y-83575000D03*
%TD*%
D27*
%TO.C,RB11*%
X180369800Y-99006200D03*
X180369800Y-97356200D03*
%TD*%
D30*
%TO.C,RB7*%
X98234000Y-90982800D03*
X96584000Y-90982800D03*
%TD*%
D24*
%TO.C,C9*%
X149174200Y-98374200D03*
X149174200Y-96824200D03*
%TD*%
D35*
%TO.C,D3*%
X199519800Y-94181200D03*
X199519800Y-98181200D03*
%TD*%
D16*
%TO.C,C14*%
X157275000Y-81275000D03*
X159175000Y-81275000D03*
%TD*%
D36*
%TO.C,U5*%
X154274600Y-109188000D03*
X155224600Y-109188000D03*
X156174600Y-109188000D03*
X156174600Y-106913000D03*
X154274600Y-106913000D03*
%TD*%
D27*
%TO.C,RB5*%
X141800000Y-97600000D03*
X141800000Y-95950000D03*
%TD*%
M02*
