%TF.GenerationSoftware,KiCad,Pcbnew,(6.0.11)*%
%TF.CreationDate,2023-02-13T14:33:55+01:00*%
%TF.ProjectId,carinsitu,63617269-6e73-4697-9475-2e6b69636164,1*%
%TF.SameCoordinates,Original*%
%TF.FileFunction,Profile,NP*%
%FSLAX46Y46*%
G04 Gerber Fmt 4.6, Leading zero omitted, Abs format (unit mm)*
G04 Created by KiCad (PCBNEW (6.0.11)) date 2023-02-13 14:33:55*
%MOMM*%
%LPD*%
G01*
G04 APERTURE LIST*
%TA.AperFunction,Profile*%
%ADD10C,0.150000*%
%TD*%
G04 APERTURE END LIST*
D10*
X82750000Y-85000000D02*
X82750000Y-81000000D01*
X201750000Y-130000000D02*
X183500000Y-130000000D01*
X115000000Y-113500000D02*
X115000000Y-129000000D01*
X182500000Y-129000000D02*
G75*
G03*
X183500000Y-130000000I1000000J0D01*
G01*
X83750000Y-80000000D02*
G75*
G03*
X82750000Y-81000000I0J-1000000D01*
G01*
X87750000Y-86000000D02*
X83750000Y-86000000D01*
X202750000Y-81000000D02*
G75*
G03*
X201750000Y-80000000I-1000000J0D01*
G01*
X87750000Y-124000000D02*
X87750000Y-86000000D01*
X114000000Y-130000000D02*
X83750000Y-130000000D01*
X202750000Y-81000000D02*
X202750000Y-129000000D01*
X182500000Y-129000000D02*
X182500000Y-113500000D01*
X83750000Y-80000000D02*
X201750000Y-80000000D01*
X201750000Y-130000000D02*
G75*
G03*
X202750000Y-129000000I0J1000000D01*
G01*
X82750000Y-129000000D02*
G75*
G03*
X83750000Y-130000000I1000000J0D01*
G01*
X82750000Y-85000000D02*
G75*
G03*
X83750000Y-86000000I1000000J0D01*
G01*
X83750000Y-124000000D02*
X87750000Y-124000000D01*
X82750000Y-125000000D02*
X82750000Y-129000000D01*
X182500000Y-113500000D02*
X115000000Y-113500000D01*
X114000000Y-130000000D02*
G75*
G03*
X115000000Y-129000000I0J1000000D01*
G01*
X83750000Y-124000000D02*
G75*
G03*
X82750000Y-125000000I0J-1000000D01*
G01*
M02*
