G04 #@! TF.FileFunction,Soldermask,Top*
%FSLAX46Y46*%
G04 Gerber Fmt 4.6, Leading zero omitted, Abs format (unit mm)*
G04 Created by KiCad (PCBNEW 4.0.2+dfsg1-stable) date mer. 17 juil. 2019 11:13:31 CEST*
%MOMM*%
G01*
G04 APERTURE LIST*
%ADD10C,0.100000*%
%ADD11C,5.400000*%
%ADD12C,1.200000*%
%ADD13C,1.924000*%
%ADD14R,1.797000X1.289000*%
%ADD15R,1.140760X0.841040*%
%ADD16C,2.200000*%
%ADD17C,1.900000*%
%ADD18R,1.400000X1.400000*%
%ADD19R,2.600000X1.500000*%
%ADD20R,1.035000X1.543000*%
%ADD21R,1.543000X1.035000*%
%ADD22R,1.900000X1.600000*%
%ADD23C,2.100000*%
%ADD24R,1.289000X1.797000*%
%ADD25R,1.400760X1.101040*%
%ADD26R,2.900000X2.400000*%
%ADD27R,1.700000X3.800000*%
%ADD28R,0.490000X0.390000*%
%ADD29R,0.390000X0.490000*%
%ADD30R,0.419400X0.990900*%
%ADD31R,0.990900X0.419400*%
%ADD32R,0.990000X0.420000*%
%ADD33R,1.640000X1.640000*%
%ADD34C,1.598880*%
%ADD35R,0.775000X1.283000*%
%ADD36R,0.552400X1.111200*%
%ADD37R,0.292400X0.851200*%
%ADD38R,2.527600X1.943400*%
%ADD39R,1.537000X1.029000*%
%ADD40R,1.101040X1.400760*%
%ADD41R,2.200000X2.200000*%
G04 APERTURE END LIST*
D10*
D11*
X104750000Y-101000000D03*
D12*
X104750000Y-99000000D03*
X106750000Y-101000000D03*
X104750000Y-103000000D03*
X102750000Y-101000000D03*
X106160000Y-99590000D03*
X106160000Y-102410000D03*
X103340000Y-102410000D03*
X103340000Y-99590000D03*
D11*
X104750000Y-109000000D03*
D12*
X104750000Y-107000000D03*
X106750000Y-109000000D03*
X104750000Y-111000000D03*
X102750000Y-109000000D03*
X106160000Y-107590000D03*
X106160000Y-110410000D03*
X103340000Y-110410000D03*
X103340000Y-107590000D03*
D11*
X175250000Y-105000000D03*
D12*
X175250000Y-103000000D03*
X177250000Y-105000000D03*
X175250000Y-107000000D03*
X173250000Y-105000000D03*
X176660000Y-103590000D03*
X176660000Y-106410000D03*
X173840000Y-106410000D03*
X173840000Y-103590000D03*
D11*
X186750000Y-101000000D03*
D12*
X186750000Y-99000000D03*
X188750000Y-101000000D03*
X186750000Y-103000000D03*
X184750000Y-101000000D03*
X188160000Y-99590000D03*
X188160000Y-102410000D03*
X185340000Y-102410000D03*
X185340000Y-99590000D03*
D11*
X186750000Y-109000000D03*
D12*
X186750000Y-107000000D03*
X188750000Y-109000000D03*
X186750000Y-111000000D03*
X184750000Y-109000000D03*
X188160000Y-107590000D03*
X188160000Y-110410000D03*
X185340000Y-110410000D03*
X185340000Y-107590000D03*
D13*
X146250000Y-89200000D03*
X143750000Y-89200000D03*
X84730000Y-127000000D03*
X87270000Y-127000000D03*
X84730000Y-83000000D03*
X87270000Y-83000000D03*
D14*
X90500000Y-109452500D03*
X90500000Y-107547500D03*
D15*
X89230000Y-105952500D03*
X89230000Y-105000000D03*
X89230000Y-104047500D03*
X91770000Y-104047500D03*
X91770000Y-105000000D03*
X91770000Y-105952500D03*
D16*
X94500000Y-126270000D03*
X94500000Y-123730000D03*
X151370000Y-81530000D03*
X154170000Y-81530000D03*
X156970000Y-81530000D03*
X159770000Y-81530000D03*
X162600000Y-81480000D03*
D17*
X165250000Y-81530000D03*
X167100000Y-81530000D03*
X168950000Y-81530000D03*
X170800000Y-81530000D03*
D18*
X110000000Y-105000000D03*
D19*
X108500000Y-106500000D03*
X108500000Y-103500000D03*
D20*
X111238000Y-105000000D03*
X112762000Y-105000000D03*
D21*
X109000000Y-109762000D03*
X109000000Y-108238000D03*
D20*
X112762000Y-103500000D03*
X111238000Y-103500000D03*
X115812000Y-102110000D03*
X114288000Y-102110000D03*
D22*
X119750000Y-99000000D03*
X117250000Y-99000000D03*
X117250000Y-101000000D03*
X119750000Y-101000000D03*
D20*
X117262000Y-97250000D03*
X115738000Y-97250000D03*
X119738000Y-97250000D03*
X121262000Y-97250000D03*
X112762000Y-106500000D03*
X111238000Y-106500000D03*
X117142000Y-111000000D03*
X115618000Y-111000000D03*
D23*
X122000000Y-84890000D03*
X120000000Y-84890000D03*
X118000000Y-84890000D03*
D17*
X124000000Y-82490000D03*
X116000000Y-82490000D03*
D21*
X99500000Y-121512000D03*
X99500000Y-119988000D03*
X101250000Y-119988000D03*
X101250000Y-121512000D03*
D24*
X94497500Y-121000000D03*
X96402500Y-121000000D03*
D16*
X137540000Y-94750000D03*
X135000000Y-94750000D03*
X132460000Y-94750000D03*
D25*
X189770000Y-125817500D03*
X189770000Y-126770000D03*
X189770000Y-127722500D03*
X187230000Y-127722500D03*
X187230000Y-126770000D03*
X187230000Y-125817500D03*
D14*
X146520000Y-97897500D03*
X146520000Y-99802500D03*
D24*
X142847500Y-99710000D03*
X144752500Y-99710000D03*
D26*
X137250000Y-107000000D03*
X137250000Y-103000000D03*
D27*
X143550000Y-107000000D03*
X139950000Y-107000000D03*
D21*
X139500000Y-103262000D03*
X139500000Y-101738000D03*
X139500000Y-100722000D03*
X139500000Y-99198000D03*
D13*
X195580000Y-104140000D03*
D28*
X100225000Y-106000000D03*
X100225000Y-105500000D03*
X100225000Y-105000000D03*
X100225000Y-104500000D03*
X100225000Y-104000000D03*
D29*
X99500000Y-103775000D03*
X99000000Y-103775000D03*
X98500000Y-103775000D03*
D28*
X97775000Y-104000000D03*
X97775000Y-104500000D03*
X97775000Y-105000000D03*
X97775000Y-105500000D03*
X97775000Y-106000000D03*
D29*
X98500000Y-106225000D03*
X99000000Y-106225000D03*
X99500000Y-106225000D03*
D30*
X119750060Y-108749360D03*
D31*
X120499360Y-108000060D03*
D30*
X119750060Y-103750640D03*
X119249680Y-103750640D03*
X118749300Y-103750640D03*
X118248920Y-103750640D03*
X117250700Y-103750640D03*
X116750320Y-103750640D03*
D32*
X115500000Y-106500000D03*
D30*
X116249940Y-103750640D03*
D32*
X115500000Y-104500000D03*
X115500000Y-105000000D03*
X115500000Y-105500000D03*
X115500000Y-106000000D03*
X115500000Y-107000000D03*
X115500000Y-107500000D03*
X115500000Y-108000000D03*
D30*
X116249940Y-108749360D03*
X116750320Y-108749360D03*
X117250700Y-108749360D03*
X117751080Y-108749360D03*
X118248920Y-108749360D03*
X118749300Y-108749360D03*
X119249680Y-108749360D03*
D33*
X118750000Y-105500000D03*
D30*
X117751080Y-103750640D03*
D31*
X120499360Y-104499940D03*
X120499360Y-105000320D03*
X120499360Y-105500700D03*
X120499360Y-106001080D03*
X120499360Y-106498920D03*
X120499360Y-106999300D03*
X120499360Y-107499680D03*
D33*
X118750000Y-107000000D03*
X117250000Y-105500000D03*
X117250000Y-107000000D03*
D21*
X123500000Y-109738000D03*
X123500000Y-111262000D03*
X109000000Y-113762000D03*
X109000000Y-112238000D03*
X125010000Y-109738000D03*
X125010000Y-111262000D03*
D34*
X145640000Y-102500000D03*
D20*
X93012000Y-118750000D03*
X91488000Y-118750000D03*
D35*
X94748000Y-119350000D03*
D20*
X96272000Y-119350000D03*
D36*
X94250000Y-117498600D03*
X94649999Y-117498600D03*
X95050001Y-117498600D03*
X95450000Y-117498600D03*
X95849999Y-117498600D03*
X96250001Y-117498600D03*
X96650000Y-117498600D03*
X96650000Y-114501400D03*
X96250001Y-114501400D03*
X95849999Y-114501400D03*
D37*
X95450000Y-114501400D03*
X95050001Y-114501400D03*
X94649999Y-114501400D03*
X94250000Y-114501400D03*
D38*
X95450000Y-116000000D03*
D13*
X106680000Y-116840000D03*
X109220000Y-116840000D03*
X104140000Y-116840000D03*
X111760000Y-116840000D03*
D16*
X116840000Y-93980000D03*
X119380000Y-93980000D03*
X121920000Y-93980000D03*
D13*
X127000000Y-93980000D03*
D25*
X130770000Y-95547500D03*
X130770000Y-96500000D03*
X130770000Y-97452500D03*
X128230000Y-97452500D03*
X128230000Y-96500000D03*
X128230000Y-95547500D03*
D20*
X130262000Y-94000000D03*
X128738000Y-94000000D03*
D24*
X140047500Y-94750000D03*
X141952500Y-94750000D03*
D39*
X93000000Y-102452500D03*
D14*
X93000000Y-100547500D03*
D16*
X201320000Y-83000000D03*
X203890000Y-83000000D03*
X206430000Y-83000000D03*
X209000000Y-83000000D03*
X201320000Y-127000000D03*
X203890000Y-127000000D03*
X206430000Y-127000000D03*
X209000000Y-127000000D03*
D13*
X104140000Y-114300000D03*
X129540000Y-109220000D03*
X127000000Y-106680000D03*
D24*
X144752500Y-97990000D03*
X142847500Y-97990000D03*
D40*
X140797500Y-101230000D03*
X142702500Y-101230000D03*
X142702500Y-103770000D03*
X141750000Y-103770000D03*
X140797500Y-103770000D03*
D41*
X149860000Y-106680000D03*
D16*
X152400000Y-106680000D03*
X154940000Y-106680000D03*
X157480000Y-106680000D03*
D14*
X90500000Y-117202500D03*
X90500000Y-115297500D03*
D20*
X93012000Y-113260000D03*
X91488000Y-113260000D03*
M02*
