G04 #@! TF.FileFunction,Copper,L2,Inr,Signal*
%FSLAX46Y46*%
G04 Gerber Fmt 4.6, Leading zero omitted, Abs format (unit mm)*
G04 Created by KiCad (PCBNEW 4.0.2+dfsg1-stable) date mer. 17 juil. 2019 11:13:31 CEST*
%MOMM*%
G01*
G04 APERTURE LIST*
%ADD10C,0.100000*%
%ADD11C,0.152400*%
%ADD12C,5.000000*%
%ADD13C,0.800000*%
%ADD14C,1.524000*%
%ADD15C,1.800000*%
%ADD16C,1.500000*%
%ADD17C,1.700000*%
%ADD18R,1.800000X1.800000*%
%ADD19C,0.711200*%
%ADD20C,1.016000*%
%ADD21C,0.406400*%
%ADD22C,0.304800*%
%ADD23C,0.200000*%
G04 APERTURE END LIST*
D10*
D11*
X110771429Y-128138095D02*
X110809524Y-128100000D01*
X110885715Y-128061905D01*
X111076191Y-128061905D01*
X111152381Y-128100000D01*
X111190477Y-128138095D01*
X111228572Y-128214286D01*
X111228572Y-128290476D01*
X111190477Y-128404762D01*
X110733334Y-128861905D01*
X111228572Y-128861905D01*
D12*
X104750000Y-101000000D03*
D13*
X104750000Y-99000000D03*
X106750000Y-101000000D03*
X104750000Y-103000000D03*
X102750000Y-101000000D03*
X106160000Y-99590000D03*
X106160000Y-102410000D03*
X103340000Y-102410000D03*
X103340000Y-99590000D03*
D12*
X104750000Y-109000000D03*
D13*
X104750000Y-107000000D03*
X106750000Y-109000000D03*
X104750000Y-111000000D03*
X102750000Y-109000000D03*
X106160000Y-107590000D03*
X106160000Y-110410000D03*
X103340000Y-110410000D03*
X103340000Y-107590000D03*
D12*
X175250000Y-105000000D03*
D13*
X175250000Y-103000000D03*
X177250000Y-105000000D03*
X175250000Y-107000000D03*
X173250000Y-105000000D03*
X176660000Y-103590000D03*
X176660000Y-106410000D03*
X173840000Y-106410000D03*
X173840000Y-103590000D03*
D12*
X186750000Y-101000000D03*
D13*
X186750000Y-99000000D03*
X188750000Y-101000000D03*
X186750000Y-103000000D03*
X184750000Y-101000000D03*
X188160000Y-99590000D03*
X188160000Y-102410000D03*
X185340000Y-102410000D03*
X185340000Y-99590000D03*
D12*
X186750000Y-109000000D03*
D13*
X186750000Y-107000000D03*
X188750000Y-109000000D03*
X186750000Y-111000000D03*
X184750000Y-109000000D03*
X188160000Y-107590000D03*
X188160000Y-110410000D03*
X185340000Y-110410000D03*
X185340000Y-107590000D03*
D14*
X146250000Y-89200000D03*
X143750000Y-89200000D03*
X84730000Y-127000000D03*
X87270000Y-127000000D03*
X84730000Y-83000000D03*
X87270000Y-83000000D03*
D15*
X94500000Y-126270000D03*
X94500000Y-123730000D03*
X151370000Y-81530000D03*
X154170000Y-81530000D03*
X156970000Y-81530000D03*
X159770000Y-81530000D03*
X162600000Y-81480000D03*
D16*
X165250000Y-81530000D03*
X167100000Y-81530000D03*
X168950000Y-81530000D03*
X170800000Y-81530000D03*
D17*
X122000000Y-84890000D03*
X120000000Y-84890000D03*
X118000000Y-84890000D03*
D15*
X137540000Y-94750000D03*
X135000000Y-94750000D03*
X132460000Y-94750000D03*
D14*
X195580000Y-104140000D03*
X106680000Y-116840000D03*
X109220000Y-116840000D03*
X104140000Y-116840000D03*
X111760000Y-116840000D03*
D15*
X116840000Y-93980000D03*
X119380000Y-93980000D03*
X121920000Y-93980000D03*
D14*
X127000000Y-93980000D03*
D15*
X201320000Y-83000000D03*
X203890000Y-83000000D03*
X206430000Y-83000000D03*
X209000000Y-83000000D03*
X201320000Y-127000000D03*
X203890000Y-127000000D03*
X206430000Y-127000000D03*
X209000000Y-127000000D03*
D14*
X104140000Y-114300000D03*
X129540000Y-109220000D03*
X127000000Y-106680000D03*
D18*
X149860000Y-106680000D03*
D15*
X152400000Y-106680000D03*
X154940000Y-106680000D03*
X157480000Y-106680000D03*
D19*
X137250000Y-101250000D03*
X139500000Y-98250000D03*
X141750000Y-104850000D03*
X143100000Y-94750000D03*
X146520000Y-101070000D03*
X144750000Y-101070000D03*
X93000000Y-99390000D03*
X128740000Y-92770000D03*
X127100000Y-96500000D03*
X94650000Y-112500000D03*
X90510000Y-118750000D03*
X95450000Y-116000000D03*
X97670000Y-117620000D03*
X97670000Y-119640000D03*
X97670000Y-118500000D03*
X97670000Y-121000000D03*
X97670000Y-122360000D03*
X96400000Y-122360000D03*
X114500000Y-111000000D03*
X117250000Y-107000000D03*
X118750000Y-105500000D03*
X118750000Y-107000000D03*
X117250000Y-105500000D03*
X119750000Y-101000000D03*
X125010000Y-108760000D03*
X107800000Y-108240000D03*
X113310000Y-102110000D03*
X122150000Y-97330000D03*
X117250000Y-99000000D03*
X114850000Y-97250000D03*
X101250000Y-104500000D03*
X99000000Y-107050000D03*
X98500000Y-102940000D03*
X97000000Y-104500000D03*
X97000000Y-105750000D03*
X186070000Y-126770000D03*
X110270000Y-103500000D03*
X110270000Y-106500000D03*
X93000000Y-105000000D03*
X90500000Y-110650000D03*
X96750000Y-101750000D03*
X140050000Y-93250000D03*
X192330000Y-125820000D03*
X133750000Y-110250000D03*
X120900000Y-110410000D03*
X110230000Y-112240000D03*
X135250000Y-107000000D03*
X113920000Y-103500000D03*
X117500000Y-102650000D03*
X121730000Y-108000000D03*
X107760000Y-113760000D03*
X123500000Y-108760000D03*
X117250000Y-109840000D03*
X112760000Y-107730000D03*
X100230000Y-106920000D03*
X101090000Y-103570000D03*
X186070000Y-125820000D03*
X190940000Y-126770000D03*
X146520000Y-95750000D03*
X102480000Y-119990000D03*
X113660000Y-110060000D03*
X113660000Y-111980000D03*
X185170000Y-112360000D03*
X182410000Y-112360000D03*
X115200000Y-109250000D03*
X127100000Y-97450000D03*
X121020000Y-102090000D03*
X133000000Y-109540000D03*
X121740000Y-102810000D03*
X96750000Y-113390000D03*
X90500000Y-113680000D03*
D20*
X96750000Y-98050000D02*
X96750000Y-101750000D01*
X137050000Y-90250000D02*
X104550000Y-90250000D01*
X137050000Y-90250000D02*
X140050000Y-93250000D01*
X104550000Y-90250000D02*
X96750000Y-98050000D01*
X161000000Y-93250000D02*
X140050000Y-93250000D01*
X161000000Y-93250000D02*
X168950000Y-85300000D01*
X168950000Y-85280000D02*
X168950000Y-85300000D01*
D21*
X199890000Y-87570000D02*
X171240000Y-87570000D01*
X171240000Y-87570000D02*
X168950000Y-85280000D01*
D20*
X168950000Y-85280000D02*
X168950000Y-81530000D01*
D21*
X195580000Y-122570000D02*
X199890000Y-122570000D01*
X192330000Y-125820000D02*
X195580000Y-122570000D01*
D20*
X204190000Y-85240000D02*
X202220000Y-85240000D01*
X202220000Y-85240000D02*
X199890000Y-87570000D01*
X199890000Y-87570000D02*
X199890000Y-122570000D01*
X206430000Y-83000000D02*
X204190000Y-85240000D01*
X204260000Y-124830000D02*
X206430000Y-127000000D01*
X199890000Y-122570000D02*
X202150000Y-124830000D01*
X202150000Y-124830000D02*
X204260000Y-124830000D01*
X123500000Y-105000000D02*
X123500000Y-108760000D01*
X135250000Y-107000000D02*
X133710000Y-107000000D01*
X131710000Y-105000000D02*
X123500000Y-105000000D01*
X133710000Y-107000000D02*
X131710000Y-105000000D01*
D21*
X121920000Y-93980000D02*
X121920000Y-95670000D01*
X123500000Y-97250000D02*
X123500000Y-105000000D01*
X121920000Y-95670000D02*
X123500000Y-97250000D01*
X100230000Y-106920000D02*
X101760000Y-106920000D01*
X112420000Y-105000000D02*
X113920000Y-103500000D01*
X103680000Y-105000000D02*
X112420000Y-105000000D01*
X101760000Y-106920000D02*
X103680000Y-105000000D01*
X115910000Y-107780000D02*
X115130000Y-107780000D01*
X117250000Y-109120000D02*
X115910000Y-107780000D01*
X115130000Y-107780000D02*
X113920000Y-106570000D01*
X113920000Y-103500000D02*
X113920000Y-106570000D01*
X113920000Y-106570000D02*
X112760000Y-107730000D01*
X116750000Y-102650000D02*
X117500000Y-102650000D01*
X113920000Y-103500000D02*
X115900000Y-103500000D01*
X116750000Y-102650000D02*
X115900000Y-103500000D01*
D22*
X117610000Y-108760000D02*
X120970000Y-108760000D01*
X117250000Y-109120000D02*
X117610000Y-108760000D01*
X120970000Y-108760000D02*
X121730000Y-108000000D01*
X123500000Y-108760000D02*
X122490000Y-108760000D01*
X122490000Y-108760000D02*
X121730000Y-108000000D01*
X186070000Y-125820000D02*
X186070000Y-116020000D01*
X186070000Y-116020000D02*
X183120000Y-113070000D01*
X127810000Y-113070000D02*
X123500000Y-108760000D01*
X183120000Y-113070000D02*
X127810000Y-113070000D01*
X107760000Y-113760000D02*
X107760000Y-112730000D01*
X107760000Y-112730000D02*
X112760000Y-107730000D01*
D21*
X117250000Y-109840000D02*
X117250000Y-109120000D01*
X100230000Y-106920000D02*
X100230000Y-104430000D01*
X100230000Y-104430000D02*
X101090000Y-103570000D01*
D22*
X187740000Y-125820000D02*
X188690000Y-126770000D01*
X188690000Y-126770000D02*
X190940000Y-126770000D01*
X186070000Y-125820000D02*
X187740000Y-125820000D01*
D23*
G36*
X114479118Y-96693885D02*
X114294533Y-96878148D01*
X114194514Y-97119021D01*
X114194286Y-97379835D01*
X114293885Y-97620882D01*
X114478148Y-97805467D01*
X114719021Y-97905486D01*
X114979835Y-97905714D01*
X115220882Y-97806115D01*
X115405467Y-97621852D01*
X115472742Y-97459835D01*
X121494286Y-97459835D01*
X121593885Y-97700882D01*
X121778148Y-97885467D01*
X122019021Y-97985486D01*
X122279835Y-97985714D01*
X122520882Y-97886115D01*
X122705467Y-97701852D01*
X122805486Y-97460979D01*
X122805714Y-97200165D01*
X122706115Y-96959118D01*
X122521852Y-96774533D01*
X122280979Y-96674514D01*
X122020165Y-96674286D01*
X121779118Y-96773885D01*
X121594533Y-96958148D01*
X121494514Y-97199021D01*
X121494286Y-97459835D01*
X115472742Y-97459835D01*
X115505486Y-97380979D01*
X115505714Y-97120165D01*
X115406115Y-96879118D01*
X115221852Y-96694533D01*
X114994191Y-96600000D01*
X126444312Y-96600000D01*
X126444286Y-96629835D01*
X126543885Y-96870882D01*
X126647841Y-96975020D01*
X126544533Y-97078148D01*
X126444514Y-97319021D01*
X126444286Y-97579835D01*
X126543885Y-97820882D01*
X126728148Y-98005467D01*
X126969021Y-98105486D01*
X127229835Y-98105714D01*
X127470882Y-98006115D01*
X127655467Y-97821852D01*
X127755486Y-97580979D01*
X127755714Y-97320165D01*
X127656115Y-97079118D01*
X127552159Y-96974980D01*
X127655467Y-96871852D01*
X127755486Y-96630979D01*
X127755513Y-96600000D01*
X186650000Y-96600000D01*
X186650000Y-98199912D01*
X186195489Y-98199515D01*
X185166000Y-98624892D01*
X184377660Y-99411857D01*
X183950487Y-100440602D01*
X183949515Y-101554511D01*
X184374892Y-102584000D01*
X185161857Y-103372340D01*
X186190602Y-103799513D01*
X186650000Y-103799914D01*
X186650000Y-106199912D01*
X186195489Y-106199515D01*
X185166000Y-106624892D01*
X184377660Y-107411857D01*
X183950487Y-108440602D01*
X183949515Y-109554511D01*
X184374892Y-110584000D01*
X185161857Y-111372340D01*
X186190602Y-111799513D01*
X186650000Y-111799914D01*
X186650000Y-113400000D01*
X182855109Y-113400000D01*
X182846455Y-113356494D01*
X182765165Y-113234835D01*
X182643506Y-113153545D01*
X182500000Y-113125000D01*
X115000000Y-113125000D01*
X114856494Y-113153545D01*
X114734835Y-113234835D01*
X114653545Y-113356494D01*
X114644891Y-113400000D01*
X104741866Y-113400000D01*
X104352172Y-113238185D01*
X103929682Y-113237816D01*
X103539211Y-113399155D01*
X103538365Y-113400000D01*
X97405592Y-113400000D01*
X97405714Y-113260165D01*
X97306115Y-113019118D01*
X97121852Y-112834533D01*
X96880979Y-112734514D01*
X96620165Y-112734286D01*
X96379118Y-112833885D01*
X96194533Y-113018148D01*
X96100000Y-113245809D01*
X96100000Y-112369835D01*
X109574286Y-112369835D01*
X109673885Y-112610882D01*
X109858148Y-112795467D01*
X110099021Y-112895486D01*
X110359835Y-112895714D01*
X110600882Y-112796115D01*
X110785467Y-112611852D01*
X110885486Y-112370979D01*
X110885714Y-112110165D01*
X110786115Y-111869118D01*
X110601852Y-111684533D01*
X110360979Y-111584514D01*
X110100165Y-111584286D01*
X109859118Y-111683885D01*
X109674533Y-111868148D01*
X109574514Y-112109021D01*
X109574286Y-112369835D01*
X96100000Y-112369835D01*
X96100000Y-109554511D01*
X101949515Y-109554511D01*
X102374892Y-110584000D01*
X103161857Y-111372340D01*
X104190602Y-111799513D01*
X105304511Y-111800485D01*
X106334000Y-111375108D01*
X107122340Y-110588143D01*
X107287732Y-110189835D01*
X113004286Y-110189835D01*
X113103885Y-110430882D01*
X113288148Y-110615467D01*
X113529021Y-110715486D01*
X113789835Y-110715714D01*
X113932681Y-110656691D01*
X113844514Y-110869021D01*
X113844286Y-111129835D01*
X113943885Y-111370882D01*
X113973081Y-111400129D01*
X113790979Y-111324514D01*
X113530165Y-111324286D01*
X113289118Y-111423885D01*
X113104533Y-111608148D01*
X113004514Y-111849021D01*
X113004286Y-112109835D01*
X113103885Y-112350882D01*
X113288148Y-112535467D01*
X113529021Y-112635486D01*
X113789835Y-112635714D01*
X114030882Y-112536115D01*
X114077242Y-112489835D01*
X181754286Y-112489835D01*
X181853885Y-112730882D01*
X182038148Y-112915467D01*
X182279021Y-113015486D01*
X182539835Y-113015714D01*
X182780882Y-112916115D01*
X182965467Y-112731852D01*
X183065486Y-112490979D01*
X183065487Y-112489835D01*
X184514286Y-112489835D01*
X184613885Y-112730882D01*
X184798148Y-112915467D01*
X185039021Y-113015486D01*
X185299835Y-113015714D01*
X185540882Y-112916115D01*
X185725467Y-112731852D01*
X185825486Y-112490979D01*
X185825714Y-112230165D01*
X185726115Y-111989118D01*
X185541852Y-111804533D01*
X185300979Y-111704514D01*
X185040165Y-111704286D01*
X184799118Y-111803885D01*
X184614533Y-111988148D01*
X184514514Y-112229021D01*
X184514286Y-112489835D01*
X183065487Y-112489835D01*
X183065714Y-112230165D01*
X182966115Y-111989118D01*
X182781852Y-111804533D01*
X182540979Y-111704514D01*
X182280165Y-111704286D01*
X182039118Y-111803885D01*
X181854533Y-111988148D01*
X181754514Y-112229021D01*
X181754286Y-112489835D01*
X114077242Y-112489835D01*
X114215467Y-112351852D01*
X114315486Y-112110979D01*
X114315714Y-111850165D01*
X114216115Y-111609118D01*
X114186919Y-111579871D01*
X114369021Y-111655486D01*
X114629835Y-111655714D01*
X114870882Y-111556115D01*
X115055467Y-111371852D01*
X115155486Y-111130979D01*
X115155714Y-110870165D01*
X115056115Y-110629118D01*
X114966988Y-110539835D01*
X120244286Y-110539835D01*
X120343885Y-110780882D01*
X120528148Y-110965467D01*
X120769021Y-111065486D01*
X121029835Y-111065714D01*
X121270882Y-110966115D01*
X121455467Y-110781852D01*
X121555486Y-110540979D01*
X121555714Y-110280165D01*
X121456115Y-110039118D01*
X121271852Y-109854533D01*
X121030979Y-109754514D01*
X120770165Y-109754286D01*
X120529118Y-109853885D01*
X120344533Y-110038148D01*
X120244514Y-110279021D01*
X120244286Y-110539835D01*
X114966988Y-110539835D01*
X114871852Y-110444533D01*
X114630979Y-110344514D01*
X114370165Y-110344286D01*
X114227319Y-110403309D01*
X114315486Y-110190979D01*
X114315714Y-109930165D01*
X114216115Y-109689118D01*
X114031852Y-109504533D01*
X113790979Y-109404514D01*
X113530165Y-109404286D01*
X113289118Y-109503885D01*
X113104533Y-109688148D01*
X113004514Y-109929021D01*
X113004286Y-110189835D01*
X107287732Y-110189835D01*
X107549513Y-109559398D01*
X107549669Y-109379835D01*
X114544286Y-109379835D01*
X114643885Y-109620882D01*
X114828148Y-109805467D01*
X115069021Y-109905486D01*
X115329835Y-109905714D01*
X115570882Y-109806115D01*
X115755467Y-109621852D01*
X115834998Y-109430318D01*
X128477816Y-109430318D01*
X128639155Y-109820789D01*
X128937640Y-110119795D01*
X129327828Y-110281815D01*
X129750318Y-110282184D01*
X130140789Y-110120845D01*
X130439795Y-109822360D01*
X130503128Y-109669835D01*
X132344286Y-109669835D01*
X132443885Y-109910882D01*
X132628148Y-110095467D01*
X132869021Y-110195486D01*
X133094447Y-110195683D01*
X133094286Y-110379835D01*
X133193885Y-110620882D01*
X133378148Y-110805467D01*
X133619021Y-110905486D01*
X133879835Y-110905714D01*
X134120882Y-110806115D01*
X134305467Y-110621852D01*
X134405486Y-110380979D01*
X134405714Y-110120165D01*
X134306115Y-109879118D01*
X134121852Y-109694533D01*
X133880979Y-109594514D01*
X133655553Y-109594317D01*
X133655714Y-109410165D01*
X133556115Y-109169118D01*
X133371852Y-108984533D01*
X133130979Y-108884514D01*
X132870165Y-108884286D01*
X132629118Y-108983885D01*
X132444533Y-109168148D01*
X132344514Y-109409021D01*
X132344286Y-109669835D01*
X130503128Y-109669835D01*
X130601815Y-109432172D01*
X130602184Y-109009682D01*
X130440845Y-108619211D01*
X130142360Y-108320205D01*
X129752172Y-108158185D01*
X129329682Y-108157816D01*
X128939211Y-108319155D01*
X128640205Y-108617640D01*
X128478185Y-109007828D01*
X128477816Y-109430318D01*
X115834998Y-109430318D01*
X115855486Y-109380979D01*
X115855714Y-109120165D01*
X115760544Y-108889835D01*
X124354286Y-108889835D01*
X124453885Y-109130882D01*
X124638148Y-109315467D01*
X124879021Y-109415486D01*
X125139835Y-109415714D01*
X125380882Y-109316115D01*
X125565467Y-109131852D01*
X125665486Y-108890979D01*
X125665714Y-108630165D01*
X125566115Y-108389118D01*
X125381852Y-108204533D01*
X125140979Y-108104514D01*
X124880165Y-108104286D01*
X124639118Y-108203885D01*
X124454533Y-108388148D01*
X124354514Y-108629021D01*
X124354286Y-108889835D01*
X115760544Y-108889835D01*
X115756115Y-108879118D01*
X115571852Y-108694533D01*
X115330979Y-108594514D01*
X115070165Y-108594286D01*
X114829118Y-108693885D01*
X114644533Y-108878148D01*
X114544514Y-109119021D01*
X114544286Y-109379835D01*
X107549669Y-109379835D01*
X107550135Y-108846120D01*
X107669021Y-108895486D01*
X107929835Y-108895714D01*
X108170882Y-108796115D01*
X108355467Y-108611852D01*
X108455486Y-108370979D01*
X108455714Y-108110165D01*
X108356115Y-107869118D01*
X108171852Y-107684533D01*
X107930979Y-107584514D01*
X107670165Y-107584286D01*
X107429118Y-107683885D01*
X107292250Y-107820514D01*
X107125108Y-107416000D01*
X106340315Y-106629835D01*
X109614286Y-106629835D01*
X109713885Y-106870882D01*
X109898148Y-107055467D01*
X110139021Y-107155486D01*
X110399835Y-107155714D01*
X110462466Y-107129835D01*
X116594286Y-107129835D01*
X116693885Y-107370882D01*
X116878148Y-107555467D01*
X117119021Y-107655486D01*
X117379835Y-107655714D01*
X117620882Y-107556115D01*
X117805467Y-107371852D01*
X117905486Y-107130979D01*
X117905487Y-107129835D01*
X118094286Y-107129835D01*
X118193885Y-107370882D01*
X118378148Y-107555467D01*
X118619021Y-107655486D01*
X118879835Y-107655714D01*
X119120882Y-107556115D01*
X119305467Y-107371852D01*
X119405486Y-107130979D01*
X119405696Y-106890318D01*
X125937816Y-106890318D01*
X126099155Y-107280789D01*
X126397640Y-107579795D01*
X126787828Y-107741815D01*
X127210318Y-107742184D01*
X127600789Y-107580845D01*
X127899795Y-107282360D01*
X128061815Y-106892172D01*
X128062184Y-106469682D01*
X127900845Y-106079211D01*
X127602360Y-105780205D01*
X127601867Y-105780000D01*
X148654123Y-105780000D01*
X148654123Y-107580000D01*
X148675042Y-107691173D01*
X148740745Y-107793279D01*
X148840997Y-107861778D01*
X148960000Y-107885877D01*
X150760000Y-107885877D01*
X150871173Y-107864958D01*
X150973279Y-107799255D01*
X151041778Y-107699003D01*
X151065877Y-107580000D01*
X151065877Y-106917647D01*
X151199793Y-106917647D01*
X151382097Y-107358857D01*
X151719367Y-107696717D01*
X152160258Y-107879791D01*
X152637647Y-107880207D01*
X153078857Y-107697903D01*
X153416717Y-107360633D01*
X153599791Y-106919742D01*
X153599792Y-106917647D01*
X153739793Y-106917647D01*
X153922097Y-107358857D01*
X154259367Y-107696717D01*
X154700258Y-107879791D01*
X155177647Y-107880207D01*
X155618857Y-107697903D01*
X155956717Y-107360633D01*
X156139791Y-106919742D01*
X156139792Y-106917647D01*
X156279793Y-106917647D01*
X156462097Y-107358857D01*
X156799367Y-107696717D01*
X157240258Y-107879791D01*
X157717647Y-107880207D01*
X158158857Y-107697903D01*
X158496717Y-107360633D01*
X158679791Y-106919742D01*
X158680207Y-106442353D01*
X158497903Y-106001143D01*
X158160633Y-105663283D01*
X157898682Y-105554511D01*
X172449515Y-105554511D01*
X172874892Y-106584000D01*
X173661857Y-107372340D01*
X174690602Y-107799513D01*
X175804511Y-107800485D01*
X176834000Y-107375108D01*
X177622340Y-106588143D01*
X178049513Y-105559398D01*
X178050485Y-104445489D01*
X177625108Y-103416000D01*
X176838143Y-102627660D01*
X175809398Y-102200487D01*
X174695489Y-102199515D01*
X173666000Y-102624892D01*
X172877660Y-103411857D01*
X172450487Y-104440602D01*
X172449515Y-105554511D01*
X157898682Y-105554511D01*
X157719742Y-105480209D01*
X157242353Y-105479793D01*
X156801143Y-105662097D01*
X156463283Y-105999367D01*
X156280209Y-106440258D01*
X156279793Y-106917647D01*
X156139792Y-106917647D01*
X156140207Y-106442353D01*
X155957903Y-106001143D01*
X155620633Y-105663283D01*
X155179742Y-105480209D01*
X154702353Y-105479793D01*
X154261143Y-105662097D01*
X153923283Y-105999367D01*
X153740209Y-106440258D01*
X153739793Y-106917647D01*
X153599792Y-106917647D01*
X153600207Y-106442353D01*
X153417903Y-106001143D01*
X153080633Y-105663283D01*
X152639742Y-105480209D01*
X152162353Y-105479793D01*
X151721143Y-105662097D01*
X151383283Y-105999367D01*
X151200209Y-106440258D01*
X151199793Y-106917647D01*
X151065877Y-106917647D01*
X151065877Y-105780000D01*
X151044958Y-105668827D01*
X150979255Y-105566721D01*
X150879003Y-105498222D01*
X150760000Y-105474123D01*
X148960000Y-105474123D01*
X148848827Y-105495042D01*
X148746721Y-105560745D01*
X148678222Y-105660997D01*
X148654123Y-105780000D01*
X127601867Y-105780000D01*
X127212172Y-105618185D01*
X126789682Y-105617816D01*
X126399211Y-105779155D01*
X126100205Y-106077640D01*
X125938185Y-106467828D01*
X125937816Y-106890318D01*
X119405696Y-106890318D01*
X119405714Y-106870165D01*
X119306115Y-106629118D01*
X119121852Y-106444533D01*
X118880979Y-106344514D01*
X118620165Y-106344286D01*
X118379118Y-106443885D01*
X118194533Y-106628148D01*
X118094514Y-106869021D01*
X118094286Y-107129835D01*
X117905487Y-107129835D01*
X117905714Y-106870165D01*
X117806115Y-106629118D01*
X117621852Y-106444533D01*
X117380979Y-106344514D01*
X117120165Y-106344286D01*
X116879118Y-106443885D01*
X116694533Y-106628148D01*
X116594514Y-106869021D01*
X116594286Y-107129835D01*
X110462466Y-107129835D01*
X110640882Y-107056115D01*
X110825467Y-106871852D01*
X110925486Y-106630979D01*
X110925714Y-106370165D01*
X110826115Y-106129118D01*
X110641852Y-105944533D01*
X110400979Y-105844514D01*
X110140165Y-105844286D01*
X109899118Y-105943885D01*
X109714533Y-106128148D01*
X109614514Y-106369021D01*
X109614286Y-106629835D01*
X106340315Y-106629835D01*
X106338143Y-106627660D01*
X105309398Y-106200487D01*
X104195489Y-106199515D01*
X103166000Y-106624892D01*
X102377660Y-107411857D01*
X101950487Y-108440602D01*
X101949515Y-109554511D01*
X96100000Y-109554511D01*
X96100000Y-107179835D01*
X98344286Y-107179835D01*
X98443885Y-107420882D01*
X98628148Y-107605467D01*
X98869021Y-107705486D01*
X99129835Y-107705714D01*
X99370882Y-107606115D01*
X99555467Y-107421852D01*
X99655486Y-107180979D01*
X99655714Y-106920165D01*
X99556115Y-106679118D01*
X99371852Y-106494533D01*
X99130979Y-106394514D01*
X98870165Y-106394286D01*
X98629118Y-106493885D01*
X98444533Y-106678148D01*
X98344514Y-106919021D01*
X98344286Y-107179835D01*
X96100000Y-107179835D01*
X96100000Y-104629835D01*
X96344286Y-104629835D01*
X96443885Y-104870882D01*
X96628148Y-105055467D01*
X96795717Y-105125047D01*
X96629118Y-105193885D01*
X96444533Y-105378148D01*
X96344514Y-105619021D01*
X96344286Y-105879835D01*
X96443885Y-106120882D01*
X96628148Y-106305467D01*
X96869021Y-106405486D01*
X97129835Y-106405714D01*
X97370882Y-106306115D01*
X97555467Y-106121852D01*
X97655486Y-105880979D01*
X97655705Y-105629835D01*
X116594286Y-105629835D01*
X116693885Y-105870882D01*
X116878148Y-106055467D01*
X117119021Y-106155486D01*
X117379835Y-106155714D01*
X117620882Y-106056115D01*
X117805467Y-105871852D01*
X117905486Y-105630979D01*
X117905487Y-105629835D01*
X118094286Y-105629835D01*
X118193885Y-105870882D01*
X118378148Y-106055467D01*
X118619021Y-106155486D01*
X118879835Y-106155714D01*
X119120882Y-106056115D01*
X119305467Y-105871852D01*
X119405486Y-105630979D01*
X119405714Y-105370165D01*
X119306115Y-105129118D01*
X119157093Y-104979835D01*
X141094286Y-104979835D01*
X141193885Y-105220882D01*
X141378148Y-105405467D01*
X141619021Y-105505486D01*
X141879835Y-105505714D01*
X142120882Y-105406115D01*
X142305467Y-105221852D01*
X142405486Y-104980979D01*
X142405714Y-104720165D01*
X142306115Y-104479118D01*
X142121852Y-104294533D01*
X141880979Y-104194514D01*
X141620165Y-104194286D01*
X141379118Y-104293885D01*
X141194533Y-104478148D01*
X141094514Y-104719021D01*
X141094286Y-104979835D01*
X119157093Y-104979835D01*
X119121852Y-104944533D01*
X118880979Y-104844514D01*
X118620165Y-104844286D01*
X118379118Y-104943885D01*
X118194533Y-105128148D01*
X118094514Y-105369021D01*
X118094286Y-105629835D01*
X117905487Y-105629835D01*
X117905714Y-105370165D01*
X117806115Y-105129118D01*
X117621852Y-104944533D01*
X117380979Y-104844514D01*
X117120165Y-104844286D01*
X116879118Y-104943885D01*
X116694533Y-105128148D01*
X116594514Y-105369021D01*
X116594286Y-105629835D01*
X97655705Y-105629835D01*
X97655714Y-105620165D01*
X97556115Y-105379118D01*
X97371852Y-105194533D01*
X97204283Y-105124953D01*
X97370882Y-105056115D01*
X97555467Y-104871852D01*
X97655486Y-104630979D01*
X97655487Y-104629835D01*
X100594286Y-104629835D01*
X100693885Y-104870882D01*
X100878148Y-105055467D01*
X101119021Y-105155486D01*
X101379835Y-105155714D01*
X101620882Y-105056115D01*
X101805467Y-104871852D01*
X101905486Y-104630979D01*
X101905714Y-104370165D01*
X101806115Y-104129118D01*
X101621852Y-103944533D01*
X101380979Y-103844514D01*
X101120165Y-103844286D01*
X100879118Y-103943885D01*
X100694533Y-104128148D01*
X100594514Y-104369021D01*
X100594286Y-104629835D01*
X97655487Y-104629835D01*
X97655714Y-104370165D01*
X97556115Y-104129118D01*
X97371852Y-103944533D01*
X97130979Y-103844514D01*
X96870165Y-103844286D01*
X96629118Y-103943885D01*
X96444533Y-104128148D01*
X96344514Y-104369021D01*
X96344286Y-104629835D01*
X96100000Y-104629835D01*
X96100000Y-103069835D01*
X97844286Y-103069835D01*
X97943885Y-103310882D01*
X98128148Y-103495467D01*
X98369021Y-103595486D01*
X98629835Y-103595714D01*
X98870882Y-103496115D01*
X99055467Y-103311852D01*
X99155486Y-103070979D01*
X99155714Y-102810165D01*
X99056115Y-102569118D01*
X98871852Y-102384533D01*
X98630979Y-102284514D01*
X98370165Y-102284286D01*
X98129118Y-102383885D01*
X97944533Y-102568148D01*
X97844514Y-102809021D01*
X97844286Y-103069835D01*
X96100000Y-103069835D01*
X96100000Y-102203622D01*
X96178658Y-102321342D01*
X96440792Y-102496495D01*
X96750000Y-102558000D01*
X97059208Y-102496495D01*
X97321342Y-102321342D01*
X97496495Y-102059208D01*
X97558000Y-101750000D01*
X97558000Y-101554511D01*
X101949515Y-101554511D01*
X102374892Y-102584000D01*
X103161857Y-103372340D01*
X104190602Y-103799513D01*
X105304511Y-103800485D01*
X105717514Y-103629835D01*
X109614286Y-103629835D01*
X109713885Y-103870882D01*
X109898148Y-104055467D01*
X110139021Y-104155486D01*
X110399835Y-104155714D01*
X110640882Y-104056115D01*
X110825467Y-103871852D01*
X110925486Y-103630979D01*
X110925714Y-103370165D01*
X110826115Y-103129118D01*
X110641852Y-102944533D01*
X110400979Y-102844514D01*
X110140165Y-102844286D01*
X109899118Y-102943885D01*
X109714533Y-103128148D01*
X109614514Y-103369021D01*
X109614286Y-103629835D01*
X105717514Y-103629835D01*
X106334000Y-103375108D01*
X107122340Y-102588143D01*
X107266970Y-102239835D01*
X112654286Y-102239835D01*
X112753885Y-102480882D01*
X112938148Y-102665467D01*
X113179021Y-102765486D01*
X113439835Y-102765714D01*
X113680882Y-102666115D01*
X113865467Y-102481852D01*
X113965486Y-102240979D01*
X113965504Y-102219835D01*
X120364286Y-102219835D01*
X120463885Y-102460882D01*
X120648148Y-102645467D01*
X120889021Y-102745486D01*
X121084456Y-102745657D01*
X121084286Y-102939835D01*
X121183885Y-103180882D01*
X121368148Y-103365467D01*
X121609021Y-103465486D01*
X121869835Y-103465714D01*
X122110882Y-103366115D01*
X122295467Y-103181852D01*
X122395486Y-102940979D01*
X122395714Y-102680165D01*
X122296115Y-102439118D01*
X122111852Y-102254533D01*
X121870979Y-102154514D01*
X121675544Y-102154343D01*
X121675714Y-101960165D01*
X121576115Y-101719118D01*
X121391852Y-101534533D01*
X121150979Y-101434514D01*
X120890165Y-101434286D01*
X120649118Y-101533885D01*
X120464533Y-101718148D01*
X120364514Y-101959021D01*
X120364286Y-102219835D01*
X113965504Y-102219835D01*
X113965714Y-101980165D01*
X113866115Y-101739118D01*
X113681852Y-101554533D01*
X113440979Y-101454514D01*
X113180165Y-101454286D01*
X112939118Y-101553885D01*
X112754533Y-101738148D01*
X112654514Y-101979021D01*
X112654286Y-102239835D01*
X107266970Y-102239835D01*
X107549513Y-101559398D01*
X107549887Y-101129835D01*
X119094286Y-101129835D01*
X119193885Y-101370882D01*
X119378148Y-101555467D01*
X119619021Y-101655486D01*
X119879835Y-101655714D01*
X120120882Y-101556115D01*
X120297470Y-101379835D01*
X136594286Y-101379835D01*
X136693885Y-101620882D01*
X136878148Y-101805467D01*
X137119021Y-101905486D01*
X137379835Y-101905714D01*
X137620882Y-101806115D01*
X137805467Y-101621852D01*
X137905486Y-101380979D01*
X137905644Y-101199835D01*
X144094286Y-101199835D01*
X144193885Y-101440882D01*
X144378148Y-101625467D01*
X144619021Y-101725486D01*
X144879835Y-101725714D01*
X145120882Y-101626115D01*
X145305467Y-101441852D01*
X145405486Y-101200979D01*
X145405487Y-101199835D01*
X145864286Y-101199835D01*
X145963885Y-101440882D01*
X146148148Y-101625467D01*
X146389021Y-101725486D01*
X146649835Y-101725714D01*
X146890882Y-101626115D01*
X147075467Y-101441852D01*
X147175486Y-101200979D01*
X147175714Y-100940165D01*
X147076115Y-100699118D01*
X146891852Y-100514533D01*
X146650979Y-100414514D01*
X146390165Y-100414286D01*
X146149118Y-100513885D01*
X145964533Y-100698148D01*
X145864514Y-100939021D01*
X145864286Y-101199835D01*
X145405487Y-101199835D01*
X145405714Y-100940165D01*
X145306115Y-100699118D01*
X145121852Y-100514533D01*
X144880979Y-100414514D01*
X144620165Y-100414286D01*
X144379118Y-100513885D01*
X144194533Y-100698148D01*
X144094514Y-100939021D01*
X144094286Y-101199835D01*
X137905644Y-101199835D01*
X137905714Y-101120165D01*
X137806115Y-100879118D01*
X137621852Y-100694533D01*
X137380979Y-100594514D01*
X137120165Y-100594286D01*
X136879118Y-100693885D01*
X136694533Y-100878148D01*
X136594514Y-101119021D01*
X136594286Y-101379835D01*
X120297470Y-101379835D01*
X120305467Y-101371852D01*
X120405486Y-101130979D01*
X120405714Y-100870165D01*
X120306115Y-100629118D01*
X120121852Y-100444533D01*
X119880979Y-100344514D01*
X119620165Y-100344286D01*
X119379118Y-100443885D01*
X119194533Y-100628148D01*
X119094514Y-100869021D01*
X119094286Y-101129835D01*
X107549887Y-101129835D01*
X107550485Y-100445489D01*
X107125108Y-99416000D01*
X106839443Y-99129835D01*
X116594286Y-99129835D01*
X116693885Y-99370882D01*
X116878148Y-99555467D01*
X117119021Y-99655486D01*
X117379835Y-99655714D01*
X117620882Y-99556115D01*
X117805467Y-99371852D01*
X117905486Y-99130979D01*
X117905714Y-98870165D01*
X117806115Y-98629118D01*
X117621852Y-98444533D01*
X117466042Y-98379835D01*
X138844286Y-98379835D01*
X138943885Y-98620882D01*
X139128148Y-98805467D01*
X139369021Y-98905486D01*
X139629835Y-98905714D01*
X139870882Y-98806115D01*
X140055467Y-98621852D01*
X140155486Y-98380979D01*
X140155714Y-98120165D01*
X140056115Y-97879118D01*
X139871852Y-97694533D01*
X139630979Y-97594514D01*
X139370165Y-97594286D01*
X139129118Y-97693885D01*
X138944533Y-97878148D01*
X138844514Y-98119021D01*
X138844286Y-98379835D01*
X117466042Y-98379835D01*
X117380979Y-98344514D01*
X117120165Y-98344286D01*
X116879118Y-98443885D01*
X116694533Y-98628148D01*
X116594514Y-98869021D01*
X116594286Y-99129835D01*
X106839443Y-99129835D01*
X106338143Y-98627660D01*
X105309398Y-98200487D01*
X104195489Y-98199515D01*
X103166000Y-98624892D01*
X102377660Y-99411857D01*
X101950487Y-100440602D01*
X101949515Y-101554511D01*
X97558000Y-101554511D01*
X97558000Y-98384684D01*
X99342684Y-96600000D01*
X114706336Y-96600000D01*
X114479118Y-96693885D01*
X114479118Y-96693885D01*
G37*
X114479118Y-96693885D02*
X114294533Y-96878148D01*
X114194514Y-97119021D01*
X114194286Y-97379835D01*
X114293885Y-97620882D01*
X114478148Y-97805467D01*
X114719021Y-97905486D01*
X114979835Y-97905714D01*
X115220882Y-97806115D01*
X115405467Y-97621852D01*
X115472742Y-97459835D01*
X121494286Y-97459835D01*
X121593885Y-97700882D01*
X121778148Y-97885467D01*
X122019021Y-97985486D01*
X122279835Y-97985714D01*
X122520882Y-97886115D01*
X122705467Y-97701852D01*
X122805486Y-97460979D01*
X122805714Y-97200165D01*
X122706115Y-96959118D01*
X122521852Y-96774533D01*
X122280979Y-96674514D01*
X122020165Y-96674286D01*
X121779118Y-96773885D01*
X121594533Y-96958148D01*
X121494514Y-97199021D01*
X121494286Y-97459835D01*
X115472742Y-97459835D01*
X115505486Y-97380979D01*
X115505714Y-97120165D01*
X115406115Y-96879118D01*
X115221852Y-96694533D01*
X114994191Y-96600000D01*
X126444312Y-96600000D01*
X126444286Y-96629835D01*
X126543885Y-96870882D01*
X126647841Y-96975020D01*
X126544533Y-97078148D01*
X126444514Y-97319021D01*
X126444286Y-97579835D01*
X126543885Y-97820882D01*
X126728148Y-98005467D01*
X126969021Y-98105486D01*
X127229835Y-98105714D01*
X127470882Y-98006115D01*
X127655467Y-97821852D01*
X127755486Y-97580979D01*
X127755714Y-97320165D01*
X127656115Y-97079118D01*
X127552159Y-96974980D01*
X127655467Y-96871852D01*
X127755486Y-96630979D01*
X127755513Y-96600000D01*
X186650000Y-96600000D01*
X186650000Y-98199912D01*
X186195489Y-98199515D01*
X185166000Y-98624892D01*
X184377660Y-99411857D01*
X183950487Y-100440602D01*
X183949515Y-101554511D01*
X184374892Y-102584000D01*
X185161857Y-103372340D01*
X186190602Y-103799513D01*
X186650000Y-103799914D01*
X186650000Y-106199912D01*
X186195489Y-106199515D01*
X185166000Y-106624892D01*
X184377660Y-107411857D01*
X183950487Y-108440602D01*
X183949515Y-109554511D01*
X184374892Y-110584000D01*
X185161857Y-111372340D01*
X186190602Y-111799513D01*
X186650000Y-111799914D01*
X186650000Y-113400000D01*
X182855109Y-113400000D01*
X182846455Y-113356494D01*
X182765165Y-113234835D01*
X182643506Y-113153545D01*
X182500000Y-113125000D01*
X115000000Y-113125000D01*
X114856494Y-113153545D01*
X114734835Y-113234835D01*
X114653545Y-113356494D01*
X114644891Y-113400000D01*
X104741866Y-113400000D01*
X104352172Y-113238185D01*
X103929682Y-113237816D01*
X103539211Y-113399155D01*
X103538365Y-113400000D01*
X97405592Y-113400000D01*
X97405714Y-113260165D01*
X97306115Y-113019118D01*
X97121852Y-112834533D01*
X96880979Y-112734514D01*
X96620165Y-112734286D01*
X96379118Y-112833885D01*
X96194533Y-113018148D01*
X96100000Y-113245809D01*
X96100000Y-112369835D01*
X109574286Y-112369835D01*
X109673885Y-112610882D01*
X109858148Y-112795467D01*
X110099021Y-112895486D01*
X110359835Y-112895714D01*
X110600882Y-112796115D01*
X110785467Y-112611852D01*
X110885486Y-112370979D01*
X110885714Y-112110165D01*
X110786115Y-111869118D01*
X110601852Y-111684533D01*
X110360979Y-111584514D01*
X110100165Y-111584286D01*
X109859118Y-111683885D01*
X109674533Y-111868148D01*
X109574514Y-112109021D01*
X109574286Y-112369835D01*
X96100000Y-112369835D01*
X96100000Y-109554511D01*
X101949515Y-109554511D01*
X102374892Y-110584000D01*
X103161857Y-111372340D01*
X104190602Y-111799513D01*
X105304511Y-111800485D01*
X106334000Y-111375108D01*
X107122340Y-110588143D01*
X107287732Y-110189835D01*
X113004286Y-110189835D01*
X113103885Y-110430882D01*
X113288148Y-110615467D01*
X113529021Y-110715486D01*
X113789835Y-110715714D01*
X113932681Y-110656691D01*
X113844514Y-110869021D01*
X113844286Y-111129835D01*
X113943885Y-111370882D01*
X113973081Y-111400129D01*
X113790979Y-111324514D01*
X113530165Y-111324286D01*
X113289118Y-111423885D01*
X113104533Y-111608148D01*
X113004514Y-111849021D01*
X113004286Y-112109835D01*
X113103885Y-112350882D01*
X113288148Y-112535467D01*
X113529021Y-112635486D01*
X113789835Y-112635714D01*
X114030882Y-112536115D01*
X114077242Y-112489835D01*
X181754286Y-112489835D01*
X181853885Y-112730882D01*
X182038148Y-112915467D01*
X182279021Y-113015486D01*
X182539835Y-113015714D01*
X182780882Y-112916115D01*
X182965467Y-112731852D01*
X183065486Y-112490979D01*
X183065487Y-112489835D01*
X184514286Y-112489835D01*
X184613885Y-112730882D01*
X184798148Y-112915467D01*
X185039021Y-113015486D01*
X185299835Y-113015714D01*
X185540882Y-112916115D01*
X185725467Y-112731852D01*
X185825486Y-112490979D01*
X185825714Y-112230165D01*
X185726115Y-111989118D01*
X185541852Y-111804533D01*
X185300979Y-111704514D01*
X185040165Y-111704286D01*
X184799118Y-111803885D01*
X184614533Y-111988148D01*
X184514514Y-112229021D01*
X184514286Y-112489835D01*
X183065487Y-112489835D01*
X183065714Y-112230165D01*
X182966115Y-111989118D01*
X182781852Y-111804533D01*
X182540979Y-111704514D01*
X182280165Y-111704286D01*
X182039118Y-111803885D01*
X181854533Y-111988148D01*
X181754514Y-112229021D01*
X181754286Y-112489835D01*
X114077242Y-112489835D01*
X114215467Y-112351852D01*
X114315486Y-112110979D01*
X114315714Y-111850165D01*
X114216115Y-111609118D01*
X114186919Y-111579871D01*
X114369021Y-111655486D01*
X114629835Y-111655714D01*
X114870882Y-111556115D01*
X115055467Y-111371852D01*
X115155486Y-111130979D01*
X115155714Y-110870165D01*
X115056115Y-110629118D01*
X114966988Y-110539835D01*
X120244286Y-110539835D01*
X120343885Y-110780882D01*
X120528148Y-110965467D01*
X120769021Y-111065486D01*
X121029835Y-111065714D01*
X121270882Y-110966115D01*
X121455467Y-110781852D01*
X121555486Y-110540979D01*
X121555714Y-110280165D01*
X121456115Y-110039118D01*
X121271852Y-109854533D01*
X121030979Y-109754514D01*
X120770165Y-109754286D01*
X120529118Y-109853885D01*
X120344533Y-110038148D01*
X120244514Y-110279021D01*
X120244286Y-110539835D01*
X114966988Y-110539835D01*
X114871852Y-110444533D01*
X114630979Y-110344514D01*
X114370165Y-110344286D01*
X114227319Y-110403309D01*
X114315486Y-110190979D01*
X114315714Y-109930165D01*
X114216115Y-109689118D01*
X114031852Y-109504533D01*
X113790979Y-109404514D01*
X113530165Y-109404286D01*
X113289118Y-109503885D01*
X113104533Y-109688148D01*
X113004514Y-109929021D01*
X113004286Y-110189835D01*
X107287732Y-110189835D01*
X107549513Y-109559398D01*
X107549669Y-109379835D01*
X114544286Y-109379835D01*
X114643885Y-109620882D01*
X114828148Y-109805467D01*
X115069021Y-109905486D01*
X115329835Y-109905714D01*
X115570882Y-109806115D01*
X115755467Y-109621852D01*
X115834998Y-109430318D01*
X128477816Y-109430318D01*
X128639155Y-109820789D01*
X128937640Y-110119795D01*
X129327828Y-110281815D01*
X129750318Y-110282184D01*
X130140789Y-110120845D01*
X130439795Y-109822360D01*
X130503128Y-109669835D01*
X132344286Y-109669835D01*
X132443885Y-109910882D01*
X132628148Y-110095467D01*
X132869021Y-110195486D01*
X133094447Y-110195683D01*
X133094286Y-110379835D01*
X133193885Y-110620882D01*
X133378148Y-110805467D01*
X133619021Y-110905486D01*
X133879835Y-110905714D01*
X134120882Y-110806115D01*
X134305467Y-110621852D01*
X134405486Y-110380979D01*
X134405714Y-110120165D01*
X134306115Y-109879118D01*
X134121852Y-109694533D01*
X133880979Y-109594514D01*
X133655553Y-109594317D01*
X133655714Y-109410165D01*
X133556115Y-109169118D01*
X133371852Y-108984533D01*
X133130979Y-108884514D01*
X132870165Y-108884286D01*
X132629118Y-108983885D01*
X132444533Y-109168148D01*
X132344514Y-109409021D01*
X132344286Y-109669835D01*
X130503128Y-109669835D01*
X130601815Y-109432172D01*
X130602184Y-109009682D01*
X130440845Y-108619211D01*
X130142360Y-108320205D01*
X129752172Y-108158185D01*
X129329682Y-108157816D01*
X128939211Y-108319155D01*
X128640205Y-108617640D01*
X128478185Y-109007828D01*
X128477816Y-109430318D01*
X115834998Y-109430318D01*
X115855486Y-109380979D01*
X115855714Y-109120165D01*
X115760544Y-108889835D01*
X124354286Y-108889835D01*
X124453885Y-109130882D01*
X124638148Y-109315467D01*
X124879021Y-109415486D01*
X125139835Y-109415714D01*
X125380882Y-109316115D01*
X125565467Y-109131852D01*
X125665486Y-108890979D01*
X125665714Y-108630165D01*
X125566115Y-108389118D01*
X125381852Y-108204533D01*
X125140979Y-108104514D01*
X124880165Y-108104286D01*
X124639118Y-108203885D01*
X124454533Y-108388148D01*
X124354514Y-108629021D01*
X124354286Y-108889835D01*
X115760544Y-108889835D01*
X115756115Y-108879118D01*
X115571852Y-108694533D01*
X115330979Y-108594514D01*
X115070165Y-108594286D01*
X114829118Y-108693885D01*
X114644533Y-108878148D01*
X114544514Y-109119021D01*
X114544286Y-109379835D01*
X107549669Y-109379835D01*
X107550135Y-108846120D01*
X107669021Y-108895486D01*
X107929835Y-108895714D01*
X108170882Y-108796115D01*
X108355467Y-108611852D01*
X108455486Y-108370979D01*
X108455714Y-108110165D01*
X108356115Y-107869118D01*
X108171852Y-107684533D01*
X107930979Y-107584514D01*
X107670165Y-107584286D01*
X107429118Y-107683885D01*
X107292250Y-107820514D01*
X107125108Y-107416000D01*
X106340315Y-106629835D01*
X109614286Y-106629835D01*
X109713885Y-106870882D01*
X109898148Y-107055467D01*
X110139021Y-107155486D01*
X110399835Y-107155714D01*
X110462466Y-107129835D01*
X116594286Y-107129835D01*
X116693885Y-107370882D01*
X116878148Y-107555467D01*
X117119021Y-107655486D01*
X117379835Y-107655714D01*
X117620882Y-107556115D01*
X117805467Y-107371852D01*
X117905486Y-107130979D01*
X117905487Y-107129835D01*
X118094286Y-107129835D01*
X118193885Y-107370882D01*
X118378148Y-107555467D01*
X118619021Y-107655486D01*
X118879835Y-107655714D01*
X119120882Y-107556115D01*
X119305467Y-107371852D01*
X119405486Y-107130979D01*
X119405696Y-106890318D01*
X125937816Y-106890318D01*
X126099155Y-107280789D01*
X126397640Y-107579795D01*
X126787828Y-107741815D01*
X127210318Y-107742184D01*
X127600789Y-107580845D01*
X127899795Y-107282360D01*
X128061815Y-106892172D01*
X128062184Y-106469682D01*
X127900845Y-106079211D01*
X127602360Y-105780205D01*
X127601867Y-105780000D01*
X148654123Y-105780000D01*
X148654123Y-107580000D01*
X148675042Y-107691173D01*
X148740745Y-107793279D01*
X148840997Y-107861778D01*
X148960000Y-107885877D01*
X150760000Y-107885877D01*
X150871173Y-107864958D01*
X150973279Y-107799255D01*
X151041778Y-107699003D01*
X151065877Y-107580000D01*
X151065877Y-106917647D01*
X151199793Y-106917647D01*
X151382097Y-107358857D01*
X151719367Y-107696717D01*
X152160258Y-107879791D01*
X152637647Y-107880207D01*
X153078857Y-107697903D01*
X153416717Y-107360633D01*
X153599791Y-106919742D01*
X153599792Y-106917647D01*
X153739793Y-106917647D01*
X153922097Y-107358857D01*
X154259367Y-107696717D01*
X154700258Y-107879791D01*
X155177647Y-107880207D01*
X155618857Y-107697903D01*
X155956717Y-107360633D01*
X156139791Y-106919742D01*
X156139792Y-106917647D01*
X156279793Y-106917647D01*
X156462097Y-107358857D01*
X156799367Y-107696717D01*
X157240258Y-107879791D01*
X157717647Y-107880207D01*
X158158857Y-107697903D01*
X158496717Y-107360633D01*
X158679791Y-106919742D01*
X158680207Y-106442353D01*
X158497903Y-106001143D01*
X158160633Y-105663283D01*
X157898682Y-105554511D01*
X172449515Y-105554511D01*
X172874892Y-106584000D01*
X173661857Y-107372340D01*
X174690602Y-107799513D01*
X175804511Y-107800485D01*
X176834000Y-107375108D01*
X177622340Y-106588143D01*
X178049513Y-105559398D01*
X178050485Y-104445489D01*
X177625108Y-103416000D01*
X176838143Y-102627660D01*
X175809398Y-102200487D01*
X174695489Y-102199515D01*
X173666000Y-102624892D01*
X172877660Y-103411857D01*
X172450487Y-104440602D01*
X172449515Y-105554511D01*
X157898682Y-105554511D01*
X157719742Y-105480209D01*
X157242353Y-105479793D01*
X156801143Y-105662097D01*
X156463283Y-105999367D01*
X156280209Y-106440258D01*
X156279793Y-106917647D01*
X156139792Y-106917647D01*
X156140207Y-106442353D01*
X155957903Y-106001143D01*
X155620633Y-105663283D01*
X155179742Y-105480209D01*
X154702353Y-105479793D01*
X154261143Y-105662097D01*
X153923283Y-105999367D01*
X153740209Y-106440258D01*
X153739793Y-106917647D01*
X153599792Y-106917647D01*
X153600207Y-106442353D01*
X153417903Y-106001143D01*
X153080633Y-105663283D01*
X152639742Y-105480209D01*
X152162353Y-105479793D01*
X151721143Y-105662097D01*
X151383283Y-105999367D01*
X151200209Y-106440258D01*
X151199793Y-106917647D01*
X151065877Y-106917647D01*
X151065877Y-105780000D01*
X151044958Y-105668827D01*
X150979255Y-105566721D01*
X150879003Y-105498222D01*
X150760000Y-105474123D01*
X148960000Y-105474123D01*
X148848827Y-105495042D01*
X148746721Y-105560745D01*
X148678222Y-105660997D01*
X148654123Y-105780000D01*
X127601867Y-105780000D01*
X127212172Y-105618185D01*
X126789682Y-105617816D01*
X126399211Y-105779155D01*
X126100205Y-106077640D01*
X125938185Y-106467828D01*
X125937816Y-106890318D01*
X119405696Y-106890318D01*
X119405714Y-106870165D01*
X119306115Y-106629118D01*
X119121852Y-106444533D01*
X118880979Y-106344514D01*
X118620165Y-106344286D01*
X118379118Y-106443885D01*
X118194533Y-106628148D01*
X118094514Y-106869021D01*
X118094286Y-107129835D01*
X117905487Y-107129835D01*
X117905714Y-106870165D01*
X117806115Y-106629118D01*
X117621852Y-106444533D01*
X117380979Y-106344514D01*
X117120165Y-106344286D01*
X116879118Y-106443885D01*
X116694533Y-106628148D01*
X116594514Y-106869021D01*
X116594286Y-107129835D01*
X110462466Y-107129835D01*
X110640882Y-107056115D01*
X110825467Y-106871852D01*
X110925486Y-106630979D01*
X110925714Y-106370165D01*
X110826115Y-106129118D01*
X110641852Y-105944533D01*
X110400979Y-105844514D01*
X110140165Y-105844286D01*
X109899118Y-105943885D01*
X109714533Y-106128148D01*
X109614514Y-106369021D01*
X109614286Y-106629835D01*
X106340315Y-106629835D01*
X106338143Y-106627660D01*
X105309398Y-106200487D01*
X104195489Y-106199515D01*
X103166000Y-106624892D01*
X102377660Y-107411857D01*
X101950487Y-108440602D01*
X101949515Y-109554511D01*
X96100000Y-109554511D01*
X96100000Y-107179835D01*
X98344286Y-107179835D01*
X98443885Y-107420882D01*
X98628148Y-107605467D01*
X98869021Y-107705486D01*
X99129835Y-107705714D01*
X99370882Y-107606115D01*
X99555467Y-107421852D01*
X99655486Y-107180979D01*
X99655714Y-106920165D01*
X99556115Y-106679118D01*
X99371852Y-106494533D01*
X99130979Y-106394514D01*
X98870165Y-106394286D01*
X98629118Y-106493885D01*
X98444533Y-106678148D01*
X98344514Y-106919021D01*
X98344286Y-107179835D01*
X96100000Y-107179835D01*
X96100000Y-104629835D01*
X96344286Y-104629835D01*
X96443885Y-104870882D01*
X96628148Y-105055467D01*
X96795717Y-105125047D01*
X96629118Y-105193885D01*
X96444533Y-105378148D01*
X96344514Y-105619021D01*
X96344286Y-105879835D01*
X96443885Y-106120882D01*
X96628148Y-106305467D01*
X96869021Y-106405486D01*
X97129835Y-106405714D01*
X97370882Y-106306115D01*
X97555467Y-106121852D01*
X97655486Y-105880979D01*
X97655705Y-105629835D01*
X116594286Y-105629835D01*
X116693885Y-105870882D01*
X116878148Y-106055467D01*
X117119021Y-106155486D01*
X117379835Y-106155714D01*
X117620882Y-106056115D01*
X117805467Y-105871852D01*
X117905486Y-105630979D01*
X117905487Y-105629835D01*
X118094286Y-105629835D01*
X118193885Y-105870882D01*
X118378148Y-106055467D01*
X118619021Y-106155486D01*
X118879835Y-106155714D01*
X119120882Y-106056115D01*
X119305467Y-105871852D01*
X119405486Y-105630979D01*
X119405714Y-105370165D01*
X119306115Y-105129118D01*
X119157093Y-104979835D01*
X141094286Y-104979835D01*
X141193885Y-105220882D01*
X141378148Y-105405467D01*
X141619021Y-105505486D01*
X141879835Y-105505714D01*
X142120882Y-105406115D01*
X142305467Y-105221852D01*
X142405486Y-104980979D01*
X142405714Y-104720165D01*
X142306115Y-104479118D01*
X142121852Y-104294533D01*
X141880979Y-104194514D01*
X141620165Y-104194286D01*
X141379118Y-104293885D01*
X141194533Y-104478148D01*
X141094514Y-104719021D01*
X141094286Y-104979835D01*
X119157093Y-104979835D01*
X119121852Y-104944533D01*
X118880979Y-104844514D01*
X118620165Y-104844286D01*
X118379118Y-104943885D01*
X118194533Y-105128148D01*
X118094514Y-105369021D01*
X118094286Y-105629835D01*
X117905487Y-105629835D01*
X117905714Y-105370165D01*
X117806115Y-105129118D01*
X117621852Y-104944533D01*
X117380979Y-104844514D01*
X117120165Y-104844286D01*
X116879118Y-104943885D01*
X116694533Y-105128148D01*
X116594514Y-105369021D01*
X116594286Y-105629835D01*
X97655705Y-105629835D01*
X97655714Y-105620165D01*
X97556115Y-105379118D01*
X97371852Y-105194533D01*
X97204283Y-105124953D01*
X97370882Y-105056115D01*
X97555467Y-104871852D01*
X97655486Y-104630979D01*
X97655487Y-104629835D01*
X100594286Y-104629835D01*
X100693885Y-104870882D01*
X100878148Y-105055467D01*
X101119021Y-105155486D01*
X101379835Y-105155714D01*
X101620882Y-105056115D01*
X101805467Y-104871852D01*
X101905486Y-104630979D01*
X101905714Y-104370165D01*
X101806115Y-104129118D01*
X101621852Y-103944533D01*
X101380979Y-103844514D01*
X101120165Y-103844286D01*
X100879118Y-103943885D01*
X100694533Y-104128148D01*
X100594514Y-104369021D01*
X100594286Y-104629835D01*
X97655487Y-104629835D01*
X97655714Y-104370165D01*
X97556115Y-104129118D01*
X97371852Y-103944533D01*
X97130979Y-103844514D01*
X96870165Y-103844286D01*
X96629118Y-103943885D01*
X96444533Y-104128148D01*
X96344514Y-104369021D01*
X96344286Y-104629835D01*
X96100000Y-104629835D01*
X96100000Y-103069835D01*
X97844286Y-103069835D01*
X97943885Y-103310882D01*
X98128148Y-103495467D01*
X98369021Y-103595486D01*
X98629835Y-103595714D01*
X98870882Y-103496115D01*
X99055467Y-103311852D01*
X99155486Y-103070979D01*
X99155714Y-102810165D01*
X99056115Y-102569118D01*
X98871852Y-102384533D01*
X98630979Y-102284514D01*
X98370165Y-102284286D01*
X98129118Y-102383885D01*
X97944533Y-102568148D01*
X97844514Y-102809021D01*
X97844286Y-103069835D01*
X96100000Y-103069835D01*
X96100000Y-102203622D01*
X96178658Y-102321342D01*
X96440792Y-102496495D01*
X96750000Y-102558000D01*
X97059208Y-102496495D01*
X97321342Y-102321342D01*
X97496495Y-102059208D01*
X97558000Y-101750000D01*
X97558000Y-101554511D01*
X101949515Y-101554511D01*
X102374892Y-102584000D01*
X103161857Y-103372340D01*
X104190602Y-103799513D01*
X105304511Y-103800485D01*
X105717514Y-103629835D01*
X109614286Y-103629835D01*
X109713885Y-103870882D01*
X109898148Y-104055467D01*
X110139021Y-104155486D01*
X110399835Y-104155714D01*
X110640882Y-104056115D01*
X110825467Y-103871852D01*
X110925486Y-103630979D01*
X110925714Y-103370165D01*
X110826115Y-103129118D01*
X110641852Y-102944533D01*
X110400979Y-102844514D01*
X110140165Y-102844286D01*
X109899118Y-102943885D01*
X109714533Y-103128148D01*
X109614514Y-103369021D01*
X109614286Y-103629835D01*
X105717514Y-103629835D01*
X106334000Y-103375108D01*
X107122340Y-102588143D01*
X107266970Y-102239835D01*
X112654286Y-102239835D01*
X112753885Y-102480882D01*
X112938148Y-102665467D01*
X113179021Y-102765486D01*
X113439835Y-102765714D01*
X113680882Y-102666115D01*
X113865467Y-102481852D01*
X113965486Y-102240979D01*
X113965504Y-102219835D01*
X120364286Y-102219835D01*
X120463885Y-102460882D01*
X120648148Y-102645467D01*
X120889021Y-102745486D01*
X121084456Y-102745657D01*
X121084286Y-102939835D01*
X121183885Y-103180882D01*
X121368148Y-103365467D01*
X121609021Y-103465486D01*
X121869835Y-103465714D01*
X122110882Y-103366115D01*
X122295467Y-103181852D01*
X122395486Y-102940979D01*
X122395714Y-102680165D01*
X122296115Y-102439118D01*
X122111852Y-102254533D01*
X121870979Y-102154514D01*
X121675544Y-102154343D01*
X121675714Y-101960165D01*
X121576115Y-101719118D01*
X121391852Y-101534533D01*
X121150979Y-101434514D01*
X120890165Y-101434286D01*
X120649118Y-101533885D01*
X120464533Y-101718148D01*
X120364514Y-101959021D01*
X120364286Y-102219835D01*
X113965504Y-102219835D01*
X113965714Y-101980165D01*
X113866115Y-101739118D01*
X113681852Y-101554533D01*
X113440979Y-101454514D01*
X113180165Y-101454286D01*
X112939118Y-101553885D01*
X112754533Y-101738148D01*
X112654514Y-101979021D01*
X112654286Y-102239835D01*
X107266970Y-102239835D01*
X107549513Y-101559398D01*
X107549887Y-101129835D01*
X119094286Y-101129835D01*
X119193885Y-101370882D01*
X119378148Y-101555467D01*
X119619021Y-101655486D01*
X119879835Y-101655714D01*
X120120882Y-101556115D01*
X120297470Y-101379835D01*
X136594286Y-101379835D01*
X136693885Y-101620882D01*
X136878148Y-101805467D01*
X137119021Y-101905486D01*
X137379835Y-101905714D01*
X137620882Y-101806115D01*
X137805467Y-101621852D01*
X137905486Y-101380979D01*
X137905644Y-101199835D01*
X144094286Y-101199835D01*
X144193885Y-101440882D01*
X144378148Y-101625467D01*
X144619021Y-101725486D01*
X144879835Y-101725714D01*
X145120882Y-101626115D01*
X145305467Y-101441852D01*
X145405486Y-101200979D01*
X145405487Y-101199835D01*
X145864286Y-101199835D01*
X145963885Y-101440882D01*
X146148148Y-101625467D01*
X146389021Y-101725486D01*
X146649835Y-101725714D01*
X146890882Y-101626115D01*
X147075467Y-101441852D01*
X147175486Y-101200979D01*
X147175714Y-100940165D01*
X147076115Y-100699118D01*
X146891852Y-100514533D01*
X146650979Y-100414514D01*
X146390165Y-100414286D01*
X146149118Y-100513885D01*
X145964533Y-100698148D01*
X145864514Y-100939021D01*
X145864286Y-101199835D01*
X145405487Y-101199835D01*
X145405714Y-100940165D01*
X145306115Y-100699118D01*
X145121852Y-100514533D01*
X144880979Y-100414514D01*
X144620165Y-100414286D01*
X144379118Y-100513885D01*
X144194533Y-100698148D01*
X144094514Y-100939021D01*
X144094286Y-101199835D01*
X137905644Y-101199835D01*
X137905714Y-101120165D01*
X137806115Y-100879118D01*
X137621852Y-100694533D01*
X137380979Y-100594514D01*
X137120165Y-100594286D01*
X136879118Y-100693885D01*
X136694533Y-100878148D01*
X136594514Y-101119021D01*
X136594286Y-101379835D01*
X120297470Y-101379835D01*
X120305467Y-101371852D01*
X120405486Y-101130979D01*
X120405714Y-100870165D01*
X120306115Y-100629118D01*
X120121852Y-100444533D01*
X119880979Y-100344514D01*
X119620165Y-100344286D01*
X119379118Y-100443885D01*
X119194533Y-100628148D01*
X119094514Y-100869021D01*
X119094286Y-101129835D01*
X107549887Y-101129835D01*
X107550485Y-100445489D01*
X107125108Y-99416000D01*
X106839443Y-99129835D01*
X116594286Y-99129835D01*
X116693885Y-99370882D01*
X116878148Y-99555467D01*
X117119021Y-99655486D01*
X117379835Y-99655714D01*
X117620882Y-99556115D01*
X117805467Y-99371852D01*
X117905486Y-99130979D01*
X117905714Y-98870165D01*
X117806115Y-98629118D01*
X117621852Y-98444533D01*
X117466042Y-98379835D01*
X138844286Y-98379835D01*
X138943885Y-98620882D01*
X139128148Y-98805467D01*
X139369021Y-98905486D01*
X139629835Y-98905714D01*
X139870882Y-98806115D01*
X140055467Y-98621852D01*
X140155486Y-98380979D01*
X140155714Y-98120165D01*
X140056115Y-97879118D01*
X139871852Y-97694533D01*
X139630979Y-97594514D01*
X139370165Y-97594286D01*
X139129118Y-97693885D01*
X138944533Y-97878148D01*
X138844514Y-98119021D01*
X138844286Y-98379835D01*
X117466042Y-98379835D01*
X117380979Y-98344514D01*
X117120165Y-98344286D01*
X116879118Y-98443885D01*
X116694533Y-98628148D01*
X116594514Y-98869021D01*
X116594286Y-99129835D01*
X106839443Y-99129835D01*
X106338143Y-98627660D01*
X105309398Y-98200487D01*
X104195489Y-98199515D01*
X103166000Y-98624892D01*
X102377660Y-99411857D01*
X101950487Y-100440602D01*
X101949515Y-101554511D01*
X97558000Y-101554511D01*
X97558000Y-98384684D01*
X99342684Y-96600000D01*
X114706336Y-96600000D01*
X114479118Y-96693885D01*
G36*
X150691143Y-80512097D02*
X150353283Y-80849367D01*
X150170209Y-81290258D01*
X150169793Y-81767647D01*
X150352097Y-82208857D01*
X150689367Y-82546717D01*
X151130258Y-82729791D01*
X151607647Y-82730207D01*
X152048857Y-82547903D01*
X152386717Y-82210633D01*
X152569791Y-81769742D01*
X152570207Y-81292353D01*
X152387903Y-80851143D01*
X152050633Y-80513283D01*
X151717611Y-80375000D01*
X153822944Y-80375000D01*
X153491143Y-80512097D01*
X153153283Y-80849367D01*
X152970209Y-81290258D01*
X152969793Y-81767647D01*
X153152097Y-82208857D01*
X153489367Y-82546717D01*
X153930258Y-82729791D01*
X154407647Y-82730207D01*
X154848857Y-82547903D01*
X155186717Y-82210633D01*
X155369791Y-81769742D01*
X155370207Y-81292353D01*
X155187903Y-80851143D01*
X154850633Y-80513283D01*
X154517611Y-80375000D01*
X156622944Y-80375000D01*
X156291143Y-80512097D01*
X155953283Y-80849367D01*
X155770209Y-81290258D01*
X155769793Y-81767647D01*
X155952097Y-82208857D01*
X156289367Y-82546717D01*
X156730258Y-82729791D01*
X157207647Y-82730207D01*
X157648857Y-82547903D01*
X157986717Y-82210633D01*
X158169791Y-81769742D01*
X158170207Y-81292353D01*
X157987903Y-80851143D01*
X157650633Y-80513283D01*
X157317611Y-80375000D01*
X159422944Y-80375000D01*
X159091143Y-80512097D01*
X158753283Y-80849367D01*
X158570209Y-81290258D01*
X158569793Y-81767647D01*
X158752097Y-82208857D01*
X159089367Y-82546717D01*
X159530258Y-82729791D01*
X160007647Y-82730207D01*
X160448857Y-82547903D01*
X160786717Y-82210633D01*
X160969791Y-81769742D01*
X160970207Y-81292353D01*
X160787903Y-80851143D01*
X160450633Y-80513283D01*
X160117611Y-80375000D01*
X162131934Y-80375000D01*
X161921143Y-80462097D01*
X161583283Y-80799367D01*
X161400209Y-81240258D01*
X161399793Y-81717647D01*
X161582097Y-82158857D01*
X161919367Y-82496717D01*
X162360258Y-82679791D01*
X162837647Y-82680207D01*
X163278857Y-82497903D01*
X163616717Y-82160633D01*
X163792233Y-81737942D01*
X164199818Y-81737942D01*
X164359334Y-82124000D01*
X164654446Y-82419628D01*
X165040226Y-82579818D01*
X165457942Y-82580182D01*
X165844000Y-82420666D01*
X166139628Y-82125554D01*
X166174889Y-82040636D01*
X166209334Y-82124000D01*
X166504446Y-82419628D01*
X166890226Y-82579818D01*
X167307942Y-82580182D01*
X167694000Y-82420666D01*
X167778655Y-82336158D01*
X168361631Y-82336158D01*
X168449930Y-82480288D01*
X168851655Y-82599320D01*
X169268352Y-82555558D01*
X169450070Y-82480288D01*
X169538369Y-82336158D01*
X168950000Y-81747789D01*
X168361631Y-82336158D01*
X167778655Y-82336158D01*
X167989628Y-82125554D01*
X168023281Y-82044509D01*
X168143842Y-82118369D01*
X168732211Y-81530000D01*
X169167789Y-81530000D01*
X169756158Y-82118369D01*
X169876535Y-82044622D01*
X169909334Y-82124000D01*
X170204446Y-82419628D01*
X170590226Y-82579818D01*
X171007942Y-82580182D01*
X171394000Y-82420666D01*
X171689628Y-82125554D01*
X171849818Y-81739774D01*
X171850182Y-81322058D01*
X171690666Y-80936000D01*
X171395554Y-80640372D01*
X171009774Y-80480182D01*
X170592058Y-80479818D01*
X170206000Y-80639334D01*
X169910372Y-80934446D01*
X169876719Y-81015491D01*
X169756158Y-80941631D01*
X169167789Y-81530000D01*
X168732211Y-81530000D01*
X168143842Y-80941631D01*
X168023465Y-81015378D01*
X167990666Y-80936000D01*
X167778879Y-80723842D01*
X168361631Y-80723842D01*
X168950000Y-81312211D01*
X169538369Y-80723842D01*
X169450070Y-80579712D01*
X169048345Y-80460680D01*
X168631648Y-80504442D01*
X168449930Y-80579712D01*
X168361631Y-80723842D01*
X167778879Y-80723842D01*
X167695554Y-80640372D01*
X167309774Y-80480182D01*
X166892058Y-80479818D01*
X166506000Y-80639334D01*
X166210372Y-80934446D01*
X166175111Y-81019364D01*
X166140666Y-80936000D01*
X165845554Y-80640372D01*
X165459774Y-80480182D01*
X165042058Y-80479818D01*
X164656000Y-80639334D01*
X164360372Y-80934446D01*
X164200182Y-81320226D01*
X164199818Y-81737942D01*
X163792233Y-81737942D01*
X163799791Y-81719742D01*
X163800207Y-81242353D01*
X163617903Y-80801143D01*
X163280633Y-80463283D01*
X163068024Y-80375000D01*
X212959689Y-80375000D01*
X213749822Y-82277456D01*
X209765456Y-83931456D01*
X210016717Y-83680633D01*
X210199791Y-83239742D01*
X210200207Y-82762353D01*
X210017903Y-82321143D01*
X209680633Y-81983283D01*
X209239742Y-81800209D01*
X208762353Y-81799793D01*
X208321143Y-81982097D01*
X207983283Y-82319367D01*
X207800209Y-82760258D01*
X207799793Y-83237647D01*
X207982097Y-83678857D01*
X208319367Y-84016717D01*
X208760258Y-84199791D01*
X209118303Y-84200103D01*
X200606496Y-87733545D01*
X200606494Y-87733545D01*
X200606493Y-87733546D01*
X200606225Y-87733657D01*
X200545554Y-87774264D01*
X200484835Y-87814835D01*
X200484753Y-87814958D01*
X200484630Y-87815040D01*
X200444047Y-87875879D01*
X200403545Y-87936494D01*
X200403516Y-87936639D01*
X200403434Y-87936762D01*
X200389241Y-88008408D01*
X200375000Y-88080000D01*
X200375000Y-121920000D01*
X200389241Y-121991592D01*
X200403434Y-122063238D01*
X200403516Y-122063361D01*
X200403545Y-122063506D01*
X200444047Y-122124121D01*
X200484630Y-122184960D01*
X200484753Y-122185042D01*
X200484835Y-122185165D01*
X200545554Y-122225736D01*
X200606225Y-122266343D01*
X200606493Y-122266454D01*
X200606494Y-122266455D01*
X200606496Y-122266455D01*
X209118801Y-125800104D01*
X208762353Y-125799793D01*
X208321143Y-125982097D01*
X207983283Y-126319367D01*
X207800209Y-126760258D01*
X207799793Y-127237647D01*
X207982097Y-127678857D01*
X208319367Y-128016717D01*
X208760258Y-128199791D01*
X209237647Y-128200207D01*
X209678857Y-128017903D01*
X210016717Y-127680633D01*
X210199791Y-127239742D01*
X210200207Y-126762353D01*
X210017903Y-126321143D01*
X209765951Y-126068750D01*
X213749822Y-127722544D01*
X212959689Y-129625000D01*
X182875000Y-129625000D01*
X182875000Y-113850000D01*
X183260210Y-113850000D01*
X185617600Y-116207390D01*
X185617600Y-125345261D01*
X185514533Y-125448148D01*
X185414514Y-125689021D01*
X185414286Y-125949835D01*
X185513885Y-126190882D01*
X185617841Y-126295020D01*
X185514533Y-126398148D01*
X185414514Y-126639021D01*
X185414286Y-126899835D01*
X185513885Y-127140882D01*
X185698148Y-127325467D01*
X185939021Y-127425486D01*
X186199835Y-127425714D01*
X186440882Y-127326115D01*
X186625467Y-127141852D01*
X186725486Y-126900979D01*
X186725714Y-126640165D01*
X186626115Y-126399118D01*
X186522159Y-126294980D01*
X186544778Y-126272400D01*
X187552610Y-126272400D01*
X188370105Y-127089895D01*
X188516874Y-127187963D01*
X188690000Y-127222400D01*
X190465261Y-127222400D01*
X190568148Y-127325467D01*
X190809021Y-127425486D01*
X191069835Y-127425714D01*
X191310882Y-127326115D01*
X191399504Y-127237647D01*
X200119793Y-127237647D01*
X200302097Y-127678857D01*
X200639367Y-128016717D01*
X201080258Y-128199791D01*
X201557647Y-128200207D01*
X201998857Y-128017903D01*
X202336717Y-127680633D01*
X202519791Y-127239742D01*
X202519792Y-127237647D01*
X202689793Y-127237647D01*
X202872097Y-127678857D01*
X203209367Y-128016717D01*
X203650258Y-128199791D01*
X204127647Y-128200207D01*
X204568857Y-128017903D01*
X204671502Y-127915437D01*
X205732352Y-127915437D01*
X205839214Y-128075147D01*
X206295626Y-128219391D01*
X206772496Y-128177993D01*
X207020786Y-128075147D01*
X207127648Y-127915437D01*
X206430000Y-127217789D01*
X205732352Y-127915437D01*
X204671502Y-127915437D01*
X204906717Y-127680633D01*
X205089791Y-127239742D01*
X205090117Y-126865626D01*
X205210609Y-126865626D01*
X205252007Y-127342496D01*
X205354853Y-127590786D01*
X205514563Y-127697648D01*
X206212211Y-127000000D01*
X206647789Y-127000000D01*
X207345437Y-127697648D01*
X207505147Y-127590786D01*
X207649391Y-127134374D01*
X207607993Y-126657504D01*
X207505147Y-126409214D01*
X207345437Y-126302352D01*
X206647789Y-127000000D01*
X206212211Y-127000000D01*
X205514563Y-126302352D01*
X205354853Y-126409214D01*
X205210609Y-126865626D01*
X205090117Y-126865626D01*
X205090207Y-126762353D01*
X204907903Y-126321143D01*
X204671737Y-126084563D01*
X205732352Y-126084563D01*
X206430000Y-126782211D01*
X207127648Y-126084563D01*
X207020786Y-125924853D01*
X206564374Y-125780609D01*
X206087504Y-125822007D01*
X205839214Y-125924853D01*
X205732352Y-126084563D01*
X204671737Y-126084563D01*
X204570633Y-125983283D01*
X204129742Y-125800209D01*
X203652353Y-125799793D01*
X203211143Y-125982097D01*
X202873283Y-126319367D01*
X202690209Y-126760258D01*
X202689793Y-127237647D01*
X202519792Y-127237647D01*
X202520207Y-126762353D01*
X202337903Y-126321143D01*
X202000633Y-125983283D01*
X201559742Y-125800209D01*
X201082353Y-125799793D01*
X200641143Y-125982097D01*
X200303283Y-126319367D01*
X200120209Y-126760258D01*
X200119793Y-127237647D01*
X191399504Y-127237647D01*
X191495467Y-127141852D01*
X191595486Y-126900979D01*
X191595714Y-126640165D01*
X191496115Y-126399118D01*
X191311852Y-126214533D01*
X191070979Y-126114514D01*
X190810165Y-126114286D01*
X190569118Y-126213885D01*
X190465222Y-126317600D01*
X188877390Y-126317600D01*
X188059895Y-125500105D01*
X187913126Y-125402037D01*
X187740000Y-125367600D01*
X186544739Y-125367600D01*
X186522400Y-125345222D01*
X186522400Y-116020000D01*
X186487963Y-115846874D01*
X186389895Y-115700105D01*
X184539790Y-113850000D01*
X189250000Y-113850000D01*
X189288906Y-113842121D01*
X189321681Y-113819727D01*
X189343161Y-113786346D01*
X189350000Y-113750000D01*
X189350000Y-110039878D01*
X189549513Y-109559398D01*
X189550485Y-108445489D01*
X189350000Y-107960279D01*
X189350000Y-104350318D01*
X194517816Y-104350318D01*
X194679155Y-104740789D01*
X194977640Y-105039795D01*
X195367828Y-105201815D01*
X195790318Y-105202184D01*
X196180789Y-105040845D01*
X196479795Y-104742360D01*
X196641815Y-104352172D01*
X196642184Y-103929682D01*
X196480845Y-103539211D01*
X196182360Y-103240205D01*
X195792172Y-103078185D01*
X195369682Y-103077816D01*
X194979211Y-103239155D01*
X194680205Y-103537640D01*
X194518185Y-103927828D01*
X194517816Y-104350318D01*
X189350000Y-104350318D01*
X189350000Y-102039878D01*
X189549513Y-101559398D01*
X189550485Y-100445489D01*
X189350000Y-99960279D01*
X189350000Y-96000000D01*
X189342121Y-95961094D01*
X189319727Y-95928319D01*
X189286346Y-95906839D01*
X189250000Y-95900000D01*
X147167588Y-95900000D01*
X147175486Y-95880979D01*
X147175714Y-95620165D01*
X147076115Y-95379118D01*
X146891852Y-95194533D01*
X146650979Y-95094514D01*
X146390165Y-95094286D01*
X146149118Y-95193885D01*
X145964533Y-95378148D01*
X145864514Y-95619021D01*
X145864286Y-95879835D01*
X145872618Y-95900000D01*
X137899157Y-95900000D01*
X138218857Y-95767903D01*
X138556717Y-95430633D01*
X138739791Y-94989742D01*
X138739886Y-94879835D01*
X142444286Y-94879835D01*
X142543885Y-95120882D01*
X142728148Y-95305467D01*
X142969021Y-95405486D01*
X143229835Y-95405714D01*
X143470882Y-95306115D01*
X143655467Y-95121852D01*
X143755486Y-94880979D01*
X143755714Y-94620165D01*
X143656115Y-94379118D01*
X143471852Y-94194533D01*
X143230979Y-94094514D01*
X142970165Y-94094286D01*
X142729118Y-94193885D01*
X142544533Y-94378148D01*
X142444514Y-94619021D01*
X142444286Y-94879835D01*
X138739886Y-94879835D01*
X138740207Y-94512353D01*
X138557903Y-94071143D01*
X138220633Y-93733283D01*
X137779742Y-93550209D01*
X137302353Y-93549793D01*
X136861143Y-93732097D01*
X136523283Y-94069367D01*
X136340209Y-94510258D01*
X136339793Y-94987647D01*
X136522097Y-95428857D01*
X136859367Y-95766717D01*
X137180348Y-95900000D01*
X135410076Y-95900000D01*
X135590786Y-95825147D01*
X135697648Y-95665437D01*
X135000000Y-94967789D01*
X134302352Y-95665437D01*
X134409214Y-95825147D01*
X134646061Y-95900000D01*
X132819157Y-95900000D01*
X133138857Y-95767903D01*
X133476717Y-95430633D01*
X133659791Y-94989742D01*
X133660117Y-94615626D01*
X133780609Y-94615626D01*
X133822007Y-95092496D01*
X133924853Y-95340786D01*
X134084563Y-95447648D01*
X134782211Y-94750000D01*
X135217789Y-94750000D01*
X135915437Y-95447648D01*
X136075147Y-95340786D01*
X136219391Y-94884374D01*
X136177993Y-94407504D01*
X136075147Y-94159214D01*
X135915437Y-94052352D01*
X135217789Y-94750000D01*
X134782211Y-94750000D01*
X134084563Y-94052352D01*
X133924853Y-94159214D01*
X133780609Y-94615626D01*
X133660117Y-94615626D01*
X133660207Y-94512353D01*
X133477903Y-94071143D01*
X133241737Y-93834563D01*
X134302352Y-93834563D01*
X135000000Y-94532211D01*
X135697648Y-93834563D01*
X135590786Y-93674853D01*
X135134374Y-93530609D01*
X134657504Y-93572007D01*
X134409214Y-93674853D01*
X134302352Y-93834563D01*
X133241737Y-93834563D01*
X133140633Y-93733283D01*
X132699742Y-93550209D01*
X132222353Y-93549793D01*
X131781143Y-93732097D01*
X131443283Y-94069367D01*
X131260209Y-94510258D01*
X131259793Y-94987647D01*
X131442097Y-95428857D01*
X131779367Y-95766717D01*
X132100348Y-95900000D01*
X127364604Y-95900000D01*
X127230979Y-95844514D01*
X126970165Y-95844286D01*
X126835327Y-95900000D01*
X122861632Y-95900000D01*
X122423200Y-95461568D01*
X122423200Y-95070483D01*
X122598857Y-94997903D01*
X122936717Y-94660633D01*
X123119791Y-94219742D01*
X123119816Y-94190318D01*
X125937816Y-94190318D01*
X126099155Y-94580789D01*
X126397640Y-94879795D01*
X126787828Y-95041815D01*
X127210318Y-95042184D01*
X127600789Y-94880845D01*
X127899795Y-94582360D01*
X128061815Y-94192172D01*
X128062184Y-93769682D01*
X127900845Y-93379211D01*
X127602360Y-93080205D01*
X127212172Y-92918185D01*
X126789682Y-92917816D01*
X126399211Y-93079155D01*
X126100205Y-93377640D01*
X125938185Y-93767828D01*
X125937816Y-94190318D01*
X123119816Y-94190318D01*
X123120207Y-93742353D01*
X122937903Y-93301143D01*
X122600633Y-92963283D01*
X122447834Y-92899835D01*
X128084286Y-92899835D01*
X128183885Y-93140882D01*
X128368148Y-93325467D01*
X128609021Y-93425486D01*
X128869835Y-93425714D01*
X129110882Y-93326115D01*
X129295467Y-93141852D01*
X129395486Y-92900979D01*
X129395714Y-92640165D01*
X129296115Y-92399118D01*
X129111852Y-92214533D01*
X128870979Y-92114514D01*
X128610165Y-92114286D01*
X128369118Y-92213885D01*
X128184533Y-92398148D01*
X128084514Y-92639021D01*
X128084286Y-92899835D01*
X122447834Y-92899835D01*
X122159742Y-92780209D01*
X121682353Y-92779793D01*
X121241143Y-92962097D01*
X120903283Y-93299367D01*
X120720209Y-93740258D01*
X120719793Y-94217647D01*
X120902097Y-94658857D01*
X121239367Y-94996717D01*
X121416800Y-95070394D01*
X121416800Y-95670000D01*
X121455104Y-95862566D01*
X121480117Y-95900000D01*
X95500000Y-95900000D01*
X95461094Y-95907879D01*
X95428319Y-95930273D01*
X95406839Y-95963654D01*
X95400000Y-96000000D01*
X95400000Y-114000000D01*
X95407879Y-114038906D01*
X95430273Y-114071681D01*
X95463654Y-114093161D01*
X95500000Y-114100000D01*
X103078174Y-114100000D01*
X103077816Y-114510318D01*
X103239155Y-114900789D01*
X103537640Y-115199795D01*
X103927828Y-115361815D01*
X104350318Y-115362184D01*
X104740789Y-115200845D01*
X105039795Y-114902360D01*
X105201815Y-114512172D01*
X105202175Y-114100000D01*
X107191125Y-114100000D01*
X107203885Y-114130882D01*
X107388148Y-114315467D01*
X107629021Y-114415486D01*
X107889835Y-114415714D01*
X108130882Y-114316115D01*
X108315467Y-114131852D01*
X108328693Y-114100000D01*
X114625000Y-114100000D01*
X114625000Y-127400000D01*
X109000000Y-127400000D01*
X108961094Y-127407879D01*
X108928319Y-127430273D01*
X108906839Y-127463654D01*
X108900000Y-127500000D01*
X108900000Y-129625000D01*
X83125000Y-129625000D01*
X83125000Y-127814914D01*
X84132874Y-127814914D01*
X84222664Y-127960289D01*
X84628769Y-128081340D01*
X85050286Y-128037768D01*
X85237336Y-127960289D01*
X85327126Y-127814914D01*
X84730000Y-127217789D01*
X84132874Y-127814914D01*
X83125000Y-127814914D01*
X83125000Y-126898769D01*
X83648660Y-126898769D01*
X83692232Y-127320286D01*
X83769711Y-127507336D01*
X83915086Y-127597126D01*
X84512211Y-127000000D01*
X84947789Y-127000000D01*
X85544914Y-127597126D01*
X85690289Y-127507336D01*
X85778823Y-127210318D01*
X86207816Y-127210318D01*
X86369155Y-127600789D01*
X86667640Y-127899795D01*
X87057828Y-128061815D01*
X87480318Y-128062184D01*
X87870789Y-127900845D01*
X88169795Y-127602360D01*
X88331815Y-127212172D01*
X88332184Y-126789682D01*
X88215650Y-126507647D01*
X93299793Y-126507647D01*
X93482097Y-126948857D01*
X93819367Y-127286717D01*
X94260258Y-127469791D01*
X94737647Y-127470207D01*
X95178857Y-127287903D01*
X95516717Y-126950633D01*
X95699791Y-126509742D01*
X95700207Y-126032353D01*
X95517903Y-125591143D01*
X95180633Y-125253283D01*
X94739742Y-125070209D01*
X94262353Y-125069793D01*
X93821143Y-125252097D01*
X93483283Y-125589367D01*
X93300209Y-126030258D01*
X93299793Y-126507647D01*
X88215650Y-126507647D01*
X88170845Y-126399211D01*
X87872360Y-126100205D01*
X87482172Y-125938185D01*
X87059682Y-125937816D01*
X86669211Y-126099155D01*
X86370205Y-126397640D01*
X86208185Y-126787828D01*
X86207816Y-127210318D01*
X85778823Y-127210318D01*
X85811340Y-127101231D01*
X85767768Y-126679714D01*
X85690289Y-126492664D01*
X85544914Y-126402874D01*
X84947789Y-127000000D01*
X84512211Y-127000000D01*
X83915086Y-126402874D01*
X83769711Y-126492664D01*
X83648660Y-126898769D01*
X83125000Y-126898769D01*
X83125000Y-126185086D01*
X84132874Y-126185086D01*
X84730000Y-126782211D01*
X85327126Y-126185086D01*
X85237336Y-126039711D01*
X84831231Y-125918660D01*
X84409714Y-125962232D01*
X84222664Y-126039711D01*
X84132874Y-126185086D01*
X83125000Y-126185086D01*
X83125000Y-124375000D01*
X87750000Y-124375000D01*
X87893506Y-124346455D01*
X88015165Y-124265165D01*
X88096455Y-124143506D01*
X88125000Y-124000000D01*
X88125000Y-123967647D01*
X93299793Y-123967647D01*
X93482097Y-124408857D01*
X93819367Y-124746717D01*
X94260258Y-124929791D01*
X94737647Y-124930207D01*
X95178857Y-124747903D01*
X95516717Y-124410633D01*
X95699791Y-123969742D01*
X95700207Y-123492353D01*
X95517903Y-123051143D01*
X95180633Y-122713283D01*
X94739742Y-122530209D01*
X94262353Y-122529793D01*
X93821143Y-122712097D01*
X93483283Y-123049367D01*
X93300209Y-123490258D01*
X93299793Y-123967647D01*
X88125000Y-123967647D01*
X88125000Y-122489835D01*
X95744286Y-122489835D01*
X95843885Y-122730882D01*
X96028148Y-122915467D01*
X96269021Y-123015486D01*
X96529835Y-123015714D01*
X96770882Y-122916115D01*
X96955467Y-122731852D01*
X97035072Y-122540141D01*
X97113885Y-122730882D01*
X97298148Y-122915467D01*
X97539021Y-123015486D01*
X97799835Y-123015714D01*
X98040882Y-122916115D01*
X98225467Y-122731852D01*
X98325486Y-122490979D01*
X98325714Y-122230165D01*
X98226115Y-121989118D01*
X98041852Y-121804533D01*
X97800979Y-121704514D01*
X97540165Y-121704286D01*
X97299118Y-121803885D01*
X97114533Y-121988148D01*
X97034928Y-122179859D01*
X96956115Y-121989118D01*
X96771852Y-121804533D01*
X96530979Y-121704514D01*
X96270165Y-121704286D01*
X96029118Y-121803885D01*
X95844533Y-121988148D01*
X95744514Y-122229021D01*
X95744286Y-122489835D01*
X88125000Y-122489835D01*
X88125000Y-121129835D01*
X97014286Y-121129835D01*
X97113885Y-121370882D01*
X97298148Y-121555467D01*
X97539021Y-121655486D01*
X97799835Y-121655714D01*
X98040882Y-121556115D01*
X98225467Y-121371852D01*
X98325486Y-121130979D01*
X98325714Y-120870165D01*
X98226115Y-120629118D01*
X98041852Y-120444533D01*
X97800979Y-120344514D01*
X97540165Y-120344286D01*
X97299118Y-120443885D01*
X97114533Y-120628148D01*
X97014514Y-120869021D01*
X97014286Y-121129835D01*
X88125000Y-121129835D01*
X88125000Y-118879835D01*
X89854286Y-118879835D01*
X89953885Y-119120882D01*
X90138148Y-119305467D01*
X90379021Y-119405486D01*
X90639835Y-119405714D01*
X90880882Y-119306115D01*
X91065467Y-119121852D01*
X91165486Y-118880979D01*
X91165714Y-118620165D01*
X91066115Y-118379118D01*
X90881852Y-118194533D01*
X90640979Y-118094514D01*
X90380165Y-118094286D01*
X90139118Y-118193885D01*
X89954533Y-118378148D01*
X89854514Y-118619021D01*
X89854286Y-118879835D01*
X88125000Y-118879835D01*
X88125000Y-117749835D01*
X97014286Y-117749835D01*
X97113885Y-117990882D01*
X97182841Y-118059959D01*
X97114533Y-118128148D01*
X97014514Y-118369021D01*
X97014286Y-118629835D01*
X97113885Y-118870882D01*
X97298148Y-119055467D01*
X97332935Y-119069912D01*
X97299118Y-119083885D01*
X97114533Y-119268148D01*
X97014514Y-119509021D01*
X97014286Y-119769835D01*
X97113885Y-120010882D01*
X97298148Y-120195467D01*
X97539021Y-120295486D01*
X97799835Y-120295714D01*
X98040882Y-120196115D01*
X98117295Y-120119835D01*
X101824286Y-120119835D01*
X101923885Y-120360882D01*
X102108148Y-120545467D01*
X102349021Y-120645486D01*
X102609835Y-120645714D01*
X102850882Y-120546115D01*
X103035467Y-120361852D01*
X103135486Y-120120979D01*
X103135714Y-119860165D01*
X103036115Y-119619118D01*
X102851852Y-119434533D01*
X102610979Y-119334514D01*
X102350165Y-119334286D01*
X102109118Y-119433885D01*
X101924533Y-119618148D01*
X101824514Y-119859021D01*
X101824286Y-120119835D01*
X98117295Y-120119835D01*
X98225467Y-120011852D01*
X98325486Y-119770979D01*
X98325714Y-119510165D01*
X98226115Y-119269118D01*
X98041852Y-119084533D01*
X98007065Y-119070088D01*
X98040882Y-119056115D01*
X98225467Y-118871852D01*
X98325486Y-118630979D01*
X98325714Y-118370165D01*
X98226115Y-118129118D01*
X98157159Y-118060041D01*
X98225467Y-117991852D01*
X98325486Y-117750979D01*
X98325714Y-117490165D01*
X98226115Y-117249118D01*
X98041852Y-117064533D01*
X98007619Y-117050318D01*
X103077816Y-117050318D01*
X103239155Y-117440789D01*
X103537640Y-117739795D01*
X103927828Y-117901815D01*
X104350318Y-117902184D01*
X104740789Y-117740845D01*
X105039795Y-117442360D01*
X105201815Y-117052172D01*
X105201816Y-117050318D01*
X105617816Y-117050318D01*
X105779155Y-117440789D01*
X106077640Y-117739795D01*
X106467828Y-117901815D01*
X106890318Y-117902184D01*
X107280789Y-117740845D01*
X107579795Y-117442360D01*
X107741815Y-117052172D01*
X107741816Y-117050318D01*
X108157816Y-117050318D01*
X108319155Y-117440789D01*
X108617640Y-117739795D01*
X109007828Y-117901815D01*
X109430318Y-117902184D01*
X109820789Y-117740845D01*
X110119795Y-117442360D01*
X110281815Y-117052172D01*
X110281816Y-117050318D01*
X110697816Y-117050318D01*
X110859155Y-117440789D01*
X111157640Y-117739795D01*
X111547828Y-117901815D01*
X111970318Y-117902184D01*
X112360789Y-117740845D01*
X112659795Y-117442360D01*
X112821815Y-117052172D01*
X112822184Y-116629682D01*
X112660845Y-116239211D01*
X112362360Y-115940205D01*
X111972172Y-115778185D01*
X111549682Y-115777816D01*
X111159211Y-115939155D01*
X110860205Y-116237640D01*
X110698185Y-116627828D01*
X110697816Y-117050318D01*
X110281816Y-117050318D01*
X110282184Y-116629682D01*
X110120845Y-116239211D01*
X109822360Y-115940205D01*
X109432172Y-115778185D01*
X109009682Y-115777816D01*
X108619211Y-115939155D01*
X108320205Y-116237640D01*
X108158185Y-116627828D01*
X108157816Y-117050318D01*
X107741816Y-117050318D01*
X107742184Y-116629682D01*
X107580845Y-116239211D01*
X107282360Y-115940205D01*
X106892172Y-115778185D01*
X106469682Y-115777816D01*
X106079211Y-115939155D01*
X105780205Y-116237640D01*
X105618185Y-116627828D01*
X105617816Y-117050318D01*
X105201816Y-117050318D01*
X105202184Y-116629682D01*
X105040845Y-116239211D01*
X104742360Y-115940205D01*
X104352172Y-115778185D01*
X103929682Y-115777816D01*
X103539211Y-115939155D01*
X103240205Y-116237640D01*
X103078185Y-116627828D01*
X103077816Y-117050318D01*
X98007619Y-117050318D01*
X97800979Y-116964514D01*
X97540165Y-116964286D01*
X97299118Y-117063885D01*
X97114533Y-117248148D01*
X97014514Y-117489021D01*
X97014286Y-117749835D01*
X88125000Y-117749835D01*
X88125000Y-116129835D01*
X94794286Y-116129835D01*
X94893885Y-116370882D01*
X95078148Y-116555467D01*
X95319021Y-116655486D01*
X95579835Y-116655714D01*
X95820882Y-116556115D01*
X96005467Y-116371852D01*
X96105486Y-116130979D01*
X96105714Y-115870165D01*
X96006115Y-115629118D01*
X95821852Y-115444533D01*
X95580979Y-115344514D01*
X95320165Y-115344286D01*
X95079118Y-115443885D01*
X94894533Y-115628148D01*
X94794514Y-115869021D01*
X94794286Y-116129835D01*
X88125000Y-116129835D01*
X88125000Y-113809835D01*
X89844286Y-113809835D01*
X89943885Y-114050882D01*
X90128148Y-114235467D01*
X90369021Y-114335486D01*
X90629835Y-114335714D01*
X90870882Y-114236115D01*
X91055467Y-114051852D01*
X91155486Y-113810979D01*
X91155714Y-113550165D01*
X91056115Y-113309118D01*
X90871852Y-113124533D01*
X90630979Y-113024514D01*
X90370165Y-113024286D01*
X90129118Y-113123885D01*
X89944533Y-113308148D01*
X89844514Y-113549021D01*
X89844286Y-113809835D01*
X88125000Y-113809835D01*
X88125000Y-112629835D01*
X93994286Y-112629835D01*
X94093885Y-112870882D01*
X94278148Y-113055467D01*
X94519021Y-113155486D01*
X94779835Y-113155714D01*
X95020882Y-113056115D01*
X95205467Y-112871852D01*
X95305486Y-112630979D01*
X95305714Y-112370165D01*
X95206115Y-112129118D01*
X95021852Y-111944533D01*
X94780979Y-111844514D01*
X94520165Y-111844286D01*
X94279118Y-111943885D01*
X94094533Y-112128148D01*
X93994514Y-112369021D01*
X93994286Y-112629835D01*
X88125000Y-112629835D01*
X88125000Y-110779835D01*
X89844286Y-110779835D01*
X89943885Y-111020882D01*
X90128148Y-111205467D01*
X90369021Y-111305486D01*
X90629835Y-111305714D01*
X90870882Y-111206115D01*
X91055467Y-111021852D01*
X91155486Y-110780979D01*
X91155714Y-110520165D01*
X91056115Y-110279118D01*
X90871852Y-110094533D01*
X90630979Y-109994514D01*
X90370165Y-109994286D01*
X90129118Y-110093885D01*
X89944533Y-110278148D01*
X89844514Y-110519021D01*
X89844286Y-110779835D01*
X88125000Y-110779835D01*
X88125000Y-105129835D01*
X92344286Y-105129835D01*
X92443885Y-105370882D01*
X92628148Y-105555467D01*
X92869021Y-105655486D01*
X93129835Y-105655714D01*
X93370882Y-105556115D01*
X93555467Y-105371852D01*
X93655486Y-105130979D01*
X93655714Y-104870165D01*
X93556115Y-104629118D01*
X93371852Y-104444533D01*
X93130979Y-104344514D01*
X92870165Y-104344286D01*
X92629118Y-104443885D01*
X92444533Y-104628148D01*
X92344514Y-104869021D01*
X92344286Y-105129835D01*
X88125000Y-105129835D01*
X88125000Y-99519835D01*
X92344286Y-99519835D01*
X92443885Y-99760882D01*
X92628148Y-99945467D01*
X92869021Y-100045486D01*
X93129835Y-100045714D01*
X93370882Y-99946115D01*
X93555467Y-99761852D01*
X93655486Y-99520979D01*
X93655714Y-99260165D01*
X93556115Y-99019118D01*
X93371852Y-98834533D01*
X93130979Y-98734514D01*
X92870165Y-98734286D01*
X92629118Y-98833885D01*
X92444533Y-99018148D01*
X92344514Y-99259021D01*
X92344286Y-99519835D01*
X88125000Y-99519835D01*
X88125000Y-94217647D01*
X115639793Y-94217647D01*
X115822097Y-94658857D01*
X116159367Y-94996717D01*
X116600258Y-95179791D01*
X117077647Y-95180207D01*
X117518857Y-94997903D01*
X117856717Y-94660633D01*
X118039791Y-94219742D01*
X118039792Y-94217647D01*
X118179793Y-94217647D01*
X118362097Y-94658857D01*
X118699367Y-94996717D01*
X119140258Y-95179791D01*
X119617647Y-95180207D01*
X120058857Y-94997903D01*
X120396717Y-94660633D01*
X120579791Y-94219742D01*
X120580207Y-93742353D01*
X120397903Y-93301143D01*
X120060633Y-92963283D01*
X119619742Y-92780209D01*
X119142353Y-92779793D01*
X118701143Y-92962097D01*
X118363283Y-93299367D01*
X118180209Y-93740258D01*
X118179793Y-94217647D01*
X118039792Y-94217647D01*
X118040207Y-93742353D01*
X117857903Y-93301143D01*
X117520633Y-92963283D01*
X117079742Y-92780209D01*
X116602353Y-92779793D01*
X116161143Y-92962097D01*
X115823283Y-93299367D01*
X115640209Y-93740258D01*
X115639793Y-94217647D01*
X88125000Y-94217647D01*
X88125000Y-89410318D01*
X142687816Y-89410318D01*
X142849155Y-89800789D01*
X143147640Y-90099795D01*
X143537828Y-90261815D01*
X143960318Y-90262184D01*
X144350789Y-90100845D01*
X144649795Y-89802360D01*
X144811815Y-89412172D01*
X144811816Y-89410318D01*
X145187816Y-89410318D01*
X145349155Y-89800789D01*
X145647640Y-90099795D01*
X146037828Y-90261815D01*
X146460318Y-90262184D01*
X146850789Y-90100845D01*
X147149795Y-89802360D01*
X147311815Y-89412172D01*
X147312184Y-88989682D01*
X147150845Y-88599211D01*
X146852360Y-88300205D01*
X146462172Y-88138185D01*
X146039682Y-88137816D01*
X145649211Y-88299155D01*
X145350205Y-88597640D01*
X145188185Y-88987828D01*
X145187816Y-89410318D01*
X144811816Y-89410318D01*
X144812184Y-88989682D01*
X144650845Y-88599211D01*
X144352360Y-88300205D01*
X143962172Y-88138185D01*
X143539682Y-88137816D01*
X143149211Y-88299155D01*
X142850205Y-88597640D01*
X142688185Y-88987828D01*
X142687816Y-89410318D01*
X88125000Y-89410318D01*
X88125000Y-86000000D01*
X88096455Y-85856494D01*
X88015165Y-85734835D01*
X87893506Y-85653545D01*
X87750000Y-85625000D01*
X83125000Y-85625000D01*
X83125000Y-85117746D01*
X116849801Y-85117746D01*
X117024509Y-85540572D01*
X117347727Y-85864354D01*
X117770247Y-86039800D01*
X118227746Y-86040199D01*
X118650572Y-85865491D01*
X118974354Y-85542273D01*
X118999846Y-85480882D01*
X119024509Y-85540572D01*
X119347727Y-85864354D01*
X119770247Y-86039800D01*
X120227746Y-86040199D01*
X120650572Y-85865491D01*
X120974354Y-85542273D01*
X120999846Y-85480882D01*
X121024509Y-85540572D01*
X121347727Y-85864354D01*
X121770247Y-86039800D01*
X122227746Y-86040199D01*
X122650572Y-85865491D01*
X122974354Y-85542273D01*
X123149800Y-85119753D01*
X123150199Y-84662254D01*
X122975491Y-84239428D01*
X122652273Y-83915646D01*
X122229753Y-83740200D01*
X121772254Y-83739801D01*
X121349428Y-83914509D01*
X121025646Y-84237727D01*
X121000154Y-84299118D01*
X120975491Y-84239428D01*
X120652273Y-83915646D01*
X120229753Y-83740200D01*
X119772254Y-83739801D01*
X119349428Y-83914509D01*
X119025646Y-84237727D01*
X119000154Y-84299118D01*
X118975491Y-84239428D01*
X118652273Y-83915646D01*
X118229753Y-83740200D01*
X117772254Y-83739801D01*
X117349428Y-83914509D01*
X117025646Y-84237727D01*
X116850200Y-84660247D01*
X116849801Y-85117746D01*
X83125000Y-85117746D01*
X83125000Y-83814914D01*
X84132874Y-83814914D01*
X84222664Y-83960289D01*
X84628769Y-84081340D01*
X85050286Y-84037768D01*
X85237336Y-83960289D01*
X85327126Y-83814914D01*
X84730000Y-83217789D01*
X84132874Y-83814914D01*
X83125000Y-83814914D01*
X83125000Y-82898769D01*
X83648660Y-82898769D01*
X83692232Y-83320286D01*
X83769711Y-83507336D01*
X83915086Y-83597126D01*
X84512211Y-83000000D01*
X84947789Y-83000000D01*
X85544914Y-83597126D01*
X85690289Y-83507336D01*
X85778823Y-83210318D01*
X86207816Y-83210318D01*
X86369155Y-83600789D01*
X86667640Y-83899795D01*
X87057828Y-84061815D01*
X87480318Y-84062184D01*
X87870789Y-83900845D01*
X88169795Y-83602360D01*
X88331815Y-83212172D01*
X88332184Y-82789682D01*
X88294278Y-82697942D01*
X114949818Y-82697942D01*
X115109334Y-83084000D01*
X115404446Y-83379628D01*
X115790226Y-83539818D01*
X116207942Y-83540182D01*
X116594000Y-83380666D01*
X116889628Y-83085554D01*
X117049818Y-82699774D01*
X117049819Y-82697942D01*
X122949818Y-82697942D01*
X123109334Y-83084000D01*
X123404446Y-83379628D01*
X123790226Y-83539818D01*
X124207942Y-83540182D01*
X124594000Y-83380666D01*
X124737269Y-83237647D01*
X200119793Y-83237647D01*
X200302097Y-83678857D01*
X200639367Y-84016717D01*
X201080258Y-84199791D01*
X201557647Y-84200207D01*
X201998857Y-84017903D01*
X202336717Y-83680633D01*
X202519791Y-83239742D01*
X202519792Y-83237647D01*
X202689793Y-83237647D01*
X202872097Y-83678857D01*
X203209367Y-84016717D01*
X203650258Y-84199791D01*
X204127647Y-84200207D01*
X204568857Y-84017903D01*
X204671502Y-83915437D01*
X205732352Y-83915437D01*
X205839214Y-84075147D01*
X206295626Y-84219391D01*
X206772496Y-84177993D01*
X207020786Y-84075147D01*
X207127648Y-83915437D01*
X206430000Y-83217789D01*
X205732352Y-83915437D01*
X204671502Y-83915437D01*
X204906717Y-83680633D01*
X205089791Y-83239742D01*
X205090117Y-82865626D01*
X205210609Y-82865626D01*
X205252007Y-83342496D01*
X205354853Y-83590786D01*
X205514563Y-83697648D01*
X206212211Y-83000000D01*
X206647789Y-83000000D01*
X207345437Y-83697648D01*
X207505147Y-83590786D01*
X207649391Y-83134374D01*
X207607993Y-82657504D01*
X207505147Y-82409214D01*
X207345437Y-82302352D01*
X206647789Y-83000000D01*
X206212211Y-83000000D01*
X205514563Y-82302352D01*
X205354853Y-82409214D01*
X205210609Y-82865626D01*
X205090117Y-82865626D01*
X205090207Y-82762353D01*
X204907903Y-82321143D01*
X204671737Y-82084563D01*
X205732352Y-82084563D01*
X206430000Y-82782211D01*
X207127648Y-82084563D01*
X207020786Y-81924853D01*
X206564374Y-81780609D01*
X206087504Y-81822007D01*
X205839214Y-81924853D01*
X205732352Y-82084563D01*
X204671737Y-82084563D01*
X204570633Y-81983283D01*
X204129742Y-81800209D01*
X203652353Y-81799793D01*
X203211143Y-81982097D01*
X202873283Y-82319367D01*
X202690209Y-82760258D01*
X202689793Y-83237647D01*
X202519792Y-83237647D01*
X202520207Y-82762353D01*
X202337903Y-82321143D01*
X202000633Y-81983283D01*
X201559742Y-81800209D01*
X201082353Y-81799793D01*
X200641143Y-81982097D01*
X200303283Y-82319367D01*
X200120209Y-82760258D01*
X200119793Y-83237647D01*
X124737269Y-83237647D01*
X124889628Y-83085554D01*
X125049818Y-82699774D01*
X125050182Y-82282058D01*
X124890666Y-81896000D01*
X124595554Y-81600372D01*
X124209774Y-81440182D01*
X123792058Y-81439818D01*
X123406000Y-81599334D01*
X123110372Y-81894446D01*
X122950182Y-82280226D01*
X122949818Y-82697942D01*
X117049819Y-82697942D01*
X117050182Y-82282058D01*
X116890666Y-81896000D01*
X116595554Y-81600372D01*
X116209774Y-81440182D01*
X115792058Y-81439818D01*
X115406000Y-81599334D01*
X115110372Y-81894446D01*
X114950182Y-82280226D01*
X114949818Y-82697942D01*
X88294278Y-82697942D01*
X88170845Y-82399211D01*
X87872360Y-82100205D01*
X87482172Y-81938185D01*
X87059682Y-81937816D01*
X86669211Y-82099155D01*
X86370205Y-82397640D01*
X86208185Y-82787828D01*
X86207816Y-83210318D01*
X85778823Y-83210318D01*
X85811340Y-83101231D01*
X85767768Y-82679714D01*
X85690289Y-82492664D01*
X85544914Y-82402874D01*
X84947789Y-83000000D01*
X84512211Y-83000000D01*
X83915086Y-82402874D01*
X83769711Y-82492664D01*
X83648660Y-82898769D01*
X83125000Y-82898769D01*
X83125000Y-82185086D01*
X84132874Y-82185086D01*
X84730000Y-82782211D01*
X85327126Y-82185086D01*
X85237336Y-82039711D01*
X84831231Y-81918660D01*
X84409714Y-81962232D01*
X84222664Y-82039711D01*
X84132874Y-82185086D01*
X83125000Y-82185086D01*
X83125000Y-80375000D01*
X151022944Y-80375000D01*
X150691143Y-80512097D01*
X150691143Y-80512097D01*
G37*
X150691143Y-80512097D02*
X150353283Y-80849367D01*
X150170209Y-81290258D01*
X150169793Y-81767647D01*
X150352097Y-82208857D01*
X150689367Y-82546717D01*
X151130258Y-82729791D01*
X151607647Y-82730207D01*
X152048857Y-82547903D01*
X152386717Y-82210633D01*
X152569791Y-81769742D01*
X152570207Y-81292353D01*
X152387903Y-80851143D01*
X152050633Y-80513283D01*
X151717611Y-80375000D01*
X153822944Y-80375000D01*
X153491143Y-80512097D01*
X153153283Y-80849367D01*
X152970209Y-81290258D01*
X152969793Y-81767647D01*
X153152097Y-82208857D01*
X153489367Y-82546717D01*
X153930258Y-82729791D01*
X154407647Y-82730207D01*
X154848857Y-82547903D01*
X155186717Y-82210633D01*
X155369791Y-81769742D01*
X155370207Y-81292353D01*
X155187903Y-80851143D01*
X154850633Y-80513283D01*
X154517611Y-80375000D01*
X156622944Y-80375000D01*
X156291143Y-80512097D01*
X155953283Y-80849367D01*
X155770209Y-81290258D01*
X155769793Y-81767647D01*
X155952097Y-82208857D01*
X156289367Y-82546717D01*
X156730258Y-82729791D01*
X157207647Y-82730207D01*
X157648857Y-82547903D01*
X157986717Y-82210633D01*
X158169791Y-81769742D01*
X158170207Y-81292353D01*
X157987903Y-80851143D01*
X157650633Y-80513283D01*
X157317611Y-80375000D01*
X159422944Y-80375000D01*
X159091143Y-80512097D01*
X158753283Y-80849367D01*
X158570209Y-81290258D01*
X158569793Y-81767647D01*
X158752097Y-82208857D01*
X159089367Y-82546717D01*
X159530258Y-82729791D01*
X160007647Y-82730207D01*
X160448857Y-82547903D01*
X160786717Y-82210633D01*
X160969791Y-81769742D01*
X160970207Y-81292353D01*
X160787903Y-80851143D01*
X160450633Y-80513283D01*
X160117611Y-80375000D01*
X162131934Y-80375000D01*
X161921143Y-80462097D01*
X161583283Y-80799367D01*
X161400209Y-81240258D01*
X161399793Y-81717647D01*
X161582097Y-82158857D01*
X161919367Y-82496717D01*
X162360258Y-82679791D01*
X162837647Y-82680207D01*
X163278857Y-82497903D01*
X163616717Y-82160633D01*
X163792233Y-81737942D01*
X164199818Y-81737942D01*
X164359334Y-82124000D01*
X164654446Y-82419628D01*
X165040226Y-82579818D01*
X165457942Y-82580182D01*
X165844000Y-82420666D01*
X166139628Y-82125554D01*
X166174889Y-82040636D01*
X166209334Y-82124000D01*
X166504446Y-82419628D01*
X166890226Y-82579818D01*
X167307942Y-82580182D01*
X167694000Y-82420666D01*
X167778655Y-82336158D01*
X168361631Y-82336158D01*
X168449930Y-82480288D01*
X168851655Y-82599320D01*
X169268352Y-82555558D01*
X169450070Y-82480288D01*
X169538369Y-82336158D01*
X168950000Y-81747789D01*
X168361631Y-82336158D01*
X167778655Y-82336158D01*
X167989628Y-82125554D01*
X168023281Y-82044509D01*
X168143842Y-82118369D01*
X168732211Y-81530000D01*
X169167789Y-81530000D01*
X169756158Y-82118369D01*
X169876535Y-82044622D01*
X169909334Y-82124000D01*
X170204446Y-82419628D01*
X170590226Y-82579818D01*
X171007942Y-82580182D01*
X171394000Y-82420666D01*
X171689628Y-82125554D01*
X171849818Y-81739774D01*
X171850182Y-81322058D01*
X171690666Y-80936000D01*
X171395554Y-80640372D01*
X171009774Y-80480182D01*
X170592058Y-80479818D01*
X170206000Y-80639334D01*
X169910372Y-80934446D01*
X169876719Y-81015491D01*
X169756158Y-80941631D01*
X169167789Y-81530000D01*
X168732211Y-81530000D01*
X168143842Y-80941631D01*
X168023465Y-81015378D01*
X167990666Y-80936000D01*
X167778879Y-80723842D01*
X168361631Y-80723842D01*
X168950000Y-81312211D01*
X169538369Y-80723842D01*
X169450070Y-80579712D01*
X169048345Y-80460680D01*
X168631648Y-80504442D01*
X168449930Y-80579712D01*
X168361631Y-80723842D01*
X167778879Y-80723842D01*
X167695554Y-80640372D01*
X167309774Y-80480182D01*
X166892058Y-80479818D01*
X166506000Y-80639334D01*
X166210372Y-80934446D01*
X166175111Y-81019364D01*
X166140666Y-80936000D01*
X165845554Y-80640372D01*
X165459774Y-80480182D01*
X165042058Y-80479818D01*
X164656000Y-80639334D01*
X164360372Y-80934446D01*
X164200182Y-81320226D01*
X164199818Y-81737942D01*
X163792233Y-81737942D01*
X163799791Y-81719742D01*
X163800207Y-81242353D01*
X163617903Y-80801143D01*
X163280633Y-80463283D01*
X163068024Y-80375000D01*
X212959689Y-80375000D01*
X213749822Y-82277456D01*
X209765456Y-83931456D01*
X210016717Y-83680633D01*
X210199791Y-83239742D01*
X210200207Y-82762353D01*
X210017903Y-82321143D01*
X209680633Y-81983283D01*
X209239742Y-81800209D01*
X208762353Y-81799793D01*
X208321143Y-81982097D01*
X207983283Y-82319367D01*
X207800209Y-82760258D01*
X207799793Y-83237647D01*
X207982097Y-83678857D01*
X208319367Y-84016717D01*
X208760258Y-84199791D01*
X209118303Y-84200103D01*
X200606496Y-87733545D01*
X200606494Y-87733545D01*
X200606493Y-87733546D01*
X200606225Y-87733657D01*
X200545554Y-87774264D01*
X200484835Y-87814835D01*
X200484753Y-87814958D01*
X200484630Y-87815040D01*
X200444047Y-87875879D01*
X200403545Y-87936494D01*
X200403516Y-87936639D01*
X200403434Y-87936762D01*
X200389241Y-88008408D01*
X200375000Y-88080000D01*
X200375000Y-121920000D01*
X200389241Y-121991592D01*
X200403434Y-122063238D01*
X200403516Y-122063361D01*
X200403545Y-122063506D01*
X200444047Y-122124121D01*
X200484630Y-122184960D01*
X200484753Y-122185042D01*
X200484835Y-122185165D01*
X200545554Y-122225736D01*
X200606225Y-122266343D01*
X200606493Y-122266454D01*
X200606494Y-122266455D01*
X200606496Y-122266455D01*
X209118801Y-125800104D01*
X208762353Y-125799793D01*
X208321143Y-125982097D01*
X207983283Y-126319367D01*
X207800209Y-126760258D01*
X207799793Y-127237647D01*
X207982097Y-127678857D01*
X208319367Y-128016717D01*
X208760258Y-128199791D01*
X209237647Y-128200207D01*
X209678857Y-128017903D01*
X210016717Y-127680633D01*
X210199791Y-127239742D01*
X210200207Y-126762353D01*
X210017903Y-126321143D01*
X209765951Y-126068750D01*
X213749822Y-127722544D01*
X212959689Y-129625000D01*
X182875000Y-129625000D01*
X182875000Y-113850000D01*
X183260210Y-113850000D01*
X185617600Y-116207390D01*
X185617600Y-125345261D01*
X185514533Y-125448148D01*
X185414514Y-125689021D01*
X185414286Y-125949835D01*
X185513885Y-126190882D01*
X185617841Y-126295020D01*
X185514533Y-126398148D01*
X185414514Y-126639021D01*
X185414286Y-126899835D01*
X185513885Y-127140882D01*
X185698148Y-127325467D01*
X185939021Y-127425486D01*
X186199835Y-127425714D01*
X186440882Y-127326115D01*
X186625467Y-127141852D01*
X186725486Y-126900979D01*
X186725714Y-126640165D01*
X186626115Y-126399118D01*
X186522159Y-126294980D01*
X186544778Y-126272400D01*
X187552610Y-126272400D01*
X188370105Y-127089895D01*
X188516874Y-127187963D01*
X188690000Y-127222400D01*
X190465261Y-127222400D01*
X190568148Y-127325467D01*
X190809021Y-127425486D01*
X191069835Y-127425714D01*
X191310882Y-127326115D01*
X191399504Y-127237647D01*
X200119793Y-127237647D01*
X200302097Y-127678857D01*
X200639367Y-128016717D01*
X201080258Y-128199791D01*
X201557647Y-128200207D01*
X201998857Y-128017903D01*
X202336717Y-127680633D01*
X202519791Y-127239742D01*
X202519792Y-127237647D01*
X202689793Y-127237647D01*
X202872097Y-127678857D01*
X203209367Y-128016717D01*
X203650258Y-128199791D01*
X204127647Y-128200207D01*
X204568857Y-128017903D01*
X204671502Y-127915437D01*
X205732352Y-127915437D01*
X205839214Y-128075147D01*
X206295626Y-128219391D01*
X206772496Y-128177993D01*
X207020786Y-128075147D01*
X207127648Y-127915437D01*
X206430000Y-127217789D01*
X205732352Y-127915437D01*
X204671502Y-127915437D01*
X204906717Y-127680633D01*
X205089791Y-127239742D01*
X205090117Y-126865626D01*
X205210609Y-126865626D01*
X205252007Y-127342496D01*
X205354853Y-127590786D01*
X205514563Y-127697648D01*
X206212211Y-127000000D01*
X206647789Y-127000000D01*
X207345437Y-127697648D01*
X207505147Y-127590786D01*
X207649391Y-127134374D01*
X207607993Y-126657504D01*
X207505147Y-126409214D01*
X207345437Y-126302352D01*
X206647789Y-127000000D01*
X206212211Y-127000000D01*
X205514563Y-126302352D01*
X205354853Y-126409214D01*
X205210609Y-126865626D01*
X205090117Y-126865626D01*
X205090207Y-126762353D01*
X204907903Y-126321143D01*
X204671737Y-126084563D01*
X205732352Y-126084563D01*
X206430000Y-126782211D01*
X207127648Y-126084563D01*
X207020786Y-125924853D01*
X206564374Y-125780609D01*
X206087504Y-125822007D01*
X205839214Y-125924853D01*
X205732352Y-126084563D01*
X204671737Y-126084563D01*
X204570633Y-125983283D01*
X204129742Y-125800209D01*
X203652353Y-125799793D01*
X203211143Y-125982097D01*
X202873283Y-126319367D01*
X202690209Y-126760258D01*
X202689793Y-127237647D01*
X202519792Y-127237647D01*
X202520207Y-126762353D01*
X202337903Y-126321143D01*
X202000633Y-125983283D01*
X201559742Y-125800209D01*
X201082353Y-125799793D01*
X200641143Y-125982097D01*
X200303283Y-126319367D01*
X200120209Y-126760258D01*
X200119793Y-127237647D01*
X191399504Y-127237647D01*
X191495467Y-127141852D01*
X191595486Y-126900979D01*
X191595714Y-126640165D01*
X191496115Y-126399118D01*
X191311852Y-126214533D01*
X191070979Y-126114514D01*
X190810165Y-126114286D01*
X190569118Y-126213885D01*
X190465222Y-126317600D01*
X188877390Y-126317600D01*
X188059895Y-125500105D01*
X187913126Y-125402037D01*
X187740000Y-125367600D01*
X186544739Y-125367600D01*
X186522400Y-125345222D01*
X186522400Y-116020000D01*
X186487963Y-115846874D01*
X186389895Y-115700105D01*
X184539790Y-113850000D01*
X189250000Y-113850000D01*
X189288906Y-113842121D01*
X189321681Y-113819727D01*
X189343161Y-113786346D01*
X189350000Y-113750000D01*
X189350000Y-110039878D01*
X189549513Y-109559398D01*
X189550485Y-108445489D01*
X189350000Y-107960279D01*
X189350000Y-104350318D01*
X194517816Y-104350318D01*
X194679155Y-104740789D01*
X194977640Y-105039795D01*
X195367828Y-105201815D01*
X195790318Y-105202184D01*
X196180789Y-105040845D01*
X196479795Y-104742360D01*
X196641815Y-104352172D01*
X196642184Y-103929682D01*
X196480845Y-103539211D01*
X196182360Y-103240205D01*
X195792172Y-103078185D01*
X195369682Y-103077816D01*
X194979211Y-103239155D01*
X194680205Y-103537640D01*
X194518185Y-103927828D01*
X194517816Y-104350318D01*
X189350000Y-104350318D01*
X189350000Y-102039878D01*
X189549513Y-101559398D01*
X189550485Y-100445489D01*
X189350000Y-99960279D01*
X189350000Y-96000000D01*
X189342121Y-95961094D01*
X189319727Y-95928319D01*
X189286346Y-95906839D01*
X189250000Y-95900000D01*
X147167588Y-95900000D01*
X147175486Y-95880979D01*
X147175714Y-95620165D01*
X147076115Y-95379118D01*
X146891852Y-95194533D01*
X146650979Y-95094514D01*
X146390165Y-95094286D01*
X146149118Y-95193885D01*
X145964533Y-95378148D01*
X145864514Y-95619021D01*
X145864286Y-95879835D01*
X145872618Y-95900000D01*
X137899157Y-95900000D01*
X138218857Y-95767903D01*
X138556717Y-95430633D01*
X138739791Y-94989742D01*
X138739886Y-94879835D01*
X142444286Y-94879835D01*
X142543885Y-95120882D01*
X142728148Y-95305467D01*
X142969021Y-95405486D01*
X143229835Y-95405714D01*
X143470882Y-95306115D01*
X143655467Y-95121852D01*
X143755486Y-94880979D01*
X143755714Y-94620165D01*
X143656115Y-94379118D01*
X143471852Y-94194533D01*
X143230979Y-94094514D01*
X142970165Y-94094286D01*
X142729118Y-94193885D01*
X142544533Y-94378148D01*
X142444514Y-94619021D01*
X142444286Y-94879835D01*
X138739886Y-94879835D01*
X138740207Y-94512353D01*
X138557903Y-94071143D01*
X138220633Y-93733283D01*
X137779742Y-93550209D01*
X137302353Y-93549793D01*
X136861143Y-93732097D01*
X136523283Y-94069367D01*
X136340209Y-94510258D01*
X136339793Y-94987647D01*
X136522097Y-95428857D01*
X136859367Y-95766717D01*
X137180348Y-95900000D01*
X135410076Y-95900000D01*
X135590786Y-95825147D01*
X135697648Y-95665437D01*
X135000000Y-94967789D01*
X134302352Y-95665437D01*
X134409214Y-95825147D01*
X134646061Y-95900000D01*
X132819157Y-95900000D01*
X133138857Y-95767903D01*
X133476717Y-95430633D01*
X133659791Y-94989742D01*
X133660117Y-94615626D01*
X133780609Y-94615626D01*
X133822007Y-95092496D01*
X133924853Y-95340786D01*
X134084563Y-95447648D01*
X134782211Y-94750000D01*
X135217789Y-94750000D01*
X135915437Y-95447648D01*
X136075147Y-95340786D01*
X136219391Y-94884374D01*
X136177993Y-94407504D01*
X136075147Y-94159214D01*
X135915437Y-94052352D01*
X135217789Y-94750000D01*
X134782211Y-94750000D01*
X134084563Y-94052352D01*
X133924853Y-94159214D01*
X133780609Y-94615626D01*
X133660117Y-94615626D01*
X133660207Y-94512353D01*
X133477903Y-94071143D01*
X133241737Y-93834563D01*
X134302352Y-93834563D01*
X135000000Y-94532211D01*
X135697648Y-93834563D01*
X135590786Y-93674853D01*
X135134374Y-93530609D01*
X134657504Y-93572007D01*
X134409214Y-93674853D01*
X134302352Y-93834563D01*
X133241737Y-93834563D01*
X133140633Y-93733283D01*
X132699742Y-93550209D01*
X132222353Y-93549793D01*
X131781143Y-93732097D01*
X131443283Y-94069367D01*
X131260209Y-94510258D01*
X131259793Y-94987647D01*
X131442097Y-95428857D01*
X131779367Y-95766717D01*
X132100348Y-95900000D01*
X127364604Y-95900000D01*
X127230979Y-95844514D01*
X126970165Y-95844286D01*
X126835327Y-95900000D01*
X122861632Y-95900000D01*
X122423200Y-95461568D01*
X122423200Y-95070483D01*
X122598857Y-94997903D01*
X122936717Y-94660633D01*
X123119791Y-94219742D01*
X123119816Y-94190318D01*
X125937816Y-94190318D01*
X126099155Y-94580789D01*
X126397640Y-94879795D01*
X126787828Y-95041815D01*
X127210318Y-95042184D01*
X127600789Y-94880845D01*
X127899795Y-94582360D01*
X128061815Y-94192172D01*
X128062184Y-93769682D01*
X127900845Y-93379211D01*
X127602360Y-93080205D01*
X127212172Y-92918185D01*
X126789682Y-92917816D01*
X126399211Y-93079155D01*
X126100205Y-93377640D01*
X125938185Y-93767828D01*
X125937816Y-94190318D01*
X123119816Y-94190318D01*
X123120207Y-93742353D01*
X122937903Y-93301143D01*
X122600633Y-92963283D01*
X122447834Y-92899835D01*
X128084286Y-92899835D01*
X128183885Y-93140882D01*
X128368148Y-93325467D01*
X128609021Y-93425486D01*
X128869835Y-93425714D01*
X129110882Y-93326115D01*
X129295467Y-93141852D01*
X129395486Y-92900979D01*
X129395714Y-92640165D01*
X129296115Y-92399118D01*
X129111852Y-92214533D01*
X128870979Y-92114514D01*
X128610165Y-92114286D01*
X128369118Y-92213885D01*
X128184533Y-92398148D01*
X128084514Y-92639021D01*
X128084286Y-92899835D01*
X122447834Y-92899835D01*
X122159742Y-92780209D01*
X121682353Y-92779793D01*
X121241143Y-92962097D01*
X120903283Y-93299367D01*
X120720209Y-93740258D01*
X120719793Y-94217647D01*
X120902097Y-94658857D01*
X121239367Y-94996717D01*
X121416800Y-95070394D01*
X121416800Y-95670000D01*
X121455104Y-95862566D01*
X121480117Y-95900000D01*
X95500000Y-95900000D01*
X95461094Y-95907879D01*
X95428319Y-95930273D01*
X95406839Y-95963654D01*
X95400000Y-96000000D01*
X95400000Y-114000000D01*
X95407879Y-114038906D01*
X95430273Y-114071681D01*
X95463654Y-114093161D01*
X95500000Y-114100000D01*
X103078174Y-114100000D01*
X103077816Y-114510318D01*
X103239155Y-114900789D01*
X103537640Y-115199795D01*
X103927828Y-115361815D01*
X104350318Y-115362184D01*
X104740789Y-115200845D01*
X105039795Y-114902360D01*
X105201815Y-114512172D01*
X105202175Y-114100000D01*
X107191125Y-114100000D01*
X107203885Y-114130882D01*
X107388148Y-114315467D01*
X107629021Y-114415486D01*
X107889835Y-114415714D01*
X108130882Y-114316115D01*
X108315467Y-114131852D01*
X108328693Y-114100000D01*
X114625000Y-114100000D01*
X114625000Y-127400000D01*
X109000000Y-127400000D01*
X108961094Y-127407879D01*
X108928319Y-127430273D01*
X108906839Y-127463654D01*
X108900000Y-127500000D01*
X108900000Y-129625000D01*
X83125000Y-129625000D01*
X83125000Y-127814914D01*
X84132874Y-127814914D01*
X84222664Y-127960289D01*
X84628769Y-128081340D01*
X85050286Y-128037768D01*
X85237336Y-127960289D01*
X85327126Y-127814914D01*
X84730000Y-127217789D01*
X84132874Y-127814914D01*
X83125000Y-127814914D01*
X83125000Y-126898769D01*
X83648660Y-126898769D01*
X83692232Y-127320286D01*
X83769711Y-127507336D01*
X83915086Y-127597126D01*
X84512211Y-127000000D01*
X84947789Y-127000000D01*
X85544914Y-127597126D01*
X85690289Y-127507336D01*
X85778823Y-127210318D01*
X86207816Y-127210318D01*
X86369155Y-127600789D01*
X86667640Y-127899795D01*
X87057828Y-128061815D01*
X87480318Y-128062184D01*
X87870789Y-127900845D01*
X88169795Y-127602360D01*
X88331815Y-127212172D01*
X88332184Y-126789682D01*
X88215650Y-126507647D01*
X93299793Y-126507647D01*
X93482097Y-126948857D01*
X93819367Y-127286717D01*
X94260258Y-127469791D01*
X94737647Y-127470207D01*
X95178857Y-127287903D01*
X95516717Y-126950633D01*
X95699791Y-126509742D01*
X95700207Y-126032353D01*
X95517903Y-125591143D01*
X95180633Y-125253283D01*
X94739742Y-125070209D01*
X94262353Y-125069793D01*
X93821143Y-125252097D01*
X93483283Y-125589367D01*
X93300209Y-126030258D01*
X93299793Y-126507647D01*
X88215650Y-126507647D01*
X88170845Y-126399211D01*
X87872360Y-126100205D01*
X87482172Y-125938185D01*
X87059682Y-125937816D01*
X86669211Y-126099155D01*
X86370205Y-126397640D01*
X86208185Y-126787828D01*
X86207816Y-127210318D01*
X85778823Y-127210318D01*
X85811340Y-127101231D01*
X85767768Y-126679714D01*
X85690289Y-126492664D01*
X85544914Y-126402874D01*
X84947789Y-127000000D01*
X84512211Y-127000000D01*
X83915086Y-126402874D01*
X83769711Y-126492664D01*
X83648660Y-126898769D01*
X83125000Y-126898769D01*
X83125000Y-126185086D01*
X84132874Y-126185086D01*
X84730000Y-126782211D01*
X85327126Y-126185086D01*
X85237336Y-126039711D01*
X84831231Y-125918660D01*
X84409714Y-125962232D01*
X84222664Y-126039711D01*
X84132874Y-126185086D01*
X83125000Y-126185086D01*
X83125000Y-124375000D01*
X87750000Y-124375000D01*
X87893506Y-124346455D01*
X88015165Y-124265165D01*
X88096455Y-124143506D01*
X88125000Y-124000000D01*
X88125000Y-123967647D01*
X93299793Y-123967647D01*
X93482097Y-124408857D01*
X93819367Y-124746717D01*
X94260258Y-124929791D01*
X94737647Y-124930207D01*
X95178857Y-124747903D01*
X95516717Y-124410633D01*
X95699791Y-123969742D01*
X95700207Y-123492353D01*
X95517903Y-123051143D01*
X95180633Y-122713283D01*
X94739742Y-122530209D01*
X94262353Y-122529793D01*
X93821143Y-122712097D01*
X93483283Y-123049367D01*
X93300209Y-123490258D01*
X93299793Y-123967647D01*
X88125000Y-123967647D01*
X88125000Y-122489835D01*
X95744286Y-122489835D01*
X95843885Y-122730882D01*
X96028148Y-122915467D01*
X96269021Y-123015486D01*
X96529835Y-123015714D01*
X96770882Y-122916115D01*
X96955467Y-122731852D01*
X97035072Y-122540141D01*
X97113885Y-122730882D01*
X97298148Y-122915467D01*
X97539021Y-123015486D01*
X97799835Y-123015714D01*
X98040882Y-122916115D01*
X98225467Y-122731852D01*
X98325486Y-122490979D01*
X98325714Y-122230165D01*
X98226115Y-121989118D01*
X98041852Y-121804533D01*
X97800979Y-121704514D01*
X97540165Y-121704286D01*
X97299118Y-121803885D01*
X97114533Y-121988148D01*
X97034928Y-122179859D01*
X96956115Y-121989118D01*
X96771852Y-121804533D01*
X96530979Y-121704514D01*
X96270165Y-121704286D01*
X96029118Y-121803885D01*
X95844533Y-121988148D01*
X95744514Y-122229021D01*
X95744286Y-122489835D01*
X88125000Y-122489835D01*
X88125000Y-121129835D01*
X97014286Y-121129835D01*
X97113885Y-121370882D01*
X97298148Y-121555467D01*
X97539021Y-121655486D01*
X97799835Y-121655714D01*
X98040882Y-121556115D01*
X98225467Y-121371852D01*
X98325486Y-121130979D01*
X98325714Y-120870165D01*
X98226115Y-120629118D01*
X98041852Y-120444533D01*
X97800979Y-120344514D01*
X97540165Y-120344286D01*
X97299118Y-120443885D01*
X97114533Y-120628148D01*
X97014514Y-120869021D01*
X97014286Y-121129835D01*
X88125000Y-121129835D01*
X88125000Y-118879835D01*
X89854286Y-118879835D01*
X89953885Y-119120882D01*
X90138148Y-119305467D01*
X90379021Y-119405486D01*
X90639835Y-119405714D01*
X90880882Y-119306115D01*
X91065467Y-119121852D01*
X91165486Y-118880979D01*
X91165714Y-118620165D01*
X91066115Y-118379118D01*
X90881852Y-118194533D01*
X90640979Y-118094514D01*
X90380165Y-118094286D01*
X90139118Y-118193885D01*
X89954533Y-118378148D01*
X89854514Y-118619021D01*
X89854286Y-118879835D01*
X88125000Y-118879835D01*
X88125000Y-117749835D01*
X97014286Y-117749835D01*
X97113885Y-117990882D01*
X97182841Y-118059959D01*
X97114533Y-118128148D01*
X97014514Y-118369021D01*
X97014286Y-118629835D01*
X97113885Y-118870882D01*
X97298148Y-119055467D01*
X97332935Y-119069912D01*
X97299118Y-119083885D01*
X97114533Y-119268148D01*
X97014514Y-119509021D01*
X97014286Y-119769835D01*
X97113885Y-120010882D01*
X97298148Y-120195467D01*
X97539021Y-120295486D01*
X97799835Y-120295714D01*
X98040882Y-120196115D01*
X98117295Y-120119835D01*
X101824286Y-120119835D01*
X101923885Y-120360882D01*
X102108148Y-120545467D01*
X102349021Y-120645486D01*
X102609835Y-120645714D01*
X102850882Y-120546115D01*
X103035467Y-120361852D01*
X103135486Y-120120979D01*
X103135714Y-119860165D01*
X103036115Y-119619118D01*
X102851852Y-119434533D01*
X102610979Y-119334514D01*
X102350165Y-119334286D01*
X102109118Y-119433885D01*
X101924533Y-119618148D01*
X101824514Y-119859021D01*
X101824286Y-120119835D01*
X98117295Y-120119835D01*
X98225467Y-120011852D01*
X98325486Y-119770979D01*
X98325714Y-119510165D01*
X98226115Y-119269118D01*
X98041852Y-119084533D01*
X98007065Y-119070088D01*
X98040882Y-119056115D01*
X98225467Y-118871852D01*
X98325486Y-118630979D01*
X98325714Y-118370165D01*
X98226115Y-118129118D01*
X98157159Y-118060041D01*
X98225467Y-117991852D01*
X98325486Y-117750979D01*
X98325714Y-117490165D01*
X98226115Y-117249118D01*
X98041852Y-117064533D01*
X98007619Y-117050318D01*
X103077816Y-117050318D01*
X103239155Y-117440789D01*
X103537640Y-117739795D01*
X103927828Y-117901815D01*
X104350318Y-117902184D01*
X104740789Y-117740845D01*
X105039795Y-117442360D01*
X105201815Y-117052172D01*
X105201816Y-117050318D01*
X105617816Y-117050318D01*
X105779155Y-117440789D01*
X106077640Y-117739795D01*
X106467828Y-117901815D01*
X106890318Y-117902184D01*
X107280789Y-117740845D01*
X107579795Y-117442360D01*
X107741815Y-117052172D01*
X107741816Y-117050318D01*
X108157816Y-117050318D01*
X108319155Y-117440789D01*
X108617640Y-117739795D01*
X109007828Y-117901815D01*
X109430318Y-117902184D01*
X109820789Y-117740845D01*
X110119795Y-117442360D01*
X110281815Y-117052172D01*
X110281816Y-117050318D01*
X110697816Y-117050318D01*
X110859155Y-117440789D01*
X111157640Y-117739795D01*
X111547828Y-117901815D01*
X111970318Y-117902184D01*
X112360789Y-117740845D01*
X112659795Y-117442360D01*
X112821815Y-117052172D01*
X112822184Y-116629682D01*
X112660845Y-116239211D01*
X112362360Y-115940205D01*
X111972172Y-115778185D01*
X111549682Y-115777816D01*
X111159211Y-115939155D01*
X110860205Y-116237640D01*
X110698185Y-116627828D01*
X110697816Y-117050318D01*
X110281816Y-117050318D01*
X110282184Y-116629682D01*
X110120845Y-116239211D01*
X109822360Y-115940205D01*
X109432172Y-115778185D01*
X109009682Y-115777816D01*
X108619211Y-115939155D01*
X108320205Y-116237640D01*
X108158185Y-116627828D01*
X108157816Y-117050318D01*
X107741816Y-117050318D01*
X107742184Y-116629682D01*
X107580845Y-116239211D01*
X107282360Y-115940205D01*
X106892172Y-115778185D01*
X106469682Y-115777816D01*
X106079211Y-115939155D01*
X105780205Y-116237640D01*
X105618185Y-116627828D01*
X105617816Y-117050318D01*
X105201816Y-117050318D01*
X105202184Y-116629682D01*
X105040845Y-116239211D01*
X104742360Y-115940205D01*
X104352172Y-115778185D01*
X103929682Y-115777816D01*
X103539211Y-115939155D01*
X103240205Y-116237640D01*
X103078185Y-116627828D01*
X103077816Y-117050318D01*
X98007619Y-117050318D01*
X97800979Y-116964514D01*
X97540165Y-116964286D01*
X97299118Y-117063885D01*
X97114533Y-117248148D01*
X97014514Y-117489021D01*
X97014286Y-117749835D01*
X88125000Y-117749835D01*
X88125000Y-116129835D01*
X94794286Y-116129835D01*
X94893885Y-116370882D01*
X95078148Y-116555467D01*
X95319021Y-116655486D01*
X95579835Y-116655714D01*
X95820882Y-116556115D01*
X96005467Y-116371852D01*
X96105486Y-116130979D01*
X96105714Y-115870165D01*
X96006115Y-115629118D01*
X95821852Y-115444533D01*
X95580979Y-115344514D01*
X95320165Y-115344286D01*
X95079118Y-115443885D01*
X94894533Y-115628148D01*
X94794514Y-115869021D01*
X94794286Y-116129835D01*
X88125000Y-116129835D01*
X88125000Y-113809835D01*
X89844286Y-113809835D01*
X89943885Y-114050882D01*
X90128148Y-114235467D01*
X90369021Y-114335486D01*
X90629835Y-114335714D01*
X90870882Y-114236115D01*
X91055467Y-114051852D01*
X91155486Y-113810979D01*
X91155714Y-113550165D01*
X91056115Y-113309118D01*
X90871852Y-113124533D01*
X90630979Y-113024514D01*
X90370165Y-113024286D01*
X90129118Y-113123885D01*
X89944533Y-113308148D01*
X89844514Y-113549021D01*
X89844286Y-113809835D01*
X88125000Y-113809835D01*
X88125000Y-112629835D01*
X93994286Y-112629835D01*
X94093885Y-112870882D01*
X94278148Y-113055467D01*
X94519021Y-113155486D01*
X94779835Y-113155714D01*
X95020882Y-113056115D01*
X95205467Y-112871852D01*
X95305486Y-112630979D01*
X95305714Y-112370165D01*
X95206115Y-112129118D01*
X95021852Y-111944533D01*
X94780979Y-111844514D01*
X94520165Y-111844286D01*
X94279118Y-111943885D01*
X94094533Y-112128148D01*
X93994514Y-112369021D01*
X93994286Y-112629835D01*
X88125000Y-112629835D01*
X88125000Y-110779835D01*
X89844286Y-110779835D01*
X89943885Y-111020882D01*
X90128148Y-111205467D01*
X90369021Y-111305486D01*
X90629835Y-111305714D01*
X90870882Y-111206115D01*
X91055467Y-111021852D01*
X91155486Y-110780979D01*
X91155714Y-110520165D01*
X91056115Y-110279118D01*
X90871852Y-110094533D01*
X90630979Y-109994514D01*
X90370165Y-109994286D01*
X90129118Y-110093885D01*
X89944533Y-110278148D01*
X89844514Y-110519021D01*
X89844286Y-110779835D01*
X88125000Y-110779835D01*
X88125000Y-105129835D01*
X92344286Y-105129835D01*
X92443885Y-105370882D01*
X92628148Y-105555467D01*
X92869021Y-105655486D01*
X93129835Y-105655714D01*
X93370882Y-105556115D01*
X93555467Y-105371852D01*
X93655486Y-105130979D01*
X93655714Y-104870165D01*
X93556115Y-104629118D01*
X93371852Y-104444533D01*
X93130979Y-104344514D01*
X92870165Y-104344286D01*
X92629118Y-104443885D01*
X92444533Y-104628148D01*
X92344514Y-104869021D01*
X92344286Y-105129835D01*
X88125000Y-105129835D01*
X88125000Y-99519835D01*
X92344286Y-99519835D01*
X92443885Y-99760882D01*
X92628148Y-99945467D01*
X92869021Y-100045486D01*
X93129835Y-100045714D01*
X93370882Y-99946115D01*
X93555467Y-99761852D01*
X93655486Y-99520979D01*
X93655714Y-99260165D01*
X93556115Y-99019118D01*
X93371852Y-98834533D01*
X93130979Y-98734514D01*
X92870165Y-98734286D01*
X92629118Y-98833885D01*
X92444533Y-99018148D01*
X92344514Y-99259021D01*
X92344286Y-99519835D01*
X88125000Y-99519835D01*
X88125000Y-94217647D01*
X115639793Y-94217647D01*
X115822097Y-94658857D01*
X116159367Y-94996717D01*
X116600258Y-95179791D01*
X117077647Y-95180207D01*
X117518857Y-94997903D01*
X117856717Y-94660633D01*
X118039791Y-94219742D01*
X118039792Y-94217647D01*
X118179793Y-94217647D01*
X118362097Y-94658857D01*
X118699367Y-94996717D01*
X119140258Y-95179791D01*
X119617647Y-95180207D01*
X120058857Y-94997903D01*
X120396717Y-94660633D01*
X120579791Y-94219742D01*
X120580207Y-93742353D01*
X120397903Y-93301143D01*
X120060633Y-92963283D01*
X119619742Y-92780209D01*
X119142353Y-92779793D01*
X118701143Y-92962097D01*
X118363283Y-93299367D01*
X118180209Y-93740258D01*
X118179793Y-94217647D01*
X118039792Y-94217647D01*
X118040207Y-93742353D01*
X117857903Y-93301143D01*
X117520633Y-92963283D01*
X117079742Y-92780209D01*
X116602353Y-92779793D01*
X116161143Y-92962097D01*
X115823283Y-93299367D01*
X115640209Y-93740258D01*
X115639793Y-94217647D01*
X88125000Y-94217647D01*
X88125000Y-89410318D01*
X142687816Y-89410318D01*
X142849155Y-89800789D01*
X143147640Y-90099795D01*
X143537828Y-90261815D01*
X143960318Y-90262184D01*
X144350789Y-90100845D01*
X144649795Y-89802360D01*
X144811815Y-89412172D01*
X144811816Y-89410318D01*
X145187816Y-89410318D01*
X145349155Y-89800789D01*
X145647640Y-90099795D01*
X146037828Y-90261815D01*
X146460318Y-90262184D01*
X146850789Y-90100845D01*
X147149795Y-89802360D01*
X147311815Y-89412172D01*
X147312184Y-88989682D01*
X147150845Y-88599211D01*
X146852360Y-88300205D01*
X146462172Y-88138185D01*
X146039682Y-88137816D01*
X145649211Y-88299155D01*
X145350205Y-88597640D01*
X145188185Y-88987828D01*
X145187816Y-89410318D01*
X144811816Y-89410318D01*
X144812184Y-88989682D01*
X144650845Y-88599211D01*
X144352360Y-88300205D01*
X143962172Y-88138185D01*
X143539682Y-88137816D01*
X143149211Y-88299155D01*
X142850205Y-88597640D01*
X142688185Y-88987828D01*
X142687816Y-89410318D01*
X88125000Y-89410318D01*
X88125000Y-86000000D01*
X88096455Y-85856494D01*
X88015165Y-85734835D01*
X87893506Y-85653545D01*
X87750000Y-85625000D01*
X83125000Y-85625000D01*
X83125000Y-85117746D01*
X116849801Y-85117746D01*
X117024509Y-85540572D01*
X117347727Y-85864354D01*
X117770247Y-86039800D01*
X118227746Y-86040199D01*
X118650572Y-85865491D01*
X118974354Y-85542273D01*
X118999846Y-85480882D01*
X119024509Y-85540572D01*
X119347727Y-85864354D01*
X119770247Y-86039800D01*
X120227746Y-86040199D01*
X120650572Y-85865491D01*
X120974354Y-85542273D01*
X120999846Y-85480882D01*
X121024509Y-85540572D01*
X121347727Y-85864354D01*
X121770247Y-86039800D01*
X122227746Y-86040199D01*
X122650572Y-85865491D01*
X122974354Y-85542273D01*
X123149800Y-85119753D01*
X123150199Y-84662254D01*
X122975491Y-84239428D01*
X122652273Y-83915646D01*
X122229753Y-83740200D01*
X121772254Y-83739801D01*
X121349428Y-83914509D01*
X121025646Y-84237727D01*
X121000154Y-84299118D01*
X120975491Y-84239428D01*
X120652273Y-83915646D01*
X120229753Y-83740200D01*
X119772254Y-83739801D01*
X119349428Y-83914509D01*
X119025646Y-84237727D01*
X119000154Y-84299118D01*
X118975491Y-84239428D01*
X118652273Y-83915646D01*
X118229753Y-83740200D01*
X117772254Y-83739801D01*
X117349428Y-83914509D01*
X117025646Y-84237727D01*
X116850200Y-84660247D01*
X116849801Y-85117746D01*
X83125000Y-85117746D01*
X83125000Y-83814914D01*
X84132874Y-83814914D01*
X84222664Y-83960289D01*
X84628769Y-84081340D01*
X85050286Y-84037768D01*
X85237336Y-83960289D01*
X85327126Y-83814914D01*
X84730000Y-83217789D01*
X84132874Y-83814914D01*
X83125000Y-83814914D01*
X83125000Y-82898769D01*
X83648660Y-82898769D01*
X83692232Y-83320286D01*
X83769711Y-83507336D01*
X83915086Y-83597126D01*
X84512211Y-83000000D01*
X84947789Y-83000000D01*
X85544914Y-83597126D01*
X85690289Y-83507336D01*
X85778823Y-83210318D01*
X86207816Y-83210318D01*
X86369155Y-83600789D01*
X86667640Y-83899795D01*
X87057828Y-84061815D01*
X87480318Y-84062184D01*
X87870789Y-83900845D01*
X88169795Y-83602360D01*
X88331815Y-83212172D01*
X88332184Y-82789682D01*
X88294278Y-82697942D01*
X114949818Y-82697942D01*
X115109334Y-83084000D01*
X115404446Y-83379628D01*
X115790226Y-83539818D01*
X116207942Y-83540182D01*
X116594000Y-83380666D01*
X116889628Y-83085554D01*
X117049818Y-82699774D01*
X117049819Y-82697942D01*
X122949818Y-82697942D01*
X123109334Y-83084000D01*
X123404446Y-83379628D01*
X123790226Y-83539818D01*
X124207942Y-83540182D01*
X124594000Y-83380666D01*
X124737269Y-83237647D01*
X200119793Y-83237647D01*
X200302097Y-83678857D01*
X200639367Y-84016717D01*
X201080258Y-84199791D01*
X201557647Y-84200207D01*
X201998857Y-84017903D01*
X202336717Y-83680633D01*
X202519791Y-83239742D01*
X202519792Y-83237647D01*
X202689793Y-83237647D01*
X202872097Y-83678857D01*
X203209367Y-84016717D01*
X203650258Y-84199791D01*
X204127647Y-84200207D01*
X204568857Y-84017903D01*
X204671502Y-83915437D01*
X205732352Y-83915437D01*
X205839214Y-84075147D01*
X206295626Y-84219391D01*
X206772496Y-84177993D01*
X207020786Y-84075147D01*
X207127648Y-83915437D01*
X206430000Y-83217789D01*
X205732352Y-83915437D01*
X204671502Y-83915437D01*
X204906717Y-83680633D01*
X205089791Y-83239742D01*
X205090117Y-82865626D01*
X205210609Y-82865626D01*
X205252007Y-83342496D01*
X205354853Y-83590786D01*
X205514563Y-83697648D01*
X206212211Y-83000000D01*
X206647789Y-83000000D01*
X207345437Y-83697648D01*
X207505147Y-83590786D01*
X207649391Y-83134374D01*
X207607993Y-82657504D01*
X207505147Y-82409214D01*
X207345437Y-82302352D01*
X206647789Y-83000000D01*
X206212211Y-83000000D01*
X205514563Y-82302352D01*
X205354853Y-82409214D01*
X205210609Y-82865626D01*
X205090117Y-82865626D01*
X205090207Y-82762353D01*
X204907903Y-82321143D01*
X204671737Y-82084563D01*
X205732352Y-82084563D01*
X206430000Y-82782211D01*
X207127648Y-82084563D01*
X207020786Y-81924853D01*
X206564374Y-81780609D01*
X206087504Y-81822007D01*
X205839214Y-81924853D01*
X205732352Y-82084563D01*
X204671737Y-82084563D01*
X204570633Y-81983283D01*
X204129742Y-81800209D01*
X203652353Y-81799793D01*
X203211143Y-81982097D01*
X202873283Y-82319367D01*
X202690209Y-82760258D01*
X202689793Y-83237647D01*
X202519792Y-83237647D01*
X202520207Y-82762353D01*
X202337903Y-82321143D01*
X202000633Y-81983283D01*
X201559742Y-81800209D01*
X201082353Y-81799793D01*
X200641143Y-81982097D01*
X200303283Y-82319367D01*
X200120209Y-82760258D01*
X200119793Y-83237647D01*
X124737269Y-83237647D01*
X124889628Y-83085554D01*
X125049818Y-82699774D01*
X125050182Y-82282058D01*
X124890666Y-81896000D01*
X124595554Y-81600372D01*
X124209774Y-81440182D01*
X123792058Y-81439818D01*
X123406000Y-81599334D01*
X123110372Y-81894446D01*
X122950182Y-82280226D01*
X122949818Y-82697942D01*
X117049819Y-82697942D01*
X117050182Y-82282058D01*
X116890666Y-81896000D01*
X116595554Y-81600372D01*
X116209774Y-81440182D01*
X115792058Y-81439818D01*
X115406000Y-81599334D01*
X115110372Y-81894446D01*
X114950182Y-82280226D01*
X114949818Y-82697942D01*
X88294278Y-82697942D01*
X88170845Y-82399211D01*
X87872360Y-82100205D01*
X87482172Y-81938185D01*
X87059682Y-81937816D01*
X86669211Y-82099155D01*
X86370205Y-82397640D01*
X86208185Y-82787828D01*
X86207816Y-83210318D01*
X85778823Y-83210318D01*
X85811340Y-83101231D01*
X85767768Y-82679714D01*
X85690289Y-82492664D01*
X85544914Y-82402874D01*
X84947789Y-83000000D01*
X84512211Y-83000000D01*
X83915086Y-82402874D01*
X83769711Y-82492664D01*
X83648660Y-82898769D01*
X83125000Y-82898769D01*
X83125000Y-82185086D01*
X84132874Y-82185086D01*
X84730000Y-82782211D01*
X85327126Y-82185086D01*
X85237336Y-82039711D01*
X84831231Y-81918660D01*
X84409714Y-81962232D01*
X84222664Y-82039711D01*
X84132874Y-82185086D01*
X83125000Y-82185086D01*
X83125000Y-80375000D01*
X151022944Y-80375000D01*
X150691143Y-80512097D01*
M02*
