%TF.GenerationSoftware,KiCad,Pcbnew,(6.0.10)*%
%TF.CreationDate,2023-01-09T18:14:29+01:00*%
%TF.ProjectId,carinsitu,63617269-6e73-4697-9475-2e6b69636164,1*%
%TF.SameCoordinates,Original*%
%TF.FileFunction,Copper,L1,Top*%
%TF.FilePolarity,Positive*%
%FSLAX46Y46*%
G04 Gerber Fmt 4.6, Leading zero omitted, Abs format (unit mm)*
G04 Created by KiCad (PCBNEW (6.0.10)) date 2023-01-09 18:14:29*
%MOMM*%
%LPD*%
G01*
G04 APERTURE LIST*
%ADD10C,0.152400*%
%TA.AperFunction,NonConductor*%
%ADD11C,0.152400*%
%TD*%
%TA.AperFunction,SMDPad,CuDef*%
%ADD12R,1.000760X0.701040*%
%TD*%
%TA.AperFunction,ComponentPad*%
%ADD13C,0.800000*%
%TD*%
%TA.AperFunction,ComponentPad*%
%ADD14C,5.000000*%
%TD*%
%TA.AperFunction,ComponentPad*%
%ADD15C,1.524000*%
%TD*%
%TA.AperFunction,ComponentPad*%
%ADD16C,1.800000*%
%TD*%
%TA.AperFunction,ComponentPad*%
%ADD17C,1.500000*%
%TD*%
%TA.AperFunction,SMDPad,CuDef*%
%ADD18R,1.397000X0.889000*%
%TD*%
%TA.AperFunction,SMDPad,CuDef*%
%ADD19R,2.200000X1.100000*%
%TD*%
%TA.AperFunction,SMDPad,CuDef*%
%ADD20R,1.000000X1.000000*%
%TD*%
%TA.AperFunction,SMDPad,CuDef*%
%ADD21R,0.635000X1.143000*%
%TD*%
%TA.AperFunction,SMDPad,CuDef*%
%ADD22R,1.500000X1.200000*%
%TD*%
%TA.AperFunction,ComponentPad*%
%ADD23C,1.700000*%
%TD*%
%TA.AperFunction,SMDPad,CuDef*%
%ADD24R,1.143000X0.635000*%
%TD*%
%TA.AperFunction,SMDPad,CuDef*%
%ADD25R,0.889000X1.397000*%
%TD*%
%TA.AperFunction,SMDPad,CuDef*%
%ADD26R,2.500000X2.000000*%
%TD*%
%TA.AperFunction,SMDPad,CuDef*%
%ADD27R,1.300000X3.400000*%
%TD*%
%TA.AperFunction,SMDPad,CuDef*%
%ADD28R,0.701040X1.000760*%
%TD*%
%TA.AperFunction,SMDPad,CuDef*%
%ADD29R,0.350000X0.250000*%
%TD*%
%TA.AperFunction,SMDPad,CuDef*%
%ADD30R,0.250000X0.350000*%
%TD*%
%TA.AperFunction,SMDPad,CuDef*%
%ADD31R,0.850000X0.280000*%
%TD*%
%TA.AperFunction,SMDPad,CuDef*%
%ADD32R,0.279400X0.850900*%
%TD*%
%TA.AperFunction,SMDPad,CuDef*%
%ADD33R,0.850900X0.279400*%
%TD*%
%TA.AperFunction,SMDPad,CuDef*%
%ADD34R,1.500000X1.500000*%
%TD*%
%TA.AperFunction,SMDPad,CuDef*%
%ADD35C,1.198880*%
%TD*%
%TA.AperFunction,SMDPad,CuDef*%
%ADD36R,0.152400X0.711200*%
%TD*%
%TA.AperFunction,SMDPad,CuDef*%
%ADD37R,2.387600X1.803400*%
%TD*%
%TA.AperFunction,ComponentPad*%
%ADD38R,1.800000X1.800000*%
%TD*%
%TA.AperFunction,SMDPad,CuDef*%
%ADD39R,0.400000X1.000000*%
%TD*%
%TA.AperFunction,SMDPad,CuDef*%
%ADD40R,1.550000X1.300000*%
%TD*%
%TA.AperFunction,ViaPad*%
%ADD41C,0.711200*%
%TD*%
%TA.AperFunction,ViaPad*%
%ADD42C,0.600000*%
%TD*%
%TA.AperFunction,Conductor*%
%ADD43C,0.203200*%
%TD*%
%TA.AperFunction,Conductor*%
%ADD44C,0.406400*%
%TD*%
%TA.AperFunction,Conductor*%
%ADD45C,0.304800*%
%TD*%
%TA.AperFunction,Conductor*%
%ADD46C,1.016000*%
%TD*%
%TA.AperFunction,Conductor*%
%ADD47C,2.048000*%
%TD*%
G04 APERTURE END LIST*
D10*
D11*
X109978571Y-128861904D02*
X109521428Y-128861904D01*
X109750000Y-128861904D02*
X109750000Y-128061904D01*
X109673809Y-128176190D01*
X109597619Y-128252380D01*
X109521428Y-128290476D01*
D12*
%TO.P,U4,1,VCCA*%
%TO.N,+3V3*%
X193933600Y-85821100D03*
%TO.P,U4,2*%
%TO.N,GND*%
X193933600Y-86773600D03*
%TO.P,U4,3,A*%
%TO.N,RL_DAT*%
X193933600Y-87726100D03*
%TO.P,U4,4,B*%
%TO.N,Net-(D4-Pad4)*%
X196473600Y-87726100D03*
%TO.P,U4,5,DIR*%
%TO.N,+3V3*%
X196473600Y-86773600D03*
%TO.P,U4,6,VCCB*%
%TO.N,+5V*%
X196473600Y-85821100D03*
%TD*%
D13*
%TO.P,FIX1,1,1*%
%TO.N,GND*%
X103340000Y-102410000D03*
X102750000Y-101000000D03*
X104750000Y-99000000D03*
X106750000Y-101000000D03*
D14*
X104750000Y-101000000D03*
D13*
X104750000Y-103000000D03*
X103340000Y-99590000D03*
X106160000Y-99590000D03*
X106160000Y-102410000D03*
%TD*%
%TO.P,FIX2,1,1*%
%TO.N,GND*%
X106160000Y-107590000D03*
X103340000Y-107590000D03*
X104750000Y-111000000D03*
D14*
X104750000Y-109000000D03*
D13*
X102750000Y-109000000D03*
X104750000Y-107000000D03*
X106160000Y-110410000D03*
X106750000Y-109000000D03*
X103340000Y-110410000D03*
%TD*%
%TO.P,FIX3,1,1*%
%TO.N,GND*%
X173250000Y-105000000D03*
X173840000Y-106410000D03*
X176660000Y-103590000D03*
X175250000Y-107000000D03*
X177250000Y-105000000D03*
X175250000Y-103000000D03*
X176660000Y-106410000D03*
D14*
X175250000Y-105000000D03*
D13*
X173840000Y-103590000D03*
%TD*%
%TO.P,FIX4,1,1*%
%TO.N,GND*%
X185340000Y-99590000D03*
X184750000Y-101000000D03*
X186750000Y-99000000D03*
X185340000Y-102410000D03*
X186750000Y-103000000D03*
D14*
X186750000Y-101000000D03*
D13*
X188160000Y-99590000D03*
X188160000Y-102410000D03*
X188750000Y-101000000D03*
%TD*%
%TO.P,FIX5,1,1*%
%TO.N,GND*%
X188160000Y-107590000D03*
X186750000Y-107000000D03*
D14*
X186750000Y-109000000D03*
D13*
X188160000Y-110410000D03*
X185340000Y-110410000D03*
X188750000Y-109000000D03*
X186750000Y-111000000D03*
X185340000Y-107590000D03*
X184750000Y-109000000D03*
%TD*%
D15*
%TO.P,P2,1,P1*%
%TO.N,Net-(MOD1-Pad2)*%
X156291600Y-89200000D03*
%TO.P,P2,2,PM*%
%TO.N,Net-(MOD1-Pad3)*%
X153791600Y-89200000D03*
%TD*%
D16*
%TO.P,MOD1,1,BAT-*%
%TO.N,GND*%
X163142400Y-81541600D03*
%TO.P,MOD1,2,MOT-*%
%TO.N,Net-(MOD1-Pad2)*%
X165942400Y-81541600D03*
%TO.P,MOD1,3,MOT+*%
%TO.N,Net-(MOD1-Pad3)*%
X168742400Y-81541600D03*
%TO.P,MOD1,4,BAT+*%
%TO.N,+VBAT*%
X171542400Y-81541600D03*
%TO.P,MOD1,5,SW*%
%TO.N,Net-(MOD1-Pad5)*%
X174372400Y-81491600D03*
D17*
%TO.P,MOD1,6,SW*%
X177022400Y-81541600D03*
%TO.P,MOD1,7,GND*%
%TO.N,GND*%
X178872400Y-81541600D03*
%TO.P,MOD1,8,PWR*%
%TO.N,+5V*%
X180722400Y-81541600D03*
%TO.P,MOD1,9,PWM*%
%TO.N,PPM_ESC*%
X182572400Y-81541600D03*
%TD*%
D16*
%TO.P,D4,1,DOUT*%
%TO.N,unconnected-(D4-Pad1)*%
X190042800Y-82956400D03*
%TO.P,D4,2,GND*%
%TO.N,GND*%
X192612800Y-82956400D03*
%TO.P,D4,3,VDD*%
%TO.N,+5V*%
X195152800Y-82956400D03*
%TO.P,D4,4,DIN*%
%TO.N,Net-(D4-Pad4)*%
X197722800Y-82956400D03*
%TD*%
D15*
%TO.P,D1,1,A*%
%TO.N,+5V*%
X86000000Y-128270000D03*
%TO.P,D1,2,K*%
%TO.N,Net-(D1-Pad2)*%
X86000000Y-125730000D03*
%TD*%
%TO.P,D2,1,A*%
%TO.N,+5V*%
X86000000Y-84270000D03*
%TO.P,D2,2,K*%
%TO.N,Net-(D2-Pad2)*%
X86000000Y-81730000D03*
%TD*%
D18*
%TO.P,R2,1*%
%TO.N,GND*%
X90500000Y-87452500D03*
%TO.P,R2,2*%
%TO.N,Net-(R2-Pad2)*%
X90500000Y-85547500D03*
%TD*%
D12*
%TO.P,U2,1,EN*%
%TO.N,Net-(R12-Pad1)*%
X91770000Y-83952500D03*
%TO.P,U2,2*%
%TO.N,GND*%
X91770000Y-83000000D03*
%TO.P,U2,3*%
%TO.N,+5V*%
X91770000Y-82047500D03*
%TO.P,U2,4,D2*%
%TO.N,Net-(D2-Pad2)*%
X89230000Y-82047500D03*
%TO.P,U2,5,RS*%
%TO.N,Net-(R2-Pad2)*%
X89230000Y-83000000D03*
%TO.P,U2,6,D1*%
%TO.N,Net-(D1-Pad2)*%
X89230000Y-83952500D03*
%TD*%
D16*
%TO.P,P1,1,P1*%
%TO.N,Net-(P1-Pad1)*%
X94500000Y-126270000D03*
%TO.P,P1,2,PM*%
%TO.N,Net-(P1-Pad2)*%
X94500000Y-123730000D03*
%TD*%
D19*
%TO.P,A1,0*%
%TO.N,GND*%
X119199260Y-106482960D03*
X119199260Y-103482960D03*
D20*
%TO.P,A1,1*%
%TO.N,Net-(A1-Pad1)*%
X120699260Y-104982960D03*
%TD*%
D21*
%TO.P,C1,1*%
%TO.N,Net-(A1-Pad1)*%
X121937260Y-104982960D03*
%TO.P,C1,2*%
%TO.N,Net-(C1-Pad2)*%
X123461260Y-104982960D03*
%TD*%
%TO.P,C2,1*%
%TO.N,Net-(C2-Pad1)*%
X125374400Y-99822000D03*
%TO.P,C2,2*%
%TO.N,GND*%
X123850400Y-99822000D03*
%TD*%
%TO.P,C3,1*%
%TO.N,+3V3*%
X123461260Y-103482960D03*
%TO.P,C3,2*%
%TO.N,GND*%
X121937260Y-103482960D03*
%TD*%
%TO.P,R1,1*%
%TO.N,Net-(R1-Pad1)*%
X126339600Y-101650800D03*
%TO.P,R1,2*%
%TO.N,GND*%
X124815600Y-101650800D03*
%TD*%
D22*
%TO.P,X1,1,1*%
%TO.N,Net-(C5-Pad1)*%
X130668400Y-98982960D03*
%TO.P,X1,2,2*%
%TO.N,GND*%
X128168400Y-98982960D03*
%TO.P,X1,3,3*%
%TO.N,Net-(C4-Pad1)*%
X128168400Y-100982960D03*
%TO.P,X1,4,4*%
%TO.N,GND*%
X130668400Y-100982960D03*
%TD*%
D21*
%TO.P,C4,1*%
%TO.N,Net-(C4-Pad1)*%
X128180400Y-97232960D03*
%TO.P,C4,2*%
%TO.N,GND*%
X126656400Y-97232960D03*
%TD*%
%TO.P,C5,1*%
%TO.N,Net-(C5-Pad1)*%
X130656400Y-97232960D03*
%TO.P,C5,2*%
%TO.N,GND*%
X132180400Y-97232960D03*
%TD*%
%TO.P,C10,1*%
%TO.N,+3V3*%
X123461260Y-106482960D03*
%TO.P,C10,2*%
%TO.N,GND*%
X121937260Y-106482960D03*
%TD*%
%TO.P,C11,1*%
%TO.N,+3V3*%
X127254000Y-110982960D03*
%TO.P,C11,2*%
%TO.N,GND*%
X125730000Y-110982960D03*
%TD*%
D23*
%TO.P,SW1,1,1*%
%TO.N,+VBAT*%
X122000000Y-84890000D03*
%TO.P,SW1,2,2*%
%TO.N,Net-(P1-Pad1)*%
X120000000Y-84890000D03*
%TO.P,SW1,3,3*%
%TO.N,unconnected-(SW1-Pad3)*%
X118000000Y-84890000D03*
%TD*%
D24*
%TO.P,C12,1*%
%TO.N,Net-(C12-Pad1)*%
X99500000Y-121512000D03*
%TO.P,C12,2*%
%TO.N,GND*%
X99500000Y-119988000D03*
%TD*%
%TO.P,R5,1*%
%TO.N,+VBAT*%
X101250000Y-119988000D03*
%TO.P,R5,2*%
%TO.N,Net-(C12-Pad1)*%
X101250000Y-121512000D03*
%TD*%
D25*
%TO.P,R4,1*%
%TO.N,Net-(P1-Pad2)*%
X94497500Y-121000000D03*
%TO.P,R4,2*%
%TO.N,GND*%
X96402500Y-121000000D03*
%TD*%
D16*
%TO.P,P3,1,P1*%
%TO.N,Net-(P3-Pad1)*%
X137540000Y-94640400D03*
%TO.P,P3,2,P2*%
%TO.N,+5V*%
X135000000Y-94640400D03*
%TO.P,P3,3,P3*%
%TO.N,GND*%
X132460000Y-94640400D03*
%TD*%
D18*
%TO.P,C6,1*%
%TO.N,+VBAT*%
X159562800Y-98005900D03*
%TO.P,C6,2*%
%TO.N,GND*%
X159562800Y-99910900D03*
%TD*%
D25*
%TO.P,C7,1*%
%TO.N,Net-(C7-Pad1)*%
X155816300Y-99822000D03*
%TO.P,C7,2*%
%TO.N,GND*%
X157721300Y-99822000D03*
%TD*%
D26*
%TO.P,C8,1*%
%TO.N,+3V3*%
X147777200Y-104514400D03*
%TO.P,C8,2*%
%TO.N,GND*%
X147777200Y-100514400D03*
%TD*%
D27*
%TO.P,L2,1,1*%
%TO.N,/Power supply/3V3_SW*%
X154200000Y-104597200D03*
%TO.P,L2,2,2*%
%TO.N,+3V3*%
X150600000Y-104597200D03*
%TD*%
D24*
%TO.P,R6,1*%
%TO.N,+3V3*%
X150469600Y-101752400D03*
%TO.P,R6,2*%
%TO.N,Net-(R6-Pad2)*%
X150469600Y-100228400D03*
%TD*%
%TO.P,R7,1*%
%TO.N,Net-(R6-Pad2)*%
X150469600Y-99212400D03*
%TO.P,R7,2*%
%TO.N,GND*%
X150469600Y-97688400D03*
%TD*%
D28*
%TO.P,U6,1,EN*%
%TO.N,Net-(TP1-Pad1)*%
X152158700Y-100584000D03*
%TO.P,U6,2*%
%TO.N,GND*%
X153111200Y-100584000D03*
%TO.P,U6,3,PH*%
%TO.N,/Power supply/3V3_SW*%
X154063700Y-100584000D03*
%TO.P,U6,4,VIN*%
%TO.N,Net-(C7-Pad1)*%
X154063700Y-98044000D03*
%TO.P,U6,5,FB*%
%TO.N,Net-(R6-Pad2)*%
X152158700Y-98044000D03*
%TD*%
D29*
%TO.P,U7,1*%
%TO.N,+3V3*%
X94610200Y-105943906D03*
%TO.P,U7,2,SCL*%
%TO.N,SCL*%
X94610200Y-105443906D03*
%TO.P,U7,3,SDA*%
%TO.N,SDA*%
X94610200Y-104943906D03*
%TO.P,U7,4,SA0*%
%TO.N,GND*%
X94610200Y-104443906D03*
%TO.P,U7,5,CS*%
%TO.N,+3V3*%
X94610200Y-103943906D03*
D30*
%TO.P,U7,6,INT2*%
%TO.N,unconnected-(U7-Pad6)*%
X93885200Y-103718906D03*
%TO.P,U7,7,INT1*%
%TO.N,unconnected-(U7-Pad7)*%
X93385200Y-103718906D03*
%TO.P,U7,8*%
%TO.N,GND*%
X92885200Y-103718906D03*
D29*
%TO.P,U7,9*%
X92160200Y-103943906D03*
%TO.P,U7,10*%
X92160200Y-104443906D03*
%TO.P,U7,11*%
X92160200Y-104943906D03*
%TO.P,U7,12*%
X92160200Y-105443906D03*
%TO.P,U7,13*%
X92160200Y-105943906D03*
D30*
%TO.P,U7,14*%
%TO.N,unconnected-(U7-Pad14)*%
X92885200Y-106168906D03*
%TO.P,U7,15*%
%TO.N,GND*%
X93385200Y-106168906D03*
%TO.P,U7,16*%
%TO.N,+3V3*%
X93885200Y-106168906D03*
%TD*%
D31*
%TO.P,U1,1*%
%TO.N,+3V3*%
X126199260Y-104482960D03*
%TO.P,U1,2,LNA*%
%TO.N,Net-(C1-Pad2)*%
X126199260Y-104982960D03*
%TO.P,U1,3*%
%TO.N,+3V3*%
X126199260Y-105482960D03*
%TO.P,U1,4*%
X126199260Y-105982960D03*
%TO.P,U1,5,VRTC*%
%TO.N,unconnected-(U1-Pad5)*%
X126199260Y-106482960D03*
%TO.P,U1,6,TOUT*%
%TO.N,unconnected-(U1-Pad6)*%
X126199260Y-106982960D03*
%TO.P,U1,7,EN*%
%TO.N,unconnected-(U1-Pad7)*%
X126199260Y-107482960D03*
%TO.P,U1,8,XPD*%
%TO.N,Net-(C2-Pad1)*%
X126199260Y-107982960D03*
D32*
%TO.P,U1,9,IO_14*%
%TO.N,IR_RX*%
X126949200Y-108732320D03*
%TO.P,U1,10,IO_12*%
%TO.N,SDA*%
X127449580Y-108732320D03*
%TO.P,U1,11*%
%TO.N,+3V3*%
X127949960Y-108732320D03*
%TO.P,U1,12,IO_13*%
%TO.N,SCL*%
X128450340Y-108732320D03*
%TO.P,U1,13,IO_15*%
%TO.N,VTX*%
X128948180Y-108732320D03*
%TO.P,U1,14,IO_02*%
%TO.N,RL_DAT*%
X129448560Y-108732320D03*
%TO.P,U1,15,IO_00*%
%TO.N,HL_PWM*%
X129948940Y-108732320D03*
%TO.P,U1,16,IO_04*%
%TO.N,PPM_ESC*%
X130449320Y-108732320D03*
D33*
%TO.P,U1,17*%
%TO.N,+3V3*%
X131198620Y-107983020D03*
%TO.P,U1,18,IO_09*%
%TO.N,unconnected-(U1-Pad18)*%
X131198620Y-107482640D03*
%TO.P,U1,19,IO_10*%
%TO.N,unconnected-(U1-Pad19)*%
X131198620Y-106982260D03*
%TO.P,U1,20,IO_11*%
%TO.N,unconnected-(U1-Pad20)*%
X131198620Y-106481880D03*
%TO.P,U1,21,IO_06*%
%TO.N,unconnected-(U1-Pad21)*%
X131198620Y-105984040D03*
%TO.P,U1,22,IO_07*%
%TO.N,unconnected-(U1-Pad22)*%
X131198620Y-105483660D03*
%TO.P,U1,23,IO_08*%
%TO.N,unconnected-(U1-Pad23)*%
X131198620Y-104983280D03*
%TO.P,U1,24,IO_05*%
%TO.N,PPM_SERVO*%
X131198620Y-104482900D03*
D32*
%TO.P,U1,25,IO_03*%
%TO.N,U0_RX*%
X130449320Y-103733600D03*
%TO.P,U1,26,IO_01*%
%TO.N,U0_TX*%
X129948940Y-103733600D03*
%TO.P,U1,27,XO*%
%TO.N,Net-(C5-Pad1)*%
X129448560Y-103733600D03*
%TO.P,U1,28,XI*%
%TO.N,Net-(C4-Pad1)*%
X128948180Y-103733600D03*
%TO.P,U1,29*%
%TO.N,+3V3*%
X128450340Y-103733600D03*
%TO.P,U1,30*%
X127949960Y-103733600D03*
%TO.P,U1,31,R12K*%
%TO.N,Net-(R1-Pad1)*%
X127449580Y-103733600D03*
%TO.P,U1,32,RST*%
%TO.N,Net-(C2-Pad1)*%
X126949200Y-103733600D03*
D34*
%TO.P,U1,PAD*%
%TO.N,GND*%
X127949260Y-105482960D03*
X127949260Y-106982960D03*
X129449260Y-106982960D03*
X129449260Y-105482960D03*
%TD*%
D24*
%TO.P,R8,1*%
%TO.N,+3V3*%
X134199260Y-109720960D03*
%TO.P,R8,2*%
%TO.N,RL_DAT*%
X134199260Y-111244960D03*
%TD*%
D21*
%TO.P,R9,1*%
%TO.N,+3V3*%
X113080800Y-108559600D03*
%TO.P,R9,2*%
%TO.N,HL_PWM*%
X114604800Y-108559600D03*
%TD*%
D24*
%TO.P,R10,1*%
%TO.N,GND*%
X135709260Y-109720960D03*
%TO.P,R10,2*%
%TO.N,VTX*%
X135709260Y-111244960D03*
%TD*%
D35*
%TO.P,TP1,1,1*%
%TO.N,Net-(TP1-Pad1)*%
X159969200Y-102412800D03*
%TD*%
D21*
%TO.P,C13,1*%
%TO.N,Net-(C13-Pad1)*%
X93012000Y-118750000D03*
%TO.P,C13,2*%
%TO.N,GND*%
X91488000Y-118750000D03*
%TD*%
%TO.P,C14,1*%
%TO.N,Net-(C14-Pad1)*%
X94748000Y-119350000D03*
%TO.P,C14,2*%
%TO.N,GND*%
X96272000Y-119350000D03*
%TD*%
D36*
%TO.P,U3,1*%
%TO.N,Net-(C13-Pad1)*%
X94250000Y-117498600D03*
%TO.P,U3,2,CSP*%
%TO.N,Net-(P1-Pad2)*%
X94649999Y-117498600D03*
%TO.P,U3,3*%
%TO.N,Net-(C14-Pad1)*%
X95050001Y-117498600D03*
%TO.P,U3,4,CSN*%
%TO.N,GND*%
X95450000Y-117498600D03*
%TO.P,U3,5,VBAT*%
%TO.N,Net-(C12-Pad1)*%
X95849999Y-117498600D03*
%TO.P,U3,6,CELL2*%
%TO.N,GND*%
X96250001Y-117498600D03*
%TO.P,U3,7,CELL1*%
X96650000Y-117498600D03*
%TO.P,U3,8,ALERT*%
%TO.N,unconnected-(U3-Pad8)*%
X96650000Y-114501400D03*
%TO.P,U3,9,AIN1*%
%TO.N,Net-(R11-Pad2)*%
X96250001Y-114501400D03*
%TO.P,U3,10,AIN2*%
%TO.N,unconnected-(U3-Pad10)*%
X95849999Y-114501400D03*
%TO.P,U3,11,SCL*%
%TO.N,SCL*%
X95450000Y-114501400D03*
%TO.P,U3,12,SDA*%
%TO.N,SDA*%
X95050001Y-114501400D03*
%TO.P,U3,13,CELLX*%
%TO.N,GND*%
X94649999Y-114501400D03*
%TO.P,U3,14,THRM*%
%TO.N,Net-(R11-Pad1)*%
X94250000Y-114501400D03*
D37*
%TO.P,U3,PAD*%
%TO.N,GND*%
X95450000Y-116000000D03*
%TD*%
D15*
%TO.P,TP2,1,1*%
%TO.N,SDA*%
X106680000Y-116840000D03*
%TD*%
%TO.P,TP3,1,1*%
%TO.N,SCL*%
X109220000Y-116840000D03*
%TD*%
%TO.P,TP4,1,1*%
%TO.N,+VBAT*%
X104140000Y-116840000D03*
%TD*%
%TO.P,TP5,1,1*%
%TO.N,GND*%
X111760000Y-116840000D03*
%TD*%
D16*
%TO.P,D5,1,DOUT*%
%TO.N,IR_RX*%
X111861600Y-90373200D03*
%TO.P,D5,2,GND*%
%TO.N,GND*%
X111861600Y-92913200D03*
%TO.P,D5,3,VDD*%
%TO.N,+3V3*%
X111861600Y-95453200D03*
%TD*%
D15*
%TO.P,TP6,1,1*%
%TO.N,PPM_SERVO*%
X140309600Y-87020400D03*
%TD*%
D28*
%TO.P,U8,1,VCCA*%
%TO.N,+3V3*%
X144208500Y-88442800D03*
%TO.P,U8,2*%
%TO.N,GND*%
X143256000Y-88442800D03*
%TO.P,U8,3,A*%
%TO.N,PPM_SERVO*%
X142303500Y-88442800D03*
%TO.P,U8,4,B*%
%TO.N,Net-(P3-Pad1)*%
X142303500Y-90982800D03*
%TO.P,U8,5,DIR*%
%TO.N,+3V3*%
X143256000Y-90982800D03*
%TO.P,U8,6,VCCB*%
%TO.N,+5V*%
X144208500Y-90982800D03*
%TD*%
D24*
%TO.P,C15,1*%
%TO.N,+5V*%
X146151600Y-90271600D03*
%TO.P,C15,2*%
%TO.N,GND*%
X146151600Y-88747600D03*
%TD*%
D25*
%TO.P,C16,1*%
%TO.N,+5V*%
X140047500Y-94750000D03*
%TO.P,C16,2*%
%TO.N,GND*%
X141952500Y-94750000D03*
%TD*%
%TO.P,C17,1*%
%TO.N,+5V*%
X94297500Y-82050000D03*
%TO.P,C17,2*%
%TO.N,GND*%
X96202500Y-82050000D03*
%TD*%
D15*
%TO.P,TP7,1,1*%
%TO.N,PPM_ESC*%
X137160000Y-107289600D03*
%TD*%
%TO.P,TP8,1,1*%
%TO.N,HL_PWM*%
X116382800Y-108610400D03*
%TD*%
%TO.P,TP9,1,1*%
%TO.N,RL_DAT*%
X140239260Y-109202960D03*
%TD*%
D25*
%TO.P,L1,1,1*%
%TO.N,+VBAT*%
X157721300Y-98044000D03*
%TO.P,L1,2,2*%
%TO.N,Net-(C7-Pad1)*%
X155816300Y-98044000D03*
%TD*%
D38*
%TO.P,P5,1,P1*%
%TO.N,GND*%
X150672800Y-111607600D03*
D16*
%TO.P,P5,2,P2*%
%TO.N,U0_TX*%
X153212800Y-111607600D03*
%TO.P,P5,3,P3*%
%TO.N,U0_RX*%
X155752800Y-111607600D03*
%TO.P,P5,4*%
%TO.N,HL_PWM*%
X158292800Y-111607600D03*
%TD*%
D18*
%TO.P,R3,1*%
%TO.N,GND*%
X90500000Y-117202500D03*
%TO.P,R3,2*%
%TO.N,Net-(R11-Pad2)*%
X90500000Y-115297500D03*
%TD*%
D21*
%TO.P,R11,1*%
%TO.N,Net-(R11-Pad1)*%
X93012000Y-113260000D03*
%TO.P,R11,2*%
%TO.N,Net-(R11-Pad2)*%
X91488000Y-113260000D03*
%TD*%
D24*
%TO.P,R12,1*%
%TO.N,Net-(R12-Pad1)*%
X92250000Y-85738000D03*
%TO.P,R12,2*%
%TO.N,HL_PWM*%
X92250000Y-87262000D03*
%TD*%
D39*
%TO.P,U5,1*%
%TO.N,N/C*%
X93600000Y-87600000D03*
%TO.P,U5,2,A*%
%TO.N,HL_PWM*%
X94250000Y-87600000D03*
%TO.P,U5,3*%
%TO.N,GND*%
X94900000Y-87600000D03*
%TO.P,U5,4,Y*%
%TO.N,Net-(R12-Pad1)*%
X94900000Y-85400000D03*
%TO.P,U5,5*%
%TO.N,+3V3*%
X93600000Y-85400000D03*
%TD*%
D15*
%TO.P,TP11,1,1*%
%TO.N,+3V3*%
X111689200Y-122732800D03*
%TD*%
D16*
%TO.P,P4,1,P1*%
%TO.N,+5V*%
X205183145Y-83769200D03*
%TO.P,P4,2,P2*%
%TO.N,VTX*%
X205183145Y-86309200D03*
%TO.P,P4,3,P3*%
%TO.N,GND*%
X205183145Y-88849200D03*
%TD*%
D40*
%TO.P,SW2,1,1*%
%TO.N,GND*%
X116979800Y-90714000D03*
X124929800Y-90714000D03*
%TO.P,SW2,2,2*%
%TO.N,Net-(C2-Pad1)*%
X116979800Y-95214000D03*
X124929800Y-95214000D03*
%TD*%
D15*
%TO.P,TP10,1,1*%
%TO.N,+5V*%
X109169200Y-122732800D03*
%TD*%
D41*
%TO.N,GND*%
X127949260Y-106982960D03*
X91385200Y-105693906D03*
X97670000Y-118500000D03*
D42*
X152857200Y-101600000D03*
D41*
X94650000Y-112500000D03*
X129449260Y-106982960D03*
X128168400Y-98982960D03*
X97670000Y-122360000D03*
X90510000Y-118750000D03*
X120969260Y-103482960D03*
X127949260Y-105482960D03*
X94900000Y-88760000D03*
X150469600Y-96740400D03*
D42*
X145592800Y-87172800D03*
D41*
X90500000Y-88600000D03*
X95403294Y-104443906D03*
X143100000Y-94750000D03*
X124460000Y-110744000D03*
X96400000Y-122360000D03*
X97670000Y-119640000D03*
X120969260Y-106482960D03*
D42*
X145745200Y-100533200D03*
D41*
X129449260Y-105482960D03*
X93385200Y-106993906D03*
X96200000Y-83410000D03*
D42*
X157734000Y-101193600D03*
D41*
X91385200Y-104443906D03*
X123799600Y-101650800D03*
X92885200Y-102883906D03*
X97670000Y-117620000D03*
X97670000Y-121000000D03*
X132849260Y-98356060D03*
X93000000Y-83000000D03*
X95450000Y-116000000D03*
X130668400Y-100982960D03*
X135709260Y-108742960D03*
%TO.N,+5V*%
X95072200Y-83743800D03*
X140050000Y-93250000D03*
%TO.N,HL_PWM*%
X131761150Y-110554850D03*
D42*
%TO.N,+3V3*%
X113080800Y-107238800D03*
X96621600Y-97129600D03*
X113741200Y-112674400D03*
X145542000Y-104546400D03*
D41*
X96469200Y-106172000D03*
X96469200Y-103327200D03*
X132429260Y-107982960D03*
D42*
X171500800Y-97282000D03*
D41*
X124504640Y-106482960D03*
X124619260Y-103482960D03*
X127762000Y-109931200D03*
X128199260Y-102632960D03*
X134199260Y-108742960D03*
%TO.N,+VBAT*%
X102480000Y-119990000D03*
D42*
%TO.N,SDA*%
X109717840Y-109845060D03*
X108815346Y-110518752D03*
%TO.N,SCL*%
X110124240Y-110596460D03*
D41*
%TO.N,IR_RX*%
X125899260Y-109232960D03*
D42*
%TO.N,U0_TX*%
X131165600Y-103073200D03*
%TO.N,U0_RX*%
X131775200Y-102514400D03*
D41*
%TO.N,Net-(R11-Pad2)*%
X90474800Y-113385600D03*
X96095947Y-113395946D03*
%TD*%
D43*
%TO.N,VTX*%
X201930000Y-86309200D02*
X205183145Y-86309200D01*
X179578000Y-90627200D02*
X197612000Y-90627200D01*
X197612000Y-90627200D02*
X201930000Y-86309200D01*
%TO.N,RL_DAT*%
X193933600Y-87726100D02*
X179939100Y-87726100D01*
X179939100Y-87726100D02*
X159359600Y-108305600D01*
X159359600Y-108305600D02*
X141136620Y-108305600D01*
X141136620Y-108305600D02*
X140239260Y-109202960D01*
%TO.N,+3V3*%
X171500800Y-97282000D02*
X179578000Y-89204800D01*
X194601200Y-89204800D02*
X195127400Y-88678600D01*
X179578000Y-89204800D02*
X194601200Y-89204800D01*
X195127400Y-88678600D02*
X195127400Y-87357800D01*
X195127400Y-87357800D02*
X195711600Y-86773600D01*
%TO.N,GND*%
X91635200Y-105443906D02*
X91385200Y-105693906D01*
X91635200Y-105943906D02*
X91385200Y-105693906D01*
X91885200Y-103943906D02*
X91385200Y-104443906D01*
X91885200Y-104943906D02*
X91385200Y-104443906D01*
D44*
X96402500Y-122357500D02*
X96400000Y-122360000D01*
D45*
X98598000Y-119988000D02*
X98250000Y-119640000D01*
X98250000Y-119640000D02*
X97670000Y-119640000D01*
D43*
X96650000Y-118050000D02*
X96720000Y-118120000D01*
X96250001Y-118170001D02*
X96580000Y-118500000D01*
X96580000Y-118500000D02*
X97670000Y-118500000D01*
X97170000Y-118120000D02*
X97670000Y-117620000D01*
D45*
X96870000Y-119350000D02*
X97160000Y-119640000D01*
X97160000Y-119640000D02*
X97670000Y-119640000D01*
D43*
X94649999Y-112500001D02*
X94650000Y-112500000D01*
D44*
X90510000Y-117212500D02*
X90500000Y-117202500D01*
X96200000Y-82052500D02*
X96202500Y-82050000D01*
D43*
X153111200Y-100584000D02*
X153111200Y-101346000D01*
D44*
X97670000Y-119640000D02*
X97670000Y-121000000D01*
D43*
X93385200Y-106168906D02*
X93385200Y-106993906D01*
D44*
X150469600Y-96740400D02*
X150469600Y-97688400D01*
X123799600Y-101650800D02*
X123799600Y-99822000D01*
D46*
X157810200Y-99910900D02*
X157721300Y-99822000D01*
D44*
X96402500Y-121000000D02*
X97670000Y-121000000D01*
D43*
X193933600Y-86773600D02*
X193019200Y-86773600D01*
D44*
X125491040Y-110744000D02*
X125730000Y-110982960D01*
D43*
X92160200Y-104943906D02*
X91885200Y-104943906D01*
X96250001Y-118170001D02*
X96250001Y-117498600D01*
D44*
X120969260Y-106482960D02*
X119199260Y-106482960D01*
D43*
X153111200Y-101346000D02*
X152857200Y-101600000D01*
X95403294Y-104443906D02*
X94610200Y-104443906D01*
D44*
X90510000Y-118750000D02*
X91488000Y-118750000D01*
X123799600Y-101650800D02*
X124866400Y-101650800D01*
D45*
X132180400Y-97232960D02*
X132180400Y-98144400D01*
D46*
X157721300Y-99822000D02*
X157721300Y-101180900D01*
D44*
X146151600Y-88747600D02*
X146151600Y-87731600D01*
D43*
X95450000Y-117498600D02*
X95450000Y-116000000D01*
D44*
X135709260Y-109720960D02*
X135709260Y-108742960D01*
D45*
X126437260Y-97232960D02*
X126437260Y-98700460D01*
X126437260Y-98700460D02*
X126719760Y-98982960D01*
D44*
X124460000Y-110744000D02*
X125491040Y-110744000D01*
D45*
X132180400Y-98144400D02*
X132392060Y-98356060D01*
D46*
X145764000Y-100514400D02*
X145745200Y-100533200D01*
D43*
X116179600Y-92913200D02*
X111861600Y-92913200D01*
D45*
X99500000Y-119988000D02*
X98598000Y-119988000D01*
D43*
X92160200Y-105943906D02*
X91635200Y-105943906D01*
D44*
X143100000Y-94750000D02*
X141952500Y-94750000D01*
X146151600Y-87731600D02*
X145592800Y-87172800D01*
X121937260Y-106482960D02*
X120969260Y-106482960D01*
X93000000Y-83000000D02*
X91770000Y-83000000D01*
X96200000Y-82052500D02*
X96200000Y-83410000D01*
X96402500Y-122357500D02*
X96402500Y-121000000D01*
D45*
X126719760Y-98982960D02*
X127949260Y-98982960D01*
D43*
X193019200Y-86773600D02*
X192612800Y-86367200D01*
D44*
X97670000Y-122360000D02*
X96400000Y-122360000D01*
D43*
X91635200Y-105443906D02*
X92160200Y-105443906D01*
D44*
X97670000Y-121000000D02*
X97670000Y-122360000D01*
D43*
X116979800Y-90714000D02*
X116979800Y-92113000D01*
D44*
X90500000Y-88600000D02*
X90500000Y-87452500D01*
D43*
X96720000Y-118120000D02*
X97170000Y-118120000D01*
X92160200Y-103943906D02*
X91885200Y-103943906D01*
X116979800Y-92113000D02*
X116179600Y-92913200D01*
D46*
X147777200Y-100514400D02*
X145764000Y-100514400D01*
D43*
X192612800Y-86367200D02*
X192612800Y-82956400D01*
X96650000Y-118050000D02*
X96650000Y-117498600D01*
X92885200Y-103718906D02*
X92885200Y-102883906D01*
X124929800Y-90714000D02*
X116979800Y-90714000D01*
X94649999Y-114501400D02*
X94649999Y-112500001D01*
D46*
X157721300Y-101180900D02*
X157734000Y-101193600D01*
X159562800Y-99910900D02*
X157810200Y-99910900D01*
D44*
X90510000Y-118750000D02*
X90510000Y-117212500D01*
D43*
X92160200Y-104443906D02*
X91385200Y-104443906D01*
D45*
X132392060Y-98356060D02*
X132849260Y-98356060D01*
D44*
X143256000Y-87680800D02*
X143764000Y-87172800D01*
D45*
X94900000Y-87600000D02*
X94900000Y-88760000D01*
D44*
X121937260Y-103482960D02*
X120969260Y-103482960D01*
X143256000Y-88442800D02*
X143256000Y-87680800D01*
X143764000Y-87172800D02*
X145592800Y-87172800D01*
X120969260Y-103482960D02*
X119199260Y-103482960D01*
D45*
X96272000Y-119350000D02*
X96870000Y-119350000D01*
D47*
%TO.N,Net-(MOD1-Pad3)*%
X161267600Y-92580000D02*
X155104000Y-92580000D01*
X168742400Y-85105200D02*
X168742400Y-81541600D01*
X161267600Y-92580000D02*
X168742400Y-85105200D01*
X153791600Y-89200000D02*
X153791600Y-91267600D01*
X155104000Y-92580000D02*
X153791600Y-91267600D01*
D46*
%TO.N,+5V*%
X140047500Y-93252500D02*
X140050000Y-93250000D01*
D44*
X91770000Y-81190000D02*
X91120000Y-80540000D01*
X91120000Y-80540000D02*
X85400000Y-80540000D01*
X85400000Y-80540000D02*
X84730000Y-81210000D01*
X84730000Y-81210000D02*
X84730000Y-83000000D01*
X84730000Y-83000000D02*
X86000000Y-84270000D01*
X91772500Y-82050000D02*
X91770000Y-82047500D01*
X95072200Y-83743800D02*
X94297500Y-82969100D01*
D45*
X145440400Y-90982800D02*
X146151600Y-90271600D01*
D46*
X140047500Y-96112500D02*
X139330000Y-96830000D01*
D43*
X196473600Y-85821100D02*
X195775100Y-85821100D01*
D46*
X135560000Y-96830000D02*
X135000000Y-96270000D01*
D45*
X144208500Y-90982800D02*
X144208500Y-92075500D01*
D46*
X140047500Y-93252500D02*
X140047500Y-94750000D01*
X140047500Y-94750000D02*
X140047500Y-96112500D01*
D43*
X195152800Y-85198800D02*
X195152800Y-82956400D01*
X195775100Y-85821100D02*
X195152800Y-85198800D01*
D46*
X139330000Y-96830000D02*
X135560000Y-96830000D01*
D45*
X144208500Y-90982800D02*
X145440400Y-90982800D01*
D44*
X94297500Y-82969100D02*
X94297500Y-82050000D01*
X91770000Y-82047500D02*
X91770000Y-81190000D01*
D45*
X144208500Y-92075500D02*
X143034000Y-93250000D01*
D46*
X135000000Y-96270000D02*
X135000000Y-94640400D01*
D45*
X140050000Y-93250000D02*
X143034000Y-93250000D01*
D44*
X94297500Y-82050000D02*
X91772500Y-82050000D01*
%TO.N,Net-(D1-Pad2)*%
X89230000Y-84680000D02*
X88250000Y-85660000D01*
X88250000Y-85660000D02*
X88250000Y-124720000D01*
X88250000Y-124720000D02*
X87240000Y-125730000D01*
X87240000Y-125730000D02*
X86000000Y-125730000D01*
X89230000Y-83952500D02*
X89230000Y-84680000D01*
%TO.N,Net-(D2-Pad2)*%
X87903900Y-82047500D02*
X87586400Y-81730000D01*
X89230000Y-82047500D02*
X87903900Y-82047500D01*
X87586400Y-81730000D02*
X86000000Y-81730000D01*
D45*
%TO.N,HL_PWM*%
X94250000Y-88400000D02*
X93740000Y-88910000D01*
X92250000Y-88440000D02*
X92720000Y-88910000D01*
X92720000Y-88910000D02*
X93740000Y-88910000D01*
D43*
X131761150Y-110554850D02*
X131198700Y-110554850D01*
D44*
X114604800Y-108559600D02*
X116332000Y-108559600D01*
D45*
X94589600Y-98856800D02*
X99537600Y-103804800D01*
D43*
X129948940Y-109305090D02*
X129948940Y-108732320D01*
D45*
X94589600Y-89759600D02*
X94589600Y-95402400D01*
X99537600Y-103804800D02*
X111577200Y-103804800D01*
X94589600Y-95402400D02*
X94589600Y-98856800D01*
X93740000Y-88910000D02*
X94589600Y-89759600D01*
X94250000Y-88400000D02*
X94250000Y-87600000D01*
X111577200Y-103804800D02*
X114604800Y-106832400D01*
X114604800Y-106832400D02*
X114604800Y-108559600D01*
X92250000Y-87262000D02*
X92250000Y-88440000D01*
D44*
X116332000Y-108559600D02*
X116382800Y-108610400D01*
D43*
X131198700Y-110554850D02*
X129948940Y-109305090D01*
D44*
%TO.N,Net-(MOD1-Pad5)*%
X176326800Y-83515200D02*
X177022400Y-82819600D01*
X177022400Y-82819600D02*
X177022400Y-81541600D01*
X174372400Y-81491600D02*
X174372400Y-82881600D01*
X174372400Y-82881600D02*
X175006000Y-83515200D01*
X175006000Y-83515200D02*
X176326800Y-83515200D01*
D45*
%TO.N,Net-(A1-Pad1)*%
X121937260Y-104982960D02*
X120699260Y-104982960D01*
D43*
%TO.N,Net-(C2-Pad1)*%
X125568260Y-102657460D02*
X125568260Y-98441060D01*
X122699260Y-102988860D02*
X123030660Y-102657460D01*
X126796800Y-103733600D02*
X126949200Y-103733600D01*
X124020640Y-107982960D02*
X123155880Y-107982960D01*
X125568260Y-98441060D02*
X125171200Y-98044000D01*
X125568260Y-102657460D02*
X126644400Y-103733600D01*
X123155880Y-107982960D02*
X122699260Y-107526340D01*
X126644400Y-103733600D02*
X126949200Y-103733600D01*
X124929800Y-97802600D02*
X125171200Y-98044000D01*
X123030660Y-102657460D02*
X125568260Y-102657460D01*
X126199260Y-107982960D02*
X124020640Y-107982960D01*
X124929800Y-95214000D02*
X124929800Y-97802600D01*
X122699260Y-107526340D02*
X122699260Y-102988860D01*
X116979800Y-95214000D02*
X124929800Y-95214000D01*
D45*
%TO.N,PPM_ESC*%
X182572400Y-83822800D02*
X159105600Y-107289600D01*
X137160000Y-107289600D02*
X134442620Y-107289600D01*
X132999900Y-108732320D02*
X130449320Y-108732320D01*
X159105600Y-107289600D02*
X137160000Y-107289600D01*
X134442620Y-107289600D02*
X133134310Y-108597910D01*
X182572400Y-81541600D02*
X182572400Y-83822800D01*
X133134310Y-108597910D02*
X132999900Y-108732320D01*
D44*
%TO.N,Net-(R2-Pad2)*%
X90500000Y-83440000D02*
X90060000Y-83000000D01*
X90060000Y-83000000D02*
X89230000Y-83000000D01*
X90500000Y-85547500D02*
X90500000Y-83440000D01*
D43*
%TO.N,+3V3*%
X128199260Y-102632960D02*
X128450340Y-102884040D01*
X127949960Y-102882260D02*
X128199260Y-102632960D01*
X132429200Y-107983020D02*
X132429260Y-107982960D01*
X127949960Y-103733600D02*
X127949960Y-102882260D01*
D44*
X124619260Y-103482960D02*
X124619260Y-104019980D01*
D43*
X113741200Y-118262400D02*
X111689200Y-120314400D01*
D44*
X127254000Y-110439200D02*
X127762000Y-109931200D01*
D43*
X150469600Y-101752400D02*
X150215600Y-101752400D01*
X125126560Y-105482960D02*
X126199260Y-105482960D01*
X196473600Y-86773600D02*
X195711600Y-86773600D01*
X95274894Y-105943906D02*
X94610200Y-105943906D01*
X144551400Y-89560400D02*
X144208500Y-89217500D01*
D44*
X124619260Y-104019980D02*
X125074240Y-104474960D01*
D43*
X147218400Y-89560400D02*
X144551400Y-89560400D01*
X111689200Y-122732800D02*
X111689200Y-120314400D01*
X150215600Y-101752400D02*
X149504400Y-101041200D01*
D44*
X127949960Y-109743240D02*
X127762000Y-109931200D01*
X95480000Y-86500000D02*
X93850000Y-86500000D01*
D43*
X93885200Y-106168906D02*
X94385200Y-106168906D01*
X195711600Y-86773600D02*
X195305200Y-86367200D01*
X132429200Y-107983020D02*
X131198620Y-107983020D01*
X94385200Y-106168906D02*
X94610200Y-105943906D01*
X144208500Y-89217500D02*
X143484600Y-89941400D01*
D44*
X93850000Y-86500000D02*
X93600000Y-86250000D01*
D43*
X95502988Y-106172000D02*
X95274894Y-105943906D01*
D44*
X113080800Y-108559600D02*
X113080800Y-107238800D01*
X123461260Y-103482960D02*
X124619260Y-103482960D01*
X125004640Y-105982960D02*
X124504640Y-106482960D01*
D43*
X149504400Y-101041200D02*
X149504400Y-91846400D01*
D44*
X96621600Y-87641600D02*
X95480000Y-86500000D01*
D43*
X113741200Y-112674400D02*
X113741200Y-118262400D01*
D44*
X127254000Y-110982960D02*
X127254000Y-110439200D01*
D43*
X128450340Y-102884040D02*
X128450340Y-103733600D01*
X125004640Y-105604880D02*
X125126560Y-105482960D01*
D45*
X150600000Y-101882800D02*
X150469600Y-101752400D01*
D43*
X96469200Y-106172000D02*
X95502988Y-106172000D01*
D44*
X124504640Y-106482960D02*
X123461260Y-106482960D01*
D43*
X193933600Y-85821100D02*
X194759100Y-85821100D01*
D45*
X150600000Y-104597200D02*
X150600000Y-101882800D01*
D43*
X95226906Y-103327200D02*
X94610200Y-103943906D01*
D44*
X93600000Y-86250000D02*
X93600000Y-85400000D01*
X96621600Y-97129600D02*
X96621600Y-87641600D01*
D46*
X145574000Y-104514400D02*
X145542000Y-104546400D01*
D43*
X149504400Y-91846400D02*
X147218400Y-89560400D01*
D46*
X147860000Y-104597200D02*
X147777200Y-104514400D01*
D44*
X125004640Y-105604880D02*
X125004640Y-105982960D01*
D43*
X144208500Y-88442800D02*
X144208500Y-89217500D01*
X194759100Y-85821100D02*
X195305200Y-86367200D01*
D46*
X147777200Y-104514400D02*
X145574000Y-104514400D01*
D45*
X134199260Y-109720960D02*
X134199260Y-108742960D01*
D44*
X125004640Y-105982960D02*
X126199260Y-105982960D01*
D43*
X96469200Y-103327200D02*
X95226906Y-103327200D01*
D44*
X127949960Y-108732320D02*
X127949960Y-109743240D01*
D43*
X143256000Y-90170000D02*
X143484600Y-89941400D01*
D44*
X125074240Y-104474960D02*
X126199260Y-104474960D01*
X125118560Y-105490960D02*
X126199260Y-105490960D01*
D43*
X143484600Y-89941400D02*
X144068800Y-89357200D01*
D44*
X125004640Y-105604880D02*
X125118560Y-105490960D01*
D46*
X150600000Y-104597200D02*
X147860000Y-104597200D01*
D43*
X143256000Y-90982800D02*
X143256000Y-90170000D01*
%TO.N,Net-(C4-Pad1)*%
X128948180Y-103733600D02*
X128948180Y-101762740D01*
D45*
X128678160Y-97232960D02*
X129387600Y-97942400D01*
X129387600Y-99763760D02*
X129387600Y-97942400D01*
X128180400Y-97232960D02*
X128678160Y-97232960D01*
D43*
X128948180Y-101762740D02*
X128168400Y-100982960D01*
D45*
X129387600Y-97942400D02*
X129387600Y-99501264D01*
X129387600Y-99763760D02*
X128168400Y-100982960D01*
D43*
%TO.N,Net-(C5-Pad1)*%
X129445260Y-100280836D02*
X130668400Y-99057696D01*
X130668400Y-99057696D02*
X130668400Y-98982960D01*
X129445260Y-103730300D02*
X129445260Y-100280836D01*
D45*
X130656400Y-98970960D02*
X130668400Y-98982960D01*
X130656400Y-97232960D02*
X130656400Y-98970960D01*
D43*
X129448560Y-103733600D02*
X129445260Y-103730300D01*
%TO.N,Net-(C12-Pad1)*%
X95849999Y-118050001D02*
X95510000Y-118390000D01*
X95510000Y-118390000D02*
X95510000Y-122610000D01*
X95510000Y-122610000D02*
X96340000Y-123440000D01*
X98290000Y-123440000D02*
X99500000Y-122230000D01*
X96340000Y-123440000D02*
X98290000Y-123440000D01*
X95849999Y-118050001D02*
X95849999Y-117498600D01*
X99500000Y-121512000D02*
X99500000Y-122230000D01*
D45*
X99500000Y-121512000D02*
X101250000Y-121512000D01*
D44*
%TO.N,+VBAT*%
X102478000Y-119988000D02*
X102480000Y-119990000D01*
D46*
X157721300Y-98044000D02*
X159524700Y-98044000D01*
D44*
X101250000Y-119988000D02*
X102478000Y-119988000D01*
D46*
X171542400Y-89010800D02*
X171542400Y-81541600D01*
X159524700Y-98044000D02*
X159562800Y-98005900D01*
X159562800Y-98005900D02*
X162547300Y-98005900D01*
X162547300Y-98005900D02*
X171542400Y-89010800D01*
%TO.N,Net-(P1-Pad2)*%
X94497500Y-123727500D02*
X94500000Y-123730000D01*
D43*
X94649999Y-118170001D02*
X94160000Y-118660000D01*
X94160000Y-118660000D02*
X94160000Y-120662500D01*
X94160000Y-120662500D02*
X94497500Y-121000000D01*
D46*
X94497500Y-121000000D02*
X94497500Y-123727500D01*
D43*
X94649999Y-117498600D02*
X94649999Y-118170001D01*
%TO.N,SDA*%
X95893200Y-112234400D02*
X95050001Y-113077599D01*
X109717840Y-109845060D02*
X109915740Y-110042960D01*
X109717840Y-109845060D02*
X109372400Y-109499620D01*
X107099698Y-112234400D02*
X95893200Y-112234400D01*
X109372400Y-106730800D02*
X107695106Y-105053506D01*
X109915740Y-110042960D02*
X126669800Y-110042960D01*
X109372400Y-109499620D02*
X109372400Y-106730800D01*
X127449580Y-109263180D02*
X127449580Y-108732320D01*
X94719800Y-105053506D02*
X94610200Y-104943906D01*
X126669800Y-110042960D02*
X127449580Y-109263180D01*
X108815346Y-110518752D02*
X107099698Y-112234400D01*
X107695106Y-105053506D02*
X94719800Y-105053506D01*
X95050001Y-113077599D02*
X95050001Y-114501400D01*
%TO.N,SCL*%
X127711200Y-111912400D02*
X124510800Y-111912400D01*
X94645000Y-105409106D02*
X107547812Y-105409106D01*
X109488364Y-110399060D02*
X109196452Y-110107148D01*
X110322140Y-110398560D02*
X110124240Y-110596460D01*
X95450000Y-113180494D02*
X95450000Y-114501400D01*
X109488364Y-110399060D02*
X109488364Y-110629209D01*
X128450340Y-111173260D02*
X127711200Y-111912400D01*
X109488364Y-110629209D02*
X107527573Y-112590000D01*
X110550960Y-110398560D02*
X110322140Y-110398560D01*
X109016800Y-109927495D02*
X109196452Y-110107148D01*
X107547812Y-105409106D02*
X109016800Y-106878094D01*
X128450340Y-108732320D02*
X128450340Y-111173260D01*
X94610200Y-105443906D02*
X94645000Y-105409106D01*
X110550460Y-110399060D02*
X109488364Y-110399060D01*
X109016800Y-106878094D02*
X109016800Y-109927495D01*
X124510800Y-111912400D02*
X122996960Y-110398560D01*
X107527573Y-112590000D02*
X96040494Y-112590000D01*
X96040494Y-112590000D02*
X95450000Y-113180494D01*
X122996960Y-110398560D02*
X110550960Y-110398560D01*
X110550960Y-110398560D02*
X110550460Y-110399060D01*
%TO.N,RL_DAT*%
X134199260Y-111244960D02*
X134199260Y-110682960D01*
X129448560Y-109562260D02*
X129448560Y-108732320D01*
X134199260Y-110682960D02*
X134399260Y-110482960D01*
X131131260Y-111244960D02*
X129448560Y-109562260D01*
X134399260Y-110482960D02*
X138959260Y-110482960D01*
X138959260Y-110482960D02*
X140239260Y-109202960D01*
X134199260Y-111244960D02*
X131131260Y-111244960D01*
D46*
%TO.N,Net-(C7-Pad1)*%
X155816300Y-98044000D02*
X155816300Y-99822000D01*
X154063700Y-98044000D02*
X155816300Y-98044000D01*
D47*
%TO.N,Net-(MOD1-Pad2)*%
X160177200Y-89200000D02*
X165942400Y-83434800D01*
X165942400Y-83434800D02*
X165942400Y-81541600D01*
X160177200Y-89200000D02*
X156291600Y-89200000D01*
D44*
%TO.N,Net-(R6-Pad2)*%
X151536400Y-99212400D02*
X150469600Y-99212400D01*
X152158700Y-98590100D02*
X151536400Y-99212400D01*
X152158700Y-98044000D02*
X152158700Y-98590100D01*
X150469600Y-99212400D02*
X150469600Y-100228400D01*
D43*
%TO.N,Net-(TP1-Pad1)*%
X154432000Y-99364800D02*
X152552400Y-99364800D01*
X159969200Y-102412800D02*
X156565600Y-102412800D01*
X156565600Y-102412800D02*
X154889200Y-100736400D01*
X152158700Y-99758500D02*
X152158700Y-100584000D01*
X152552400Y-99364800D02*
X152158700Y-99758500D01*
X154889200Y-100736400D02*
X154889200Y-99822000D01*
X154889200Y-99822000D02*
X154432000Y-99364800D01*
%TO.N,VTX*%
X128948180Y-109711880D02*
X128948180Y-108732320D01*
X143179800Y-109245400D02*
X160959800Y-109245400D01*
X135709260Y-111244960D02*
X141180240Y-111244960D01*
X131148700Y-111912400D02*
X128948180Y-109711880D01*
X135709260Y-111244960D02*
X135041820Y-111912400D01*
X135041820Y-111912400D02*
X131148700Y-111912400D01*
X160959800Y-109245400D02*
X179578000Y-90627200D01*
X141180240Y-111244960D02*
X143179800Y-109245400D01*
D45*
%TO.N,Net-(C1-Pad2)*%
X123461260Y-104982960D02*
X126199260Y-104982960D01*
D43*
%TO.N,Net-(R1-Pad1)*%
X126746000Y-101650800D02*
X126390400Y-101650800D01*
X127449580Y-102354380D02*
X126746000Y-101650800D01*
X127449580Y-103733600D02*
X127449580Y-102354380D01*
%TO.N,IR_RX*%
X126399900Y-108732320D02*
X125899260Y-109232960D01*
X126949200Y-108732320D02*
X126399900Y-108732320D01*
%TO.N,PPM_SERVO*%
X131198620Y-104482900D02*
X132716520Y-104482900D01*
X142303500Y-88442800D02*
X141732000Y-88442800D01*
X132716520Y-104482900D02*
X133705600Y-103493820D01*
X142303500Y-89141300D02*
X140462000Y-90982800D01*
X133705600Y-103493820D02*
X133705600Y-93268800D01*
X141732000Y-88442800D02*
X140309600Y-87020400D01*
X142303500Y-88442800D02*
X142303500Y-89141300D01*
X135991600Y-90982800D02*
X140462000Y-90982800D01*
X133705600Y-93268800D02*
X135991600Y-90982800D01*
%TO.N,Net-(C13-Pad1)*%
X94250000Y-118050000D02*
X93550000Y-118750000D01*
X93550000Y-118750000D02*
X93012000Y-118750000D01*
X94250000Y-117498600D02*
X94250000Y-118050000D01*
%TO.N,Net-(C14-Pad1)*%
X95050001Y-118289999D02*
X94748000Y-118592000D01*
X94748000Y-118592000D02*
X94748000Y-119350000D01*
X95050001Y-117498600D02*
X95050001Y-118289999D01*
%TO.N,/Power supply/3V3_SW*%
X154098400Y-104644600D02*
X154063700Y-104609900D01*
X154152600Y-104644600D02*
X154098400Y-104644600D01*
X154063700Y-104609900D02*
X154063700Y-100584000D01*
X154200000Y-104597200D02*
X154152600Y-104644600D01*
%TO.N,U0_TX*%
X129948940Y-103733600D02*
X129948940Y-103223060D01*
X130117850Y-103054150D02*
X129948940Y-103223060D01*
X131165600Y-103073200D02*
X131146550Y-103054150D01*
X131146550Y-103054150D02*
X130117850Y-103054150D01*
%TO.N,U0_RX*%
X131288675Y-103733600D02*
X131775200Y-103247075D01*
X130449320Y-103733600D02*
X131288675Y-103733600D01*
X131775200Y-103247075D02*
X131775200Y-102514400D01*
%TO.N,Net-(R11-Pad2)*%
X90474800Y-113385600D02*
X91362400Y-113385600D01*
X90474800Y-115272300D02*
X90500000Y-115297500D01*
X91362400Y-113385600D02*
X91488000Y-113260000D01*
X90474800Y-113385600D02*
X90474800Y-115272300D01*
X96250001Y-113550000D02*
X96250001Y-114501400D01*
X96095947Y-113395946D02*
X96250001Y-113550000D01*
%TO.N,Net-(R11-Pad1)*%
X94250000Y-113890000D02*
X93620000Y-113260000D01*
X93620000Y-113260000D02*
X93012000Y-113260000D01*
X94250000Y-114501400D02*
X94250000Y-113890000D01*
%TO.N,Net-(P3-Pad1)*%
X142303500Y-90982800D02*
X140798300Y-92488000D01*
X139261600Y-92488000D02*
X137540000Y-94209600D01*
X137540000Y-94209600D02*
X137540000Y-94640400D01*
X140798300Y-92488000D02*
X139261600Y-92488000D01*
D45*
%TO.N,Net-(R12-Pad1)*%
X94900000Y-84590000D02*
X94262500Y-83952500D01*
X94262500Y-83952500D02*
X91770000Y-83952500D01*
X92250000Y-85100000D02*
X91770000Y-84620000D01*
X91770000Y-84620000D02*
X91770000Y-83952500D01*
X94900000Y-85400000D02*
X94900000Y-84590000D01*
X92250000Y-85738000D02*
X92250000Y-85100000D01*
%TO.N,Net-(D4-Pad4)*%
X197722800Y-87200800D02*
X197197500Y-87726100D01*
X197197500Y-87726100D02*
X196473600Y-87726100D01*
X197722800Y-82956400D02*
X197722800Y-87200800D01*
%TD*%
%TA.AperFunction,Conductor*%
%TO.N,/Power supply/3V3_SW*%
G36*
X154507067Y-100760341D02*
G01*
X154564654Y-100781010D01*
X154599095Y-100831582D01*
X154600375Y-100836952D01*
X154600799Y-100838052D01*
X154602473Y-100847039D01*
X154616546Y-100869869D01*
X154623226Y-100882731D01*
X154631051Y-100900945D01*
X154631053Y-100900948D01*
X154633811Y-100907368D01*
X154637843Y-100912277D01*
X154642276Y-100916710D01*
X154656548Y-100934767D01*
X154661526Y-100942842D01*
X154668799Y-100948372D01*
X154668802Y-100948376D01*
X154684912Y-100960626D01*
X154694992Y-100969426D01*
X154853716Y-101128150D01*
X154861477Y-101136888D01*
X155325525Y-101725903D01*
X155346755Y-101786127D01*
X155396174Y-106480956D01*
X155377880Y-106539342D01*
X155328761Y-106575825D01*
X155299786Y-106580964D01*
X154170375Y-106610685D01*
X153568024Y-106626536D01*
X153509356Y-106609166D01*
X153472103Y-106560629D01*
X153466421Y-106527941D01*
X153448687Y-101791051D01*
X153451901Y-101765656D01*
X153462287Y-101725903D01*
X153581282Y-101270429D01*
X153604319Y-101230237D01*
X153606272Y-101228932D01*
X153650587Y-101162611D01*
X153662220Y-101104128D01*
X153662220Y-100973343D01*
X153665435Y-100948319D01*
X153700858Y-100812731D01*
X153733860Y-100761209D01*
X153790843Y-100738925D01*
X153799654Y-100738801D01*
X154507067Y-100760341D01*
G37*
%TD.AperFunction*%
%TD*%
M02*
