%TF.GenerationSoftware,KiCad,Pcbnew,(6.0.11)*%
%TF.CreationDate,2023-02-13T14:33:55+01:00*%
%TF.ProjectId,carinsitu,63617269-6e73-4697-9475-2e6b69636164,1*%
%TF.SameCoordinates,Original*%
%TF.FileFunction,Soldermask,Top*%
%TF.FilePolarity,Negative*%
%FSLAX46Y46*%
G04 Gerber Fmt 4.6, Leading zero omitted, Abs format (unit mm)*
G04 Created by KiCad (PCBNEW (6.0.11)) date 2023-02-13 14:33:55*
%MOMM*%
%LPD*%
G01*
G04 APERTURE LIST*
G04 Aperture macros list*
%AMRoundRect*
0 Rectangle with rounded corners*
0 $1 Rounding radius*
0 $2 $3 $4 $5 $6 $7 $8 $9 X,Y pos of 4 corners*
0 Add a 4 corners polygon primitive as box body*
4,1,4,$2,$3,$4,$5,$6,$7,$8,$9,$2,$3,0*
0 Add four circle primitives for the rounded corners*
1,1,$1+$1,$2,$3*
1,1,$1+$1,$4,$5*
1,1,$1+$1,$6,$7*
1,1,$1+$1,$8,$9*
0 Add four rect primitives between the rounded corners*
20,1,$1+$1,$2,$3,$4,$5,0*
20,1,$1+$1,$4,$5,$6,$7,0*
20,1,$1+$1,$6,$7,$8,$9,0*
20,1,$1+$1,$8,$9,$2,$3,0*%
G04 Aperture macros list end*
%ADD10C,1.200000*%
%ADD11C,5.400000*%
%ADD12C,1.924000*%
%ADD13C,2.200000*%
%ADD14C,1.900000*%
%ADD15RoundRect,0.450000X0.450000X-0.262500X0.450000X0.262500X-0.450000X0.262500X-0.450000X-0.262500X0*%
%ADD16RoundRect,0.350000X0.512500X0.150000X-0.512500X0.150000X-0.512500X-0.150000X0.512500X-0.150000X0*%
%ADD17RoundRect,0.450000X-0.475000X0.250000X-0.475000X-0.250000X0.475000X-0.250000X0.475000X0.250000X0*%
%ADD18RoundRect,0.425000X-0.250000X0.225000X-0.250000X-0.225000X0.250000X-0.225000X0.250000X0.225000X0*%
%ADD19RoundRect,0.425000X-0.225000X-0.250000X0.225000X-0.250000X0.225000X0.250000X-0.225000X0.250000X0*%
%ADD20RoundRect,0.450000X-0.262500X-0.450000X0.262500X-0.450000X0.262500X0.450000X-0.262500X0.450000X0*%
%ADD21RoundRect,0.450000X-0.250000X-0.475000X0.250000X-0.475000X0.250000X0.475000X-0.250000X0.475000X0*%
%ADD22C,2.100000*%
%ADD23RoundRect,0.350000X-0.150000X0.512500X-0.150000X-0.512500X0.150000X-0.512500X0.150000X0.512500X0*%
%ADD24RoundRect,0.287500X-0.087500X0.225000X-0.087500X-0.225000X0.087500X-0.225000X0.087500X0.225000X0*%
%ADD25RoundRect,0.287500X-0.225000X0.087500X-0.225000X-0.087500X0.225000X-0.087500X0.225000X0.087500X0*%
%ADD26O,2.400000X2.000000*%
%ADD27RoundRect,0.450000X0.262500X0.450000X-0.262500X0.450000X-0.262500X-0.450000X0.262500X-0.450000X0*%
%ADD28RoundRect,0.450000X-0.450000X0.262500X-0.450000X-0.262500X0.450000X-0.262500X0.450000X0.262500X0*%
%ADD29RoundRect,0.250000X0.050000X-0.337500X0.050000X0.337500X-0.050000X0.337500X-0.050000X-0.337500X0*%
%ADD30RoundRect,0.200000X1.175000X-0.890000X1.175000X0.890000X-1.175000X0.890000X-1.175000X-0.890000X0*%
%ADD31RoundRect,0.425000X0.250000X-0.225000X0.250000X0.225000X-0.250000X0.225000X-0.250000X-0.225000X0*%
%ADD32RoundRect,0.450000X0.475000X-0.250000X0.475000X0.250000X-0.475000X0.250000X-0.475000X-0.250000X0*%
%ADD33RoundRect,0.450000X-0.362500X-1.075000X0.362500X-1.075000X0.362500X1.075000X-0.362500X1.075000X0*%
%ADD34RoundRect,0.400000X0.275000X-0.200000X0.275000X0.200000X-0.275000X0.200000X-0.275000X-0.200000X0*%
%ADD35RoundRect,0.425000X0.225000X0.250000X-0.225000X0.250000X-0.225000X-0.250000X0.225000X-0.250000X0*%
%ADD36C,2.400000*%
%ADD37RoundRect,0.400000X-0.275000X0.200000X-0.275000X-0.200000X0.275000X-0.200000X0.275000X0.200000X0*%
%ADD38RoundRect,0.400000X0.200000X0.275000X-0.200000X0.275000X-0.200000X-0.275000X0.200000X-0.275000X0*%
%ADD39RoundRect,0.200000X-0.900000X-0.900000X0.900000X-0.900000X0.900000X0.900000X-0.900000X0.900000X0*%
%ADD40RoundRect,0.200000X1.100000X0.600000X-1.100000X0.600000X-1.100000X-0.600000X1.100000X-0.600000X0*%
%ADD41RoundRect,0.200000X3.200000X2.900000X-3.200000X2.900000X-3.200000X-2.900000X3.200000X-2.900000X0*%
%ADD42RoundRect,0.400000X-0.200000X-0.800000X0.200000X-0.800000X0.200000X0.800000X-0.200000X0.800000X0*%
%ADD43RoundRect,0.400000X-0.200000X-0.275000X0.200000X-0.275000X0.200000X0.275000X-0.200000X0.275000X0*%
%ADD44RoundRect,0.200000X-0.900000X1.250000X-0.900000X-1.250000X0.900000X-1.250000X0.900000X1.250000X0*%
%ADD45O,4.400000X2.900000*%
%ADD46RoundRect,0.350000X0.150000X-0.512500X0.150000X0.512500X-0.150000X0.512500X-0.150000X-0.512500X0*%
G04 APERTURE END LIST*
D10*
%TO.C,FIX1*%
X103340000Y-99590000D03*
X106160000Y-99590000D03*
X103340000Y-102410000D03*
X104750000Y-99000000D03*
X106750000Y-101000000D03*
X102750000Y-101000000D03*
D11*
X104750000Y-101000000D03*
D10*
X104750000Y-103000000D03*
X106160000Y-102410000D03*
%TD*%
%TO.C,FIX2*%
X106160000Y-107590000D03*
X104750000Y-111000000D03*
X106160000Y-110410000D03*
D11*
X104750000Y-109000000D03*
D10*
X102750000Y-109000000D03*
X103340000Y-107590000D03*
X106750000Y-109000000D03*
X103340000Y-110410000D03*
X104750000Y-107000000D03*
%TD*%
%TO.C,FIX3*%
X176660000Y-106410000D03*
X175250000Y-107000000D03*
X175250000Y-103000000D03*
X173840000Y-106410000D03*
X177250000Y-105000000D03*
D11*
X175250000Y-105000000D03*
D10*
X173840000Y-103590000D03*
X173250000Y-105000000D03*
X176660000Y-103590000D03*
%TD*%
%TO.C,FIX4*%
X185340000Y-99590000D03*
X184750000Y-101000000D03*
X186750000Y-103000000D03*
X185340000Y-102410000D03*
D11*
X186750000Y-101000000D03*
D10*
X188160000Y-102410000D03*
X188750000Y-101000000D03*
X186750000Y-99000000D03*
X188160000Y-99590000D03*
%TD*%
%TO.C,FIX5*%
X186750000Y-107000000D03*
X185340000Y-110410000D03*
X186750000Y-111000000D03*
D11*
X186750000Y-109000000D03*
D10*
X188160000Y-110410000D03*
X185340000Y-107590000D03*
X184750000Y-109000000D03*
X188160000Y-107590000D03*
X188750000Y-109000000D03*
%TD*%
D12*
%TO.C,P2*%
X146893600Y-89728400D03*
X144393600Y-89728400D03*
%TD*%
D13*
%TO.C,MOD1*%
X151250000Y-84070000D03*
X154050000Y-84070000D03*
X156850000Y-84070000D03*
X159650000Y-84070000D03*
X162480000Y-84020000D03*
D14*
X165130000Y-84070000D03*
X166980000Y-84070000D03*
X168830000Y-84070000D03*
X170680000Y-84070000D03*
%TD*%
D15*
%TO.C,R2*%
X90601800Y-87424900D03*
X90601800Y-85599900D03*
%TD*%
D16*
%TO.C,U2*%
X91739300Y-84008000D03*
X91739300Y-83058000D03*
X91739300Y-82108000D03*
X89464300Y-82108000D03*
X89464300Y-83058000D03*
X89464300Y-84008000D03*
%TD*%
D13*
%TO.C,P1*%
X190728600Y-125552200D03*
X190728600Y-128092200D03*
%TD*%
D17*
%TO.C,C1*%
X178150000Y-110075000D03*
X178150000Y-111975000D03*
%TD*%
D18*
%TO.C,C2*%
X176118000Y-110084900D03*
X176118000Y-111634900D03*
%TD*%
D19*
%TO.C,C3*%
X93852400Y-107619800D03*
X95402400Y-107619800D03*
%TD*%
D20*
%TO.C,R1*%
X119635900Y-89890600D03*
X121460900Y-89890600D03*
%TD*%
D21*
%TO.C,C4*%
X93845000Y-109474000D03*
X95745000Y-109474000D03*
%TD*%
D14*
%TO.C,SW1*%
X201224400Y-127164800D03*
X193224400Y-127164800D03*
D22*
X195224400Y-124764800D03*
X197224400Y-124764800D03*
X199224400Y-124764800D03*
%TD*%
D13*
%TO.C,P3*%
X142976600Y-100355400D03*
X145516600Y-100355400D03*
X148056600Y-100355400D03*
%TD*%
D23*
%TO.C,U4*%
X147600000Y-95887500D03*
X146650000Y-95887500D03*
X145700000Y-95887500D03*
X145700000Y-98162500D03*
X147600000Y-98162500D03*
%TD*%
D20*
%TO.C,R6*%
X161482400Y-110109000D03*
X163307400Y-110109000D03*
%TD*%
%TO.C,R7*%
X161482400Y-112039400D03*
X163307400Y-112039400D03*
%TD*%
D24*
%TO.C,U7*%
X92514400Y-103781406D03*
X92014400Y-103781406D03*
X91514400Y-103781406D03*
X91014400Y-103781406D03*
D25*
X90851900Y-104443906D03*
X90851900Y-104943906D03*
X90851900Y-105443906D03*
D24*
X91014400Y-106106406D03*
X91514400Y-106106406D03*
X92014400Y-106106406D03*
X92514400Y-106106406D03*
D25*
X92676900Y-105443906D03*
X92676900Y-104943906D03*
X92676900Y-104443906D03*
%TD*%
D26*
%TO.C,U1*%
X116512200Y-88595200D03*
X116512200Y-91135200D03*
X116512200Y-93675200D03*
X116512200Y-96215200D03*
X116512200Y-98755200D03*
X116512200Y-101295200D03*
X116512200Y-103835200D03*
X116512200Y-106375200D03*
X139372200Y-106375200D03*
X139372200Y-103835200D03*
X139372200Y-101295200D03*
X139372200Y-98755200D03*
X139372200Y-96215200D03*
X139372200Y-93675200D03*
X139372200Y-91135200D03*
X139372200Y-88595200D03*
%TD*%
D27*
%TO.C,R8*%
X94587700Y-88392000D03*
X92762700Y-88392000D03*
%TD*%
D15*
%TO.C,R9*%
X113790000Y-101812500D03*
X113790000Y-99987500D03*
%TD*%
D28*
%TO.C,R10*%
X113790000Y-103507500D03*
X113790000Y-105332500D03*
%TD*%
D29*
%TO.C,U3*%
X176419800Y-99748700D03*
X176819800Y-99748700D03*
X177219800Y-99748700D03*
X177619800Y-99748700D03*
X178019800Y-99748700D03*
X178419800Y-99748700D03*
X178819800Y-99748700D03*
X178819800Y-96773700D03*
X178419800Y-96773700D03*
X178019800Y-96773700D03*
X177619800Y-96773700D03*
X177219800Y-96773700D03*
X176819800Y-96773700D03*
X176419800Y-96773700D03*
D30*
X177619800Y-98261200D03*
%TD*%
D31*
%TO.C,C15*%
X184251600Y-87262000D03*
X184251600Y-85712000D03*
%TD*%
D32*
%TO.C,C16*%
X181940200Y-87411600D03*
X181940200Y-85511600D03*
%TD*%
D17*
%TO.C,C17*%
X94335600Y-82019100D03*
X94335600Y-83919100D03*
%TD*%
D12*
%TO.C,TP7*%
X174010000Y-84230000D03*
%TD*%
%TO.C,TP9*%
X178189800Y-86081200D03*
%TD*%
D20*
%TO.C,R12*%
X172917500Y-88650000D03*
X174742500Y-88650000D03*
%TD*%
D28*
%TO.C,RD1*%
X177819800Y-91656200D03*
X177819800Y-93481200D03*
%TD*%
D13*
%TO.C,D4*%
X185810200Y-83718400D03*
X183240200Y-83718400D03*
X180700200Y-83718400D03*
X178130200Y-83718400D03*
%TD*%
D33*
%TO.C,RSense1*%
X179437500Y-105000000D03*
X184062500Y-105000000D03*
%TD*%
D34*
%TO.C,RB4*%
X111420000Y-89405000D03*
X111420000Y-87755000D03*
%TD*%
D35*
%TO.C,C8*%
X105575000Y-92950000D03*
X104025000Y-92950000D03*
%TD*%
D12*
%TO.C,TP11*%
X101015800Y-116763800D03*
%TD*%
D15*
%TO.C,RD2*%
X180119800Y-93481200D03*
X180119800Y-91656200D03*
%TD*%
D36*
%TO.C,F1*%
X200319800Y-107181200D03*
X200329800Y-102101200D03*
%TD*%
D12*
%TO.C,TP5*%
X108635800Y-116763800D03*
%TD*%
D37*
%TO.C,RB2*%
X173469800Y-97381200D03*
X173469800Y-99031200D03*
%TD*%
D12*
%TO.C,TP8*%
X93980000Y-90982800D03*
%TD*%
D38*
%TO.C,RB8*%
X96087200Y-103378000D03*
X94437200Y-103378000D03*
%TD*%
D17*
%TO.C,C12*%
X139750000Y-108625000D03*
X139750000Y-110525000D03*
%TD*%
D39*
%TO.C,P4*%
X165963600Y-110642400D03*
D13*
X168503600Y-110642400D03*
X171043600Y-110642400D03*
X173583600Y-110642400D03*
%TD*%
D32*
%TO.C,C18*%
X111350000Y-85500000D03*
X111350000Y-83600000D03*
%TD*%
D15*
%TO.C,R14*%
X152400000Y-108749000D03*
X152400000Y-106924000D03*
%TD*%
D34*
%TO.C,RB3*%
X150622000Y-108844000D03*
X150622000Y-107194000D03*
%TD*%
D15*
%TO.C,R4*%
X198725000Y-91062500D03*
X198725000Y-89237500D03*
%TD*%
D40*
%TO.C,Q1*%
X197265400Y-87090600D03*
D41*
X190965400Y-84810600D03*
D40*
X197265400Y-82530600D03*
%TD*%
D42*
%TO.C,SW2*%
X105400000Y-83600000D03*
X109600000Y-83600000D03*
%TD*%
D38*
%TO.C,RB9*%
X96087200Y-104952800D03*
X94437200Y-104952800D03*
%TD*%
D12*
%TO.C,TP1*%
X180519800Y-95531200D03*
%TD*%
%TO.C,TP10*%
X99000000Y-82050000D03*
%TD*%
D37*
%TO.C,RB1*%
X175019800Y-97381200D03*
X175019800Y-99031200D03*
%TD*%
%TO.C,RB10*%
X141800000Y-94305000D03*
X141800000Y-95955000D03*
%TD*%
D18*
%TO.C,C10*%
X157988000Y-107696000D03*
X157988000Y-109246000D03*
%TD*%
D43*
%TO.C,RB6*%
X173020000Y-86880000D03*
X174670000Y-86880000D03*
%TD*%
D19*
%TO.C,C6*%
X177244800Y-95031200D03*
X178794800Y-95031200D03*
%TD*%
D35*
%TO.C,C5*%
X174994800Y-100531200D03*
X173444800Y-100531200D03*
%TD*%
D17*
%TO.C,C13*%
X137725000Y-108625000D03*
X137725000Y-110525000D03*
%TD*%
D18*
%TO.C,C11*%
X96550000Y-82025000D03*
X96550000Y-83575000D03*
%TD*%
D12*
%TO.C,TP13*%
X90987600Y-101650800D03*
%TD*%
D34*
%TO.C,RB11*%
X180369800Y-99006200D03*
X180369800Y-97356200D03*
%TD*%
D38*
%TO.C,RB7*%
X98234000Y-90982800D03*
X96584000Y-90982800D03*
%TD*%
D31*
%TO.C,C9*%
X149174200Y-98374200D03*
X149174200Y-96824200D03*
%TD*%
D44*
%TO.C,D3*%
X199519800Y-94181200D03*
X199519800Y-98181200D03*
%TD*%
D12*
%TO.C,TP6*%
X143850000Y-98200000D03*
%TD*%
%TO.C,TP2*%
X103555800Y-116763800D03*
%TD*%
%TO.C,TP4*%
X180390800Y-111937800D03*
%TD*%
D13*
%TO.C,D5*%
X107848400Y-87833200D03*
X107848400Y-90373200D03*
X107848400Y-92913200D03*
%TD*%
D12*
%TO.C,TP3*%
X106095800Y-116763800D03*
%TD*%
D45*
%TO.C,H1*%
X192000000Y-117500000D03*
X192000000Y-92500000D03*
%TD*%
D21*
%TO.C,C14*%
X157275000Y-81275000D03*
X159175000Y-81275000D03*
%TD*%
D46*
%TO.C,U5*%
X154274600Y-109188000D03*
X155224600Y-109188000D03*
X156174600Y-109188000D03*
X156174600Y-106913000D03*
X154274600Y-106913000D03*
%TD*%
D12*
%TO.C,TP12*%
X91530000Y-108430000D03*
%TD*%
D34*
%TO.C,RB5*%
X141800000Y-97600000D03*
X141800000Y-95950000D03*
%TD*%
D13*
%TO.C,D2*%
X86004400Y-84277200D03*
X86004400Y-81737200D03*
%TD*%
%TO.C,D1*%
X86080600Y-128270000D03*
X86080600Y-125730000D03*
%TD*%
M02*
