%TF.GenerationSoftware,KiCad,Pcbnew,(6.0.10)*%
%TF.CreationDate,2023-01-09T18:14:30+01:00*%
%TF.ProjectId,carinsitu,63617269-6e73-4697-9475-2e6b69636164,1*%
%TF.SameCoordinates,Original*%
%TF.FileFunction,Legend,Top*%
%TF.FilePolarity,Positive*%
%FSLAX46Y46*%
G04 Gerber Fmt 4.6, Leading zero omitted, Abs format (unit mm)*
G04 Created by KiCad (PCBNEW (6.0.10)) date 2023-01-09 18:14:30*
%MOMM*%
%LPD*%
G01*
G04 APERTURE LIST*
G04 Aperture macros list*
%AMRoundRect*
0 Rectangle with rounded corners*
0 $1 Rounding radius*
0 $2 $3 $4 $5 $6 $7 $8 $9 X,Y pos of 4 corners*
0 Add a 4 corners polygon primitive as box body*
4,1,4,$2,$3,$4,$5,$6,$7,$8,$9,$2,$3,0*
0 Add four circle primitives for the rounded corners*
1,1,$1+$1,$2,$3*
1,1,$1+$1,$4,$5*
1,1,$1+$1,$6,$7*
1,1,$1+$1,$8,$9*
0 Add four rect primitives between the rounded corners*
20,1,$1+$1,$2,$3,$4,$5,0*
20,1,$1+$1,$4,$5,$6,$7,0*
20,1,$1+$1,$6,$7,$8,$9,0*
20,1,$1+$1,$8,$9,$2,$3,0*%
G04 Aperture macros list end*
%ADD10C,0.152400*%
%ADD11C,0.101600*%
%ADD12C,0.300000*%
%ADD13C,0.203200*%
%ADD14C,0.076200*%
%ADD15C,0.150000*%
%ADD16C,0.125000*%
%ADD17C,0.127000*%
%ADD18C,0.100000*%
%ADD19C,0.050000*%
%ADD20C,0.120000*%
%ADD21C,1.524000*%
%ADD22C,1.800000*%
%ADD23RoundRect,0.200000X-0.500380X0.350520X-0.500380X-0.350520X0.500380X-0.350520X0.500380X0.350520X0*%
%ADD24C,1.200000*%
%ADD25C,5.400000*%
%ADD26C,1.924000*%
%ADD27C,2.200000*%
%ADD28C,1.900000*%
%ADD29RoundRect,0.200000X0.698500X-0.444500X0.698500X0.444500X-0.698500X0.444500X-0.698500X-0.444500X0*%
%ADD30RoundRect,0.070000X0.500380X-0.350520X0.500380X0.350520X-0.500380X0.350520X-0.500380X-0.350520X0*%
%ADD31RoundRect,0.200000X1.100000X-0.550000X1.100000X0.550000X-1.100000X0.550000X-1.100000X-0.550000X0*%
%ADD32RoundRect,0.200000X0.500000X-0.500000X0.500000X0.500000X-0.500000X0.500000X-0.500000X-0.500000X0*%
%ADD33RoundRect,0.200000X-0.317500X-0.571500X0.317500X-0.571500X0.317500X0.571500X-0.317500X0.571500X0*%
%ADD34RoundRect,0.200000X0.317500X0.571500X-0.317500X0.571500X-0.317500X-0.571500X0.317500X-0.571500X0*%
%ADD35RoundRect,0.200000X0.750000X0.600000X-0.750000X0.600000X-0.750000X-0.600000X0.750000X-0.600000X0*%
%ADD36C,2.100000*%
%ADD37RoundRect,0.200000X0.571500X-0.317500X0.571500X0.317500X-0.571500X0.317500X-0.571500X-0.317500X0*%
%ADD38RoundRect,0.200000X-0.571500X0.317500X-0.571500X-0.317500X0.571500X-0.317500X0.571500X0.317500X0*%
%ADD39RoundRect,0.200000X-0.444500X-0.698500X0.444500X-0.698500X0.444500X0.698500X-0.444500X0.698500X0*%
%ADD40RoundRect,0.200000X-0.698500X0.444500X-0.698500X-0.444500X0.698500X-0.444500X0.698500X0.444500X0*%
%ADD41RoundRect,0.200000X1.250000X-1.000000X1.250000X1.000000X-1.250000X1.000000X-1.250000X-1.000000X0*%
%ADD42RoundRect,0.200000X0.650000X1.700000X-0.650000X1.700000X-0.650000X-1.700000X0.650000X-1.700000X0*%
%ADD43RoundRect,0.200000X-0.350520X-0.500380X0.350520X-0.500380X0.350520X0.500380X-0.350520X0.500380X0*%
%ADD44RoundRect,0.070000X-0.175000X0.125000X-0.175000X-0.125000X0.175000X-0.125000X0.175000X0.125000X0*%
%ADD45RoundRect,0.070000X-0.125000X-0.175000X0.125000X-0.175000X0.125000X0.175000X-0.125000X0.175000X0*%
%ADD46RoundRect,0.070000X0.175000X-0.125000X0.175000X0.125000X-0.175000X0.125000X-0.175000X-0.125000X0*%
%ADD47RoundRect,0.070000X0.125000X0.175000X-0.125000X0.175000X-0.125000X-0.175000X0.125000X-0.175000X0*%
%ADD48RoundRect,0.070000X-0.425000X0.140000X-0.425000X-0.140000X0.425000X-0.140000X0.425000X0.140000X0*%
%ADD49RoundRect,0.070000X-0.139700X-0.425450X0.139700X-0.425450X0.139700X0.425450X-0.139700X0.425450X0*%
%ADD50RoundRect,0.070000X-0.425450X0.139700X-0.425450X-0.139700X0.425450X-0.139700X0.425450X0.139700X0*%
%ADD51RoundRect,0.070000X-0.750000X0.750000X-0.750000X-0.750000X0.750000X-0.750000X0.750000X0.750000X0*%
%ADD52C,1.598880*%
%ADD53RoundRect,0.070000X-0.317500X-0.571500X0.317500X-0.571500X0.317500X0.571500X-0.317500X0.571500X0*%
%ADD54RoundRect,0.200000X0.076200X-0.355600X0.076200X0.355600X-0.076200X0.355600X-0.076200X-0.355600X0*%
%ADD55RoundRect,0.070000X0.076200X-0.355600X0.076200X0.355600X-0.076200X0.355600X-0.076200X-0.355600X0*%
%ADD56RoundRect,0.070000X1.193800X-0.901700X1.193800X0.901700X-1.193800X0.901700X-1.193800X-0.901700X0*%
%ADD57RoundRect,0.200000X0.350520X0.500380X-0.350520X0.500380X-0.350520X-0.500380X0.350520X-0.500380X0*%
%ADD58RoundRect,0.070000X-0.444500X-0.698500X0.444500X-0.698500X0.444500X0.698500X-0.444500X0.698500X0*%
%ADD59RoundRect,0.200000X0.444500X0.698500X-0.444500X0.698500X-0.444500X-0.698500X0.444500X-0.698500X0*%
%ADD60RoundRect,0.200000X-0.900000X-0.900000X0.900000X-0.900000X0.900000X0.900000X-0.900000X0.900000X0*%
%ADD61RoundRect,0.050000X-0.200000X-0.500000X0.200000X-0.500000X0.200000X0.500000X-0.200000X0.500000X0*%
%ADD62RoundRect,0.200000X-0.775000X-0.650000X0.775000X-0.650000X0.775000X0.650000X-0.775000X0.650000X0*%
G04 APERTURE END LIST*
D10*
X156165504Y-108896133D02*
X155784552Y-109162800D01*
X156165504Y-109353276D02*
X155365504Y-109353276D01*
X155365504Y-109048514D01*
X155403600Y-108972323D01*
X155441695Y-108934228D01*
X155517885Y-108896133D01*
X155632171Y-108896133D01*
X155708361Y-108934228D01*
X155746457Y-108972323D01*
X155784552Y-109048514D01*
X155784552Y-109353276D01*
X155365504Y-108629466D02*
X156165504Y-108096133D01*
X155365504Y-108096133D02*
X156165504Y-108629466D01*
D11*
X141441714Y-85666942D02*
X141478000Y-85703228D01*
X141441714Y-85739514D01*
X141405428Y-85703228D01*
X141441714Y-85666942D01*
X141441714Y-85739514D01*
X141441714Y-85267800D02*
X141478000Y-85304085D01*
X141441714Y-85340371D01*
X141405428Y-85304085D01*
X141441714Y-85267800D01*
X141441714Y-85340371D01*
X142385142Y-85739514D02*
X142385142Y-84977514D01*
X142675428Y-84977514D01*
X142748000Y-85013800D01*
X142784285Y-85050085D01*
X142820571Y-85122657D01*
X142820571Y-85231514D01*
X142784285Y-85304085D01*
X142748000Y-85340371D01*
X142675428Y-85376657D01*
X142385142Y-85376657D01*
X143147142Y-85739514D02*
X143147142Y-84977514D01*
X143437428Y-84977514D01*
X143510000Y-85013800D01*
X143546285Y-85050085D01*
X143582571Y-85122657D01*
X143582571Y-85231514D01*
X143546285Y-85304085D01*
X143510000Y-85340371D01*
X143437428Y-85376657D01*
X143147142Y-85376657D01*
X143909142Y-85739514D02*
X143909142Y-84977514D01*
X144163142Y-85521800D01*
X144417142Y-84977514D01*
X144417142Y-85739514D01*
X144598571Y-85812085D02*
X145179142Y-85812085D01*
X145324285Y-85703228D02*
X145433142Y-85739514D01*
X145614571Y-85739514D01*
X145687142Y-85703228D01*
X145723428Y-85666942D01*
X145759714Y-85594371D01*
X145759714Y-85521800D01*
X145723428Y-85449228D01*
X145687142Y-85412942D01*
X145614571Y-85376657D01*
X145469428Y-85340371D01*
X145396857Y-85304085D01*
X145360571Y-85267800D01*
X145324285Y-85195228D01*
X145324285Y-85122657D01*
X145360571Y-85050085D01*
X145396857Y-85013800D01*
X145469428Y-84977514D01*
X145650857Y-84977514D01*
X145759714Y-85013800D01*
X146086285Y-85340371D02*
X146340285Y-85340371D01*
X146449142Y-85739514D02*
X146086285Y-85739514D01*
X146086285Y-84977514D01*
X146449142Y-84977514D01*
X147211142Y-85739514D02*
X146957142Y-85376657D01*
X146775714Y-85739514D02*
X146775714Y-84977514D01*
X147066000Y-84977514D01*
X147138571Y-85013800D01*
X147174857Y-85050085D01*
X147211142Y-85122657D01*
X147211142Y-85231514D01*
X147174857Y-85304085D01*
X147138571Y-85340371D01*
X147066000Y-85376657D01*
X146775714Y-85376657D01*
X147428857Y-84977514D02*
X147682857Y-85739514D01*
X147936857Y-84977514D01*
X148336000Y-84977514D02*
X148481142Y-84977514D01*
X148553714Y-85013800D01*
X148626285Y-85086371D01*
X148662571Y-85231514D01*
X148662571Y-85485514D01*
X148626285Y-85630657D01*
X148553714Y-85703228D01*
X148481142Y-85739514D01*
X148336000Y-85739514D01*
X148263428Y-85703228D01*
X148190857Y-85630657D01*
X148154571Y-85485514D01*
X148154571Y-85231514D01*
X148190857Y-85086371D01*
X148263428Y-85013800D01*
X148336000Y-84977514D01*
D10*
X109291428Y-126710914D02*
X109291428Y-125949009D01*
X109672380Y-126329961D02*
X108910476Y-126329961D01*
X108672380Y-124996628D02*
X108672380Y-125472819D01*
X109148571Y-125520438D01*
X109100952Y-125472819D01*
X109053333Y-125377580D01*
X109053333Y-125139485D01*
X109100952Y-125044247D01*
X109148571Y-124996628D01*
X109243809Y-124949009D01*
X109481904Y-124949009D01*
X109577142Y-124996628D01*
X109624761Y-125044247D01*
X109672380Y-125139485D01*
X109672380Y-125377580D01*
X109624761Y-125472819D01*
X109577142Y-125520438D01*
X108672380Y-124663295D02*
X109672380Y-124329961D01*
X108672380Y-123996628D01*
X137088571Y-106041676D02*
X137088571Y-105708342D01*
X137612380Y-105565485D02*
X137612380Y-106041676D01*
X136612380Y-106041676D01*
X136612380Y-105565485D01*
X137564761Y-105184533D02*
X137612380Y-105041676D01*
X137612380Y-104803580D01*
X137564761Y-104708342D01*
X137517142Y-104660723D01*
X137421904Y-104613104D01*
X137326666Y-104613104D01*
X137231428Y-104660723D01*
X137183809Y-104708342D01*
X137136190Y-104803580D01*
X137088571Y-104994057D01*
X137040952Y-105089295D01*
X136993333Y-105136914D01*
X136898095Y-105184533D01*
X136802857Y-105184533D01*
X136707619Y-105136914D01*
X136660000Y-105089295D01*
X136612380Y-104994057D01*
X136612380Y-104755961D01*
X136660000Y-104613104D01*
X137517142Y-103613104D02*
X137564761Y-103660723D01*
X137612380Y-103803580D01*
X137612380Y-103898819D01*
X137564761Y-104041676D01*
X137469523Y-104136914D01*
X137374285Y-104184533D01*
X137183809Y-104232152D01*
X137040952Y-104232152D01*
X136850476Y-104184533D01*
X136755238Y-104136914D01*
X136660000Y-104041676D01*
X136612380Y-103898819D01*
X136612380Y-103803580D01*
X136660000Y-103660723D01*
X136707619Y-103613104D01*
X150374400Y-109372323D02*
X150336304Y-109448514D01*
X150336304Y-109562800D01*
X150374400Y-109677085D01*
X150450590Y-109753276D01*
X150526780Y-109791371D01*
X150679161Y-109829466D01*
X150793447Y-109829466D01*
X150945828Y-109791371D01*
X151022019Y-109753276D01*
X151098209Y-109677085D01*
X151136304Y-109562800D01*
X151136304Y-109486609D01*
X151098209Y-109372323D01*
X151060114Y-109334228D01*
X150793447Y-109334228D01*
X150793447Y-109486609D01*
X151136304Y-108991371D02*
X150336304Y-108991371D01*
X151136304Y-108534228D01*
X150336304Y-108534228D01*
X151136304Y-108153276D02*
X150336304Y-108153276D01*
X150336304Y-107962800D01*
X150374400Y-107848514D01*
X150450590Y-107772323D01*
X150526780Y-107734228D01*
X150679161Y-107696133D01*
X150793447Y-107696133D01*
X150945828Y-107734228D01*
X151022019Y-107772323D01*
X151098209Y-107848514D01*
X151136304Y-107962800D01*
X151136304Y-108153276D01*
X140671640Y-107078198D02*
X140195450Y-107411531D01*
X140671640Y-107649626D02*
X139671640Y-107649626D01*
X139671640Y-107268674D01*
X139719260Y-107173436D01*
X139766879Y-107125817D01*
X139862117Y-107078198D01*
X140004974Y-107078198D01*
X140100212Y-107125817D01*
X140147831Y-107173436D01*
X140195450Y-107268674D01*
X140195450Y-107649626D01*
X140671640Y-106173436D02*
X140671640Y-106649626D01*
X139671640Y-106649626D01*
X130930000Y-89609523D02*
X130891904Y-89685714D01*
X130891904Y-89800000D01*
X130930000Y-89914285D01*
X131006190Y-89990476D01*
X131082380Y-90028571D01*
X131234761Y-90066666D01*
X131349047Y-90066666D01*
X131501428Y-90028571D01*
X131577619Y-89990476D01*
X131653809Y-89914285D01*
X131691904Y-89800000D01*
X131691904Y-89723809D01*
X131653809Y-89609523D01*
X131615714Y-89571428D01*
X131349047Y-89571428D01*
X131349047Y-89723809D01*
X131691904Y-89228571D02*
X130891904Y-89228571D01*
X131691904Y-88771428D01*
X130891904Y-88771428D01*
X131691904Y-88390476D02*
X130891904Y-88390476D01*
X130891904Y-88200000D01*
X130930000Y-88085714D01*
X131006190Y-88009523D01*
X131082380Y-87971428D01*
X131234761Y-87933333D01*
X131349047Y-87933333D01*
X131501428Y-87971428D01*
X131577619Y-88009523D01*
X131653809Y-88085714D01*
X131691904Y-88200000D01*
X131691904Y-88390476D01*
X190509342Y-125006759D02*
X190556961Y-125060330D01*
X190604580Y-125209140D01*
X190604580Y-125304378D01*
X190556961Y-125441282D01*
X190461723Y-125524616D01*
X190366485Y-125560330D01*
X190176009Y-125584140D01*
X190033152Y-125566282D01*
X189842676Y-125494854D01*
X189747438Y-125435330D01*
X189652200Y-125328187D01*
X189604580Y-125179378D01*
X189604580Y-125084140D01*
X189652200Y-124947235D01*
X189699819Y-124905568D01*
X190604580Y-124161520D02*
X190080771Y-124096044D01*
X189985533Y-124131759D01*
X189937914Y-124221044D01*
X189937914Y-124411520D01*
X189985533Y-124512711D01*
X190556961Y-124155568D02*
X190604580Y-124256759D01*
X190604580Y-124494854D01*
X190556961Y-124584140D01*
X190461723Y-124619854D01*
X190366485Y-124607949D01*
X190271247Y-124548425D01*
X190223628Y-124447235D01*
X190223628Y-124209140D01*
X190176009Y-124107949D01*
X190604580Y-123685330D02*
X189937914Y-123601997D01*
X190128390Y-123625806D02*
X190033152Y-123566282D01*
X189985533Y-123512711D01*
X189937914Y-123411520D01*
X189937914Y-123316282D01*
X190604580Y-123066282D02*
X189604580Y-122941282D01*
X189937914Y-122506759D02*
X190604580Y-122590092D01*
X190033152Y-122518663D02*
X189985533Y-122465092D01*
X189937914Y-122363901D01*
X189937914Y-122221044D01*
X189985533Y-122131759D01*
X190080771Y-122096044D01*
X190604580Y-122161520D01*
X190556961Y-121726997D02*
X190604580Y-121590092D01*
X190604580Y-121351997D01*
X190556961Y-121250806D01*
X190509342Y-121197235D01*
X190414104Y-121137711D01*
X190318866Y-121125806D01*
X190223628Y-121161520D01*
X190176009Y-121203187D01*
X190128390Y-121292473D01*
X190080771Y-121476997D01*
X190033152Y-121566282D01*
X189985533Y-121607949D01*
X189890295Y-121643663D01*
X189795057Y-121631759D01*
X189699819Y-121572235D01*
X189652200Y-121518663D01*
X189604580Y-121417473D01*
X189604580Y-121179378D01*
X189652200Y-121042473D01*
X190604580Y-120732949D02*
X189937914Y-120649616D01*
X189604580Y-120607949D02*
X189652200Y-120661520D01*
X189699819Y-120619854D01*
X189652200Y-120566282D01*
X189604580Y-120607949D01*
X189699819Y-120619854D01*
X189937914Y-120316282D02*
X189937914Y-119935330D01*
X189604580Y-120131759D02*
X190461723Y-120238901D01*
X190556961Y-120203187D01*
X190604580Y-120113901D01*
X190604580Y-120018663D01*
X189937914Y-119173425D02*
X190604580Y-119256759D01*
X189937914Y-119601997D02*
X190461723Y-119667473D01*
X190556961Y-119631759D01*
X190604580Y-119542473D01*
X190604580Y-119399616D01*
X190556961Y-119298425D01*
X190509342Y-119244854D01*
X191547914Y-125601997D02*
X192214580Y-125447235D01*
X191547914Y-125125806D01*
X191214580Y-124512711D02*
X191214580Y-124417473D01*
X191262200Y-124328187D01*
X191309819Y-124286520D01*
X191405057Y-124250806D01*
X191595533Y-124226997D01*
X191833628Y-124256759D01*
X192024104Y-124328187D01*
X192119342Y-124387711D01*
X192166961Y-124441282D01*
X192214580Y-124542473D01*
X192214580Y-124637711D01*
X192166961Y-124726997D01*
X192119342Y-124768663D01*
X192024104Y-124804378D01*
X191833628Y-124828187D01*
X191595533Y-124798425D01*
X191405057Y-124726997D01*
X191309819Y-124667473D01*
X191262200Y-124613901D01*
X191214580Y-124512711D01*
X192119342Y-123863901D02*
X192166961Y-123822235D01*
X192214580Y-123875806D01*
X192166961Y-123917473D01*
X192119342Y-123863901D01*
X192214580Y-123875806D01*
X191214580Y-123369854D02*
X191214580Y-122750806D01*
X191595533Y-123131759D01*
X191595533Y-122988901D01*
X191643152Y-122899616D01*
X191690771Y-122857949D01*
X191786009Y-122822235D01*
X192024104Y-122851997D01*
X192119342Y-122911520D01*
X192166961Y-122965092D01*
X192214580Y-123066282D01*
X192214580Y-123351997D01*
X192166961Y-123441282D01*
X192119342Y-123482949D01*
X192595533Y-121447235D02*
X192547914Y-121488901D01*
X192405057Y-121566282D01*
X192309819Y-121601997D01*
X192166961Y-121631759D01*
X191928866Y-121649616D01*
X191738390Y-121625806D01*
X191500295Y-121548425D01*
X191357438Y-121482949D01*
X191262200Y-121423425D01*
X191119342Y-121310330D01*
X191071723Y-121256759D01*
X191309819Y-120953187D02*
X191262200Y-120899616D01*
X191214580Y-120798425D01*
X191214580Y-120560330D01*
X191262200Y-120471044D01*
X191309819Y-120429378D01*
X191405057Y-120393663D01*
X191500295Y-120405568D01*
X191643152Y-120471044D01*
X192214580Y-121113901D01*
X192214580Y-120494854D01*
X191214580Y-119750806D02*
X191214580Y-119655568D01*
X191262200Y-119566282D01*
X191309819Y-119524616D01*
X191405057Y-119488901D01*
X191595533Y-119465092D01*
X191833628Y-119494854D01*
X192024104Y-119566282D01*
X192119342Y-119625806D01*
X192166961Y-119679378D01*
X192214580Y-119780568D01*
X192214580Y-119875806D01*
X192166961Y-119965092D01*
X192119342Y-120006759D01*
X192024104Y-120042473D01*
X191833628Y-120066282D01*
X191595533Y-120036520D01*
X191405057Y-119965092D01*
X191309819Y-119905568D01*
X191262200Y-119851997D01*
X191214580Y-119750806D01*
X191309819Y-119048425D02*
X191262200Y-118994854D01*
X191214580Y-118893663D01*
X191214580Y-118655568D01*
X191262200Y-118566282D01*
X191309819Y-118524616D01*
X191405057Y-118488901D01*
X191500295Y-118500806D01*
X191643152Y-118566282D01*
X192214580Y-119209140D01*
X192214580Y-118590092D01*
X191214580Y-118131759D02*
X191214580Y-117512711D01*
X191595533Y-117893663D01*
X191595533Y-117750806D01*
X191643152Y-117661520D01*
X191690771Y-117619854D01*
X191786009Y-117584140D01*
X192024104Y-117613901D01*
X192119342Y-117673425D01*
X192166961Y-117726997D01*
X192214580Y-117828187D01*
X192214580Y-118113901D01*
X192166961Y-118203187D01*
X192119342Y-118244854D01*
X192595533Y-117351997D02*
X192547914Y-117298425D01*
X192405057Y-117185330D01*
X192309819Y-117125806D01*
X192166961Y-117060330D01*
X191928866Y-116982949D01*
X191738390Y-116959140D01*
X191500295Y-116976997D01*
X191357438Y-117006759D01*
X191262200Y-117042473D01*
X191119342Y-117119854D01*
X191071723Y-117161520D01*
D12*
X91428571Y-126377142D02*
X92571428Y-126377142D01*
X92000000Y-126948571D02*
X92000000Y-125805714D01*
D10*
X158286457Y-109607238D02*
X158324552Y-109492952D01*
X158362647Y-109454857D01*
X158438838Y-109416761D01*
X158553123Y-109416761D01*
X158629314Y-109454857D01*
X158667409Y-109492952D01*
X158705504Y-109569142D01*
X158705504Y-109873904D01*
X157905504Y-109873904D01*
X157905504Y-109607238D01*
X157943600Y-109531047D01*
X157981695Y-109492952D01*
X158057885Y-109454857D01*
X158134076Y-109454857D01*
X158210266Y-109492952D01*
X158248361Y-109531047D01*
X158286457Y-109607238D01*
X158286457Y-109873904D01*
X158705504Y-108959619D02*
X158667409Y-109035809D01*
X158629314Y-109073904D01*
X158553123Y-109112000D01*
X158324552Y-109112000D01*
X158248361Y-109073904D01*
X158210266Y-109035809D01*
X158172171Y-108959619D01*
X158172171Y-108845333D01*
X158210266Y-108769142D01*
X158248361Y-108731047D01*
X158324552Y-108692952D01*
X158553123Y-108692952D01*
X158629314Y-108731047D01*
X158667409Y-108769142D01*
X158705504Y-108845333D01*
X158705504Y-108959619D01*
X158705504Y-108235809D02*
X158667409Y-108312000D01*
X158629314Y-108350095D01*
X158553123Y-108388190D01*
X158324552Y-108388190D01*
X158248361Y-108350095D01*
X158210266Y-108312000D01*
X158172171Y-108235809D01*
X158172171Y-108121523D01*
X158210266Y-108045333D01*
X158248361Y-108007238D01*
X158324552Y-107969142D01*
X158553123Y-107969142D01*
X158629314Y-108007238D01*
X158667409Y-108045333D01*
X158705504Y-108121523D01*
X158705504Y-108235809D01*
X158172171Y-107740571D02*
X158172171Y-107435809D01*
X157905504Y-107626285D02*
X158591219Y-107626285D01*
X158667409Y-107588190D01*
X158705504Y-107512000D01*
X158705504Y-107435809D01*
X111263180Y-126612495D02*
X111263180Y-125993447D01*
X111644133Y-126326780D01*
X111644133Y-126183923D01*
X111691752Y-126088685D01*
X111739371Y-126041066D01*
X111834609Y-125993447D01*
X112072704Y-125993447D01*
X112167942Y-126041066D01*
X112215561Y-126088685D01*
X112263180Y-126183923D01*
X112263180Y-126469638D01*
X112215561Y-126564876D01*
X112167942Y-126612495D01*
X111263180Y-125707733D02*
X112263180Y-125374400D01*
X111263180Y-125041066D01*
X111263180Y-124802971D02*
X111263180Y-124183923D01*
X111644133Y-124517257D01*
X111644133Y-124374400D01*
X111691752Y-124279161D01*
X111739371Y-124231542D01*
X111834609Y-124183923D01*
X112072704Y-124183923D01*
X112167942Y-124231542D01*
X112215561Y-124279161D01*
X112263180Y-124374400D01*
X112263180Y-124660114D01*
X112215561Y-124755352D01*
X112167942Y-124802971D01*
X200944668Y-85761580D02*
X201278002Y-86761580D01*
X201611335Y-85761580D01*
X201801811Y-85761580D02*
X202373240Y-85761580D01*
X202087525Y-86761580D02*
X202087525Y-85761580D01*
X202611335Y-85761580D02*
X203278002Y-86761580D01*
X203278002Y-85761580D02*
X202611335Y-86761580D01*
X104068571Y-120238095D02*
X104116190Y-120095238D01*
X104163809Y-120047619D01*
X104259047Y-120000000D01*
X104401904Y-120000000D01*
X104497142Y-120047619D01*
X104544761Y-120095238D01*
X104592380Y-120190476D01*
X104592380Y-120571428D01*
X103592380Y-120571428D01*
X103592380Y-120238095D01*
X103640000Y-120142857D01*
X103687619Y-120095238D01*
X103782857Y-120047619D01*
X103878095Y-120047619D01*
X103973333Y-120095238D01*
X104020952Y-120142857D01*
X104068571Y-120238095D01*
X104068571Y-120571428D01*
X104306666Y-119619047D02*
X104306666Y-119142857D01*
X104592380Y-119714285D02*
X103592380Y-119380952D01*
X104592380Y-119047619D01*
X103592380Y-118857142D02*
X103592380Y-118285714D01*
X104592380Y-118571428D02*
X103592380Y-118571428D01*
X133371904Y-89751904D02*
X134171904Y-89485238D01*
X133371904Y-89218571D01*
X133867142Y-88951904D02*
X133867142Y-88342380D01*
X134171904Y-88647142D02*
X133562380Y-88647142D01*
D12*
X91438571Y-123837142D02*
X92581428Y-123837142D01*
D10*
X109624761Y-120690476D02*
X109672380Y-120547619D01*
X109672380Y-120309523D01*
X109624761Y-120214285D01*
X109577142Y-120166666D01*
X109481904Y-120119047D01*
X109386666Y-120119047D01*
X109291428Y-120166666D01*
X109243809Y-120214285D01*
X109196190Y-120309523D01*
X109148571Y-120500000D01*
X109100952Y-120595238D01*
X109053333Y-120642857D01*
X108958095Y-120690476D01*
X108862857Y-120690476D01*
X108767619Y-120642857D01*
X108720000Y-120595238D01*
X108672380Y-120500000D01*
X108672380Y-120261904D01*
X108720000Y-120119047D01*
X109577142Y-119119047D02*
X109624761Y-119166666D01*
X109672380Y-119309523D01*
X109672380Y-119404761D01*
X109624761Y-119547619D01*
X109529523Y-119642857D01*
X109434285Y-119690476D01*
X109243809Y-119738095D01*
X109100952Y-119738095D01*
X108910476Y-119690476D01*
X108815238Y-119642857D01*
X108720000Y-119547619D01*
X108672380Y-119404761D01*
X108672380Y-119309523D01*
X108720000Y-119166666D01*
X108767619Y-119119047D01*
X109672380Y-118214285D02*
X109672380Y-118690476D01*
X108672380Y-118690476D01*
X201373240Y-88298400D02*
X201278002Y-88250780D01*
X201135145Y-88250780D01*
X200992287Y-88298400D01*
X200897049Y-88393638D01*
X200849430Y-88488876D01*
X200801811Y-88679352D01*
X200801811Y-88822209D01*
X200849430Y-89012685D01*
X200897049Y-89107923D01*
X200992287Y-89203161D01*
X201135145Y-89250780D01*
X201230383Y-89250780D01*
X201373240Y-89203161D01*
X201420859Y-89155542D01*
X201420859Y-88822209D01*
X201230383Y-88822209D01*
X201849430Y-89250780D02*
X201849430Y-88250780D01*
X202420859Y-89250780D01*
X202420859Y-88250780D01*
X202897049Y-89250780D02*
X202897049Y-88250780D01*
X203135145Y-88250780D01*
X203278002Y-88298400D01*
X203373240Y-88393638D01*
X203420859Y-88488876D01*
X203468478Y-88679352D01*
X203468478Y-88822209D01*
X203420859Y-89012685D01*
X203373240Y-89107923D01*
X203278002Y-89203161D01*
X203135145Y-89250780D01*
X202897049Y-89250780D01*
D13*
X133152857Y-83264761D02*
X133295714Y-83312380D01*
X133533809Y-83312380D01*
X133629047Y-83264761D01*
X133676666Y-83217142D01*
X133724285Y-83121904D01*
X133724285Y-83026666D01*
X133676666Y-82931428D01*
X133629047Y-82883809D01*
X133533809Y-82836190D01*
X133343333Y-82788571D01*
X133248095Y-82740952D01*
X133200476Y-82693333D01*
X133152857Y-82598095D01*
X133152857Y-82502857D01*
X133200476Y-82407619D01*
X133248095Y-82360000D01*
X133343333Y-82312380D01*
X133581428Y-82312380D01*
X133724285Y-82360000D01*
X134533809Y-83264761D02*
X134438571Y-83312380D01*
X134248095Y-83312380D01*
X134152857Y-83264761D01*
X134105238Y-83169523D01*
X134105238Y-82788571D01*
X134152857Y-82693333D01*
X134248095Y-82645714D01*
X134438571Y-82645714D01*
X134533809Y-82693333D01*
X134581428Y-82788571D01*
X134581428Y-82883809D01*
X134105238Y-82979047D01*
X135010000Y-83312380D02*
X135010000Y-82645714D01*
X135010000Y-82836190D02*
X135057619Y-82740952D01*
X135105238Y-82693333D01*
X135200476Y-82645714D01*
X135295714Y-82645714D01*
X135533809Y-82645714D02*
X135771904Y-83312380D01*
X136010000Y-82645714D01*
X136533809Y-83312380D02*
X136438571Y-83264761D01*
X136390952Y-83217142D01*
X136343333Y-83121904D01*
X136343333Y-82836190D01*
X136390952Y-82740952D01*
X136438571Y-82693333D01*
X136533809Y-82645714D01*
X136676666Y-82645714D01*
X136771904Y-82693333D01*
X136819523Y-82740952D01*
X136867142Y-82836190D01*
X136867142Y-83121904D01*
X136819523Y-83217142D01*
X136771904Y-83264761D01*
X136676666Y-83312380D01*
X136533809Y-83312380D01*
D10*
X136813809Y-89800952D02*
X136851904Y-89686666D01*
X136851904Y-89496190D01*
X136813809Y-89420000D01*
X136775714Y-89381904D01*
X136699523Y-89343809D01*
X136623333Y-89343809D01*
X136547142Y-89381904D01*
X136509047Y-89420000D01*
X136470952Y-89496190D01*
X136432857Y-89648571D01*
X136394761Y-89724761D01*
X136356666Y-89762857D01*
X136280476Y-89800952D01*
X136204285Y-89800952D01*
X136128095Y-89762857D01*
X136090000Y-89724761D01*
X136051904Y-89648571D01*
X136051904Y-89458095D01*
X136090000Y-89343809D01*
X136851904Y-89000952D02*
X136318571Y-89000952D01*
X136051904Y-89000952D02*
X136090000Y-89039047D01*
X136128095Y-89000952D01*
X136090000Y-88962857D01*
X136051904Y-89000952D01*
X136128095Y-89000952D01*
X136318571Y-88277142D02*
X136966190Y-88277142D01*
X137042380Y-88315238D01*
X137080476Y-88353333D01*
X137118571Y-88429523D01*
X137118571Y-88543809D01*
X137080476Y-88620000D01*
X136813809Y-88277142D02*
X136851904Y-88353333D01*
X136851904Y-88505714D01*
X136813809Y-88581904D01*
X136775714Y-88620000D01*
X136699523Y-88658095D01*
X136470952Y-88658095D01*
X136394761Y-88620000D01*
X136356666Y-88581904D01*
X136318571Y-88505714D01*
X136318571Y-88353333D01*
X136356666Y-88277142D01*
X111260000Y-120261904D02*
X111212380Y-120357142D01*
X111212380Y-120500000D01*
X111260000Y-120642857D01*
X111355238Y-120738095D01*
X111450476Y-120785714D01*
X111640952Y-120833333D01*
X111783809Y-120833333D01*
X111974285Y-120785714D01*
X112069523Y-120738095D01*
X112164761Y-120642857D01*
X112212380Y-120500000D01*
X112212380Y-120404761D01*
X112164761Y-120261904D01*
X112117142Y-120214285D01*
X111783809Y-120214285D01*
X111783809Y-120404761D01*
X112212380Y-119785714D02*
X111212380Y-119785714D01*
X112212380Y-119214285D01*
X111212380Y-119214285D01*
X112212380Y-118738095D02*
X111212380Y-118738095D01*
X111212380Y-118500000D01*
X111260000Y-118357142D01*
X111355238Y-118261904D01*
X111450476Y-118214285D01*
X111640952Y-118166666D01*
X111783809Y-118166666D01*
X111974285Y-118214285D01*
X112069523Y-118261904D01*
X112164761Y-118357142D01*
X112212380Y-118500000D01*
X112212380Y-118738095D01*
X200595430Y-83789828D02*
X201357335Y-83789828D01*
X200976383Y-84170780D02*
X200976383Y-83408876D01*
X202309716Y-83170780D02*
X201833525Y-83170780D01*
X201785906Y-83646971D01*
X201833525Y-83599352D01*
X201928764Y-83551733D01*
X202166859Y-83551733D01*
X202262097Y-83599352D01*
X202309716Y-83646971D01*
X202357335Y-83742209D01*
X202357335Y-83980304D01*
X202309716Y-84075542D01*
X202262097Y-84123161D01*
X202166859Y-84170780D01*
X201928764Y-84170780D01*
X201833525Y-84123161D01*
X201785906Y-84075542D01*
X202643049Y-83170780D02*
X202976383Y-84170780D01*
X203309716Y-83170780D01*
X152876304Y-109372323D02*
X152876304Y-108915180D01*
X153676304Y-109143752D02*
X152876304Y-109143752D01*
X152876304Y-108724704D02*
X153676304Y-108191371D01*
X152876304Y-108191371D02*
X153676304Y-108724704D01*
D11*
X115779619Y-107448304D02*
X115779619Y-106648304D01*
X115779619Y-107029257D02*
X116236761Y-107029257D01*
X116236761Y-107448304D02*
X116236761Y-106648304D01*
X116998666Y-107448304D02*
X116617714Y-107448304D01*
X116617714Y-106648304D01*
D10*
X110332780Y-94124304D02*
X109332780Y-94124304D01*
X110332780Y-93648114D02*
X109666114Y-93648114D01*
X109856590Y-93648114D02*
X109761352Y-93600495D01*
X109713733Y-93552876D01*
X109666114Y-93457638D01*
X109666114Y-93362400D01*
X110332780Y-93029066D02*
X109332780Y-93029066D01*
X109332780Y-92790971D01*
X109380400Y-92648114D01*
X109475638Y-92552876D01*
X109570876Y-92505257D01*
X109761352Y-92457638D01*
X109904209Y-92457638D01*
X110094685Y-92505257D01*
X110189923Y-92552876D01*
X110285161Y-92648114D01*
X110332780Y-92790971D01*
X110332780Y-93029066D01*
X110332780Y-91600495D02*
X109808971Y-91600495D01*
X109713733Y-91648114D01*
X109666114Y-91743352D01*
X109666114Y-91933828D01*
X109713733Y-92029066D01*
X110285161Y-91600495D02*
X110332780Y-91695733D01*
X110332780Y-91933828D01*
X110285161Y-92029066D01*
X110189923Y-92076685D01*
X110094685Y-92076685D01*
X109999447Y-92029066D01*
X109951828Y-91933828D01*
X109951828Y-91695733D01*
X109904209Y-91600495D01*
X107084761Y-120714285D02*
X107132380Y-120571428D01*
X107132380Y-120333333D01*
X107084761Y-120238095D01*
X107037142Y-120190476D01*
X106941904Y-120142857D01*
X106846666Y-120142857D01*
X106751428Y-120190476D01*
X106703809Y-120238095D01*
X106656190Y-120333333D01*
X106608571Y-120523809D01*
X106560952Y-120619047D01*
X106513333Y-120666666D01*
X106418095Y-120714285D01*
X106322857Y-120714285D01*
X106227619Y-120666666D01*
X106180000Y-120619047D01*
X106132380Y-120523809D01*
X106132380Y-120285714D01*
X106180000Y-120142857D01*
X107132380Y-119714285D02*
X106132380Y-119714285D01*
X106132380Y-119476190D01*
X106180000Y-119333333D01*
X106275238Y-119238095D01*
X106370476Y-119190476D01*
X106560952Y-119142857D01*
X106703809Y-119142857D01*
X106894285Y-119190476D01*
X106989523Y-119238095D01*
X107084761Y-119333333D01*
X107132380Y-119476190D01*
X107132380Y-119714285D01*
X106846666Y-118761904D02*
X106846666Y-118285714D01*
X107132380Y-118857142D02*
X106132380Y-118523809D01*
X107132380Y-118190476D01*
D14*
%TO.C,U4*%
X194623028Y-88355294D02*
X194623028Y-88972151D01*
X194659314Y-89044722D01*
X194695600Y-89081008D01*
X194768171Y-89117294D01*
X194913314Y-89117294D01*
X194985885Y-89081008D01*
X195022171Y-89044722D01*
X195058457Y-88972151D01*
X195058457Y-88355294D01*
X195747885Y-88609294D02*
X195747885Y-89117294D01*
X195566457Y-88319008D02*
X195385028Y-88863294D01*
X195856742Y-88863294D01*
D15*
%TO.C,P2*%
X154303504Y-91472380D02*
X154303504Y-90472380D01*
X154684457Y-90472380D01*
X154779695Y-90520000D01*
X154827314Y-90567619D01*
X154874933Y-90662857D01*
X154874933Y-90805714D01*
X154827314Y-90900952D01*
X154779695Y-90948571D01*
X154684457Y-90996190D01*
X154303504Y-90996190D01*
X155255885Y-90567619D02*
X155303504Y-90520000D01*
X155398742Y-90472380D01*
X155636838Y-90472380D01*
X155732076Y-90520000D01*
X155779695Y-90567619D01*
X155827314Y-90662857D01*
X155827314Y-90758095D01*
X155779695Y-90900952D01*
X155208266Y-91472380D01*
X155827314Y-91472380D01*
%TO.C,MOD1*%
X171039066Y-92493980D02*
X171039066Y-91493980D01*
X171372400Y-92208266D01*
X171705733Y-91493980D01*
X171705733Y-92493980D01*
X172372400Y-91493980D02*
X172562876Y-91493980D01*
X172658114Y-91541600D01*
X172753352Y-91636838D01*
X172800971Y-91827314D01*
X172800971Y-92160647D01*
X172753352Y-92351123D01*
X172658114Y-92446361D01*
X172562876Y-92493980D01*
X172372400Y-92493980D01*
X172277161Y-92446361D01*
X172181923Y-92351123D01*
X172134304Y-92160647D01*
X172134304Y-91827314D01*
X172181923Y-91636838D01*
X172277161Y-91541600D01*
X172372400Y-91493980D01*
X173229542Y-92493980D02*
X173229542Y-91493980D01*
X173467638Y-91493980D01*
X173610495Y-91541600D01*
X173705733Y-91636838D01*
X173753352Y-91732076D01*
X173800971Y-91922552D01*
X173800971Y-92065409D01*
X173753352Y-92255885D01*
X173705733Y-92351123D01*
X173610495Y-92446361D01*
X173467638Y-92493980D01*
X173229542Y-92493980D01*
X174753352Y-92493980D02*
X174181923Y-92493980D01*
X174467638Y-92493980D02*
X174467638Y-91493980D01*
X174372400Y-91636838D01*
X174277161Y-91732076D01*
X174181923Y-91779695D01*
D11*
%TO.C,D4*%
X187122771Y-83308314D02*
X187122771Y-82546314D01*
X187304200Y-82546314D01*
X187413057Y-82582600D01*
X187485628Y-82655171D01*
X187521914Y-82727742D01*
X187558200Y-82872885D01*
X187558200Y-82981742D01*
X187521914Y-83126885D01*
X187485628Y-83199457D01*
X187413057Y-83272028D01*
X187304200Y-83308314D01*
X187122771Y-83308314D01*
X188211342Y-82800314D02*
X188211342Y-83308314D01*
X188029914Y-82510028D02*
X187848485Y-83054314D01*
X188320200Y-83054314D01*
%TO.C,D1*%
X87614714Y-127562428D02*
X86852714Y-127562428D01*
X86852714Y-127381000D01*
X86889000Y-127272142D01*
X86961571Y-127199571D01*
X87034142Y-127163285D01*
X87179285Y-127127000D01*
X87288142Y-127127000D01*
X87433285Y-127163285D01*
X87505857Y-127199571D01*
X87578428Y-127272142D01*
X87614714Y-127381000D01*
X87614714Y-127562428D01*
X87614714Y-126401285D02*
X87614714Y-126836714D01*
X87614714Y-126619000D02*
X86852714Y-126619000D01*
X86961571Y-126691571D01*
X87034142Y-126764142D01*
X87070428Y-126836714D01*
%TO.C,D2*%
X87614714Y-83562428D02*
X86852714Y-83562428D01*
X86852714Y-83381000D01*
X86889000Y-83272142D01*
X86961571Y-83199571D01*
X87034142Y-83163285D01*
X87179285Y-83127000D01*
X87288142Y-83127000D01*
X87433285Y-83163285D01*
X87505857Y-83199571D01*
X87578428Y-83272142D01*
X87614714Y-83381000D01*
X87614714Y-83562428D01*
X86925285Y-82836714D02*
X86889000Y-82800428D01*
X86852714Y-82727857D01*
X86852714Y-82546428D01*
X86889000Y-82473857D01*
X86925285Y-82437571D01*
X86997857Y-82401285D01*
X87070428Y-82401285D01*
X87179285Y-82437571D01*
X87614714Y-82873000D01*
X87614714Y-82401285D01*
%TO.C,R2*%
X89444714Y-86627000D02*
X89081857Y-86881000D01*
X89444714Y-87062428D02*
X88682714Y-87062428D01*
X88682714Y-86772142D01*
X88719000Y-86699571D01*
X88755285Y-86663285D01*
X88827857Y-86627000D01*
X88936714Y-86627000D01*
X89009285Y-86663285D01*
X89045571Y-86699571D01*
X89081857Y-86772142D01*
X89081857Y-87062428D01*
X88755285Y-86336714D02*
X88719000Y-86300428D01*
X88682714Y-86227857D01*
X88682714Y-86046428D01*
X88719000Y-85973857D01*
X88755285Y-85937571D01*
X88827857Y-85901285D01*
X88900428Y-85901285D01*
X89009285Y-85937571D01*
X89444714Y-86373000D01*
X89444714Y-85901285D01*
D14*
%TO.C,U2*%
X89894228Y-80761114D02*
X89894228Y-81377971D01*
X89930514Y-81450542D01*
X89966800Y-81486828D01*
X90039371Y-81523114D01*
X90184514Y-81523114D01*
X90257085Y-81486828D01*
X90293371Y-81450542D01*
X90329657Y-81377971D01*
X90329657Y-80761114D01*
X90656228Y-80833685D02*
X90692514Y-80797400D01*
X90765085Y-80761114D01*
X90946514Y-80761114D01*
X91019085Y-80797400D01*
X91055371Y-80833685D01*
X91091657Y-80906257D01*
X91091657Y-80978828D01*
X91055371Y-81087685D01*
X90619942Y-81523114D01*
X91091657Y-81523114D01*
D13*
%TO.C,P1*%
X95932857Y-128772857D02*
X96147142Y-128844285D01*
X96218571Y-128915714D01*
X96290000Y-129058571D01*
X96290000Y-129272857D01*
X96218571Y-129415714D01*
X96147142Y-129487142D01*
X96004285Y-129558571D01*
X95432857Y-129558571D01*
X95432857Y-128058571D01*
X95932857Y-128058571D01*
X96075714Y-128130000D01*
X96147142Y-128201428D01*
X96218571Y-128344285D01*
X96218571Y-128487142D01*
X96147142Y-128630000D01*
X96075714Y-128701428D01*
X95932857Y-128772857D01*
X95432857Y-128772857D01*
X96861428Y-129130000D02*
X97575714Y-129130000D01*
X96718571Y-129558571D02*
X97218571Y-128058571D01*
X97718571Y-129558571D01*
X98004285Y-128058571D02*
X98861428Y-128058571D01*
X98432857Y-129558571D02*
X98432857Y-128058571D01*
D11*
%TO.C,A1*%
X117626260Y-105527245D02*
X117626260Y-105164388D01*
X117843974Y-105599817D02*
X117081974Y-105345817D01*
X117843974Y-105091817D01*
X117843974Y-104438674D02*
X117843974Y-104874102D01*
X117843974Y-104656388D02*
X117081974Y-104656388D01*
X117190831Y-104728960D01*
X117263402Y-104801531D01*
X117299688Y-104874102D01*
%TO.C,C1*%
X124722260Y-105255102D02*
X124685974Y-105291388D01*
X124577117Y-105327674D01*
X124504545Y-105327674D01*
X124395688Y-105291388D01*
X124323117Y-105218817D01*
X124286831Y-105146245D01*
X124250545Y-105001102D01*
X124250545Y-104892245D01*
X124286831Y-104747102D01*
X124323117Y-104674531D01*
X124395688Y-104601960D01*
X124504545Y-104565674D01*
X124577117Y-104565674D01*
X124685974Y-104601960D01*
X124722260Y-104638245D01*
X125447974Y-105327674D02*
X125012545Y-105327674D01*
X125230260Y-105327674D02*
X125230260Y-104565674D01*
X125157688Y-104674531D01*
X125085117Y-104747102D01*
X125012545Y-104783388D01*
%TO.C,C2*%
X124333000Y-98773342D02*
X124296714Y-98809628D01*
X124187857Y-98845914D01*
X124115285Y-98845914D01*
X124006428Y-98809628D01*
X123933857Y-98737057D01*
X123897571Y-98664485D01*
X123861285Y-98519342D01*
X123861285Y-98410485D01*
X123897571Y-98265342D01*
X123933857Y-98192771D01*
X124006428Y-98120200D01*
X124115285Y-98083914D01*
X124187857Y-98083914D01*
X124296714Y-98120200D01*
X124333000Y-98156485D01*
X124623285Y-98156485D02*
X124659571Y-98120200D01*
X124732142Y-98083914D01*
X124913571Y-98083914D01*
X124986142Y-98120200D01*
X125022428Y-98156485D01*
X125058714Y-98229057D01*
X125058714Y-98301628D01*
X125022428Y-98410485D01*
X124587000Y-98845914D01*
X125058714Y-98845914D01*
%TO.C,C3*%
X120932260Y-102505102D02*
X120895974Y-102541388D01*
X120787117Y-102577674D01*
X120714545Y-102577674D01*
X120605688Y-102541388D01*
X120533117Y-102468817D01*
X120496831Y-102396245D01*
X120460545Y-102251102D01*
X120460545Y-102142245D01*
X120496831Y-101997102D01*
X120533117Y-101924531D01*
X120605688Y-101851960D01*
X120714545Y-101815674D01*
X120787117Y-101815674D01*
X120895974Y-101851960D01*
X120932260Y-101888245D01*
X121186260Y-101815674D02*
X121657974Y-101815674D01*
X121403974Y-102105960D01*
X121512831Y-102105960D01*
X121585402Y-102142245D01*
X121621688Y-102178531D01*
X121657974Y-102251102D01*
X121657974Y-102432531D01*
X121621688Y-102505102D01*
X121585402Y-102541388D01*
X121512831Y-102577674D01*
X121295117Y-102577674D01*
X121222545Y-102541388D01*
X121186260Y-102505102D01*
%TO.C,R1*%
X125552200Y-103316314D02*
X125298200Y-102953457D01*
X125116771Y-103316314D02*
X125116771Y-102554314D01*
X125407057Y-102554314D01*
X125479628Y-102590600D01*
X125515914Y-102626885D01*
X125552200Y-102699457D01*
X125552200Y-102808314D01*
X125515914Y-102880885D01*
X125479628Y-102917171D01*
X125407057Y-102953457D01*
X125116771Y-102953457D01*
X126277914Y-103316314D02*
X125842485Y-103316314D01*
X126060200Y-103316314D02*
X126060200Y-102554314D01*
X125987628Y-102663171D01*
X125915057Y-102735742D01*
X125842485Y-102772028D01*
D14*
%TO.C,X1*%
X131780254Y-100388057D02*
X132542254Y-99880057D01*
X131780254Y-99880057D02*
X132542254Y-100388057D01*
X132542254Y-99190628D02*
X132542254Y-99626057D01*
X132542254Y-99408342D02*
X131780254Y-99408342D01*
X131889111Y-99480914D01*
X131961682Y-99553485D01*
X131997968Y-99626057D01*
D11*
%TO.C,C10*%
X121430142Y-108069742D02*
X121393857Y-108106028D01*
X121285000Y-108142314D01*
X121212428Y-108142314D01*
X121103571Y-108106028D01*
X121031000Y-108033457D01*
X120994714Y-107960885D01*
X120958428Y-107815742D01*
X120958428Y-107706885D01*
X120994714Y-107561742D01*
X121031000Y-107489171D01*
X121103571Y-107416600D01*
X121212428Y-107380314D01*
X121285000Y-107380314D01*
X121393857Y-107416600D01*
X121430142Y-107452885D01*
X122155857Y-108142314D02*
X121720428Y-108142314D01*
X121938142Y-108142314D02*
X121938142Y-107380314D01*
X121865571Y-107489171D01*
X121793000Y-107561742D01*
X121720428Y-107598028D01*
X122627571Y-107380314D02*
X122700142Y-107380314D01*
X122772714Y-107416600D01*
X122809000Y-107452885D01*
X122845285Y-107525457D01*
X122881571Y-107670600D01*
X122881571Y-107852028D01*
X122845285Y-107997171D01*
X122809000Y-108069742D01*
X122772714Y-108106028D01*
X122700142Y-108142314D01*
X122627571Y-108142314D01*
X122555000Y-108106028D01*
X122518714Y-108069742D01*
X122482428Y-107997171D01*
X122446142Y-107852028D01*
X122446142Y-107670600D01*
X122482428Y-107525457D01*
X122518714Y-107452885D01*
X122555000Y-107416600D01*
X122627571Y-107380314D01*
D15*
%TO.C,SW1*%
X113934761Y-84513333D02*
X113982380Y-84370476D01*
X113982380Y-84132380D01*
X113934761Y-84037142D01*
X113887142Y-83989523D01*
X113791904Y-83941904D01*
X113696666Y-83941904D01*
X113601428Y-83989523D01*
X113553809Y-84037142D01*
X113506190Y-84132380D01*
X113458571Y-84322857D01*
X113410952Y-84418095D01*
X113363333Y-84465714D01*
X113268095Y-84513333D01*
X113172857Y-84513333D01*
X113077619Y-84465714D01*
X113030000Y-84418095D01*
X112982380Y-84322857D01*
X112982380Y-84084761D01*
X113030000Y-83941904D01*
X112982380Y-83608571D02*
X113982380Y-83370476D01*
X113268095Y-83180000D01*
X113982380Y-82989523D01*
X112982380Y-82751428D01*
X113982380Y-81846666D02*
X113982380Y-82418095D01*
X113982380Y-82132380D02*
X112982380Y-82132380D01*
X113125238Y-82227619D01*
X113220476Y-82322857D01*
X113268095Y-82418095D01*
D11*
%TO.C,C12*%
X99772142Y-118679857D02*
X99808428Y-118716142D01*
X99844714Y-118825000D01*
X99844714Y-118897571D01*
X99808428Y-119006428D01*
X99735857Y-119079000D01*
X99663285Y-119115285D01*
X99518142Y-119151571D01*
X99409285Y-119151571D01*
X99264142Y-119115285D01*
X99191571Y-119079000D01*
X99119000Y-119006428D01*
X99082714Y-118897571D01*
X99082714Y-118825000D01*
X99119000Y-118716142D01*
X99155285Y-118679857D01*
X99844714Y-117954142D02*
X99844714Y-118389571D01*
X99844714Y-118171857D02*
X99082714Y-118171857D01*
X99191571Y-118244428D01*
X99264142Y-118317000D01*
X99300428Y-118389571D01*
X99155285Y-117663857D02*
X99119000Y-117627571D01*
X99082714Y-117555000D01*
X99082714Y-117373571D01*
X99119000Y-117301000D01*
X99155285Y-117264714D01*
X99227857Y-117228428D01*
X99300428Y-117228428D01*
X99409285Y-117264714D01*
X99844714Y-117700142D01*
X99844714Y-117228428D01*
%TO.C,R5*%
X101604714Y-118747000D02*
X101241857Y-119001000D01*
X101604714Y-119182428D02*
X100842714Y-119182428D01*
X100842714Y-118892142D01*
X100879000Y-118819571D01*
X100915285Y-118783285D01*
X100987857Y-118747000D01*
X101096714Y-118747000D01*
X101169285Y-118783285D01*
X101205571Y-118819571D01*
X101241857Y-118892142D01*
X101241857Y-119182428D01*
X100842714Y-118057571D02*
X100842714Y-118420428D01*
X101205571Y-118456714D01*
X101169285Y-118420428D01*
X101133000Y-118347857D01*
X101133000Y-118166428D01*
X101169285Y-118093857D01*
X101205571Y-118057571D01*
X101278142Y-118021285D01*
X101459571Y-118021285D01*
X101532142Y-118057571D01*
X101568428Y-118093857D01*
X101604714Y-118166428D01*
X101604714Y-118347857D01*
X101568428Y-118420428D01*
X101532142Y-118456714D01*
%TO.C,R4*%
X92643000Y-121274714D02*
X92389000Y-120911857D01*
X92207571Y-121274714D02*
X92207571Y-120512714D01*
X92497857Y-120512714D01*
X92570428Y-120549000D01*
X92606714Y-120585285D01*
X92643000Y-120657857D01*
X92643000Y-120766714D01*
X92606714Y-120839285D01*
X92570428Y-120875571D01*
X92497857Y-120911857D01*
X92207571Y-120911857D01*
X93296142Y-120766714D02*
X93296142Y-121274714D01*
X93114714Y-120476428D02*
X92933285Y-121020714D01*
X93405000Y-121020714D01*
%TO.C,P3*%
X130644714Y-92452828D02*
X129882714Y-92452828D01*
X129882714Y-92162542D01*
X129919000Y-92089971D01*
X129955285Y-92053685D01*
X130027857Y-92017400D01*
X130136714Y-92017400D01*
X130209285Y-92053685D01*
X130245571Y-92089971D01*
X130281857Y-92162542D01*
X130281857Y-92452828D01*
X129882714Y-91763400D02*
X129882714Y-91291685D01*
X130173000Y-91545685D01*
X130173000Y-91436828D01*
X130209285Y-91364257D01*
X130245571Y-91327971D01*
X130318142Y-91291685D01*
X130499571Y-91291685D01*
X130572142Y-91327971D01*
X130608428Y-91364257D01*
X130644714Y-91436828D01*
X130644714Y-91654542D01*
X130608428Y-91727114D01*
X130572142Y-91763400D01*
%TO.C,C6*%
X161234942Y-99085400D02*
X161271228Y-99121685D01*
X161307514Y-99230542D01*
X161307514Y-99303114D01*
X161271228Y-99411971D01*
X161198657Y-99484542D01*
X161126085Y-99520828D01*
X160980942Y-99557114D01*
X160872085Y-99557114D01*
X160726942Y-99520828D01*
X160654371Y-99484542D01*
X160581800Y-99411971D01*
X160545514Y-99303114D01*
X160545514Y-99230542D01*
X160581800Y-99121685D01*
X160618085Y-99085400D01*
X160545514Y-98432257D02*
X160545514Y-98577400D01*
X160581800Y-98649971D01*
X160618085Y-98686257D01*
X160726942Y-98758828D01*
X160872085Y-98795114D01*
X161162371Y-98795114D01*
X161234942Y-98758828D01*
X161271228Y-98722542D01*
X161307514Y-98649971D01*
X161307514Y-98504828D01*
X161271228Y-98432257D01*
X161234942Y-98395971D01*
X161162371Y-98359685D01*
X160980942Y-98359685D01*
X160908371Y-98395971D01*
X160872085Y-98432257D01*
X160835800Y-98504828D01*
X160835800Y-98649971D01*
X160872085Y-98722542D01*
X160908371Y-98758828D01*
X160980942Y-98795114D01*
%TO.C,C7*%
X156540200Y-101618142D02*
X156503914Y-101654428D01*
X156395057Y-101690714D01*
X156322485Y-101690714D01*
X156213628Y-101654428D01*
X156141057Y-101581857D01*
X156104771Y-101509285D01*
X156068485Y-101364142D01*
X156068485Y-101255285D01*
X156104771Y-101110142D01*
X156141057Y-101037571D01*
X156213628Y-100965000D01*
X156322485Y-100928714D01*
X156395057Y-100928714D01*
X156503914Y-100965000D01*
X156540200Y-101001285D01*
X156794200Y-100928714D02*
X157302200Y-100928714D01*
X156975628Y-101690714D01*
D15*
%TO.C,C8*%
X145434342Y-102681066D02*
X145481961Y-102728685D01*
X145529580Y-102871542D01*
X145529580Y-102966780D01*
X145481961Y-103109638D01*
X145386723Y-103204876D01*
X145291485Y-103252495D01*
X145101009Y-103300114D01*
X144958152Y-103300114D01*
X144767676Y-103252495D01*
X144672438Y-103204876D01*
X144577200Y-103109638D01*
X144529580Y-102966780D01*
X144529580Y-102871542D01*
X144577200Y-102728685D01*
X144624819Y-102681066D01*
X144958152Y-102109638D02*
X144910533Y-102204876D01*
X144862914Y-102252495D01*
X144767676Y-102300114D01*
X144720057Y-102300114D01*
X144624819Y-102252495D01*
X144577200Y-102204876D01*
X144529580Y-102109638D01*
X144529580Y-101919161D01*
X144577200Y-101823923D01*
X144624819Y-101776304D01*
X144720057Y-101728685D01*
X144767676Y-101728685D01*
X144862914Y-101776304D01*
X144910533Y-101823923D01*
X144958152Y-101919161D01*
X144958152Y-102109638D01*
X145005771Y-102204876D01*
X145053390Y-102252495D01*
X145148628Y-102300114D01*
X145339104Y-102300114D01*
X145434342Y-102252495D01*
X145481961Y-102204876D01*
X145529580Y-102109638D01*
X145529580Y-101919161D01*
X145481961Y-101823923D01*
X145434342Y-101776304D01*
X145339104Y-101728685D01*
X145148628Y-101728685D01*
X145053390Y-101776304D01*
X145005771Y-101823923D01*
X144958152Y-101919161D01*
D14*
%TO.C,U6*%
X153648228Y-101487514D02*
X153648228Y-102104371D01*
X153684514Y-102176942D01*
X153720800Y-102213228D01*
X153793371Y-102249514D01*
X153938514Y-102249514D01*
X154011085Y-102213228D01*
X154047371Y-102176942D01*
X154083657Y-102104371D01*
X154083657Y-101487514D01*
X154773085Y-101487514D02*
X154627942Y-101487514D01*
X154555371Y-101523800D01*
X154519085Y-101560085D01*
X154446514Y-101668942D01*
X154410228Y-101814085D01*
X154410228Y-102104371D01*
X154446514Y-102176942D01*
X154482800Y-102213228D01*
X154555371Y-102249514D01*
X154700514Y-102249514D01*
X154773085Y-102213228D01*
X154809371Y-102176942D01*
X154845657Y-102104371D01*
X154845657Y-101922942D01*
X154809371Y-101850371D01*
X154773085Y-101814085D01*
X154700514Y-101777800D01*
X154555371Y-101777800D01*
X154482800Y-101814085D01*
X154446514Y-101850371D01*
X154410228Y-101922942D01*
D11*
%TO.C,U7*%
X93844247Y-102650096D02*
X93844247Y-103054858D01*
X93868057Y-103102477D01*
X93891866Y-103126286D01*
X93939485Y-103150096D01*
X94034723Y-103150096D01*
X94082342Y-103126286D01*
X94106152Y-103102477D01*
X94129961Y-103054858D01*
X94129961Y-102650096D01*
X94320438Y-102650096D02*
X94653771Y-102650096D01*
X94439485Y-103150096D01*
%TO.C,U1*%
X131863374Y-106813531D02*
X132480231Y-106813531D01*
X132552802Y-106777245D01*
X132589088Y-106740960D01*
X132625374Y-106668388D01*
X132625374Y-106523245D01*
X132589088Y-106450674D01*
X132552802Y-106414388D01*
X132480231Y-106378102D01*
X131863374Y-106378102D01*
X132625374Y-105616102D02*
X132625374Y-106051531D01*
X132625374Y-105833817D02*
X131863374Y-105833817D01*
X131972231Y-105906388D01*
X132044802Y-105978960D01*
X132081088Y-106051531D01*
%TO.C,R8*%
X133243974Y-110609960D02*
X132881117Y-110863960D01*
X133243974Y-111045388D02*
X132481974Y-111045388D01*
X132481974Y-110755102D01*
X132518260Y-110682531D01*
X132554545Y-110646245D01*
X132627117Y-110609960D01*
X132735974Y-110609960D01*
X132808545Y-110646245D01*
X132844831Y-110682531D01*
X132881117Y-110755102D01*
X132881117Y-111045388D01*
X132808545Y-110174531D02*
X132772260Y-110247102D01*
X132735974Y-110283388D01*
X132663402Y-110319674D01*
X132627117Y-110319674D01*
X132554545Y-110283388D01*
X132518260Y-110247102D01*
X132481974Y-110174531D01*
X132481974Y-110029388D01*
X132518260Y-109956817D01*
X132554545Y-109920531D01*
X132627117Y-109884245D01*
X132663402Y-109884245D01*
X132735974Y-109920531D01*
X132772260Y-109956817D01*
X132808545Y-110029388D01*
X132808545Y-110174531D01*
X132844831Y-110247102D01*
X132881117Y-110283388D01*
X132953688Y-110319674D01*
X133098831Y-110319674D01*
X133171402Y-110283388D01*
X133207688Y-110247102D01*
X133243974Y-110174531D01*
X133243974Y-110029388D01*
X133207688Y-109956817D01*
X133171402Y-109920531D01*
X133098831Y-109884245D01*
X132953688Y-109884245D01*
X132881117Y-109920531D01*
X132844831Y-109956817D01*
X132808545Y-110029388D01*
%TO.C,R9*%
X113715800Y-110174314D02*
X113461800Y-109811457D01*
X113280371Y-110174314D02*
X113280371Y-109412314D01*
X113570657Y-109412314D01*
X113643228Y-109448600D01*
X113679514Y-109484885D01*
X113715800Y-109557457D01*
X113715800Y-109666314D01*
X113679514Y-109738885D01*
X113643228Y-109775171D01*
X113570657Y-109811457D01*
X113280371Y-109811457D01*
X114078657Y-110174314D02*
X114223800Y-110174314D01*
X114296371Y-110138028D01*
X114332657Y-110101742D01*
X114405228Y-109992885D01*
X114441514Y-109847742D01*
X114441514Y-109557457D01*
X114405228Y-109484885D01*
X114368942Y-109448600D01*
X114296371Y-109412314D01*
X114151228Y-109412314D01*
X114078657Y-109448600D01*
X114042371Y-109484885D01*
X114006085Y-109557457D01*
X114006085Y-109738885D01*
X114042371Y-109811457D01*
X114078657Y-109847742D01*
X114151228Y-109884028D01*
X114296371Y-109884028D01*
X114368942Y-109847742D01*
X114405228Y-109811457D01*
X114441514Y-109738885D01*
%TO.C,R10*%
X137333974Y-110972817D02*
X136971117Y-111226817D01*
X137333974Y-111408245D02*
X136571974Y-111408245D01*
X136571974Y-111117960D01*
X136608260Y-111045388D01*
X136644545Y-111009102D01*
X136717117Y-110972817D01*
X136825974Y-110972817D01*
X136898545Y-111009102D01*
X136934831Y-111045388D01*
X136971117Y-111117960D01*
X136971117Y-111408245D01*
X137333974Y-110247102D02*
X137333974Y-110682531D01*
X137333974Y-110464817D02*
X136571974Y-110464817D01*
X136680831Y-110537388D01*
X136753402Y-110609960D01*
X136789688Y-110682531D01*
X136571974Y-109775388D02*
X136571974Y-109702817D01*
X136608260Y-109630245D01*
X136644545Y-109593960D01*
X136717117Y-109557674D01*
X136862260Y-109521388D01*
X137043688Y-109521388D01*
X137188831Y-109557674D01*
X137261402Y-109593960D01*
X137297688Y-109630245D01*
X137333974Y-109702817D01*
X137333974Y-109775388D01*
X137297688Y-109847960D01*
X137261402Y-109884245D01*
X137188831Y-109920531D01*
X137043688Y-109956817D01*
X136862260Y-109956817D01*
X136717117Y-109920531D01*
X136644545Y-109884245D01*
X136608260Y-109847960D01*
X136571974Y-109775388D01*
D15*
%TO.C,U3*%
X92252380Y-116761904D02*
X93061904Y-116761904D01*
X93157142Y-116714285D01*
X93204761Y-116666666D01*
X93252380Y-116571428D01*
X93252380Y-116380952D01*
X93204761Y-116285714D01*
X93157142Y-116238095D01*
X93061904Y-116190476D01*
X92252380Y-116190476D01*
X92252380Y-115809523D02*
X92252380Y-115190476D01*
X92633333Y-115523809D01*
X92633333Y-115380952D01*
X92680952Y-115285714D01*
X92728571Y-115238095D01*
X92823809Y-115190476D01*
X93061904Y-115190476D01*
X93157142Y-115238095D01*
X93204761Y-115285714D01*
X93252380Y-115380952D01*
X93252380Y-115666666D01*
X93204761Y-115761904D01*
X93157142Y-115809523D01*
D16*
%TO.C,D5*%
X112206314Y-98475628D02*
X111444314Y-98475628D01*
X111444314Y-98294200D01*
X111480600Y-98185342D01*
X111553171Y-98112771D01*
X111625742Y-98076485D01*
X111770885Y-98040200D01*
X111879742Y-98040200D01*
X112024885Y-98076485D01*
X112097457Y-98112771D01*
X112170028Y-98185342D01*
X112206314Y-98294200D01*
X112206314Y-98475628D01*
X111444314Y-97350771D02*
X111444314Y-97713628D01*
X111807171Y-97749914D01*
X111770885Y-97713628D01*
X111734600Y-97641057D01*
X111734600Y-97459628D01*
X111770885Y-97387057D01*
X111807171Y-97350771D01*
X111879742Y-97314485D01*
X112061171Y-97314485D01*
X112133742Y-97350771D01*
X112170028Y-97387057D01*
X112206314Y-97459628D01*
X112206314Y-97641057D01*
X112170028Y-97713628D01*
X112133742Y-97749914D01*
D11*
%TO.C,TP6*%
X139338028Y-84973114D02*
X139773457Y-84973114D01*
X139555742Y-85735114D02*
X139555742Y-84973114D01*
X140027457Y-85735114D02*
X140027457Y-84973114D01*
X140317742Y-84973114D01*
X140390314Y-85009400D01*
X140426600Y-85045685D01*
X140462885Y-85118257D01*
X140462885Y-85227114D01*
X140426600Y-85299685D01*
X140390314Y-85335971D01*
X140317742Y-85372257D01*
X140027457Y-85372257D01*
X141116028Y-84973114D02*
X140970885Y-84973114D01*
X140898314Y-85009400D01*
X140862028Y-85045685D01*
X140789457Y-85154542D01*
X140753171Y-85299685D01*
X140753171Y-85589971D01*
X140789457Y-85662542D01*
X140825742Y-85698828D01*
X140898314Y-85735114D01*
X141043457Y-85735114D01*
X141116028Y-85698828D01*
X141152314Y-85662542D01*
X141188600Y-85589971D01*
X141188600Y-85408542D01*
X141152314Y-85335971D01*
X141116028Y-85299685D01*
X141043457Y-85263400D01*
X140898314Y-85263400D01*
X140825742Y-85299685D01*
X140789457Y-85335971D01*
X140753171Y-85408542D01*
D14*
%TO.C,U8*%
X141913428Y-86704714D02*
X141913428Y-87321571D01*
X141949714Y-87394142D01*
X141986000Y-87430428D01*
X142058571Y-87466714D01*
X142203714Y-87466714D01*
X142276285Y-87430428D01*
X142312571Y-87394142D01*
X142348857Y-87321571D01*
X142348857Y-86704714D01*
X142820571Y-87031285D02*
X142748000Y-86995000D01*
X142711714Y-86958714D01*
X142675428Y-86886142D01*
X142675428Y-86849857D01*
X142711714Y-86777285D01*
X142748000Y-86741000D01*
X142820571Y-86704714D01*
X142965714Y-86704714D01*
X143038285Y-86741000D01*
X143074571Y-86777285D01*
X143110857Y-86849857D01*
X143110857Y-86886142D01*
X143074571Y-86958714D01*
X143038285Y-86995000D01*
X142965714Y-87031285D01*
X142820571Y-87031285D01*
X142748000Y-87067571D01*
X142711714Y-87103857D01*
X142675428Y-87176428D01*
X142675428Y-87321571D01*
X142711714Y-87394142D01*
X142748000Y-87430428D01*
X142820571Y-87466714D01*
X142965714Y-87466714D01*
X143038285Y-87430428D01*
X143074571Y-87394142D01*
X143110857Y-87321571D01*
X143110857Y-87176428D01*
X143074571Y-87103857D01*
X143038285Y-87067571D01*
X142965714Y-87031285D01*
D11*
%TO.C,C16*%
X141610142Y-93512142D02*
X141573857Y-93548428D01*
X141465000Y-93584714D01*
X141392428Y-93584714D01*
X141283571Y-93548428D01*
X141211000Y-93475857D01*
X141174714Y-93403285D01*
X141138428Y-93258142D01*
X141138428Y-93149285D01*
X141174714Y-93004142D01*
X141211000Y-92931571D01*
X141283571Y-92859000D01*
X141392428Y-92822714D01*
X141465000Y-92822714D01*
X141573857Y-92859000D01*
X141610142Y-92895285D01*
X142335857Y-93584714D02*
X141900428Y-93584714D01*
X142118142Y-93584714D02*
X142118142Y-92822714D01*
X142045571Y-92931571D01*
X141973000Y-93004142D01*
X141900428Y-93040428D01*
X142989000Y-92822714D02*
X142843857Y-92822714D01*
X142771285Y-92859000D01*
X142735000Y-92895285D01*
X142662428Y-93004142D01*
X142626142Y-93149285D01*
X142626142Y-93439571D01*
X142662428Y-93512142D01*
X142698714Y-93548428D01*
X142771285Y-93584714D01*
X142916428Y-93584714D01*
X142989000Y-93548428D01*
X143025285Y-93512142D01*
X143061571Y-93439571D01*
X143061571Y-93258142D01*
X143025285Y-93185571D01*
X142989000Y-93149285D01*
X142916428Y-93113000D01*
X142771285Y-93113000D01*
X142698714Y-93149285D01*
X142662428Y-93185571D01*
X142626142Y-93258142D01*
%TO.C,C17*%
X97604942Y-82314142D02*
X97568657Y-82350428D01*
X97459800Y-82386714D01*
X97387228Y-82386714D01*
X97278371Y-82350428D01*
X97205800Y-82277857D01*
X97169514Y-82205285D01*
X97133228Y-82060142D01*
X97133228Y-81951285D01*
X97169514Y-81806142D01*
X97205800Y-81733571D01*
X97278371Y-81661000D01*
X97387228Y-81624714D01*
X97459800Y-81624714D01*
X97568657Y-81661000D01*
X97604942Y-81697285D01*
X98330657Y-82386714D02*
X97895228Y-82386714D01*
X98112942Y-82386714D02*
X98112942Y-81624714D01*
X98040371Y-81733571D01*
X97967800Y-81806142D01*
X97895228Y-81842428D01*
X98584657Y-81624714D02*
X99092657Y-81624714D01*
X98766085Y-82386714D01*
%TO.C,L1*%
X156641800Y-96966314D02*
X156278942Y-96966314D01*
X156278942Y-96204314D01*
X157294942Y-96966314D02*
X156859514Y-96966314D01*
X157077228Y-96966314D02*
X157077228Y-96204314D01*
X157004657Y-96313171D01*
X156932085Y-96385742D01*
X156859514Y-96422028D01*
%TO.C,P5*%
X160740371Y-111952314D02*
X160740371Y-111190314D01*
X161030657Y-111190314D01*
X161103228Y-111226600D01*
X161139514Y-111262885D01*
X161175800Y-111335457D01*
X161175800Y-111444314D01*
X161139514Y-111516885D01*
X161103228Y-111553171D01*
X161030657Y-111589457D01*
X160740371Y-111589457D01*
X161865228Y-111190314D02*
X161502371Y-111190314D01*
X161466085Y-111553171D01*
X161502371Y-111516885D01*
X161574942Y-111480600D01*
X161756371Y-111480600D01*
X161828942Y-111516885D01*
X161865228Y-111553171D01*
X161901514Y-111625742D01*
X161901514Y-111807171D01*
X161865228Y-111879742D01*
X161828942Y-111916028D01*
X161756371Y-111952314D01*
X161574942Y-111952314D01*
X161502371Y-111916028D01*
X161466085Y-111879742D01*
%TO.C,R3*%
X89444714Y-116377000D02*
X89081857Y-116631000D01*
X89444714Y-116812428D02*
X88682714Y-116812428D01*
X88682714Y-116522142D01*
X88719000Y-116449571D01*
X88755285Y-116413285D01*
X88827857Y-116377000D01*
X88936714Y-116377000D01*
X89009285Y-116413285D01*
X89045571Y-116449571D01*
X89081857Y-116522142D01*
X89081857Y-116812428D01*
X88682714Y-116123000D02*
X88682714Y-115651285D01*
X88973000Y-115905285D01*
X88973000Y-115796428D01*
X89009285Y-115723857D01*
X89045571Y-115687571D01*
X89118142Y-115651285D01*
X89299571Y-115651285D01*
X89372142Y-115687571D01*
X89408428Y-115723857D01*
X89444714Y-115796428D01*
X89444714Y-116014142D01*
X89408428Y-116086714D01*
X89372142Y-116123000D01*
%TO.C,R12*%
X92594714Y-89339857D02*
X92231857Y-89593857D01*
X92594714Y-89775285D02*
X91832714Y-89775285D01*
X91832714Y-89485000D01*
X91869000Y-89412428D01*
X91905285Y-89376142D01*
X91977857Y-89339857D01*
X92086714Y-89339857D01*
X92159285Y-89376142D01*
X92195571Y-89412428D01*
X92231857Y-89485000D01*
X92231857Y-89775285D01*
X92594714Y-88614142D02*
X92594714Y-89049571D01*
X92594714Y-88831857D02*
X91832714Y-88831857D01*
X91941571Y-88904428D01*
X92014142Y-88977000D01*
X92050428Y-89049571D01*
X91905285Y-88323857D02*
X91869000Y-88287571D01*
X91832714Y-88215000D01*
X91832714Y-88033571D01*
X91869000Y-87961000D01*
X91905285Y-87924714D01*
X91977857Y-87888428D01*
X92050428Y-87888428D01*
X92159285Y-87924714D01*
X92594714Y-88360142D01*
X92594714Y-87888428D01*
D14*
%TO.C,U5*%
X95493114Y-87092971D02*
X96109971Y-87092971D01*
X96182542Y-87056685D01*
X96218828Y-87020400D01*
X96255114Y-86947828D01*
X96255114Y-86802685D01*
X96218828Y-86730114D01*
X96182542Y-86693828D01*
X96109971Y-86657542D01*
X95493114Y-86657542D01*
X95493114Y-85931828D02*
X95493114Y-86294685D01*
X95855971Y-86330971D01*
X95819685Y-86294685D01*
X95783400Y-86222114D01*
X95783400Y-86040685D01*
X95819685Y-85968114D01*
X95855971Y-85931828D01*
X95928542Y-85895542D01*
X96109971Y-85895542D01*
X96182542Y-85931828D01*
X96218828Y-85968114D01*
X96255114Y-86040685D01*
X96255114Y-86222114D01*
X96218828Y-86294685D01*
X96182542Y-86330971D01*
D15*
%TO.C,SW2*%
X119716704Y-97566380D02*
X119383371Y-97090190D01*
X119145276Y-97566380D02*
X119145276Y-96566380D01*
X119526228Y-96566380D01*
X119621466Y-96614000D01*
X119669085Y-96661619D01*
X119716704Y-96756857D01*
X119716704Y-96899714D01*
X119669085Y-96994952D01*
X119621466Y-97042571D01*
X119526228Y-97090190D01*
X119145276Y-97090190D01*
X120526228Y-97518761D02*
X120430990Y-97566380D01*
X120240514Y-97566380D01*
X120145276Y-97518761D01*
X120097657Y-97423523D01*
X120097657Y-97042571D01*
X120145276Y-96947333D01*
X120240514Y-96899714D01*
X120430990Y-96899714D01*
X120526228Y-96947333D01*
X120573847Y-97042571D01*
X120573847Y-97137809D01*
X120097657Y-97233047D01*
X120954800Y-97518761D02*
X121050038Y-97566380D01*
X121240514Y-97566380D01*
X121335752Y-97518761D01*
X121383371Y-97423523D01*
X121383371Y-97375904D01*
X121335752Y-97280666D01*
X121240514Y-97233047D01*
X121097657Y-97233047D01*
X121002419Y-97185428D01*
X120954800Y-97090190D01*
X120954800Y-97042571D01*
X121002419Y-96947333D01*
X121097657Y-96899714D01*
X121240514Y-96899714D01*
X121335752Y-96947333D01*
X122192895Y-97518761D02*
X122097657Y-97566380D01*
X121907180Y-97566380D01*
X121811942Y-97518761D01*
X121764323Y-97423523D01*
X121764323Y-97042571D01*
X121811942Y-96947333D01*
X121907180Y-96899714D01*
X122097657Y-96899714D01*
X122192895Y-96947333D01*
X122240514Y-97042571D01*
X122240514Y-97137809D01*
X121764323Y-97233047D01*
X122526228Y-96899714D02*
X122907180Y-96899714D01*
X122669085Y-96566380D02*
X122669085Y-97423523D01*
X122716704Y-97518761D01*
X122811942Y-97566380D01*
X122907180Y-97566380D01*
D17*
%TO.C,U4*%
X194441600Y-85440100D02*
X195965600Y-85440100D01*
X195965600Y-88043600D02*
X194441600Y-88043600D01*
X194441600Y-88043600D02*
X194441600Y-85440100D01*
X194441600Y-86265600D02*
X194949600Y-85503600D01*
X195965600Y-85440100D02*
X195965600Y-88043600D01*
D15*
%TO.C,P2*%
X158741600Y-87000000D02*
X151341600Y-87000000D01*
X151341600Y-91500000D02*
X151341600Y-80000000D01*
X151341600Y-80000000D02*
X158741600Y-80000000D01*
X158741600Y-80000000D02*
X158741600Y-91500000D01*
%TO.C,MOD1*%
X161872400Y-80041600D02*
X183872400Y-80041600D01*
X183872400Y-103041600D02*
X161872400Y-103041600D01*
X183872400Y-80041600D02*
X183872400Y-103041600D01*
X161872400Y-103041600D02*
X161872400Y-80041600D01*
D17*
%TO.C,R2*%
X89738000Y-85992000D02*
X89738000Y-84976000D01*
X89738000Y-84976000D02*
X91262000Y-84976000D01*
X91262000Y-88024000D02*
X89738000Y-88024000D01*
X91262000Y-84976000D02*
X91262000Y-85992000D01*
X91262000Y-87008000D02*
X91262000Y-88024000D01*
X89738000Y-88024000D02*
X89738000Y-87008000D01*
%TO.C,U2*%
X91262000Y-84333500D02*
X89738000Y-84333500D01*
X89738000Y-84333500D02*
X89738000Y-81730000D01*
X89738000Y-81730000D02*
X91262000Y-81730000D01*
X91262000Y-81730000D02*
X91262000Y-84333500D01*
X91262000Y-83508000D02*
X90754000Y-84270000D01*
D15*
%TO.C,P1*%
X98540000Y-123730000D02*
X104540000Y-123730000D01*
X98540000Y-126270000D02*
X104540000Y-126270000D01*
X96000000Y-122460000D02*
X98540000Y-122460000D01*
X96000000Y-127540000D02*
X96000000Y-122460000D01*
X98540000Y-122460000D02*
X98540000Y-127540000D01*
X98540000Y-127540000D02*
X96000000Y-127540000D01*
D17*
%TO.C,C1*%
X123842260Y-105617960D02*
X121556260Y-105617960D01*
X121556260Y-104347960D02*
X123842260Y-104347960D01*
X123842260Y-104347960D02*
X123842260Y-105617960D01*
X121556260Y-105617960D02*
X121556260Y-104347960D01*
%TO.C,C2*%
X125755400Y-100457000D02*
X123469400Y-100457000D01*
X123469400Y-99187000D02*
X125755400Y-99187000D01*
X123469400Y-100457000D02*
X123469400Y-99187000D01*
X125755400Y-99187000D02*
X125755400Y-100457000D01*
%TO.C,C3*%
X123842260Y-102847960D02*
X123842260Y-104117960D01*
X121556260Y-104117960D02*
X121556260Y-102847960D01*
X121556260Y-102847960D02*
X123842260Y-102847960D01*
X123842260Y-104117960D02*
X121556260Y-104117960D01*
%TO.C,R1*%
X126720600Y-101015800D02*
X126720600Y-102285800D01*
X124434600Y-102285800D02*
X124434600Y-101015800D01*
X124434600Y-101015800D02*
X126720600Y-101015800D01*
X126720600Y-102285800D02*
X124434600Y-102285800D01*
D18*
%TO.C,X1*%
X129818400Y-98732960D02*
X129018400Y-98732960D01*
X129818400Y-101232960D02*
X129018400Y-101232960D01*
X127818400Y-100282960D02*
X127818400Y-99682960D01*
X131018400Y-99682960D02*
X131018400Y-100282960D01*
D17*
%TO.C,C4*%
X126275400Y-96597960D02*
X128561400Y-96597960D01*
X126275400Y-97867960D02*
X126275400Y-96597960D01*
X128561400Y-97867960D02*
X126275400Y-97867960D01*
X128561400Y-96597960D02*
X128561400Y-97867960D01*
%TO.C,C5*%
X132561400Y-97867960D02*
X130275400Y-97867960D01*
X132561400Y-96597960D02*
X132561400Y-97867960D01*
X130275400Y-97867960D02*
X130275400Y-96597960D01*
X130275400Y-96597960D02*
X132561400Y-96597960D01*
%TO.C,C10*%
X121556260Y-105847960D02*
X123842260Y-105847960D01*
X123842260Y-105847960D02*
X123842260Y-107117960D01*
X121556260Y-107117960D02*
X121556260Y-105847960D01*
X123842260Y-107117960D02*
X121556260Y-107117960D01*
%TO.C,C11*%
X125349000Y-111617960D02*
X125349000Y-110347960D01*
X127635000Y-110347960D02*
X127635000Y-111617960D01*
X125349000Y-110347960D02*
X127635000Y-110347960D01*
X127635000Y-111617960D02*
X125349000Y-111617960D01*
D15*
%TO.C,SW1*%
X125000000Y-79990000D02*
X125000000Y-85890000D01*
X115000000Y-85890000D02*
X115000000Y-79990000D01*
X115000000Y-79990000D02*
X125000000Y-79990000D01*
X121500000Y-79990000D02*
X121500000Y-76690000D01*
X121500000Y-76690000D02*
X118500000Y-76690000D01*
X118500000Y-76690000D02*
X118500000Y-79990000D01*
D17*
%TO.C,C12*%
X100135000Y-121893000D02*
X98865000Y-121893000D01*
X98865000Y-121893000D02*
X98865000Y-119607000D01*
X100135000Y-119607000D02*
X100135000Y-121893000D01*
X98865000Y-119607000D02*
X100135000Y-119607000D01*
%TO.C,R5*%
X100615000Y-121893000D02*
X100615000Y-119607000D01*
X100615000Y-119607000D02*
X101885000Y-119607000D01*
X101885000Y-119607000D02*
X101885000Y-121893000D01*
X101885000Y-121893000D02*
X100615000Y-121893000D01*
%TO.C,R4*%
X94942000Y-121762000D02*
X93926000Y-121762000D01*
X93926000Y-121762000D02*
X93926000Y-120238000D01*
X96974000Y-120238000D02*
X96974000Y-121762000D01*
X96974000Y-121762000D02*
X95958000Y-121762000D01*
X93926000Y-120238000D02*
X94942000Y-120238000D01*
X95958000Y-120238000D02*
X96974000Y-120238000D01*
D15*
%TO.C,P3*%
X137540000Y-90600400D02*
X137540000Y-84600400D01*
X138810000Y-93140400D02*
X131190000Y-93140400D01*
X138810000Y-90600400D02*
X138810000Y-93140400D01*
X135000000Y-90600400D02*
X135000000Y-84600400D01*
X132460000Y-90600400D02*
X132460000Y-84600400D01*
X131190000Y-90600400D02*
X138810000Y-90600400D01*
X131190000Y-93140400D02*
X131190000Y-90600400D01*
D17*
%TO.C,C6*%
X160324800Y-97434400D02*
X160324800Y-98450400D01*
X158800800Y-98450400D02*
X158800800Y-97434400D01*
X158800800Y-100482400D02*
X158800800Y-99466400D01*
X160324800Y-100482400D02*
X158800800Y-100482400D01*
X158800800Y-97434400D02*
X160324800Y-97434400D01*
X160324800Y-99466400D02*
X160324800Y-100482400D01*
%TO.C,C7*%
X158292800Y-100584000D02*
X157276800Y-100584000D01*
X157276800Y-99060000D02*
X158292800Y-99060000D01*
X155244800Y-99060000D02*
X156260800Y-99060000D01*
X155244800Y-100584000D02*
X155244800Y-99060000D01*
X156260800Y-100584000D02*
X155244800Y-100584000D01*
X158292800Y-99060000D02*
X158292800Y-100584000D01*
D15*
%TO.C,C8*%
X149252200Y-103514400D02*
X149252200Y-101514400D01*
X146302200Y-101514400D02*
X146302200Y-103514400D01*
%TO.C,L2*%
X154400000Y-102597200D02*
X150400000Y-102597200D01*
X154400000Y-106597200D02*
X150400000Y-106597200D01*
D17*
%TO.C,R6*%
X149834600Y-99847400D02*
X151104600Y-99847400D01*
X151104600Y-99847400D02*
X151104600Y-102133400D01*
X149834600Y-102133400D02*
X149834600Y-99847400D01*
X151104600Y-102133400D02*
X149834600Y-102133400D01*
%TO.C,R7*%
X149834600Y-99593400D02*
X149834600Y-97307400D01*
X149834600Y-97307400D02*
X151104600Y-97307400D01*
X151104600Y-97307400D02*
X151104600Y-99593400D01*
X151104600Y-99593400D02*
X149834600Y-99593400D01*
%TO.C,U6*%
X152603200Y-100076000D02*
X151841200Y-99568000D01*
X154381200Y-100076000D02*
X151777700Y-100076000D01*
X151777700Y-98552000D02*
X154381200Y-98552000D01*
X151777700Y-100076000D02*
X151777700Y-98552000D01*
X154381200Y-98552000D02*
X154381200Y-100076000D01*
D19*
%TO.C,U7*%
X94885200Y-106443906D02*
X91885200Y-106443906D01*
X91885200Y-106443906D02*
X91885200Y-103443906D01*
X91885200Y-103443906D02*
X94885200Y-103443906D01*
X94885200Y-103443906D02*
X94885200Y-106443906D01*
D11*
%TO.C,U1*%
X126184660Y-103896160D02*
X126362460Y-103718360D01*
X131213860Y-103718360D02*
X131213860Y-104099360D01*
X131213860Y-108747560D02*
X130832860Y-108747560D01*
X131213860Y-103718360D02*
X130832860Y-103718360D01*
X126362460Y-103718360D02*
X126565660Y-103718360D01*
X126184660Y-104099360D02*
X126184660Y-103896160D01*
X126184660Y-108747560D02*
X126565660Y-108747560D01*
X126184660Y-108747560D02*
X126184660Y-108366560D01*
X131213860Y-108747560D02*
X131213860Y-108366560D01*
D17*
%TO.C,R8*%
X133564260Y-111625960D02*
X133564260Y-109339960D01*
X133564260Y-109339960D02*
X134834260Y-109339960D01*
X134834260Y-111625960D02*
X133564260Y-111625960D01*
X134834260Y-109339960D02*
X134834260Y-111625960D01*
%TO.C,R9*%
X112699800Y-107924600D02*
X114985800Y-107924600D01*
X114985800Y-109194600D02*
X112699800Y-109194600D01*
X112699800Y-109194600D02*
X112699800Y-107924600D01*
X114985800Y-107924600D02*
X114985800Y-109194600D01*
%TO.C,R10*%
X135074260Y-111625960D02*
X135074260Y-109339960D01*
X136344260Y-109339960D02*
X136344260Y-111625960D01*
X135074260Y-109339960D02*
X136344260Y-109339960D01*
X136344260Y-111625960D02*
X135074260Y-111625960D01*
%TO.C,C13*%
X91107000Y-119385000D02*
X91107000Y-118115000D01*
X93393000Y-118115000D02*
X93393000Y-119385000D01*
X91107000Y-118115000D02*
X93393000Y-118115000D01*
X93393000Y-119385000D02*
X91107000Y-119385000D01*
%TO.C,C14*%
X96653000Y-118715000D02*
X96653000Y-119985000D01*
X96653000Y-119985000D02*
X94367000Y-119985000D01*
X94367000Y-118715000D02*
X96653000Y-118715000D01*
X94367000Y-119985000D02*
X94367000Y-118715000D01*
D10*
%TO.C,U3*%
X97126400Y-117676400D02*
X97126400Y-114323600D01*
X93773600Y-114323600D02*
X93773600Y-117676400D01*
X94300749Y-118098958D02*
G75*
G03*
X94173800Y-118155800I-50749J-56842D01*
G01*
D18*
%TO.C,D5*%
X113131600Y-89103200D02*
X113131600Y-96723200D01*
X113131600Y-96723200D02*
X110591600Y-96723200D01*
X110591600Y-96723200D02*
X110591600Y-89103200D01*
X110591600Y-89103200D02*
X113131600Y-89103200D01*
D17*
%TO.C,U8*%
X141986000Y-90474800D02*
X141986000Y-88950800D01*
X141986000Y-88950800D02*
X144589500Y-88950800D01*
X144589500Y-88950800D02*
X144589500Y-90474800D01*
X144589500Y-90474800D02*
X141986000Y-90474800D01*
X143764000Y-88950800D02*
X144526000Y-89458800D01*
%TO.C,C15*%
X146786600Y-90652600D02*
X145516600Y-90652600D01*
X145516600Y-90652600D02*
X145516600Y-88366600D01*
X145516600Y-88366600D02*
X146786600Y-88366600D01*
X146786600Y-88366600D02*
X146786600Y-90652600D01*
%TO.C,C16*%
X142524000Y-95512000D02*
X141508000Y-95512000D01*
X142524000Y-93988000D02*
X142524000Y-95512000D01*
X139476000Y-93988000D02*
X140492000Y-93988000D01*
X140492000Y-95512000D02*
X139476000Y-95512000D01*
X141508000Y-93988000D02*
X142524000Y-93988000D01*
X139476000Y-95512000D02*
X139476000Y-93988000D01*
%TO.C,C17*%
X94742000Y-82812000D02*
X93726000Y-82812000D01*
X95758000Y-81288000D02*
X96774000Y-81288000D01*
X93726000Y-82812000D02*
X93726000Y-81288000D01*
X96774000Y-81288000D02*
X96774000Y-82812000D01*
X96774000Y-82812000D02*
X95758000Y-82812000D01*
X93726000Y-81288000D02*
X94742000Y-81288000D01*
%TO.C,L1*%
X157276800Y-97282000D02*
X158292800Y-97282000D01*
X155244800Y-98806000D02*
X155244800Y-97282000D01*
X155244800Y-97282000D02*
X156260800Y-97282000D01*
X158292800Y-97282000D02*
X158292800Y-98806000D01*
X158292800Y-98806000D02*
X157276800Y-98806000D01*
X156260800Y-98806000D02*
X155244800Y-98806000D01*
D18*
%TO.C,P5*%
X149402800Y-110337600D02*
X159562800Y-110337600D01*
X149402800Y-112877600D02*
X149402800Y-110337600D01*
X159562800Y-112877600D02*
X149402800Y-112877600D01*
X159562800Y-110337600D02*
X159562800Y-112877600D01*
D17*
%TO.C,R3*%
X89738000Y-114726000D02*
X91262000Y-114726000D01*
X89738000Y-115742000D02*
X89738000Y-114726000D01*
X91262000Y-117774000D02*
X89738000Y-117774000D01*
X89738000Y-117774000D02*
X89738000Y-116758000D01*
X91262000Y-114726000D02*
X91262000Y-115742000D01*
X91262000Y-116758000D02*
X91262000Y-117774000D01*
%TO.C,R11*%
X93393000Y-113895000D02*
X91107000Y-113895000D01*
X91107000Y-113895000D02*
X91107000Y-112625000D01*
X93393000Y-112625000D02*
X93393000Y-113895000D01*
X91107000Y-112625000D02*
X93393000Y-112625000D01*
%TO.C,R12*%
X91615000Y-85357000D02*
X92885000Y-85357000D01*
X92885000Y-87643000D02*
X91615000Y-87643000D01*
X92885000Y-85357000D02*
X92885000Y-87643000D01*
X91615000Y-87643000D02*
X91615000Y-85357000D01*
D11*
%TO.C,U5*%
X95250000Y-85875000D02*
X95250000Y-87125000D01*
X93250000Y-87125000D02*
X93250000Y-85875000D01*
X93250000Y-85875000D02*
X95250000Y-85875000D01*
X93742000Y-87125000D02*
X93250000Y-86812500D01*
X95250000Y-87125000D02*
X93250000Y-87125000D01*
D18*
%TO.C,P4*%
X206453145Y-90119200D02*
X203913145Y-90119200D01*
X206453145Y-82499200D02*
X206453145Y-90119200D01*
X203913145Y-82499200D02*
X206453145Y-82499200D01*
X203913145Y-90119200D02*
X203913145Y-82499200D01*
D20*
%TO.C,SW2*%
X124184800Y-91664000D02*
X124184800Y-94264000D01*
X117724800Y-89734000D02*
X124184800Y-89734000D01*
X117724800Y-91664000D02*
X117724800Y-94264000D01*
X117724800Y-89764000D02*
X117724800Y-89734000D01*
X117724800Y-96194000D02*
X117724800Y-96164000D01*
X124184800Y-89734000D02*
X124184800Y-89764000D01*
X124184800Y-96194000D02*
X124184800Y-96164000D01*
X117724800Y-96194000D02*
X124184800Y-96194000D01*
%TO.C,G\u002A\u002A\u002A*%
G36*
X200160289Y-98241890D02*
G01*
X200357313Y-98296341D01*
X200544622Y-98402968D01*
X200710107Y-98563085D01*
X200803042Y-98729923D01*
X200845891Y-98921739D01*
X200836324Y-99112891D01*
X200774721Y-99273472D01*
X200671644Y-99383022D01*
X200524149Y-99476377D01*
X200364427Y-99535928D01*
X200272608Y-99548156D01*
X200068280Y-99517703D01*
X199874337Y-99431167D01*
X199702939Y-99301049D01*
X199566250Y-99139847D01*
X199476430Y-98960060D01*
X199445642Y-98774188D01*
X199451925Y-98704714D01*
X199516459Y-98518668D01*
X199631633Y-98378004D01*
X199785377Y-98284081D01*
X199965620Y-98238257D01*
X200160289Y-98241890D01*
G37*
G36*
X199324789Y-104984640D02*
G01*
X199433668Y-105054299D01*
X199538630Y-105163465D01*
X199632670Y-105300412D01*
X199708786Y-105453413D01*
X199759974Y-105610741D01*
X199779229Y-105760667D01*
X199759549Y-105891465D01*
X199703543Y-105982353D01*
X199619442Y-106033941D01*
X199526181Y-106022398D01*
X199415541Y-105945042D01*
X199333489Y-105861611D01*
X199202072Y-105687239D01*
X199108691Y-105504134D01*
X199056908Y-105326716D01*
X199050287Y-105169409D01*
X199092389Y-105046631D01*
X199123294Y-105010758D01*
X199218997Y-104966218D01*
X199324789Y-104984640D01*
G37*
G36*
X201124934Y-112286049D02*
G01*
X200869747Y-112561888D01*
X200829227Y-112615183D01*
X200710830Y-112802273D01*
X200601011Y-113021690D01*
X200511857Y-113245572D01*
X200455458Y-113446060D01*
X200446891Y-113496315D01*
X200423610Y-113666494D01*
X200516167Y-113449750D01*
X200634174Y-113198564D01*
X200758600Y-112994420D01*
X200909120Y-112808895D01*
X201075767Y-112641308D01*
X201399784Y-112383237D01*
X201755748Y-112191714D01*
X202147596Y-112065281D01*
X202579263Y-112002480D01*
X202823023Y-111994492D01*
X203329953Y-112031603D01*
X203810986Y-112140822D01*
X204266011Y-112322101D01*
X204694916Y-112575397D01*
X205097588Y-112900663D01*
X205135618Y-112936394D01*
X205467093Y-113297678D01*
X205730009Y-113683696D01*
X205922616Y-114090388D01*
X206043160Y-114513690D01*
X206089891Y-114949543D01*
X206086767Y-115141456D01*
X206035517Y-115538709D01*
X205923648Y-115894590D01*
X205746545Y-116218948D01*
X205499592Y-116521631D01*
X205388672Y-116630963D01*
X205074072Y-116877360D01*
X204718561Y-117064674D01*
X204317745Y-117194668D01*
X203867235Y-117269107D01*
X203780791Y-117276722D01*
X203435994Y-117303381D01*
X203704169Y-117331953D01*
X204011551Y-117342141D01*
X204348031Y-117315017D01*
X204690151Y-117255146D01*
X205014455Y-117167094D01*
X205297487Y-117055426D01*
X205399418Y-117002002D01*
X205492893Y-116949738D01*
X205551779Y-116919878D01*
X205562239Y-116916923D01*
X205568564Y-116955246D01*
X205586686Y-117061640D01*
X205615327Y-117228679D01*
X205653208Y-117448939D01*
X205699052Y-117714993D01*
X205751579Y-118019415D01*
X205809512Y-118354779D01*
X205868724Y-118697203D01*
X205930768Y-119057586D01*
X205988468Y-119396147D01*
X206040547Y-119705141D01*
X206085727Y-119976824D01*
X206122729Y-120203449D01*
X206150275Y-120377273D01*
X206167087Y-120490550D01*
X206171971Y-120534741D01*
X206160507Y-120588717D01*
X206130028Y-120705134D01*
X206083593Y-120873059D01*
X206024260Y-121081561D01*
X205955088Y-121319706D01*
X205902652Y-121497509D01*
X205821459Y-121766929D01*
X205739988Y-122029659D01*
X205663000Y-122270907D01*
X205595253Y-122475883D01*
X205541507Y-122629796D01*
X205520513Y-122685141D01*
X205345033Y-123080151D01*
X205123029Y-123508200D01*
X204865210Y-123951385D01*
X204582287Y-124391802D01*
X204284968Y-124811549D01*
X204120374Y-125025619D01*
X203960143Y-125216272D01*
X203760925Y-125435982D01*
X203536195Y-125671370D01*
X203299430Y-125909060D01*
X203064107Y-126135675D01*
X202843704Y-126337836D01*
X202651697Y-126502166D01*
X202562471Y-126572030D01*
X202265454Y-126780558D01*
X201961406Y-126969877D01*
X201661603Y-127134533D01*
X201377322Y-127269068D01*
X201119840Y-127368027D01*
X200900434Y-127425953D01*
X200770167Y-127439193D01*
X200697872Y-127427721D01*
X200562661Y-127406266D01*
X200361921Y-127316472D01*
X200189034Y-127183298D01*
X200065088Y-127020228D01*
X200043413Y-126974435D01*
X199997890Y-126864533D01*
X199130969Y-126862775D01*
X198264049Y-126861017D01*
X198498491Y-126752475D01*
X198649579Y-126670764D01*
X198796571Y-126572312D01*
X198881598Y-126502040D01*
X198980121Y-126411363D01*
X199034444Y-126363150D01*
X200498070Y-126363150D01*
X200505175Y-126458840D01*
X200514989Y-126473815D01*
X200579733Y-126500538D01*
X200697872Y-126505565D01*
X200849862Y-126490666D01*
X201016160Y-126457609D01*
X201156507Y-126415727D01*
X201439612Y-126281093D01*
X201737559Y-126074008D01*
X202048398Y-125796779D01*
X202370182Y-125451716D01*
X202700960Y-125041126D01*
X203038784Y-124567317D01*
X203381703Y-124032597D01*
X203727769Y-123439274D01*
X203835185Y-123244171D01*
X203930447Y-123066938D01*
X204011066Y-122913337D01*
X204070566Y-122795987D01*
X204102473Y-122727511D01*
X204106104Y-122716051D01*
X204078835Y-122707071D01*
X204035201Y-122724092D01*
X203871052Y-122826046D01*
X203663634Y-122977332D01*
X203421136Y-123170509D01*
X203419949Y-123171512D01*
X203340218Y-123238884D01*
X203151746Y-123398140D01*
X202863655Y-123652784D01*
X202565052Y-123927004D01*
X202264126Y-124213361D01*
X201969066Y-124504415D01*
X201688063Y-124792727D01*
X201429305Y-125070860D01*
X201332748Y-125178862D01*
X201051195Y-125507600D01*
X200826527Y-125791067D01*
X200659169Y-126028594D01*
X200549542Y-126219512D01*
X200498070Y-126363150D01*
X199034444Y-126363150D01*
X199113874Y-126292655D01*
X199259154Y-126166855D01*
X199309693Y-126123878D01*
X199592670Y-125855780D01*
X199850535Y-125548394D01*
X200091005Y-125190904D01*
X200321796Y-124772496D01*
X200424707Y-124561122D01*
X200651549Y-124027169D01*
X200816513Y-123516829D01*
X200923396Y-123014250D01*
X200975993Y-122503576D01*
X200983151Y-122228937D01*
X200977533Y-121927366D01*
X200955681Y-121674669D01*
X200911822Y-121449441D01*
X200840184Y-121230274D01*
X200734995Y-120995763D01*
X200590483Y-120724502D01*
X200565480Y-120680068D01*
X200491930Y-120539929D01*
X200417214Y-120385683D01*
X200394093Y-120337951D01*
X200276154Y-120083429D01*
X200142294Y-119785660D01*
X199996699Y-119453941D01*
X199875483Y-119171874D01*
X199843550Y-119097567D01*
X199698704Y-118753828D01*
X199565745Y-118435933D01*
X199441998Y-118141366D01*
X199330533Y-117877339D01*
X199234421Y-117651065D01*
X199156731Y-117469756D01*
X199100533Y-117340625D01*
X199070977Y-117275466D01*
X203287517Y-117275466D01*
X203340218Y-117280807D01*
X203394605Y-117274786D01*
X203388106Y-117261483D01*
X203309671Y-117256423D01*
X203292329Y-117261483D01*
X203287517Y-117275466D01*
X199070977Y-117275466D01*
X199068899Y-117270884D01*
X199063023Y-117260481D01*
X199072546Y-117297569D01*
X199103412Y-117399716D01*
X199153154Y-117559151D01*
X199219309Y-117768103D01*
X199299411Y-118018801D01*
X199390997Y-118303476D01*
X199491600Y-118614356D01*
X199527771Y-118725720D01*
X199672404Y-119174043D01*
X199793751Y-119559532D01*
X199893956Y-119891631D01*
X199975161Y-120179785D01*
X200039510Y-120433439D01*
X200089145Y-120662037D01*
X200126210Y-120875024D01*
X200152848Y-121081844D01*
X200171201Y-121291943D01*
X200183413Y-121514764D01*
X200187927Y-121635121D01*
X200176357Y-122331912D01*
X200095318Y-123002341D01*
X199945806Y-123643686D01*
X199728818Y-124253222D01*
X199445351Y-124828227D01*
X199096400Y-125365976D01*
X198682963Y-125863747D01*
X198614387Y-125935892D01*
X198450901Y-126098357D01*
X198272647Y-126264923D01*
X198103098Y-126414172D01*
X197985579Y-126509719D01*
X197701117Y-126727599D01*
X197413193Y-126579382D01*
X197245615Y-126475327D01*
X197170635Y-126428770D01*
X196912879Y-126223529D01*
X196656010Y-125978972D01*
X196416115Y-125710415D01*
X196209278Y-125433173D01*
X196209229Y-125433101D01*
X195925168Y-124957848D01*
X195659964Y-124410433D01*
X195414342Y-123793138D01*
X195189029Y-123108245D01*
X194984747Y-122358038D01*
X194802224Y-121544800D01*
X194642184Y-120670811D01*
X194588822Y-120332557D01*
X194554801Y-120108393D01*
X194523297Y-119902212D01*
X194496704Y-119729574D01*
X194477414Y-119606037D01*
X194469436Y-119556496D01*
X194463539Y-119466511D01*
X194497042Y-119418121D01*
X194553129Y-119391960D01*
X194711737Y-119312876D01*
X194901509Y-119188934D01*
X195104250Y-119033884D01*
X195301769Y-118861475D01*
X195448327Y-118715451D01*
X195769619Y-118328194D01*
X196072146Y-117877930D01*
X196348692Y-117377395D01*
X196592038Y-116839329D01*
X196746596Y-116424194D01*
X196893866Y-115942988D01*
X197000724Y-115477953D01*
X197074855Y-114992705D01*
X197100384Y-114749408D01*
X197136160Y-114360640D01*
X201776740Y-114360640D01*
X201783387Y-114542577D01*
X201843589Y-114815988D01*
X201961564Y-115091071D01*
X202123799Y-115341404D01*
X202275976Y-115505737D01*
X202546226Y-115709150D01*
X202832753Y-115854299D01*
X203126884Y-115942741D01*
X203419949Y-115976030D01*
X203703277Y-115955722D01*
X203968195Y-115883371D01*
X204206034Y-115760533D01*
X204408121Y-115588762D01*
X204565785Y-115369615D01*
X204670356Y-115104645D01*
X204677719Y-115075007D01*
X204704348Y-114949010D01*
X204713348Y-114849670D01*
X204704919Y-114742779D01*
X204680515Y-114600757D01*
X204586048Y-114299460D01*
X204425619Y-114020604D01*
X204208661Y-113772965D01*
X203944605Y-113565317D01*
X203642881Y-113406437D01*
X203312922Y-113305098D01*
X203281335Y-113298946D01*
X202957259Y-113273614D01*
X202654793Y-113320243D01*
X202378493Y-113437485D01*
X202132915Y-113623998D01*
X202112714Y-113643895D01*
X201929724Y-113867541D01*
X201819138Y-114102620D01*
X201776740Y-114360640D01*
X197136160Y-114360640D01*
X197145276Y-114261584D01*
X196688994Y-113792817D01*
X200398171Y-113792817D01*
X200403231Y-113810159D01*
X200417214Y-113814972D01*
X200422555Y-113762270D01*
X200416534Y-113707883D01*
X200403231Y-113714382D01*
X200398171Y-113792817D01*
X196688994Y-113792817D01*
X196612807Y-113714545D01*
X196197156Y-113275791D01*
X195835084Y-112866411D01*
X195516673Y-112472897D01*
X195232006Y-112081741D01*
X194971163Y-111679434D01*
X194724228Y-111252469D01*
X194519840Y-110863984D01*
X194417360Y-110666169D01*
X194324483Y-110495409D01*
X194247300Y-110362228D01*
X194191903Y-110277149D01*
X194164803Y-110250518D01*
X194111680Y-110290003D01*
X194022952Y-110380989D01*
X193907471Y-110512570D01*
X193774088Y-110673844D01*
X193631658Y-110853905D01*
X193521945Y-110998480D01*
X193489033Y-111041850D01*
X193355064Y-111226774D01*
X193261144Y-111363600D01*
X193083226Y-111645079D01*
X192912951Y-111941150D01*
X192755451Y-112240563D01*
X192615860Y-112532068D01*
X192499309Y-112804413D01*
X192410932Y-113046348D01*
X192355861Y-113246623D01*
X192339027Y-113384794D01*
X192353737Y-113524759D01*
X192394401Y-113727894D01*
X192458327Y-113986304D01*
X192542824Y-114292091D01*
X192645202Y-114637361D01*
X192762770Y-115014218D01*
X192892836Y-115414765D01*
X193032711Y-115831106D01*
X193179702Y-116255347D01*
X193331120Y-116679590D01*
X193484273Y-117095940D01*
X193636470Y-117496502D01*
X193785021Y-117873379D01*
X193927234Y-118218675D01*
X194060420Y-118524495D01*
X194171498Y-118761818D01*
X194240074Y-118907754D01*
X194276345Y-118998385D01*
X194278755Y-119029254D01*
X194259250Y-119012676D01*
X194136451Y-118844029D01*
X193996859Y-118604914D01*
X193842129Y-118299230D01*
X193673919Y-117930877D01*
X193493885Y-117503752D01*
X193303685Y-117021755D01*
X193104975Y-116488785D01*
X192899412Y-115908740D01*
X192736267Y-115428786D01*
X192584556Y-114969302D01*
X192456292Y-114567472D01*
X192347787Y-114209294D01*
X192255352Y-113880767D01*
X192175301Y-113567888D01*
X192103944Y-113256656D01*
X192037595Y-112933069D01*
X191972565Y-112583126D01*
X191944147Y-112421396D01*
X191888685Y-112105937D01*
X191828876Y-111773703D01*
X191768449Y-111444864D01*
X191711132Y-111139594D01*
X191660654Y-110878064D01*
X191636084Y-110754880D01*
X191459329Y-109783944D01*
X191318915Y-108798315D01*
X191215160Y-107808154D01*
X191148386Y-106823620D01*
X191118912Y-105854873D01*
X191127055Y-104912074D01*
X191164866Y-104168146D01*
X193628453Y-104168146D01*
X193636185Y-104445306D01*
X193652013Y-104706751D01*
X193685247Y-105027262D01*
X193733507Y-105391880D01*
X193794411Y-105785649D01*
X193865580Y-106193611D01*
X193944631Y-106600809D01*
X194029184Y-106992286D01*
X194067876Y-107157191D01*
X194336568Y-108110840D01*
X194675268Y-109035231D01*
X195082641Y-109927298D01*
X195557353Y-110783977D01*
X195843206Y-111233764D01*
X195942335Y-111381856D01*
X196028541Y-111507750D01*
X196110714Y-111623072D01*
X196197746Y-111739446D01*
X196298527Y-111868500D01*
X196421948Y-112021858D01*
X196576901Y-112211145D01*
X196766131Y-112440551D01*
X196931622Y-112640545D01*
X197054680Y-112788290D01*
X197141456Y-112890784D01*
X197198104Y-112955027D01*
X197230772Y-112988017D01*
X197245615Y-112996754D01*
X197248815Y-112989748D01*
X197243621Y-112948473D01*
X197228716Y-112838600D01*
X197205112Y-112667400D01*
X197173821Y-112442143D01*
X197135858Y-112170098D01*
X197092235Y-111858536D01*
X197043964Y-111514726D01*
X196992059Y-111145938D01*
X196979442Y-111056426D01*
X196914714Y-110597468D01*
X196843262Y-110091101D01*
X196767829Y-109556730D01*
X196691154Y-109013765D01*
X196615979Y-108481614D01*
X196545045Y-107979684D01*
X196513873Y-107759224D01*
X198014645Y-107759224D01*
X198017247Y-107976902D01*
X198043070Y-108228821D01*
X198090099Y-108502791D01*
X198156323Y-108786619D01*
X198239728Y-109068116D01*
X198338302Y-109335089D01*
X198426189Y-109528937D01*
X198604472Y-109843084D01*
X198810393Y-110134287D01*
X199032712Y-110389645D01*
X199260189Y-110596252D01*
X199481584Y-110741207D01*
X199482700Y-110741777D01*
X199664509Y-110806730D01*
X199875483Y-110840316D01*
X200081783Y-110839303D01*
X200218664Y-110812092D01*
X200406765Y-110712882D01*
X200581966Y-110550358D01*
X200734563Y-110337765D01*
X200835860Y-110127722D01*
X201205686Y-110127722D01*
X201221148Y-110274798D01*
X201252486Y-110432802D01*
X201293975Y-110571406D01*
X201329708Y-110646550D01*
X201384352Y-110704898D01*
X201458522Y-110729551D01*
X201564915Y-110719788D01*
X201716229Y-110674888D01*
X201871713Y-110615768D01*
X202014214Y-110560731D01*
X202124748Y-110527043D01*
X202229529Y-110510961D01*
X202354772Y-110508744D01*
X202526692Y-110516648D01*
X202554623Y-110518270D01*
X202761143Y-110537086D01*
X202978859Y-110567742D01*
X203170494Y-110604679D01*
X203225286Y-110618272D01*
X203371264Y-110656174D01*
X203461610Y-110673333D01*
X203514245Y-110670474D01*
X203547089Y-110648321D01*
X203560504Y-110631827D01*
X203594162Y-110539434D01*
X203606419Y-110396257D01*
X203597658Y-110224971D01*
X203568264Y-110048250D01*
X203549442Y-109976464D01*
X203510578Y-109860460D01*
X203473359Y-109801160D01*
X203422862Y-109780459D01*
X203386622Y-109778937D01*
X203299849Y-109799736D01*
X203179503Y-109852775D01*
X203073818Y-109913025D01*
X202961952Y-109980464D01*
X202870426Y-110020122D01*
X202771122Y-110039163D01*
X202635923Y-110044749D01*
X202556623Y-110044786D01*
X202366330Y-110036536D01*
X202331753Y-110033041D01*
X202165324Y-110016221D01*
X201999343Y-109988666D01*
X201816678Y-109957932D01*
X201613213Y-109937457D01*
X201492456Y-109932545D01*
X201354429Y-109933935D01*
X201274414Y-109943852D01*
X201233846Y-109968208D01*
X201223759Y-109991119D01*
X201214163Y-110012914D01*
X201211824Y-110021902D01*
X201205686Y-110127722D01*
X200835860Y-110127722D01*
X200854851Y-110088344D01*
X200926992Y-109845542D01*
X200946914Y-109678095D01*
X200950427Y-109460444D01*
X200939066Y-109216874D01*
X200914365Y-108971672D01*
X200877862Y-108749122D01*
X200850442Y-108634817D01*
X200763235Y-108370376D01*
X200683145Y-108189229D01*
X201470727Y-108189229D01*
X201524969Y-108338919D01*
X201536734Y-108356416D01*
X201590911Y-108461044D01*
X201639830Y-108602912D01*
X201661602Y-108694513D01*
X201693870Y-108854427D01*
X201729629Y-109015789D01*
X201747175Y-109088364D01*
X201776566Y-109178188D01*
X201819646Y-109245187D01*
X201886559Y-109292092D01*
X201987450Y-109321632D01*
X202132466Y-109336537D01*
X202331753Y-109339539D01*
X202595455Y-109333367D01*
X202650625Y-109331490D01*
X202876647Y-109323035D01*
X203039050Y-109314565D01*
X203150803Y-109303862D01*
X203224877Y-109288707D01*
X203274242Y-109266881D01*
X203311866Y-109236165D01*
X203332030Y-109214924D01*
X203392997Y-109114291D01*
X203386064Y-109012042D01*
X203309318Y-108898450D01*
X203259995Y-108848922D01*
X203170259Y-108779981D01*
X203077301Y-108750260D01*
X202959517Y-108757692D01*
X202795307Y-108800210D01*
X202784712Y-108803460D01*
X202566268Y-108844241D01*
X202373025Y-108829450D01*
X202214874Y-108764056D01*
X202101703Y-108653029D01*
X202043401Y-108501338D01*
X202037654Y-108428041D01*
X202049693Y-108302155D01*
X202097385Y-108209181D01*
X202155101Y-108147341D01*
X202241914Y-108076258D01*
X202326689Y-108046985D01*
X202447355Y-108046706D01*
X202452009Y-108047017D01*
X202686653Y-108061266D01*
X202857838Y-108066649D01*
X202978307Y-108062305D01*
X203060804Y-108047369D01*
X203118073Y-108020982D01*
X203144685Y-108000149D01*
X203211173Y-107899470D01*
X203209795Y-107791006D01*
X203146708Y-107686757D01*
X203028070Y-107598722D01*
X202915357Y-107553199D01*
X202792224Y-107534142D01*
X202618124Y-107529632D01*
X202416952Y-107537891D01*
X202212604Y-107557141D01*
X202028974Y-107585605D01*
X201889957Y-107621506D01*
X201865255Y-107631310D01*
X201686262Y-107739583D01*
X201557056Y-107877021D01*
X201483316Y-108031083D01*
X201470727Y-108189229D01*
X200683145Y-108189229D01*
X200663580Y-108144978D01*
X200556888Y-107967209D01*
X200448571Y-107845658D01*
X200344039Y-107788909D01*
X200315413Y-107785800D01*
X200253846Y-107818365D01*
X200227011Y-107910122D01*
X200234522Y-108052162D01*
X200275991Y-108235579D01*
X200343479Y-108432381D01*
X200417387Y-108688927D01*
X200450187Y-108961047D01*
X200441780Y-109226104D01*
X200392065Y-109461463D01*
X200348513Y-109567248D01*
X200217432Y-109759480D01*
X200057966Y-109881090D01*
X199873680Y-109931096D01*
X199668137Y-109908518D01*
X199448872Y-109814660D01*
X199217763Y-109645861D01*
X199003093Y-109420859D01*
X198820786Y-109160069D01*
X198686770Y-108883909D01*
X198658446Y-108801386D01*
X198640967Y-108711651D01*
X198624536Y-108570089D01*
X198611787Y-108401476D01*
X198608139Y-108327940D01*
X198595932Y-108134073D01*
X198573820Y-107987149D01*
X198535450Y-107857568D01*
X198478666Y-107724668D01*
X198379098Y-107545778D01*
X198282909Y-107440651D01*
X198191320Y-107410063D01*
X198105553Y-107454794D01*
X198087150Y-107475358D01*
X198037275Y-107587979D01*
X198014645Y-107759224D01*
X196513873Y-107759224D01*
X196481092Y-107527383D01*
X196460743Y-107383537D01*
X196404298Y-106984468D01*
X196346412Y-106575027D01*
X196288968Y-106168550D01*
X196233851Y-105778372D01*
X196182944Y-105417829D01*
X196138131Y-105100257D01*
X196101295Y-104838991D01*
X196087367Y-104740098D01*
X196053580Y-104500106D01*
X197785165Y-104500106D01*
X197802340Y-104708105D01*
X197850141Y-104962698D01*
X197922978Y-105242959D01*
X198015262Y-105527960D01*
X198121405Y-105796772D01*
X198146163Y-105851880D01*
X198234865Y-106022761D01*
X198333248Y-106177570D01*
X198430594Y-106302328D01*
X198516186Y-106383056D01*
X198571459Y-106406614D01*
X198626898Y-106374091D01*
X198650548Y-106284176D01*
X198644198Y-106148347D01*
X198609634Y-105978083D01*
X198548646Y-105784865D01*
X198463023Y-105580172D01*
X198433175Y-105518986D01*
X198356674Y-105332574D01*
X198325183Y-105172978D01*
X198337978Y-105049846D01*
X198394337Y-104972821D01*
X198475742Y-104950807D01*
X198557675Y-104983761D01*
X198641285Y-105067404D01*
X198706661Y-105178906D01*
X198726329Y-105238138D01*
X198762587Y-105358071D01*
X198823899Y-105527888D01*
X198902378Y-105728296D01*
X198990141Y-105939998D01*
X199079301Y-106143700D01*
X199161975Y-106320107D01*
X199196012Y-106387459D01*
X199303485Y-106566577D01*
X199431598Y-106739283D01*
X199567017Y-106890936D01*
X199696407Y-107006893D01*
X199806434Y-107072514D01*
X199825210Y-107078375D01*
X199985921Y-107085574D01*
X200118863Y-107023746D01*
X200220021Y-106896709D01*
X200285383Y-106708283D01*
X200299221Y-106627339D01*
X200323427Y-106445801D01*
X200463420Y-106646494D01*
X200640408Y-106847839D01*
X200847076Y-106994670D01*
X201069699Y-107078869D01*
X201223759Y-107096207D01*
X201408843Y-107079853D01*
X201550168Y-107024956D01*
X201655806Y-106922763D01*
X201733828Y-106764520D01*
X201792304Y-106541475D01*
X201806645Y-106464080D01*
X201848053Y-106297449D01*
X201908424Y-106195492D01*
X201997225Y-106146854D01*
X202078120Y-106138439D01*
X202222846Y-106173698D01*
X202345066Y-106268981D01*
X202433713Y-106408552D01*
X202477720Y-106576672D01*
X202475888Y-106704039D01*
X202467095Y-106829300D01*
X202486986Y-106916473D01*
X202536524Y-106992938D01*
X202628546Y-107074131D01*
X202701975Y-107088715D01*
X202793208Y-107040815D01*
X202849932Y-106936496D01*
X202871830Y-106787907D01*
X202858588Y-106607197D01*
X202809891Y-106406515D01*
X202725424Y-106198010D01*
X202725099Y-106197351D01*
X202559819Y-105919856D01*
X202372684Y-105713272D01*
X202165128Y-105578748D01*
X202104533Y-105562347D01*
X201938582Y-105517430D01*
X201872458Y-105513544D01*
X201748268Y-105518581D01*
X201666073Y-105547170D01*
X201591957Y-105612448D01*
X201578313Y-105627475D01*
X201492885Y-105764684D01*
X201420437Y-105966645D01*
X201404977Y-106025749D01*
X201337551Y-106239337D01*
X201255020Y-106382840D01*
X201152789Y-106462068D01*
X201043317Y-106483236D01*
X200907964Y-106448054D01*
X200799907Y-106350010D01*
X200727001Y-106200358D01*
X200697104Y-106010351D01*
X200696779Y-105986947D01*
X200670700Y-105846178D01*
X200602623Y-105736499D01*
X200507788Y-105668029D01*
X200401433Y-105650890D01*
X200298800Y-105695204D01*
X200281343Y-105711040D01*
X200204063Y-105788319D01*
X200149301Y-105704742D01*
X200104704Y-105626145D01*
X200008337Y-105456311D01*
X199881610Y-105171277D01*
X199781239Y-104880510D01*
X199753299Y-104760602D01*
X199853943Y-104760602D01*
X199886385Y-104885480D01*
X199970014Y-104981367D01*
X200084286Y-105026402D01*
X200104704Y-105027429D01*
X200191181Y-105002241D01*
X200285356Y-104940971D01*
X200360596Y-104865054D01*
X200390293Y-104797565D01*
X200365328Y-104744312D01*
X200333297Y-104705262D01*
X200673328Y-104705262D01*
X200674325Y-104805490D01*
X200736749Y-104892405D01*
X200867251Y-104974050D01*
X200913350Y-104995494D01*
X201001396Y-105027491D01*
X201104062Y-105047852D01*
X201239250Y-105058457D01*
X201424861Y-105061187D01*
X201530572Y-105060335D01*
X201713025Y-105060299D01*
X201868866Y-105064440D01*
X201981295Y-105072033D01*
X202033075Y-105082065D01*
X202104533Y-105090052D01*
X202206840Y-105065519D01*
X202308077Y-105019892D01*
X202376329Y-104964599D01*
X202380989Y-104957512D01*
X202417780Y-104828086D01*
X202387702Y-104702042D01*
X202346160Y-104646342D01*
X202215526Y-104561770D01*
X202031574Y-104518834D01*
X201789139Y-104516613D01*
X201675674Y-104526801D01*
X201498159Y-104540986D01*
X201319851Y-104545950D01*
X201178357Y-104540683D01*
X201174399Y-104540287D01*
X200982147Y-104538064D01*
X200824982Y-104570794D01*
X200744649Y-104617592D01*
X200716459Y-104634014D01*
X200673328Y-104705262D01*
X200333297Y-104705262D01*
X200304405Y-104670040D01*
X200296258Y-104661736D01*
X200184921Y-104588197D01*
X200065656Y-104566517D01*
X199957845Y-104592363D01*
X199880869Y-104661403D01*
X199853943Y-104760602D01*
X199753299Y-104760602D01*
X199719346Y-104614884D01*
X199717963Y-104606011D01*
X199678750Y-104424524D01*
X199617098Y-104282032D01*
X199524124Y-104173287D01*
X199390942Y-104093044D01*
X199243688Y-104047003D01*
X199208669Y-104036054D01*
X198968422Y-103997072D01*
X198661316Y-103970850D01*
X198640293Y-103969551D01*
X198358854Y-103961289D01*
X198143532Y-103978221D01*
X197986583Y-104025151D01*
X197880265Y-104106883D01*
X197816836Y-104228220D01*
X197788553Y-104393965D01*
X197785165Y-104500106D01*
X196053580Y-104500106D01*
X195963316Y-103858952D01*
X195478213Y-103868785D01*
X195087500Y-103890927D01*
X194670133Y-103939279D01*
X194259820Y-104008999D01*
X193890270Y-104095243D01*
X193877473Y-104098784D01*
X193628453Y-104168146D01*
X191164866Y-104168146D01*
X191173139Y-104005383D01*
X191223506Y-103491562D01*
X199853943Y-103491562D01*
X199882004Y-103554207D01*
X199954659Y-103644787D01*
X200054615Y-103746062D01*
X200164581Y-103840789D01*
X200267265Y-103911727D01*
X200284945Y-103921308D01*
X200516854Y-104004831D01*
X200744649Y-104020862D01*
X200954526Y-103968631D01*
X200973865Y-103959688D01*
X201082636Y-103916309D01*
X201203486Y-103890956D01*
X201360984Y-103879711D01*
X201485720Y-103878108D01*
X201693842Y-103871306D01*
X201841425Y-103846577D01*
X201943694Y-103797434D01*
X202015871Y-103717389D01*
X202059165Y-103633750D01*
X202090947Y-103480890D01*
X202075054Y-103305570D01*
X202027823Y-103169359D01*
X201934534Y-103032145D01*
X201822409Y-102944823D01*
X201727658Y-102920340D01*
X201658821Y-102931259D01*
X201610307Y-102976392D01*
X201563896Y-103074301D01*
X201555657Y-103095557D01*
X201479718Y-103268591D01*
X201402647Y-103378219D01*
X201311313Y-103436711D01*
X201192580Y-103456336D01*
X201169094Y-103456690D01*
X201020676Y-103443745D01*
X200885908Y-103398909D01*
X200748339Y-103313177D01*
X200722074Y-103290461D01*
X200591515Y-103177546D01*
X200506642Y-103094167D01*
X200385146Y-102975470D01*
X200301883Y-102905987D01*
X200244412Y-102877456D01*
X200200296Y-102881619D01*
X200192332Y-102885459D01*
X200137805Y-102951087D01*
X200121595Y-103065353D01*
X200111403Y-103224162D01*
X200076926Y-103325704D01*
X200010181Y-103387580D01*
X199966355Y-103407603D01*
X199887942Y-103449043D01*
X199853981Y-103490461D01*
X199853943Y-103491562D01*
X191223506Y-103491562D01*
X191253333Y-103187284D01*
X193521945Y-103187284D01*
X193860168Y-103072957D01*
X194258363Y-102958048D01*
X194697431Y-102865355D01*
X195143249Y-102801392D01*
X195396360Y-102779722D01*
X195589782Y-102764811D01*
X195714718Y-102747254D01*
X195779296Y-102725530D01*
X195793008Y-102705449D01*
X195787792Y-102658387D01*
X195772850Y-102543174D01*
X195749242Y-102367519D01*
X195718026Y-102139128D01*
X195680261Y-101865710D01*
X195637008Y-101554973D01*
X195601713Y-101303058D01*
X197007072Y-101303058D01*
X197045347Y-101490550D01*
X197130960Y-101689235D01*
X197171074Y-101773837D01*
X197197271Y-101852990D01*
X197211719Y-101944815D01*
X197216586Y-102067436D01*
X197214040Y-102238976D01*
X197210485Y-102354137D01*
X197210760Y-102510614D01*
X197228844Y-102624311D01*
X197271753Y-102728306D01*
X197300969Y-102780644D01*
X197381451Y-102900536D01*
X197462184Y-102965784D01*
X197567491Y-102987614D01*
X197721696Y-102977249D01*
X197725904Y-102976735D01*
X197842116Y-102972763D01*
X198019081Y-102980094D01*
X198241923Y-102997734D01*
X198495767Y-103024688D01*
X198559520Y-103032416D01*
X198774574Y-103058801D01*
X198964209Y-103081481D01*
X199114866Y-103098881D01*
X199212989Y-103109428D01*
X199243688Y-103111893D01*
X199270063Y-103080008D01*
X199255381Y-102985583D01*
X199200120Y-102830468D01*
X199129232Y-102668706D01*
X198995635Y-102435818D01*
X198839864Y-102259366D01*
X198669271Y-102144354D01*
X198491208Y-102095781D01*
X198318028Y-102116966D01*
X198211531Y-102143589D01*
X198118253Y-102138403D01*
X198000199Y-102100347D01*
X197804128Y-101987524D01*
X197634028Y-101816697D01*
X197505521Y-101605783D01*
X197458071Y-101478639D01*
X197400707Y-101288631D01*
X197355859Y-101159187D01*
X197317286Y-101076583D01*
X197278744Y-101027093D01*
X197240567Y-101000390D01*
X197145311Y-100975734D01*
X197074728Y-101020450D01*
X197024945Y-101134887D01*
X197007072Y-101303058D01*
X195601713Y-101303058D01*
X195589323Y-101214625D01*
X195542446Y-100881935D01*
X195528086Y-100780308D01*
X199279067Y-100780308D01*
X199290948Y-100872088D01*
X199346725Y-100969915D01*
X199393241Y-101017262D01*
X199509388Y-101100003D01*
X199635736Y-101154211D01*
X199789025Y-101183271D01*
X199985998Y-101190567D01*
X200206997Y-101181781D01*
X200421929Y-101171755D01*
X200575336Y-101175598D01*
X200681824Y-101198531D01*
X200755999Y-101245778D01*
X200812469Y-101322563D01*
X200857153Y-101414266D01*
X200909037Y-101591669D01*
X200903173Y-101747245D01*
X200841254Y-101867582D01*
X200794902Y-101907091D01*
X200740809Y-101934865D01*
X200674901Y-101946942D01*
X200577845Y-101943846D01*
X200430308Y-101926100D01*
X200376207Y-101918417D01*
X200209375Y-101896491D01*
X200095926Y-101889277D01*
X200013909Y-101897503D01*
X199941373Y-101921897D01*
X199915615Y-101933696D01*
X199797812Y-102017680D01*
X199751222Y-102116426D01*
X199774438Y-102220265D01*
X199866051Y-102319527D01*
X199981544Y-102386405D01*
X200111622Y-102424693D01*
X200292236Y-102450623D01*
X200502637Y-102464143D01*
X200722074Y-102465198D01*
X200929799Y-102453734D01*
X201105061Y-102429697D01*
X201227112Y-102393033D01*
X201233726Y-102389675D01*
X201362214Y-102294580D01*
X201466756Y-102168628D01*
X201529453Y-102036405D01*
X201539614Y-101969530D01*
X201523155Y-101903844D01*
X201477611Y-101783545D01*
X201408731Y-101622265D01*
X201322263Y-101433638D01*
X201253065Y-101290013D01*
X201147255Y-101076319D01*
X201067693Y-100921661D01*
X201007530Y-100815969D01*
X200959919Y-100749174D01*
X200918012Y-100711207D01*
X200874959Y-100691998D01*
X200841225Y-100684456D01*
X200762107Y-100677729D01*
X200678132Y-100675476D01*
X200627284Y-100674111D01*
X200451531Y-100673279D01*
X200249624Y-100674909D01*
X200036339Y-100678677D01*
X199826450Y-100684261D01*
X199634735Y-100691335D01*
X199475968Y-100699577D01*
X199364925Y-100708663D01*
X199317005Y-100717838D01*
X199279067Y-100780308D01*
X195528086Y-100780308D01*
X195488220Y-100498165D01*
X195434468Y-100117845D01*
X195382727Y-99751841D01*
X195334535Y-99411023D01*
X195291428Y-99106261D01*
X195254944Y-98848422D01*
X195226618Y-98648377D01*
X195213088Y-98552919D01*
X195189792Y-98399676D01*
X199030723Y-98399676D01*
X199033304Y-98568254D01*
X199046056Y-98689402D01*
X199075636Y-98792234D01*
X199128704Y-98905861D01*
X199159845Y-98964261D01*
X199341128Y-99230590D01*
X199565057Y-99450668D01*
X199821178Y-99621729D01*
X200099035Y-99741008D01*
X200388171Y-99805736D01*
X200678132Y-99813148D01*
X200958461Y-99760478D01*
X201218703Y-99644958D01*
X201358750Y-99546070D01*
X201507310Y-99384948D01*
X201628256Y-99180279D01*
X201695220Y-98993492D01*
X201724137Y-98799777D01*
X201709878Y-98605245D01*
X201660362Y-98408867D01*
X201526972Y-98103986D01*
X201333914Y-97839744D01*
X201090438Y-97623304D01*
X200805797Y-97461827D01*
X200489243Y-97362477D01*
X200272864Y-97334729D01*
X199969270Y-97340589D01*
X199712219Y-97398966D01*
X199489193Y-97513564D01*
X199379696Y-97599074D01*
X199218237Y-97760481D01*
X199113030Y-97920267D01*
X199054183Y-98101130D01*
X199031802Y-98325766D01*
X199030723Y-98399676D01*
X195189792Y-98399676D01*
X195182749Y-98353347D01*
X195152595Y-98180157D01*
X195125455Y-98047902D01*
X195104153Y-97971137D01*
X195097783Y-97959103D01*
X195042500Y-97939147D01*
X194935672Y-97925946D01*
X194823747Y-97922523D01*
X194574443Y-97953483D01*
X194360830Y-98046675D01*
X194169412Y-98208512D01*
X194130915Y-98251650D01*
X194043045Y-98368156D01*
X193970224Y-98499776D01*
X193908752Y-98658329D01*
X193854927Y-98855633D01*
X193805047Y-99103506D01*
X193755411Y-99413769D01*
X193745468Y-99482388D01*
X193695304Y-99843356D01*
X193654939Y-100161522D01*
X193623032Y-100454263D01*
X193598243Y-100738954D01*
X193579233Y-101032973D01*
X193564662Y-101353695D01*
X193553189Y-101718496D01*
X193544661Y-102086466D01*
X193521945Y-103187284D01*
X191253333Y-103187284D01*
X191257482Y-103144959D01*
X191372556Y-102383990D01*
X191488762Y-101822960D01*
X191627320Y-101313874D01*
X191795349Y-100833581D01*
X191986676Y-100387366D01*
X192088252Y-100158473D01*
X192166683Y-99951876D01*
X192225954Y-99749758D01*
X192270044Y-99534304D01*
X192302938Y-99287696D01*
X192328618Y-98992120D01*
X192341148Y-98801595D01*
X192364776Y-98486282D01*
X192393994Y-98235549D01*
X192430429Y-98037458D01*
X192460289Y-97926307D01*
X192493452Y-97836147D01*
X192555009Y-97685046D01*
X192641208Y-97481616D01*
X192748298Y-97234467D01*
X192872526Y-96952211D01*
X193010143Y-96643459D01*
X193157395Y-96316824D01*
X193253053Y-96106548D01*
X193413641Y-95754607D01*
X193575336Y-95399897D01*
X193732994Y-95053725D01*
X193881474Y-94727397D01*
X194015630Y-94432218D01*
X194130321Y-94179495D01*
X194220403Y-93980533D01*
X194248939Y-93917323D01*
X194342266Y-93712571D01*
X194426727Y-93531448D01*
X194496628Y-93385833D01*
X194546277Y-93287604D01*
X194569009Y-93249460D01*
X194621438Y-93240422D01*
X194740967Y-93245927D01*
X194919597Y-93265305D01*
X195149331Y-93297888D01*
X195150645Y-93298090D01*
X195553809Y-93352490D01*
X195898748Y-93378857D01*
X196199617Y-93374302D01*
X196470572Y-93335934D01*
X196725767Y-93260862D01*
X196979356Y-93146197D01*
X197245495Y-92989047D01*
X197492103Y-92819943D01*
X197768228Y-92640309D01*
X198021599Y-92519144D01*
X198270784Y-92450393D01*
X198534351Y-92428003D01*
X198680446Y-92432494D01*
X199071139Y-92491720D01*
X199452543Y-92620866D01*
X199828004Y-92821663D01*
X200200870Y-93095844D01*
X200508543Y-93378153D01*
X200676427Y-93550154D01*
X200818927Y-93708375D01*
X200944212Y-93865300D01*
X201060454Y-94033409D01*
X201175823Y-94225186D01*
X201298491Y-94453114D01*
X201436628Y-94729675D01*
X201556619Y-94979297D01*
X201679663Y-95240242D01*
X201773704Y-95446911D01*
X201844036Y-95613543D01*
X201895950Y-95754381D01*
X201934739Y-95883664D01*
X201965696Y-96015635D01*
X201991317Y-96148922D01*
X202020619Y-96314906D01*
X202043128Y-96448887D01*
X202056358Y-96535605D01*
X202058475Y-96560762D01*
X202025672Y-96541128D01*
X201942878Y-96488200D01*
X201824018Y-96410943D01*
X201731632Y-96350358D01*
X201312794Y-96111603D01*
X200888541Y-95945636D01*
X200447168Y-95848882D01*
X199988031Y-95817770D01*
X199691591Y-95827411D01*
X199438496Y-95862172D01*
X199197653Y-95929001D01*
X198937973Y-96034845D01*
X198865881Y-96068494D01*
X198558638Y-96250656D01*
X198287178Y-96482581D01*
X198059157Y-96753027D01*
X197882232Y-97050749D01*
X197764058Y-97364505D01*
X197712293Y-97683051D01*
X197710653Y-97764925D01*
X197712762Y-97959103D01*
X197787669Y-97672984D01*
X197918473Y-97318071D01*
X198111274Y-97000701D01*
X198358998Y-96725244D01*
X198654576Y-96496067D01*
X198990934Y-96317540D01*
X199361003Y-96194031D01*
X199757710Y-96129908D01*
X200173985Y-96129540D01*
X200271005Y-96138848D01*
X200731810Y-96221699D01*
X201155535Y-96364001D01*
X201560713Y-96572495D01*
X201691791Y-96655830D01*
X201885495Y-96802789D01*
X202094905Y-96991798D01*
X202300846Y-97202971D01*
X202484144Y-97416421D01*
X202625621Y-97612260D01*
X202645920Y-97645377D01*
X202822705Y-98005162D01*
X202941192Y-98381563D01*
X203000777Y-98762928D01*
X203000854Y-99137607D01*
X202940820Y-99493950D01*
X202820070Y-99820305D01*
X202764155Y-99923928D01*
X202714255Y-100028616D01*
X202689520Y-100119935D01*
X202688936Y-100130809D01*
X202690565Y-100149877D01*
X202695764Y-100188945D01*
X202704997Y-100250744D01*
X202718730Y-100338004D01*
X202737429Y-100453456D01*
X202761560Y-100599831D01*
X202791586Y-100779859D01*
X202827975Y-100996270D01*
X202871192Y-101251796D01*
X202921702Y-101549166D01*
X202979971Y-101891111D01*
X203046463Y-102280362D01*
X203121646Y-102719650D01*
X203205983Y-103211704D01*
X203299941Y-103759255D01*
X203403985Y-104365034D01*
X203518581Y-105031771D01*
X203644194Y-105762198D01*
X203781290Y-106559043D01*
X203930334Y-107425039D01*
X204091792Y-108362915D01*
X204147437Y-108686101D01*
X204245333Y-109254928D01*
X204330917Y-109752923D01*
X204404957Y-110184752D01*
X204468218Y-110555079D01*
X204521466Y-110868570D01*
X204565467Y-111129890D01*
X204600988Y-111343705D01*
X204628795Y-111514679D01*
X204649654Y-111647479D01*
X204664331Y-111746769D01*
X204673592Y-111817215D01*
X204678204Y-111863481D01*
X204678933Y-111890234D01*
X204676545Y-111902138D01*
X204675780Y-111903128D01*
X204634206Y-111898772D01*
X204542154Y-111870450D01*
X204420337Y-111824600D01*
X204096945Y-111706769D01*
X203797334Y-111628459D01*
X203490439Y-111583615D01*
X203145197Y-111566183D01*
X203091198Y-111565580D01*
X202764618Y-111572083D01*
X202488237Y-111600263D01*
X202237417Y-111655359D01*
X201987518Y-111742612D01*
X201745316Y-111851854D01*
X201458522Y-112022469D01*
X201425498Y-112042115D01*
X201124934Y-112286049D01*
G37*
G36*
X203138632Y-114295150D02*
G01*
X203356149Y-114391619D01*
X203541854Y-114537636D01*
X203676055Y-114721121D01*
X203683086Y-114735210D01*
X203737734Y-114902469D01*
X203758429Y-115088542D01*
X203742659Y-115258557D01*
X203724899Y-115315949D01*
X203642296Y-115437597D01*
X203509641Y-115548766D01*
X203353061Y-115630778D01*
X203242245Y-115660982D01*
X203017109Y-115663085D01*
X202805893Y-115607318D01*
X202616966Y-115503725D01*
X202458697Y-115362352D01*
X202339457Y-115193243D01*
X202267614Y-115006444D01*
X202251538Y-114811999D01*
X202299599Y-114619954D01*
X202328071Y-114563794D01*
X202439362Y-114436732D01*
X202600450Y-114335389D01*
X202785492Y-114273267D01*
X202908993Y-114260310D01*
X203138632Y-114295150D01*
G37*
%TD*%
D21*
%TO.C,P2*%
X156291600Y-89200000D03*
X153791600Y-89200000D03*
%TD*%
%TO.C,D1*%
X86000000Y-128270000D03*
X86000000Y-125730000D03*
%TD*%
%TO.C,D2*%
X86000000Y-84270000D03*
X86000000Y-81730000D03*
%TD*%
D22*
%TO.C,P1*%
X94500000Y-123730000D03*
%TD*%
%TO.C,P3*%
X135000000Y-94640400D03*
X132460000Y-94640400D03*
%TD*%
%TO.C,D5*%
X111861600Y-92913200D03*
X111861600Y-95453200D03*
%TD*%
%TO.C,P4*%
X205183145Y-86309200D03*
X205183145Y-88849200D03*
%TD*%
%LPC*%
D23*
%TO.C,U4*%
X193933600Y-85821100D03*
X193933600Y-86773600D03*
X193933600Y-87726100D03*
X196473600Y-87726100D03*
X196473600Y-86773600D03*
X196473600Y-85821100D03*
%TD*%
D24*
%TO.C,FIX1*%
X103340000Y-102410000D03*
X102750000Y-101000000D03*
X104750000Y-99000000D03*
X106750000Y-101000000D03*
D25*
X104750000Y-101000000D03*
D24*
X104750000Y-103000000D03*
X103340000Y-99590000D03*
X106160000Y-99590000D03*
X106160000Y-102410000D03*
%TD*%
%TO.C,FIX2*%
X106160000Y-107590000D03*
X103340000Y-107590000D03*
X104750000Y-111000000D03*
D25*
X104750000Y-109000000D03*
D24*
X102750000Y-109000000D03*
X104750000Y-107000000D03*
X106160000Y-110410000D03*
X106750000Y-109000000D03*
X103340000Y-110410000D03*
%TD*%
%TO.C,FIX3*%
X173250000Y-105000000D03*
X173840000Y-106410000D03*
X176660000Y-103590000D03*
X175250000Y-107000000D03*
X177250000Y-105000000D03*
X175250000Y-103000000D03*
X176660000Y-106410000D03*
D25*
X175250000Y-105000000D03*
D24*
X173840000Y-103590000D03*
%TD*%
%TO.C,FIX4*%
X185340000Y-99590000D03*
X184750000Y-101000000D03*
X186750000Y-99000000D03*
X185340000Y-102410000D03*
X186750000Y-103000000D03*
D25*
X186750000Y-101000000D03*
D24*
X188160000Y-99590000D03*
X188160000Y-102410000D03*
X188750000Y-101000000D03*
%TD*%
%TO.C,FIX5*%
X188160000Y-107590000D03*
X186750000Y-107000000D03*
D25*
X186750000Y-109000000D03*
D24*
X188160000Y-110410000D03*
X185340000Y-110410000D03*
X188750000Y-109000000D03*
X186750000Y-111000000D03*
X185340000Y-107590000D03*
X184750000Y-109000000D03*
%TD*%
D26*
%TO.C,P2*%
X156291600Y-89200000D03*
X153791600Y-89200000D03*
%TD*%
D27*
%TO.C,MOD1*%
X163142400Y-81541600D03*
X165942400Y-81541600D03*
X168742400Y-81541600D03*
X171542400Y-81541600D03*
X174372400Y-81491600D03*
D28*
X177022400Y-81541600D03*
X178872400Y-81541600D03*
X180722400Y-81541600D03*
X182572400Y-81541600D03*
%TD*%
D27*
%TO.C,D4*%
X190042800Y-82956400D03*
X192612800Y-82956400D03*
X195152800Y-82956400D03*
X197722800Y-82956400D03*
%TD*%
D26*
%TO.C,D1*%
X86000000Y-128270000D03*
X86000000Y-125730000D03*
%TD*%
%TO.C,D2*%
X86000000Y-84270000D03*
X86000000Y-81730000D03*
%TD*%
D29*
%TO.C,R2*%
X90500000Y-87452500D03*
X90500000Y-85547500D03*
%TD*%
D30*
%TO.C,U2*%
X91770000Y-83952500D03*
X91770000Y-83000000D03*
X91770000Y-82047500D03*
X89230000Y-82047500D03*
X89230000Y-83000000D03*
X89230000Y-83952500D03*
%TD*%
D27*
%TO.C,P1*%
X94500000Y-126270000D03*
X94500000Y-123730000D03*
%TD*%
D31*
%TO.C,A1*%
X119199260Y-106482960D03*
X119199260Y-103482960D03*
D32*
X120699260Y-104982960D03*
%TD*%
D33*
%TO.C,C1*%
X121937260Y-104982960D03*
X123461260Y-104982960D03*
%TD*%
D34*
%TO.C,C2*%
X125374400Y-99822000D03*
X123850400Y-99822000D03*
%TD*%
%TO.C,C3*%
X123461260Y-103482960D03*
X121937260Y-103482960D03*
%TD*%
%TO.C,R1*%
X126339600Y-101650800D03*
X124815600Y-101650800D03*
%TD*%
D35*
%TO.C,X1*%
X130668400Y-98982960D03*
X128168400Y-98982960D03*
X128168400Y-100982960D03*
X130668400Y-100982960D03*
%TD*%
D34*
%TO.C,C4*%
X128180400Y-97232960D03*
X126656400Y-97232960D03*
%TD*%
D33*
%TO.C,C5*%
X130656400Y-97232960D03*
X132180400Y-97232960D03*
%TD*%
D34*
%TO.C,C10*%
X123461260Y-106482960D03*
X121937260Y-106482960D03*
%TD*%
%TO.C,C11*%
X127254000Y-110982960D03*
X125730000Y-110982960D03*
%TD*%
D28*
%TO.C,SW1*%
X116000000Y-82490000D03*
X124000000Y-82490000D03*
D36*
X122000000Y-84890000D03*
X120000000Y-84890000D03*
X118000000Y-84890000D03*
%TD*%
D37*
%TO.C,C12*%
X99500000Y-121512000D03*
X99500000Y-119988000D03*
%TD*%
D38*
%TO.C,R5*%
X101250000Y-119988000D03*
X101250000Y-121512000D03*
%TD*%
D39*
%TO.C,R4*%
X94497500Y-121000000D03*
X96402500Y-121000000D03*
%TD*%
D27*
%TO.C,P3*%
X137540000Y-94640400D03*
X135000000Y-94640400D03*
X132460000Y-94640400D03*
%TD*%
D40*
%TO.C,C6*%
X159562800Y-98005900D03*
X159562800Y-99910900D03*
%TD*%
D39*
%TO.C,C7*%
X155816300Y-99822000D03*
X157721300Y-99822000D03*
%TD*%
D41*
%TO.C,C8*%
X147777200Y-104514400D03*
X147777200Y-100514400D03*
%TD*%
D42*
%TO.C,L2*%
X154200000Y-104597200D03*
X150600000Y-104597200D03*
%TD*%
D37*
%TO.C,R6*%
X150469600Y-101752400D03*
X150469600Y-100228400D03*
%TD*%
%TO.C,R7*%
X150469600Y-99212400D03*
X150469600Y-97688400D03*
%TD*%
D43*
%TO.C,U6*%
X152158700Y-100584000D03*
X153111200Y-100584000D03*
X154063700Y-100584000D03*
X154063700Y-98044000D03*
X152158700Y-98044000D03*
%TD*%
D44*
%TO.C,U7*%
X94610200Y-105943906D03*
X94610200Y-105443906D03*
X94610200Y-104943906D03*
X94610200Y-104443906D03*
X94610200Y-103943906D03*
D45*
X93885200Y-103718906D03*
X93385200Y-103718906D03*
X92885200Y-103718906D03*
D46*
X92160200Y-103943906D03*
X92160200Y-104443906D03*
X92160200Y-104943906D03*
X92160200Y-105443906D03*
X92160200Y-105943906D03*
D47*
X92885200Y-106168906D03*
X93385200Y-106168906D03*
X93885200Y-106168906D03*
%TD*%
D48*
%TO.C,U1*%
X126199260Y-104482960D03*
X126199260Y-104982960D03*
X126199260Y-105482960D03*
X126199260Y-105982960D03*
X126199260Y-106482960D03*
X126199260Y-106982960D03*
X126199260Y-107482960D03*
X126199260Y-107982960D03*
D49*
X126949200Y-108732320D03*
X127449580Y-108732320D03*
X127949960Y-108732320D03*
X128450340Y-108732320D03*
X128948180Y-108732320D03*
X129448560Y-108732320D03*
X129948940Y-108732320D03*
X130449320Y-108732320D03*
D50*
X131198620Y-107983020D03*
X131198620Y-107482640D03*
X131198620Y-106982260D03*
X131198620Y-106481880D03*
X131198620Y-105984040D03*
X131198620Y-105483660D03*
X131198620Y-104983280D03*
X131198620Y-104482900D03*
D49*
X130449320Y-103733600D03*
X129948940Y-103733600D03*
X129448560Y-103733600D03*
X128948180Y-103733600D03*
X128450340Y-103733600D03*
X127949960Y-103733600D03*
X127449580Y-103733600D03*
X126949200Y-103733600D03*
D51*
X127949260Y-105482960D03*
X127949260Y-106982960D03*
X129449260Y-106982960D03*
X129449260Y-105482960D03*
%TD*%
D38*
%TO.C,R8*%
X134199260Y-109720960D03*
X134199260Y-111244960D03*
%TD*%
D33*
%TO.C,R9*%
X113080800Y-108559600D03*
X114604800Y-108559600D03*
%TD*%
D38*
%TO.C,R10*%
X135709260Y-109720960D03*
X135709260Y-111244960D03*
%TD*%
D52*
%TO.C,TP1*%
X159969200Y-102412800D03*
%TD*%
D34*
%TO.C,C13*%
X93012000Y-118750000D03*
X91488000Y-118750000D03*
%TD*%
D53*
%TO.C,C14*%
X94748000Y-119350000D03*
D33*
X96272000Y-119350000D03*
%TD*%
D54*
%TO.C,U3*%
X94250000Y-117498600D03*
X94649999Y-117498600D03*
X95050001Y-117498600D03*
X95450000Y-117498600D03*
X95849999Y-117498600D03*
X96250001Y-117498600D03*
X96650000Y-117498600D03*
X96650000Y-114501400D03*
X96250001Y-114501400D03*
X95849999Y-114501400D03*
D55*
X95450000Y-114501400D03*
X95050001Y-114501400D03*
X94649999Y-114501400D03*
X94250000Y-114501400D03*
D56*
X95450000Y-116000000D03*
%TD*%
D26*
%TO.C,TP2*%
X106680000Y-116840000D03*
%TD*%
%TO.C,TP3*%
X109220000Y-116840000D03*
%TD*%
%TO.C,TP4*%
X104140000Y-116840000D03*
%TD*%
%TO.C,TP5*%
X111760000Y-116840000D03*
%TD*%
D27*
%TO.C,D5*%
X111861600Y-90373200D03*
X111861600Y-92913200D03*
X111861600Y-95453200D03*
%TD*%
D26*
%TO.C,TP6*%
X140309600Y-87020400D03*
%TD*%
D57*
%TO.C,U8*%
X144208500Y-88442800D03*
X143256000Y-88442800D03*
X142303500Y-88442800D03*
X142303500Y-90982800D03*
X143256000Y-90982800D03*
X144208500Y-90982800D03*
%TD*%
D37*
%TO.C,C15*%
X146151600Y-90271600D03*
X146151600Y-88747600D03*
%TD*%
D39*
%TO.C,C16*%
X140047500Y-94750000D03*
X141952500Y-94750000D03*
%TD*%
D58*
%TO.C,C17*%
X94297500Y-82050000D03*
D39*
X96202500Y-82050000D03*
%TD*%
D26*
%TO.C,TP7*%
X137160000Y-107289600D03*
%TD*%
%TO.C,TP8*%
X116382800Y-108610400D03*
%TD*%
%TO.C,TP9*%
X140239260Y-109202960D03*
%TD*%
D59*
%TO.C,L1*%
X157721300Y-98044000D03*
X155816300Y-98044000D03*
%TD*%
D60*
%TO.C,P5*%
X150672800Y-111607600D03*
D27*
X153212800Y-111607600D03*
X155752800Y-111607600D03*
X158292800Y-111607600D03*
%TD*%
D29*
%TO.C,R3*%
X90500000Y-117202500D03*
X90500000Y-115297500D03*
%TD*%
D34*
%TO.C,R11*%
X93012000Y-113260000D03*
X91488000Y-113260000D03*
%TD*%
D38*
%TO.C,R12*%
X92250000Y-85738000D03*
X92250000Y-87262000D03*
%TD*%
D61*
%TO.C,U5*%
X93600000Y-87600000D03*
X94250000Y-87600000D03*
X94900000Y-87600000D03*
X94900000Y-85400000D03*
X93600000Y-85400000D03*
%TD*%
D26*
%TO.C,TP11*%
X111689200Y-122732800D03*
%TD*%
D27*
%TO.C,P4*%
X205183145Y-83769200D03*
X205183145Y-86309200D03*
X205183145Y-88849200D03*
%TD*%
D62*
%TO.C,SW2*%
X116979800Y-90714000D03*
X124929800Y-90714000D03*
X116979800Y-95214000D03*
X124929800Y-95214000D03*
%TD*%
D26*
%TO.C,TP10*%
X109169200Y-122732800D03*
%TD*%
M02*
