%TF.GenerationSoftware,KiCad,Pcbnew,(6.0.10)*%
%TF.CreationDate,2023-01-09T18:14:30+01:00*%
%TF.ProjectId,carinsitu,63617269-6e73-4697-9475-2e6b69636164,1*%
%TF.SameCoordinates,Original*%
%TF.FileFunction,Soldermask,Top*%
%TF.FilePolarity,Negative*%
%FSLAX46Y46*%
G04 Gerber Fmt 4.6, Leading zero omitted, Abs format (unit mm)*
G04 Created by KiCad (PCBNEW (6.0.10)) date 2023-01-09 18:14:30*
%MOMM*%
%LPD*%
G01*
G04 APERTURE LIST*
G04 Aperture macros list*
%AMRoundRect*
0 Rectangle with rounded corners*
0 $1 Rounding radius*
0 $2 $3 $4 $5 $6 $7 $8 $9 X,Y pos of 4 corners*
0 Add a 4 corners polygon primitive as box body*
4,1,4,$2,$3,$4,$5,$6,$7,$8,$9,$2,$3,0*
0 Add four circle primitives for the rounded corners*
1,1,$1+$1,$2,$3*
1,1,$1+$1,$4,$5*
1,1,$1+$1,$6,$7*
1,1,$1+$1,$8,$9*
0 Add four rect primitives between the rounded corners*
20,1,$1+$1,$2,$3,$4,$5,0*
20,1,$1+$1,$4,$5,$6,$7,0*
20,1,$1+$1,$6,$7,$8,$9,0*
20,1,$1+$1,$8,$9,$2,$3,0*%
G04 Aperture macros list end*
%ADD10RoundRect,0.200000X-0.500380X0.350520X-0.500380X-0.350520X0.500380X-0.350520X0.500380X0.350520X0*%
%ADD11C,1.200000*%
%ADD12C,5.400000*%
%ADD13C,1.924000*%
%ADD14C,2.200000*%
%ADD15C,1.900000*%
%ADD16RoundRect,0.200000X0.698500X-0.444500X0.698500X0.444500X-0.698500X0.444500X-0.698500X-0.444500X0*%
%ADD17RoundRect,0.070000X0.500380X-0.350520X0.500380X0.350520X-0.500380X0.350520X-0.500380X-0.350520X0*%
%ADD18RoundRect,0.200000X1.100000X-0.550000X1.100000X0.550000X-1.100000X0.550000X-1.100000X-0.550000X0*%
%ADD19RoundRect,0.200000X0.500000X-0.500000X0.500000X0.500000X-0.500000X0.500000X-0.500000X-0.500000X0*%
%ADD20RoundRect,0.200000X-0.317500X-0.571500X0.317500X-0.571500X0.317500X0.571500X-0.317500X0.571500X0*%
%ADD21RoundRect,0.200000X0.317500X0.571500X-0.317500X0.571500X-0.317500X-0.571500X0.317500X-0.571500X0*%
%ADD22RoundRect,0.200000X0.750000X0.600000X-0.750000X0.600000X-0.750000X-0.600000X0.750000X-0.600000X0*%
%ADD23C,2.100000*%
%ADD24RoundRect,0.200000X0.571500X-0.317500X0.571500X0.317500X-0.571500X0.317500X-0.571500X-0.317500X0*%
%ADD25RoundRect,0.200000X-0.571500X0.317500X-0.571500X-0.317500X0.571500X-0.317500X0.571500X0.317500X0*%
%ADD26RoundRect,0.200000X-0.444500X-0.698500X0.444500X-0.698500X0.444500X0.698500X-0.444500X0.698500X0*%
%ADD27RoundRect,0.200000X-0.698500X0.444500X-0.698500X-0.444500X0.698500X-0.444500X0.698500X0.444500X0*%
%ADD28RoundRect,0.200000X1.250000X-1.000000X1.250000X1.000000X-1.250000X1.000000X-1.250000X-1.000000X0*%
%ADD29RoundRect,0.200000X0.650000X1.700000X-0.650000X1.700000X-0.650000X-1.700000X0.650000X-1.700000X0*%
%ADD30RoundRect,0.200000X-0.350520X-0.500380X0.350520X-0.500380X0.350520X0.500380X-0.350520X0.500380X0*%
%ADD31RoundRect,0.070000X-0.175000X0.125000X-0.175000X-0.125000X0.175000X-0.125000X0.175000X0.125000X0*%
%ADD32RoundRect,0.070000X-0.125000X-0.175000X0.125000X-0.175000X0.125000X0.175000X-0.125000X0.175000X0*%
%ADD33RoundRect,0.070000X0.175000X-0.125000X0.175000X0.125000X-0.175000X0.125000X-0.175000X-0.125000X0*%
%ADD34RoundRect,0.070000X0.125000X0.175000X-0.125000X0.175000X-0.125000X-0.175000X0.125000X-0.175000X0*%
%ADD35RoundRect,0.070000X-0.425000X0.140000X-0.425000X-0.140000X0.425000X-0.140000X0.425000X0.140000X0*%
%ADD36RoundRect,0.070000X-0.139700X-0.425450X0.139700X-0.425450X0.139700X0.425450X-0.139700X0.425450X0*%
%ADD37RoundRect,0.070000X-0.425450X0.139700X-0.425450X-0.139700X0.425450X-0.139700X0.425450X0.139700X0*%
%ADD38RoundRect,0.070000X-0.750000X0.750000X-0.750000X-0.750000X0.750000X-0.750000X0.750000X0.750000X0*%
%ADD39C,1.598880*%
%ADD40RoundRect,0.070000X-0.317500X-0.571500X0.317500X-0.571500X0.317500X0.571500X-0.317500X0.571500X0*%
%ADD41RoundRect,0.200000X0.076200X-0.355600X0.076200X0.355600X-0.076200X0.355600X-0.076200X-0.355600X0*%
%ADD42RoundRect,0.070000X0.076200X-0.355600X0.076200X0.355600X-0.076200X0.355600X-0.076200X-0.355600X0*%
%ADD43RoundRect,0.070000X1.193800X-0.901700X1.193800X0.901700X-1.193800X0.901700X-1.193800X-0.901700X0*%
%ADD44RoundRect,0.200000X0.350520X0.500380X-0.350520X0.500380X-0.350520X-0.500380X0.350520X-0.500380X0*%
%ADD45RoundRect,0.070000X-0.444500X-0.698500X0.444500X-0.698500X0.444500X0.698500X-0.444500X0.698500X0*%
%ADD46RoundRect,0.200000X0.444500X0.698500X-0.444500X0.698500X-0.444500X-0.698500X0.444500X-0.698500X0*%
%ADD47RoundRect,0.200000X-0.900000X-0.900000X0.900000X-0.900000X0.900000X0.900000X-0.900000X0.900000X0*%
%ADD48RoundRect,0.050000X-0.200000X-0.500000X0.200000X-0.500000X0.200000X0.500000X-0.200000X0.500000X0*%
%ADD49RoundRect,0.200000X-0.775000X-0.650000X0.775000X-0.650000X0.775000X0.650000X-0.775000X0.650000X0*%
G04 APERTURE END LIST*
D10*
%TO.C,U4*%
X193933600Y-85821100D03*
X193933600Y-86773600D03*
X193933600Y-87726100D03*
X196473600Y-87726100D03*
X196473600Y-86773600D03*
X196473600Y-85821100D03*
%TD*%
D11*
%TO.C,FIX1*%
X103340000Y-102410000D03*
X102750000Y-101000000D03*
X104750000Y-99000000D03*
X106750000Y-101000000D03*
D12*
X104750000Y-101000000D03*
D11*
X104750000Y-103000000D03*
X103340000Y-99590000D03*
X106160000Y-99590000D03*
X106160000Y-102410000D03*
%TD*%
%TO.C,FIX2*%
X106160000Y-107590000D03*
X103340000Y-107590000D03*
X104750000Y-111000000D03*
D12*
X104750000Y-109000000D03*
D11*
X102750000Y-109000000D03*
X104750000Y-107000000D03*
X106160000Y-110410000D03*
X106750000Y-109000000D03*
X103340000Y-110410000D03*
%TD*%
%TO.C,FIX3*%
X173250000Y-105000000D03*
X173840000Y-106410000D03*
X176660000Y-103590000D03*
X175250000Y-107000000D03*
X177250000Y-105000000D03*
X175250000Y-103000000D03*
X176660000Y-106410000D03*
D12*
X175250000Y-105000000D03*
D11*
X173840000Y-103590000D03*
%TD*%
%TO.C,FIX4*%
X185340000Y-99590000D03*
X184750000Y-101000000D03*
X186750000Y-99000000D03*
X185340000Y-102410000D03*
X186750000Y-103000000D03*
D12*
X186750000Y-101000000D03*
D11*
X188160000Y-99590000D03*
X188160000Y-102410000D03*
X188750000Y-101000000D03*
%TD*%
%TO.C,FIX5*%
X188160000Y-107590000D03*
X186750000Y-107000000D03*
D12*
X186750000Y-109000000D03*
D11*
X188160000Y-110410000D03*
X185340000Y-110410000D03*
X188750000Y-109000000D03*
X186750000Y-111000000D03*
X185340000Y-107590000D03*
X184750000Y-109000000D03*
%TD*%
D13*
%TO.C,P2*%
X156291600Y-89200000D03*
X153791600Y-89200000D03*
%TD*%
D14*
%TO.C,MOD1*%
X163142400Y-81541600D03*
X165942400Y-81541600D03*
X168742400Y-81541600D03*
X171542400Y-81541600D03*
X174372400Y-81491600D03*
D15*
X177022400Y-81541600D03*
X178872400Y-81541600D03*
X180722400Y-81541600D03*
X182572400Y-81541600D03*
%TD*%
D14*
%TO.C,D4*%
X190042800Y-82956400D03*
X192612800Y-82956400D03*
X195152800Y-82956400D03*
X197722800Y-82956400D03*
%TD*%
D13*
%TO.C,D1*%
X86000000Y-128270000D03*
X86000000Y-125730000D03*
%TD*%
%TO.C,D2*%
X86000000Y-84270000D03*
X86000000Y-81730000D03*
%TD*%
D16*
%TO.C,R2*%
X90500000Y-87452500D03*
X90500000Y-85547500D03*
%TD*%
D17*
%TO.C,U2*%
X91770000Y-83952500D03*
X91770000Y-83000000D03*
X91770000Y-82047500D03*
X89230000Y-82047500D03*
X89230000Y-83000000D03*
X89230000Y-83952500D03*
%TD*%
D14*
%TO.C,P1*%
X94500000Y-126270000D03*
X94500000Y-123730000D03*
%TD*%
D18*
%TO.C,A1*%
X119199260Y-106482960D03*
X119199260Y-103482960D03*
D19*
X120699260Y-104982960D03*
%TD*%
D20*
%TO.C,C1*%
X121937260Y-104982960D03*
X123461260Y-104982960D03*
%TD*%
D21*
%TO.C,C2*%
X125374400Y-99822000D03*
X123850400Y-99822000D03*
%TD*%
%TO.C,C3*%
X123461260Y-103482960D03*
X121937260Y-103482960D03*
%TD*%
%TO.C,R1*%
X126339600Y-101650800D03*
X124815600Y-101650800D03*
%TD*%
D22*
%TO.C,X1*%
X130668400Y-98982960D03*
X128168400Y-98982960D03*
X128168400Y-100982960D03*
X130668400Y-100982960D03*
%TD*%
D21*
%TO.C,C4*%
X128180400Y-97232960D03*
X126656400Y-97232960D03*
%TD*%
D20*
%TO.C,C5*%
X130656400Y-97232960D03*
X132180400Y-97232960D03*
%TD*%
D21*
%TO.C,C10*%
X123461260Y-106482960D03*
X121937260Y-106482960D03*
%TD*%
%TO.C,C11*%
X127254000Y-110982960D03*
X125730000Y-110982960D03*
%TD*%
D15*
%TO.C,SW1*%
X116000000Y-82490000D03*
X124000000Y-82490000D03*
D23*
X122000000Y-84890000D03*
X120000000Y-84890000D03*
X118000000Y-84890000D03*
%TD*%
D24*
%TO.C,C12*%
X99500000Y-121512000D03*
X99500000Y-119988000D03*
%TD*%
D25*
%TO.C,R5*%
X101250000Y-119988000D03*
X101250000Y-121512000D03*
%TD*%
D26*
%TO.C,R4*%
X94497500Y-121000000D03*
X96402500Y-121000000D03*
%TD*%
D14*
%TO.C,P3*%
X137540000Y-94640400D03*
X135000000Y-94640400D03*
X132460000Y-94640400D03*
%TD*%
D27*
%TO.C,C6*%
X159562800Y-98005900D03*
X159562800Y-99910900D03*
%TD*%
D26*
%TO.C,C7*%
X155816300Y-99822000D03*
X157721300Y-99822000D03*
%TD*%
D28*
%TO.C,C8*%
X147777200Y-104514400D03*
X147777200Y-100514400D03*
%TD*%
D29*
%TO.C,L2*%
X154200000Y-104597200D03*
X150600000Y-104597200D03*
%TD*%
D24*
%TO.C,R6*%
X150469600Y-101752400D03*
X150469600Y-100228400D03*
%TD*%
%TO.C,R7*%
X150469600Y-99212400D03*
X150469600Y-97688400D03*
%TD*%
D30*
%TO.C,U6*%
X152158700Y-100584000D03*
X153111200Y-100584000D03*
X154063700Y-100584000D03*
X154063700Y-98044000D03*
X152158700Y-98044000D03*
%TD*%
D31*
%TO.C,U7*%
X94610200Y-105943906D03*
X94610200Y-105443906D03*
X94610200Y-104943906D03*
X94610200Y-104443906D03*
X94610200Y-103943906D03*
D32*
X93885200Y-103718906D03*
X93385200Y-103718906D03*
X92885200Y-103718906D03*
D33*
X92160200Y-103943906D03*
X92160200Y-104443906D03*
X92160200Y-104943906D03*
X92160200Y-105443906D03*
X92160200Y-105943906D03*
D34*
X92885200Y-106168906D03*
X93385200Y-106168906D03*
X93885200Y-106168906D03*
%TD*%
D35*
%TO.C,U1*%
X126199260Y-104482960D03*
X126199260Y-104982960D03*
X126199260Y-105482960D03*
X126199260Y-105982960D03*
X126199260Y-106482960D03*
X126199260Y-106982960D03*
X126199260Y-107482960D03*
X126199260Y-107982960D03*
D36*
X126949200Y-108732320D03*
X127449580Y-108732320D03*
X127949960Y-108732320D03*
X128450340Y-108732320D03*
X128948180Y-108732320D03*
X129448560Y-108732320D03*
X129948940Y-108732320D03*
X130449320Y-108732320D03*
D37*
X131198620Y-107983020D03*
X131198620Y-107482640D03*
X131198620Y-106982260D03*
X131198620Y-106481880D03*
X131198620Y-105984040D03*
X131198620Y-105483660D03*
X131198620Y-104983280D03*
X131198620Y-104482900D03*
D36*
X130449320Y-103733600D03*
X129948940Y-103733600D03*
X129448560Y-103733600D03*
X128948180Y-103733600D03*
X128450340Y-103733600D03*
X127949960Y-103733600D03*
X127449580Y-103733600D03*
X126949200Y-103733600D03*
D38*
X127949260Y-105482960D03*
X127949260Y-106982960D03*
X129449260Y-106982960D03*
X129449260Y-105482960D03*
%TD*%
D25*
%TO.C,R8*%
X134199260Y-109720960D03*
X134199260Y-111244960D03*
%TD*%
D20*
%TO.C,R9*%
X113080800Y-108559600D03*
X114604800Y-108559600D03*
%TD*%
D25*
%TO.C,R10*%
X135709260Y-109720960D03*
X135709260Y-111244960D03*
%TD*%
D39*
%TO.C,TP1*%
X159969200Y-102412800D03*
%TD*%
D21*
%TO.C,C13*%
X93012000Y-118750000D03*
X91488000Y-118750000D03*
%TD*%
D40*
%TO.C,C14*%
X94748000Y-119350000D03*
D20*
X96272000Y-119350000D03*
%TD*%
D41*
%TO.C,U3*%
X94250000Y-117498600D03*
X94649999Y-117498600D03*
X95050001Y-117498600D03*
X95450000Y-117498600D03*
X95849999Y-117498600D03*
X96250001Y-117498600D03*
X96650000Y-117498600D03*
X96650000Y-114501400D03*
X96250001Y-114501400D03*
X95849999Y-114501400D03*
D42*
X95450000Y-114501400D03*
X95050001Y-114501400D03*
X94649999Y-114501400D03*
X94250000Y-114501400D03*
D43*
X95450000Y-116000000D03*
%TD*%
D13*
%TO.C,TP2*%
X106680000Y-116840000D03*
%TD*%
%TO.C,TP3*%
X109220000Y-116840000D03*
%TD*%
%TO.C,TP4*%
X104140000Y-116840000D03*
%TD*%
%TO.C,TP5*%
X111760000Y-116840000D03*
%TD*%
D14*
%TO.C,D5*%
X111861600Y-90373200D03*
X111861600Y-92913200D03*
X111861600Y-95453200D03*
%TD*%
D13*
%TO.C,TP6*%
X140309600Y-87020400D03*
%TD*%
D44*
%TO.C,U8*%
X144208500Y-88442800D03*
X143256000Y-88442800D03*
X142303500Y-88442800D03*
X142303500Y-90982800D03*
X143256000Y-90982800D03*
X144208500Y-90982800D03*
%TD*%
D24*
%TO.C,C15*%
X146151600Y-90271600D03*
X146151600Y-88747600D03*
%TD*%
D26*
%TO.C,C16*%
X140047500Y-94750000D03*
X141952500Y-94750000D03*
%TD*%
D45*
%TO.C,C17*%
X94297500Y-82050000D03*
D26*
X96202500Y-82050000D03*
%TD*%
D13*
%TO.C,TP7*%
X137160000Y-107289600D03*
%TD*%
%TO.C,TP8*%
X116382800Y-108610400D03*
%TD*%
%TO.C,TP9*%
X140239260Y-109202960D03*
%TD*%
D46*
%TO.C,L1*%
X157721300Y-98044000D03*
X155816300Y-98044000D03*
%TD*%
D47*
%TO.C,P5*%
X150672800Y-111607600D03*
D14*
X153212800Y-111607600D03*
X155752800Y-111607600D03*
X158292800Y-111607600D03*
%TD*%
D16*
%TO.C,R3*%
X90500000Y-117202500D03*
X90500000Y-115297500D03*
%TD*%
D21*
%TO.C,R11*%
X93012000Y-113260000D03*
X91488000Y-113260000D03*
%TD*%
D25*
%TO.C,R12*%
X92250000Y-85738000D03*
X92250000Y-87262000D03*
%TD*%
D48*
%TO.C,U5*%
X93600000Y-87600000D03*
X94250000Y-87600000D03*
X94900000Y-87600000D03*
X94900000Y-85400000D03*
X93600000Y-85400000D03*
%TD*%
D13*
%TO.C,TP11*%
X111689200Y-122732800D03*
%TD*%
D14*
%TO.C,P4*%
X205183145Y-83769200D03*
X205183145Y-86309200D03*
X205183145Y-88849200D03*
%TD*%
D49*
%TO.C,SW2*%
X116979800Y-90714000D03*
X124929800Y-90714000D03*
X116979800Y-95214000D03*
X124929800Y-95214000D03*
%TD*%
D13*
%TO.C,TP10*%
X109169200Y-122732800D03*
%TD*%
M02*
