G04 #@! TF.FileFunction,Copper,L4,Bot,Signal*
%FSLAX46Y46*%
G04 Gerber Fmt 4.6, Leading zero omitted, Abs format (unit mm)*
G04 Created by KiCad (PCBNEW 4.0.2+dfsg1-stable) date mer. 17 juil. 2019 11:13:31 CEST*
%MOMM*%
G01*
G04 APERTURE LIST*
%ADD10C,0.100000*%
%ADD11C,0.152400*%
%ADD12C,5.000000*%
%ADD13C,0.800000*%
%ADD14C,1.524000*%
%ADD15C,1.800000*%
%ADD16C,1.500000*%
%ADD17C,1.700000*%
%ADD18R,1.800000X1.800000*%
%ADD19C,0.711200*%
%ADD20C,0.304800*%
%ADD21C,1.016000*%
%ADD22C,2.048000*%
%ADD23C,0.406400*%
%ADD24C,0.203200*%
G04 APERTURE END LIST*
D10*
D11*
X113347619Y-128328571D02*
X113347619Y-128861905D01*
X113538095Y-128023810D02*
X113728571Y-128595238D01*
X113233333Y-128595238D01*
D12*
X104750000Y-101000000D03*
D13*
X104750000Y-99000000D03*
X106750000Y-101000000D03*
X104750000Y-103000000D03*
X102750000Y-101000000D03*
X106160000Y-99590000D03*
X106160000Y-102410000D03*
X103340000Y-102410000D03*
X103340000Y-99590000D03*
D12*
X104750000Y-109000000D03*
D13*
X104750000Y-107000000D03*
X106750000Y-109000000D03*
X104750000Y-111000000D03*
X102750000Y-109000000D03*
X106160000Y-107590000D03*
X106160000Y-110410000D03*
X103340000Y-110410000D03*
X103340000Y-107590000D03*
D12*
X175250000Y-105000000D03*
D13*
X175250000Y-103000000D03*
X177250000Y-105000000D03*
X175250000Y-107000000D03*
X173250000Y-105000000D03*
X176660000Y-103590000D03*
X176660000Y-106410000D03*
X173840000Y-106410000D03*
X173840000Y-103590000D03*
D12*
X186750000Y-101000000D03*
D13*
X186750000Y-99000000D03*
X188750000Y-101000000D03*
X186750000Y-103000000D03*
X184750000Y-101000000D03*
X188160000Y-99590000D03*
X188160000Y-102410000D03*
X185340000Y-102410000D03*
X185340000Y-99590000D03*
D12*
X186750000Y-109000000D03*
D13*
X186750000Y-107000000D03*
X188750000Y-109000000D03*
X186750000Y-111000000D03*
X184750000Y-109000000D03*
X188160000Y-107590000D03*
X188160000Y-110410000D03*
X185340000Y-110410000D03*
X185340000Y-107590000D03*
D14*
X146250000Y-89200000D03*
X143750000Y-89200000D03*
X84730000Y-127000000D03*
X87270000Y-127000000D03*
X84730000Y-83000000D03*
X87270000Y-83000000D03*
D15*
X94500000Y-126270000D03*
X94500000Y-123730000D03*
X151370000Y-81530000D03*
X154170000Y-81530000D03*
X156970000Y-81530000D03*
X159770000Y-81530000D03*
X162600000Y-81480000D03*
D16*
X165250000Y-81530000D03*
X167100000Y-81530000D03*
X168950000Y-81530000D03*
X170800000Y-81530000D03*
D17*
X122000000Y-84890000D03*
X120000000Y-84890000D03*
X118000000Y-84890000D03*
D15*
X137540000Y-94750000D03*
X135000000Y-94750000D03*
X132460000Y-94750000D03*
D14*
X195580000Y-104140000D03*
X106680000Y-116840000D03*
X109220000Y-116840000D03*
X104140000Y-116840000D03*
X111760000Y-116840000D03*
D15*
X116840000Y-93980000D03*
X119380000Y-93980000D03*
X121920000Y-93980000D03*
D14*
X127000000Y-93980000D03*
D15*
X201320000Y-83000000D03*
X203890000Y-83000000D03*
X206430000Y-83000000D03*
X209000000Y-83000000D03*
X201320000Y-127000000D03*
X203890000Y-127000000D03*
X206430000Y-127000000D03*
X209000000Y-127000000D03*
D14*
X104140000Y-114300000D03*
X129540000Y-109220000D03*
X127000000Y-106680000D03*
D18*
X149860000Y-106680000D03*
D15*
X152400000Y-106680000D03*
X154940000Y-106680000D03*
X157480000Y-106680000D03*
D19*
X137250000Y-101250000D03*
X139500000Y-98250000D03*
X141750000Y-104850000D03*
X143100000Y-94750000D03*
X146520000Y-101070000D03*
X144750000Y-101070000D03*
X93000000Y-99390000D03*
X128740000Y-92770000D03*
X127100000Y-96500000D03*
X94650000Y-112500000D03*
X90510000Y-118750000D03*
X95450000Y-116000000D03*
X97670000Y-117620000D03*
X97670000Y-119640000D03*
X97670000Y-118500000D03*
X97670000Y-121000000D03*
X97670000Y-122360000D03*
X96400000Y-122360000D03*
X114500000Y-111000000D03*
X117250000Y-107000000D03*
X118750000Y-105500000D03*
X118750000Y-107000000D03*
X117250000Y-105500000D03*
X119750000Y-101000000D03*
X125010000Y-108760000D03*
X107800000Y-108240000D03*
X113310000Y-102110000D03*
X122150000Y-97330000D03*
X117250000Y-99000000D03*
X114850000Y-97250000D03*
X101250000Y-104500000D03*
X99000000Y-107050000D03*
X98500000Y-102940000D03*
X97000000Y-104500000D03*
X97000000Y-105750000D03*
X186070000Y-126770000D03*
X110270000Y-103500000D03*
X110270000Y-106500000D03*
X93000000Y-105000000D03*
X90500000Y-110650000D03*
X96750000Y-101750000D03*
X140050000Y-93250000D03*
X192330000Y-125820000D03*
X133750000Y-110250000D03*
X120900000Y-110410000D03*
X110230000Y-112240000D03*
X135250000Y-107000000D03*
X113920000Y-103500000D03*
X117500000Y-102650000D03*
X121730000Y-108000000D03*
X107760000Y-113760000D03*
X123500000Y-108760000D03*
X117250000Y-109840000D03*
X112760000Y-107730000D03*
X100230000Y-106920000D03*
X101090000Y-103570000D03*
X186070000Y-125820000D03*
X190940000Y-126770000D03*
X146520000Y-95750000D03*
X102480000Y-119990000D03*
X113660000Y-110060000D03*
X113660000Y-111980000D03*
X185170000Y-112360000D03*
X182410000Y-112360000D03*
X115200000Y-109250000D03*
X127100000Y-97450000D03*
X121020000Y-102090000D03*
X133000000Y-109540000D03*
X121740000Y-102810000D03*
X96750000Y-113390000D03*
X90500000Y-113680000D03*
D20*
X131830000Y-110410000D02*
X131990000Y-110250000D01*
X131990000Y-110250000D02*
X133750000Y-110250000D01*
X120900000Y-110410000D02*
X131830000Y-110410000D01*
X120900000Y-110410000D02*
X118710000Y-110410000D01*
X114100000Y-109270000D02*
X113200000Y-109270000D01*
X115480000Y-110650000D02*
X114100000Y-109270000D01*
X118470000Y-110650000D02*
X115480000Y-110650000D01*
X118710000Y-110410000D02*
X118470000Y-110650000D01*
X113200000Y-109270000D02*
X110230000Y-112240000D01*
D21*
X164530000Y-83810000D02*
X163320000Y-83810000D01*
X165250000Y-83090000D02*
X164530000Y-83810000D01*
X165250000Y-81530000D02*
X165250000Y-83090000D01*
X162600000Y-83090000D02*
X162600000Y-81480000D01*
X163320000Y-83810000D02*
X162600000Y-83090000D01*
D22*
X99610000Y-113590000D02*
X99610000Y-123600000D01*
X99610000Y-113590000D02*
X95050000Y-109030000D01*
X95050000Y-109030000D02*
X95050000Y-95950000D01*
X100850000Y-90150000D02*
X95050000Y-95950000D01*
D21*
X120000000Y-84890000D02*
X120000000Y-86920000D01*
D22*
X118220000Y-90150000D02*
X120000000Y-88370000D01*
X120000000Y-88370000D02*
X120000000Y-86920000D01*
X118220000Y-90150000D02*
X100850000Y-90150000D01*
X96940000Y-126270000D02*
X94500000Y-126270000D01*
X99610000Y-123600000D02*
X96940000Y-126270000D01*
D21*
X141450000Y-84890000D02*
X141450000Y-90680000D01*
X141450000Y-90680000D02*
X146520000Y-95750000D01*
D23*
X104140000Y-116840000D02*
X104140000Y-119140000D01*
X103290000Y-119990000D02*
X102480000Y-119990000D01*
X104140000Y-119140000D02*
X103290000Y-119990000D01*
X102480000Y-119990000D02*
X102480000Y-113310000D01*
X122000000Y-88540000D02*
X122000000Y-84890000D01*
X118860000Y-91680000D02*
X122000000Y-88540000D01*
X101490000Y-91680000D02*
X118860000Y-91680000D01*
X97750000Y-95420000D02*
X101490000Y-91680000D01*
X97750000Y-108580000D02*
X97750000Y-95420000D01*
X102480000Y-113310000D02*
X97750000Y-108580000D01*
D21*
X122000000Y-84890000D02*
X124030000Y-84890000D01*
D22*
X159770000Y-83630000D02*
X158510000Y-84890000D01*
X158510000Y-84890000D02*
X141450000Y-84890000D01*
X141450000Y-84890000D02*
X124030000Y-84890000D01*
X159770000Y-83630000D02*
X159770000Y-81530000D01*
D20*
X110060000Y-113460000D02*
X110260000Y-113460000D01*
X106680000Y-116840000D02*
X110060000Y-113460000D01*
X110260000Y-113460000D02*
X113660000Y-110060000D01*
X112380000Y-113680000D02*
X112380000Y-113260000D01*
X109220000Y-116840000D02*
X112380000Y-113680000D01*
X112380000Y-113260000D02*
X113660000Y-111980000D01*
D24*
X185170000Y-112360000D02*
X182410000Y-112360000D01*
D23*
X116840000Y-93980000D02*
X116840000Y-97470000D01*
X115200000Y-99110000D02*
X115200000Y-109250000D01*
X116840000Y-97470000D02*
X115200000Y-99110000D01*
X128200000Y-95180000D02*
X128200000Y-96950000D01*
X127000000Y-93980000D02*
X128200000Y-95180000D01*
X127700000Y-97450000D02*
X127100000Y-97450000D01*
X128200000Y-96950000D02*
X127700000Y-97450000D01*
D20*
X133750000Y-108820000D02*
X151470000Y-108820000D01*
X127020000Y-102090000D02*
X133750000Y-108820000D01*
X121020000Y-102090000D02*
X127020000Y-102090000D01*
X152400000Y-107890000D02*
X152400000Y-106680000D01*
X151470000Y-108820000D02*
X152400000Y-107890000D01*
X126270000Y-102810000D02*
X133000000Y-109540000D01*
X121740000Y-102810000D02*
X126270000Y-102810000D01*
D24*
X96750000Y-113390000D02*
X93770000Y-113390000D01*
X93480000Y-113680000D02*
X90500000Y-113680000D01*
X93770000Y-113390000D02*
X93480000Y-113680000D01*
M02*
