G04 #@! TF.FileFunction,Paste,Top*
%FSLAX46Y46*%
G04 Gerber Fmt 4.6, Leading zero omitted, Abs format (unit mm)*
G04 Created by KiCad (PCBNEW 4.0.2+dfsg1-stable) date mer. 17 juil. 2019 11:13:31 CEST*
%MOMM*%
G01*
G04 APERTURE LIST*
%ADD10C,0.100000*%
%ADD11R,1.397000X0.889000*%
%ADD12R,0.930760X0.631040*%
%ADD13R,1.000000X1.000000*%
%ADD14R,2.200000X1.100000*%
%ADD15R,0.635000X1.143000*%
%ADD16R,1.143000X0.635000*%
%ADD17R,1.500000X1.200000*%
%ADD18R,0.889000X1.397000*%
%ADD19R,1.000760X0.701040*%
%ADD20R,2.500000X2.000000*%
%ADD21R,1.300000X3.400000*%
%ADD22R,0.280000X0.180000*%
%ADD23R,0.180000X0.280000*%
%ADD24R,0.209400X0.780900*%
%ADD25R,0.780900X0.209400*%
%ADD26R,0.780000X0.210000*%
%ADD27R,1.200000X1.200000*%
%ADD28C,1.198880*%
%ADD29R,0.565000X1.073000*%
%ADD30R,0.152400X0.711200*%
%ADD31R,0.082400X0.641200*%
%ADD32R,2.317600X1.733400*%
%ADD33R,1.327000X0.819000*%
%ADD34R,0.701040X1.000760*%
G04 APERTURE END LIST*
D10*
D11*
X90500000Y-109452500D03*
X90500000Y-107547500D03*
D12*
X89230000Y-105952500D03*
X89230000Y-105000000D03*
X89230000Y-104047500D03*
X91770000Y-104047500D03*
X91770000Y-105000000D03*
X91770000Y-105952500D03*
D13*
X110000000Y-105000000D03*
D14*
X108500000Y-106500000D03*
X108500000Y-103500000D03*
D15*
X111238000Y-105000000D03*
X112762000Y-105000000D03*
D16*
X109000000Y-109762000D03*
X109000000Y-108238000D03*
D15*
X112762000Y-103500000D03*
X111238000Y-103500000D03*
X115812000Y-102110000D03*
X114288000Y-102110000D03*
D17*
X119750000Y-99000000D03*
X117250000Y-99000000D03*
X117250000Y-101000000D03*
X119750000Y-101000000D03*
D15*
X117262000Y-97250000D03*
X115738000Y-97250000D03*
X119738000Y-97250000D03*
X121262000Y-97250000D03*
X112762000Y-106500000D03*
X111238000Y-106500000D03*
X117142000Y-111000000D03*
X115618000Y-111000000D03*
D16*
X99500000Y-121512000D03*
X99500000Y-119988000D03*
X101250000Y-119988000D03*
X101250000Y-121512000D03*
D18*
X94497500Y-121000000D03*
X96402500Y-121000000D03*
D19*
X189770000Y-125817500D03*
X189770000Y-126770000D03*
X189770000Y-127722500D03*
X187230000Y-127722500D03*
X187230000Y-126770000D03*
X187230000Y-125817500D03*
D11*
X146520000Y-97897500D03*
X146520000Y-99802500D03*
D18*
X142847500Y-99710000D03*
X144752500Y-99710000D03*
D20*
X137250000Y-107000000D03*
X137250000Y-103000000D03*
D21*
X143550000Y-107000000D03*
X139950000Y-107000000D03*
D16*
X139500000Y-103262000D03*
X139500000Y-101738000D03*
X139500000Y-100722000D03*
X139500000Y-99198000D03*
D22*
X100225000Y-106000000D03*
X100225000Y-105500000D03*
X100225000Y-105000000D03*
X100225000Y-104500000D03*
X100225000Y-104000000D03*
D23*
X99500000Y-103775000D03*
X99000000Y-103775000D03*
X98500000Y-103775000D03*
D22*
X97775000Y-104000000D03*
X97775000Y-104500000D03*
X97775000Y-105000000D03*
X97775000Y-105500000D03*
X97775000Y-106000000D03*
D23*
X98500000Y-106225000D03*
X99000000Y-106225000D03*
X99500000Y-106225000D03*
D24*
X119750060Y-108749360D03*
D25*
X120499360Y-108000060D03*
D24*
X119750060Y-103750640D03*
X119249680Y-103750640D03*
X118749300Y-103750640D03*
X118248920Y-103750640D03*
X117250700Y-103750640D03*
X116750320Y-103750640D03*
D26*
X115500000Y-106500000D03*
D24*
X116249940Y-103750640D03*
D26*
X115500000Y-104500000D03*
X115500000Y-105000000D03*
X115500000Y-105500000D03*
X115500000Y-106000000D03*
X115500000Y-107000000D03*
X115500000Y-107500000D03*
X115500000Y-108000000D03*
D24*
X116249940Y-108749360D03*
X116750320Y-108749360D03*
X117250700Y-108749360D03*
X117751080Y-108749360D03*
X118248920Y-108749360D03*
X118749300Y-108749360D03*
X119249680Y-108749360D03*
D27*
X118750000Y-105500000D03*
D24*
X117751080Y-103750640D03*
D25*
X120499360Y-104499940D03*
X120499360Y-105000320D03*
X120499360Y-105500700D03*
X120499360Y-106001080D03*
X120499360Y-106498920D03*
X120499360Y-106999300D03*
X120499360Y-107499680D03*
D27*
X118750000Y-107000000D03*
X117250000Y-105500000D03*
X117250000Y-107000000D03*
D16*
X123500000Y-109738000D03*
X123500000Y-111262000D03*
X109000000Y-113762000D03*
X109000000Y-112238000D03*
X125010000Y-109738000D03*
X125010000Y-111262000D03*
D28*
X145640000Y-102500000D03*
D15*
X93012000Y-118750000D03*
X91488000Y-118750000D03*
D29*
X94748000Y-119350000D03*
D15*
X96272000Y-119350000D03*
D30*
X94250000Y-117498600D03*
X94649999Y-117498600D03*
X95050001Y-117498600D03*
X95450000Y-117498600D03*
X95849999Y-117498600D03*
X96250001Y-117498600D03*
X96650000Y-117498600D03*
X96650000Y-114501400D03*
X96250001Y-114501400D03*
X95849999Y-114501400D03*
D31*
X95450000Y-114501400D03*
X95050001Y-114501400D03*
X94649999Y-114501400D03*
X94250000Y-114501400D03*
D32*
X95450000Y-116000000D03*
D19*
X130770000Y-95547500D03*
X130770000Y-96500000D03*
X130770000Y-97452500D03*
X128230000Y-97452500D03*
X128230000Y-96500000D03*
X128230000Y-95547500D03*
D15*
X130262000Y-94000000D03*
X128738000Y-94000000D03*
D18*
X140047500Y-94750000D03*
X141952500Y-94750000D03*
D33*
X93000000Y-102452500D03*
D11*
X93000000Y-100547500D03*
D18*
X144752500Y-97990000D03*
X142847500Y-97990000D03*
D34*
X140797500Y-101230000D03*
X142702500Y-101230000D03*
X142702500Y-103770000D03*
X141750000Y-103770000D03*
X140797500Y-103770000D03*
D11*
X90500000Y-117202500D03*
X90500000Y-115297500D03*
D15*
X93012000Y-113260000D03*
X91488000Y-113260000D03*
M02*
