G04 #@! TF.FileFunction,Copper,L1,Top,Signal*
%FSLAX46Y46*%
G04 Gerber Fmt 4.6, Leading zero omitted, Abs format (unit mm)*
G04 Created by KiCad (PCBNEW 4.0.2+dfsg1-stable) date mer. 17 juil. 2019 11:13:31 CEST*
%MOMM*%
G01*
G04 APERTURE LIST*
%ADD10C,0.100000*%
%ADD11C,0.152400*%
%ADD12C,5.000000*%
%ADD13C,0.800000*%
%ADD14C,1.524000*%
%ADD15R,1.397000X0.889000*%
%ADD16R,1.000760X0.701040*%
%ADD17C,1.800000*%
%ADD18C,1.500000*%
%ADD19R,1.000000X1.000000*%
%ADD20R,2.200000X1.100000*%
%ADD21R,0.635000X1.143000*%
%ADD22R,1.143000X0.635000*%
%ADD23R,1.500000X1.200000*%
%ADD24C,1.700000*%
%ADD25R,0.889000X1.397000*%
%ADD26R,2.500000X2.000000*%
%ADD27R,1.300000X3.400000*%
%ADD28R,0.350000X0.250000*%
%ADD29R,0.250000X0.350000*%
%ADD30R,0.279400X0.850900*%
%ADD31R,0.850900X0.279400*%
%ADD32R,0.850000X0.280000*%
%ADD33R,1.500000X1.500000*%
%ADD34C,1.198880*%
%ADD35R,0.152400X0.711200*%
%ADD36R,2.387600X1.803400*%
%ADD37R,0.701040X1.000760*%
%ADD38R,1.800000X1.800000*%
%ADD39C,0.711200*%
%ADD40C,0.406400*%
%ADD41C,1.016000*%
%ADD42C,0.304800*%
%ADD43C,0.203200*%
%ADD44C,2.048000*%
%ADD45C,0.200000*%
G04 APERTURE END LIST*
D10*
D11*
X109978572Y-128861905D02*
X109521429Y-128861905D01*
X109750000Y-128861905D02*
X109750000Y-128061905D01*
X109673810Y-128176190D01*
X109597619Y-128252381D01*
X109521429Y-128290476D01*
D12*
X104750000Y-101000000D03*
D13*
X104750000Y-99000000D03*
X106750000Y-101000000D03*
X104750000Y-103000000D03*
X102750000Y-101000000D03*
X106160000Y-99590000D03*
X106160000Y-102410000D03*
X103340000Y-102410000D03*
X103340000Y-99590000D03*
D12*
X104750000Y-109000000D03*
D13*
X104750000Y-107000000D03*
X106750000Y-109000000D03*
X104750000Y-111000000D03*
X102750000Y-109000000D03*
X106160000Y-107590000D03*
X106160000Y-110410000D03*
X103340000Y-110410000D03*
X103340000Y-107590000D03*
D12*
X175250000Y-105000000D03*
D13*
X175250000Y-103000000D03*
X177250000Y-105000000D03*
X175250000Y-107000000D03*
X173250000Y-105000000D03*
X176660000Y-103590000D03*
X176660000Y-106410000D03*
X173840000Y-106410000D03*
X173840000Y-103590000D03*
D12*
X186750000Y-101000000D03*
D13*
X186750000Y-99000000D03*
X188750000Y-101000000D03*
X186750000Y-103000000D03*
X184750000Y-101000000D03*
X188160000Y-99590000D03*
X188160000Y-102410000D03*
X185340000Y-102410000D03*
X185340000Y-99590000D03*
D12*
X186750000Y-109000000D03*
D13*
X186750000Y-107000000D03*
X188750000Y-109000000D03*
X186750000Y-111000000D03*
X184750000Y-109000000D03*
X188160000Y-107590000D03*
X188160000Y-110410000D03*
X185340000Y-110410000D03*
X185340000Y-107590000D03*
D14*
X146250000Y-89200000D03*
X143750000Y-89200000D03*
X84730000Y-127000000D03*
X87270000Y-127000000D03*
X84730000Y-83000000D03*
X87270000Y-83000000D03*
D15*
X90500000Y-109452500D03*
X90500000Y-107547500D03*
D16*
X89230000Y-105952500D03*
X89230000Y-105000000D03*
X89230000Y-104047500D03*
X91770000Y-104047500D03*
X91770000Y-105000000D03*
X91770000Y-105952500D03*
D17*
X94500000Y-126270000D03*
X94500000Y-123730000D03*
X151370000Y-81530000D03*
X154170000Y-81530000D03*
X156970000Y-81530000D03*
X159770000Y-81530000D03*
X162600000Y-81480000D03*
D18*
X165250000Y-81530000D03*
X167100000Y-81530000D03*
X168950000Y-81530000D03*
X170800000Y-81530000D03*
D19*
X110000000Y-105000000D03*
D20*
X108500000Y-106500000D03*
X108500000Y-103500000D03*
D21*
X111238000Y-105000000D03*
X112762000Y-105000000D03*
D22*
X109000000Y-109762000D03*
X109000000Y-108238000D03*
D21*
X112762000Y-103500000D03*
X111238000Y-103500000D03*
X115812000Y-102110000D03*
X114288000Y-102110000D03*
D23*
X119750000Y-99000000D03*
X117250000Y-99000000D03*
X117250000Y-101000000D03*
X119750000Y-101000000D03*
D21*
X117262000Y-97250000D03*
X115738000Y-97250000D03*
X119738000Y-97250000D03*
X121262000Y-97250000D03*
X112762000Y-106500000D03*
X111238000Y-106500000D03*
X117142000Y-111000000D03*
X115618000Y-111000000D03*
D24*
X122000000Y-84890000D03*
X120000000Y-84890000D03*
X118000000Y-84890000D03*
D22*
X99500000Y-121512000D03*
X99500000Y-119988000D03*
X101250000Y-119988000D03*
X101250000Y-121512000D03*
D25*
X94497500Y-121000000D03*
X96402500Y-121000000D03*
D17*
X137540000Y-94750000D03*
X135000000Y-94750000D03*
X132460000Y-94750000D03*
D16*
X189770000Y-125817500D03*
X189770000Y-126770000D03*
X189770000Y-127722500D03*
X187230000Y-127722500D03*
X187230000Y-126770000D03*
X187230000Y-125817500D03*
D15*
X146520000Y-97897500D03*
X146520000Y-99802500D03*
D25*
X142847500Y-99710000D03*
X144752500Y-99710000D03*
D26*
X137250000Y-107000000D03*
X137250000Y-103000000D03*
D27*
X143550000Y-107000000D03*
X139950000Y-107000000D03*
D22*
X139500000Y-103262000D03*
X139500000Y-101738000D03*
X139500000Y-100722000D03*
X139500000Y-99198000D03*
D14*
X195580000Y-104140000D03*
D28*
X100225000Y-106000000D03*
X100225000Y-105500000D03*
X100225000Y-105000000D03*
X100225000Y-104500000D03*
X100225000Y-104000000D03*
D29*
X99500000Y-103775000D03*
X99000000Y-103775000D03*
X98500000Y-103775000D03*
D28*
X97775000Y-104000000D03*
X97775000Y-104500000D03*
X97775000Y-105000000D03*
X97775000Y-105500000D03*
X97775000Y-106000000D03*
D29*
X98500000Y-106225000D03*
X99000000Y-106225000D03*
X99500000Y-106225000D03*
D30*
X119750060Y-108749360D03*
D31*
X120499360Y-108000060D03*
D30*
X119750060Y-103750640D03*
X119249680Y-103750640D03*
X118749300Y-103750640D03*
X118248920Y-103750640D03*
X117250700Y-103750640D03*
X116750320Y-103750640D03*
D32*
X115500000Y-106500000D03*
D30*
X116249940Y-103750640D03*
D32*
X115500000Y-104500000D03*
X115500000Y-105000000D03*
X115500000Y-105500000D03*
X115500000Y-106000000D03*
X115500000Y-107000000D03*
X115500000Y-107500000D03*
X115500000Y-108000000D03*
D30*
X116249940Y-108749360D03*
X116750320Y-108749360D03*
X117250700Y-108749360D03*
X117751080Y-108749360D03*
X118248920Y-108749360D03*
X118749300Y-108749360D03*
X119249680Y-108749360D03*
D33*
X118750000Y-105500000D03*
D30*
X117751080Y-103750640D03*
D31*
X120499360Y-104499940D03*
X120499360Y-105000320D03*
X120499360Y-105500700D03*
X120499360Y-106001080D03*
X120499360Y-106498920D03*
X120499360Y-106999300D03*
X120499360Y-107499680D03*
D33*
X118750000Y-107000000D03*
X117250000Y-105500000D03*
X117250000Y-107000000D03*
D22*
X123500000Y-109738000D03*
X123500000Y-111262000D03*
X109000000Y-113762000D03*
X109000000Y-112238000D03*
X125010000Y-109738000D03*
X125010000Y-111262000D03*
D34*
X145640000Y-102500000D03*
D21*
X93012000Y-118750000D03*
X91488000Y-118750000D03*
X94748000Y-119350000D03*
X96272000Y-119350000D03*
D35*
X94250000Y-117498600D03*
X94649999Y-117498600D03*
X95050001Y-117498600D03*
X95450000Y-117498600D03*
X95849999Y-117498600D03*
X96250001Y-117498600D03*
X96650000Y-117498600D03*
X96650000Y-114501400D03*
X96250001Y-114501400D03*
X95849999Y-114501400D03*
X95450000Y-114501400D03*
X95050001Y-114501400D03*
X94649999Y-114501400D03*
X94250000Y-114501400D03*
D36*
X95450000Y-116000000D03*
D14*
X106680000Y-116840000D03*
X109220000Y-116840000D03*
X104140000Y-116840000D03*
X111760000Y-116840000D03*
D17*
X116840000Y-93980000D03*
X119380000Y-93980000D03*
X121920000Y-93980000D03*
D14*
X127000000Y-93980000D03*
D16*
X130770000Y-95547500D03*
X130770000Y-96500000D03*
X130770000Y-97452500D03*
X128230000Y-97452500D03*
X128230000Y-96500000D03*
X128230000Y-95547500D03*
D21*
X130262000Y-94000000D03*
X128738000Y-94000000D03*
D25*
X140047500Y-94750000D03*
X141952500Y-94750000D03*
D15*
X93000000Y-102452500D03*
X93000000Y-100547500D03*
D17*
X201320000Y-83000000D03*
X203890000Y-83000000D03*
X206430000Y-83000000D03*
X209000000Y-83000000D03*
X201320000Y-127000000D03*
X203890000Y-127000000D03*
X206430000Y-127000000D03*
X209000000Y-127000000D03*
D14*
X104140000Y-114300000D03*
X129540000Y-109220000D03*
X127000000Y-106680000D03*
D25*
X144752500Y-97990000D03*
X142847500Y-97990000D03*
D37*
X140797500Y-101230000D03*
X142702500Y-101230000D03*
X142702500Y-103770000D03*
X141750000Y-103770000D03*
X140797500Y-103770000D03*
D38*
X149860000Y-106680000D03*
D17*
X152400000Y-106680000D03*
X154940000Y-106680000D03*
X157480000Y-106680000D03*
D15*
X90500000Y-117202500D03*
X90500000Y-115297500D03*
D21*
X93012000Y-113260000D03*
X91488000Y-113260000D03*
D39*
X137250000Y-101250000D03*
X139500000Y-98250000D03*
X141750000Y-104850000D03*
X143100000Y-94750000D03*
X146520000Y-101070000D03*
X144750000Y-101070000D03*
X93000000Y-99390000D03*
X128740000Y-92770000D03*
X127100000Y-96500000D03*
X94650000Y-112500000D03*
X90510000Y-118750000D03*
X95450000Y-116000000D03*
X97670000Y-117620000D03*
X97670000Y-119640000D03*
X97670000Y-118500000D03*
X97670000Y-121000000D03*
X97670000Y-122360000D03*
X96400000Y-122360000D03*
X114500000Y-111000000D03*
X117250000Y-107000000D03*
X118750000Y-105500000D03*
X118750000Y-107000000D03*
X117250000Y-105500000D03*
X119750000Y-101000000D03*
X125010000Y-108760000D03*
X107800000Y-108240000D03*
X113310000Y-102110000D03*
X122150000Y-97330000D03*
X117250000Y-99000000D03*
X114850000Y-97250000D03*
X101250000Y-104500000D03*
X99000000Y-107050000D03*
X98500000Y-102940000D03*
X97000000Y-104500000D03*
X97000000Y-105750000D03*
X186070000Y-126770000D03*
X110270000Y-103500000D03*
X110270000Y-106500000D03*
X93000000Y-105000000D03*
X90500000Y-110650000D03*
X96750000Y-101750000D03*
X140050000Y-93250000D03*
X192330000Y-125820000D03*
X133750000Y-110250000D03*
X120900000Y-110410000D03*
X110230000Y-112240000D03*
X135250000Y-107000000D03*
X113920000Y-103500000D03*
X117500000Y-102650000D03*
X121730000Y-108000000D03*
X107760000Y-113760000D03*
X123500000Y-108760000D03*
X117250000Y-109840000D03*
X112760000Y-107730000D03*
X100230000Y-106920000D03*
X101090000Y-103570000D03*
X186070000Y-125820000D03*
X190940000Y-126770000D03*
X146520000Y-95750000D03*
X102480000Y-119990000D03*
X113660000Y-110060000D03*
X113660000Y-111980000D03*
X185170000Y-112360000D03*
X182410000Y-112360000D03*
X115200000Y-109250000D03*
X127100000Y-97450000D03*
X121020000Y-102090000D03*
X133000000Y-109540000D03*
X121740000Y-102810000D03*
X96750000Y-113390000D03*
X90500000Y-113680000D03*
D40*
X90510000Y-118750000D02*
X90510000Y-117212500D01*
X90510000Y-117212500D02*
X90500000Y-117202500D01*
D41*
X137250000Y-101250000D02*
X137250000Y-103000000D01*
D42*
X139500000Y-98250000D02*
X139500000Y-99198000D01*
X141750000Y-104850000D02*
X141750000Y-103770000D01*
D40*
X143100000Y-94750000D02*
X141952500Y-94750000D01*
X146520000Y-99802500D02*
X146520000Y-101070000D01*
X144750000Y-99712500D02*
X144750000Y-101070000D01*
X144750000Y-99712500D02*
X144752500Y-99710000D01*
X144750000Y-99712500D02*
X144752500Y-99710000D01*
X93000000Y-99390000D02*
X93000000Y-100547500D01*
X128740000Y-92770000D02*
X128740000Y-93998000D01*
X128740000Y-93998000D02*
X128738000Y-94000000D01*
X128230000Y-96500000D02*
X127100000Y-96500000D01*
D43*
X94649999Y-112500001D02*
X94650000Y-112500000D01*
X94649999Y-114501400D02*
X94649999Y-112500001D01*
D42*
X96272000Y-119350000D02*
X96870000Y-119350000D01*
X97160000Y-119640000D02*
X97670000Y-119640000D01*
X96870000Y-119350000D02*
X97160000Y-119640000D01*
D40*
X90510000Y-118750000D02*
X91488000Y-118750000D01*
D43*
X95450000Y-117498600D02*
X95450000Y-116000000D01*
X97170000Y-118120000D02*
X97670000Y-117620000D01*
X96720000Y-118120000D02*
X97170000Y-118120000D01*
X96650000Y-118050000D02*
X96720000Y-118120000D01*
X96650000Y-118050000D02*
X96650000Y-117498600D01*
X96250001Y-118170001D02*
X96580000Y-118500000D01*
X96580000Y-118500000D02*
X97670000Y-118500000D01*
X96250001Y-118170001D02*
X96250001Y-117498600D01*
D42*
X99500000Y-119988000D02*
X98598000Y-119988000D01*
D40*
X97670000Y-119640000D02*
X97670000Y-121000000D01*
D42*
X98250000Y-119640000D02*
X97670000Y-119640000D01*
X98598000Y-119988000D02*
X98250000Y-119640000D01*
D40*
X97670000Y-121000000D02*
X97670000Y-122360000D01*
X96402500Y-121000000D02*
X97670000Y-121000000D01*
X96402500Y-122357500D02*
X96402500Y-121000000D01*
X96402500Y-122357500D02*
X96400000Y-122360000D01*
X97670000Y-122360000D02*
X96400000Y-122360000D01*
X115618000Y-111000000D02*
X114500000Y-111000000D01*
X111238000Y-103500000D02*
X110270000Y-103500000D01*
X125010000Y-109738000D02*
X125010000Y-108760000D01*
X107800000Y-108240000D02*
X108998000Y-108240000D01*
X108998000Y-108240000D02*
X109000000Y-108238000D01*
X111238000Y-106500000D02*
X110270000Y-106500000D01*
X114288000Y-102110000D02*
X113310000Y-102110000D01*
D42*
X114850000Y-97250000D02*
X115738000Y-97250000D01*
D43*
X101250000Y-104500000D02*
X100225000Y-104500000D01*
X99000000Y-106225000D02*
X99000000Y-107050000D01*
X98500000Y-103775000D02*
X98500000Y-102940000D01*
X97775000Y-105000000D02*
X97500000Y-105000000D01*
X97500000Y-105000000D02*
X97000000Y-104500000D01*
X97775000Y-104000000D02*
X97500000Y-104000000D01*
X97500000Y-104000000D02*
X97000000Y-104500000D01*
X97775000Y-104500000D02*
X97000000Y-104500000D01*
X97775000Y-106000000D02*
X97250000Y-106000000D01*
X97250000Y-106000000D02*
X97000000Y-105750000D01*
X97250000Y-105500000D02*
X97000000Y-105750000D01*
X97250000Y-105500000D02*
X97775000Y-105500000D01*
D42*
X186070000Y-126770000D02*
X187230000Y-126770000D01*
X121262000Y-97250000D02*
X122150000Y-97250000D01*
D40*
X110270000Y-103500000D02*
X108500000Y-103500000D01*
X110270000Y-106500000D02*
X108500000Y-106500000D01*
X90500000Y-109452500D02*
X90500000Y-110650000D01*
X91770000Y-105000000D02*
X93000000Y-105000000D01*
D44*
X156970000Y-81530000D02*
X156970000Y-85510000D01*
X143750000Y-91400000D02*
X143750000Y-89200000D01*
X144930000Y-92580000D02*
X143750000Y-91400000D01*
X149900000Y-92580000D02*
X144930000Y-92580000D01*
X156970000Y-85510000D02*
X149900000Y-92580000D01*
D41*
X140047500Y-94750000D02*
X140047500Y-96112500D01*
X135000000Y-96270000D02*
X135000000Y-94750000D01*
X135560000Y-96830000D02*
X135000000Y-96270000D01*
X139330000Y-96830000D02*
X135560000Y-96830000D01*
X140047500Y-96112500D02*
X139330000Y-96830000D01*
D42*
X130970000Y-94000000D02*
X132400000Y-92570000D01*
X138340000Y-93250000D02*
X137660000Y-92570000D01*
X137660000Y-92570000D02*
X132400000Y-92570000D01*
X130262000Y-94000000D02*
X130970000Y-94000000D01*
X138340000Y-93250000D02*
X140050000Y-93250000D01*
D41*
X94577500Y-102452500D02*
X93000000Y-102452500D01*
X95280000Y-101750000D02*
X96750000Y-101750000D01*
X94577500Y-102452500D02*
X95280000Y-101750000D01*
D40*
X93000000Y-102452500D02*
X93000000Y-103690000D01*
X93000000Y-103690000D02*
X92642500Y-104047500D01*
X92642500Y-104047500D02*
X91770000Y-104047500D01*
D42*
X130770000Y-95547500D02*
X130770000Y-94760000D01*
X130770000Y-94760000D02*
X130262000Y-94252000D01*
X130262000Y-94252000D02*
X130262000Y-94000000D01*
D41*
X140047500Y-93252500D02*
X140050000Y-93250000D01*
X140047500Y-93252500D02*
X140047500Y-94750000D01*
D40*
X189772500Y-125820000D02*
X192330000Y-125820000D01*
X189772500Y-125820000D02*
X189770000Y-125817500D01*
D42*
X91770000Y-104047500D02*
X91770000Y-102950000D01*
X86260000Y-81470000D02*
X84730000Y-83000000D01*
X88270000Y-81470000D02*
X86260000Y-81470000D01*
X90410000Y-83610000D02*
X88270000Y-81470000D01*
X90410000Y-101590000D02*
X90410000Y-83610000D01*
X91770000Y-102950000D02*
X90410000Y-101590000D01*
D40*
X86560000Y-84830000D02*
X87440000Y-84830000D01*
X87440000Y-84830000D02*
X88250000Y-85640000D01*
X86560000Y-84830000D02*
X84730000Y-83000000D01*
X86560000Y-125170000D02*
X87810000Y-125170000D01*
X84730000Y-127000000D02*
X86560000Y-125170000D01*
X88250000Y-124730000D02*
X88250000Y-85640000D01*
X87810000Y-125170000D02*
X88250000Y-124730000D01*
X89230000Y-105952500D02*
X89230000Y-125040000D01*
X89230000Y-125040000D02*
X87270000Y-127000000D01*
X89230000Y-84960000D02*
X87270000Y-83000000D01*
X89230000Y-104047500D02*
X89230000Y-84960000D01*
D42*
X133750000Y-110250000D02*
X155720000Y-110250000D01*
X157480000Y-108490000D02*
X157480000Y-106680000D01*
X155720000Y-110250000D02*
X157480000Y-108490000D01*
D43*
X104140000Y-114300000D02*
X102970000Y-114300000D01*
X94622500Y-105952500D02*
X91770000Y-105952500D01*
X102970000Y-114300000D02*
X94622500Y-105952500D01*
X104140000Y-114300000D02*
X105840000Y-114300000D01*
X107902000Y-112238000D02*
X109000000Y-112238000D01*
X105840000Y-114300000D02*
X107902000Y-112238000D01*
X119249680Y-108749360D02*
X119249680Y-109432578D01*
X120227102Y-110410000D02*
X120900000Y-110410000D01*
X119249680Y-109432578D02*
X120227102Y-110410000D01*
D42*
X110230000Y-112240000D02*
X109002000Y-112240000D01*
X109002000Y-112240000D02*
X109000000Y-112238000D01*
X111238000Y-105000000D02*
X110000000Y-105000000D01*
D43*
X116249940Y-103750640D02*
X115510640Y-103750640D01*
X112000000Y-101780000D02*
X112000000Y-109762000D01*
X112750000Y-101030000D02*
X112000000Y-101780000D01*
X114770000Y-101030000D02*
X112750000Y-101030000D01*
X115050000Y-101310000D02*
X114770000Y-101030000D01*
X115050000Y-103290000D02*
X115050000Y-101310000D01*
X115510640Y-103750640D02*
X115050000Y-103290000D01*
X115500000Y-108000000D02*
X114660000Y-108000000D01*
X112898000Y-109762000D02*
X112000000Y-109762000D01*
X112000000Y-109762000D02*
X109000000Y-109762000D01*
X114660000Y-108000000D02*
X112898000Y-109762000D01*
D42*
X127000000Y-106680000D02*
X128960000Y-106680000D01*
X128960000Y-106680000D02*
X133260000Y-110980000D01*
X127000000Y-106680000D02*
X124370000Y-106680000D01*
D43*
X121260000Y-109790000D02*
X121880000Y-109170000D01*
X119750060Y-109430060D02*
X120110000Y-109790000D01*
X119750060Y-109430060D02*
X119750060Y-108749360D01*
X120110000Y-109790000D02*
X121260000Y-109790000D01*
D42*
X124370000Y-106680000D02*
X121880000Y-109170000D01*
X170800000Y-104290000D02*
X170800000Y-81530000D01*
X164110000Y-110980000D02*
X133260000Y-110980000D01*
X170800000Y-104290000D02*
X164110000Y-110980000D01*
X89230000Y-105000000D02*
X90050000Y-105000000D01*
D40*
X90500000Y-105360000D02*
X90140000Y-105000000D01*
X90140000Y-105000000D02*
X90050000Y-105000000D01*
X90500000Y-105360000D02*
X90500000Y-107547500D01*
D41*
X137250000Y-107000000D02*
X135250000Y-107000000D01*
X139950000Y-107000000D02*
X137250000Y-107000000D01*
D42*
X139500000Y-103262000D02*
X139500000Y-104550000D01*
X139950000Y-105000000D02*
X139950000Y-107000000D01*
X139500000Y-104550000D02*
X139950000Y-105000000D01*
X128230000Y-95547500D02*
X125977500Y-95547500D01*
X124410000Y-93980000D02*
X121920000Y-93980000D01*
X125977500Y-95547500D02*
X124410000Y-93980000D01*
X130770000Y-96500000D02*
X129970000Y-96500000D01*
X129017500Y-95547500D02*
X128230000Y-95547500D01*
X129970000Y-96500000D02*
X129017500Y-95547500D01*
D40*
X112762000Y-103500000D02*
X113920000Y-103500000D01*
D43*
X112762000Y-103500000D02*
X112762000Y-103502000D01*
X112762000Y-103502000D02*
X113760000Y-104500000D01*
X113760000Y-104500000D02*
X115500000Y-104500000D01*
X121729940Y-108000060D02*
X121730000Y-108000000D01*
X121729940Y-108000060D02*
X120499360Y-108000060D01*
D42*
X108998000Y-113760000D02*
X107760000Y-113760000D01*
X108998000Y-113760000D02*
X109000000Y-113762000D01*
X123500000Y-109738000D02*
X123500000Y-108760000D01*
D40*
X117250000Y-110892000D02*
X117250000Y-109840000D01*
D43*
X117250700Y-109839300D02*
X117250000Y-109840000D01*
X117250700Y-109839300D02*
X117250700Y-108749360D01*
D40*
X117250000Y-110892000D02*
X117142000Y-111000000D01*
X112762000Y-107728000D02*
X112760000Y-107730000D01*
X112762000Y-107728000D02*
X112762000Y-106500000D01*
D43*
X115500000Y-105500000D02*
X114330000Y-105500000D01*
X114330000Y-105500000D02*
X113830000Y-106000000D01*
X115500000Y-106000000D02*
X113830000Y-106000000D01*
X113330000Y-106500000D02*
X112762000Y-106500000D01*
X113830000Y-106000000D02*
X113330000Y-106500000D01*
X117250700Y-103750640D02*
X117250700Y-102899300D01*
X117250700Y-102899300D02*
X117500000Y-102650000D01*
X117751080Y-102901080D02*
X117751080Y-103750640D01*
X117500000Y-102650000D02*
X117751080Y-102901080D01*
X100660000Y-104000000D02*
X101090000Y-103570000D01*
X100660000Y-104000000D02*
X100225000Y-104000000D01*
X100225000Y-106000000D02*
X100225000Y-106915000D01*
X99500000Y-106660000D02*
X99760000Y-106920000D01*
X99760000Y-106920000D02*
X100230000Y-106920000D01*
X99500000Y-106660000D02*
X99500000Y-106225000D01*
X100225000Y-106915000D02*
X100230000Y-106920000D01*
D42*
X187227500Y-125820000D02*
X186070000Y-125820000D01*
X187227500Y-125820000D02*
X187230000Y-125817500D01*
X189770000Y-126770000D02*
X190940000Y-126770000D01*
D43*
X118248920Y-103750640D02*
X118248920Y-101998920D01*
X118248920Y-101998920D02*
X117250000Y-101000000D01*
X118500000Y-99500000D02*
X118500000Y-99680000D01*
X118500000Y-99680000D02*
X117250000Y-100930000D01*
X117250000Y-100930000D02*
X117250000Y-101000000D01*
D42*
X117262000Y-97250000D02*
X117880000Y-97250000D01*
X117880000Y-97250000D02*
X118500000Y-97870000D01*
X118500000Y-97870000D02*
X118500000Y-99500000D01*
D43*
X118749300Y-103750640D02*
X118749300Y-101909300D01*
X118650000Y-100100000D02*
X119750000Y-99000000D01*
X118650000Y-101810000D02*
X118650000Y-100100000D01*
X118749300Y-101909300D02*
X118650000Y-101810000D01*
D42*
X119738000Y-97250000D02*
X119738000Y-98988000D01*
X119738000Y-98988000D02*
X119750000Y-99000000D01*
X99500000Y-121512000D02*
X101250000Y-121512000D01*
D43*
X99500000Y-121512000D02*
X99500000Y-122230000D01*
X98290000Y-123440000D02*
X99500000Y-122230000D01*
X95849999Y-118050001D02*
X95849999Y-117498600D01*
X95510000Y-122610000D02*
X96340000Y-123440000D01*
X95510000Y-118390000D02*
X95510000Y-122610000D01*
X95849999Y-118050001D02*
X95510000Y-118390000D01*
X96340000Y-123440000D02*
X98290000Y-123440000D01*
D40*
X146520000Y-95750000D02*
X146520000Y-97897500D01*
X146520000Y-97897500D02*
X144845000Y-97897500D01*
X144845000Y-97897500D02*
X144752500Y-97990000D01*
X102478000Y-119988000D02*
X102480000Y-119990000D01*
X101250000Y-119988000D02*
X102478000Y-119988000D01*
D43*
X94649999Y-117498600D02*
X94649999Y-118170001D01*
X94160000Y-118660000D02*
X94160000Y-120662500D01*
X94649999Y-118170001D02*
X94160000Y-118660000D01*
X94160000Y-120662500D02*
X94497500Y-121000000D01*
D41*
X94497500Y-121000000D02*
X94497500Y-123727500D01*
X94497500Y-123727500D02*
X94500000Y-123730000D01*
D43*
X105410000Y-115570000D02*
X103190000Y-115570000D01*
X95050001Y-113169999D02*
X96090000Y-112130000D01*
X96090000Y-112130000D02*
X99750000Y-112130000D01*
X95050001Y-114501400D02*
X95050001Y-113169999D01*
X105410000Y-115570000D02*
X106680000Y-116840000D01*
X103190000Y-115570000D02*
X99750000Y-112130000D01*
X101830000Y-110230000D02*
X101830000Y-106030000D01*
X116750320Y-109459680D02*
X116150000Y-110060000D01*
X116150000Y-110060000D02*
X113660000Y-110060000D01*
X113660000Y-110060000D02*
X113080000Y-110640000D01*
X113080000Y-110640000D02*
X107860000Y-110640000D01*
X107860000Y-110640000D02*
X106550000Y-111950000D01*
X106550000Y-111950000D02*
X103550000Y-111950000D01*
X103550000Y-111950000D02*
X101830000Y-110230000D01*
X116750320Y-108749360D02*
X116750320Y-109459680D01*
X100800000Y-105000000D02*
X100225000Y-105000000D01*
X101830000Y-106030000D02*
X100800000Y-105000000D01*
X101570000Y-114600000D02*
X101570000Y-117070000D01*
X95450000Y-113420000D02*
X96280000Y-112590000D01*
X96280000Y-112590000D02*
X99560000Y-112590000D01*
X99560000Y-112590000D02*
X101570000Y-114600000D01*
X95450000Y-114501400D02*
X95450000Y-113420000D01*
X107680000Y-118380000D02*
X109220000Y-116840000D01*
X102880000Y-118380000D02*
X107680000Y-118380000D01*
X101570000Y-117070000D02*
X102880000Y-118380000D01*
X108060000Y-111100000D02*
X112780000Y-111100000D01*
X108060000Y-111100000D02*
X106750000Y-112410000D01*
X106750000Y-112410000D02*
X103360000Y-112410000D01*
X103360000Y-112410000D02*
X101370000Y-110420000D01*
X101370000Y-110420000D02*
X101370000Y-106220000D01*
X101370000Y-106220000D02*
X100650000Y-105500000D01*
X100225000Y-105500000D02*
X100650000Y-105500000D01*
X117751080Y-109431080D02*
X117890000Y-109570000D01*
X117890000Y-109570000D02*
X117890000Y-111610000D01*
X117890000Y-111610000D02*
X117520000Y-111980000D01*
X117751080Y-109431080D02*
X117751080Y-108749360D01*
X113660000Y-111980000D02*
X117520000Y-111980000D01*
X112780000Y-111100000D02*
X113660000Y-111980000D01*
D42*
X209000000Y-83000000D02*
X209000000Y-84020000D01*
X209000000Y-84020000D02*
X199890000Y-87820000D01*
X201320000Y-124670000D02*
X201320000Y-127000000D01*
X199890000Y-87820000D02*
X199890000Y-123240000D01*
X199890000Y-123240000D02*
X201320000Y-124670000D01*
X194560000Y-128910000D02*
X207090000Y-128910000D01*
X193372500Y-127722500D02*
X194560000Y-128910000D01*
X189770000Y-127722500D02*
X193372500Y-127722500D01*
X207090000Y-128910000D02*
X209000000Y-127000000D01*
D43*
X123700000Y-110500000D02*
X126910000Y-110500000D01*
X123700000Y-110500000D02*
X123500000Y-110700000D01*
X123500000Y-111262000D02*
X123500000Y-110700000D01*
X128190000Y-109220000D02*
X129540000Y-109220000D01*
X126910000Y-110500000D02*
X128190000Y-109220000D01*
X182440000Y-111500000D02*
X131820000Y-111500000D01*
X131820000Y-111500000D02*
X129540000Y-109220000D01*
D42*
X185332500Y-127722500D02*
X184010000Y-126400000D01*
X184010000Y-126400000D02*
X184010000Y-115900000D01*
X187230000Y-127722500D02*
X185332500Y-127722500D01*
D43*
X184010000Y-113070000D02*
X184010000Y-115900000D01*
X182440000Y-111500000D02*
X184010000Y-113070000D01*
X118749300Y-109579300D02*
X120670000Y-111500000D01*
X122430000Y-111500000D02*
X122668000Y-111262000D01*
X123500000Y-111262000D02*
X122668000Y-111262000D01*
X118749300Y-109579300D02*
X118749300Y-108749360D01*
X120670000Y-111500000D02*
X122430000Y-111500000D01*
D40*
X142847500Y-99710000D02*
X142847500Y-97990000D01*
X142702500Y-101230000D02*
X142702500Y-99855000D01*
X142702500Y-99855000D02*
X142847500Y-99710000D01*
D44*
X154170000Y-81530000D02*
X154170000Y-83860000D01*
X148830000Y-89200000D02*
X146250000Y-89200000D01*
X154170000Y-83860000D02*
X148830000Y-89200000D01*
D43*
X139500000Y-101738000D02*
X140008000Y-101230000D01*
X140797500Y-101230000D02*
X140008000Y-101230000D01*
X140008000Y-101230000D02*
X139500000Y-100722000D01*
X145640000Y-102500000D02*
X141260000Y-102500000D01*
X140797500Y-102962500D02*
X140797500Y-103770000D01*
X141260000Y-102500000D02*
X140797500Y-102962500D01*
D42*
X185170000Y-112360000D02*
X189540000Y-112360000D01*
D43*
X182410000Y-112360000D02*
X180940000Y-112360000D01*
X180540000Y-111960000D02*
X125180000Y-111960000D01*
X125010000Y-111790000D02*
X125180000Y-111960000D01*
X180940000Y-112360000D02*
X180540000Y-111960000D01*
D42*
X195580000Y-106320000D02*
X195580000Y-104140000D01*
X189540000Y-112360000D02*
X195580000Y-106320000D01*
D43*
X120480000Y-111960000D02*
X124840000Y-111960000D01*
X118330000Y-109810000D02*
X120480000Y-111960000D01*
X118248920Y-108749360D02*
X118248920Y-109428920D01*
X118248920Y-109428920D02*
X118330000Y-109510000D01*
X118330000Y-109510000D02*
X118330000Y-109810000D01*
X125010000Y-111790000D02*
X125010000Y-111262000D01*
X124840000Y-111960000D02*
X125010000Y-111790000D01*
X115500000Y-105000000D02*
X114830000Y-105000000D01*
D42*
X114830000Y-105000000D02*
X112762000Y-105000000D01*
D43*
X116750320Y-103750640D02*
X116750320Y-102460320D01*
X116400000Y-102110000D02*
X115812000Y-102110000D01*
X116750320Y-102460320D02*
X116400000Y-102110000D01*
X115990000Y-109690000D02*
X115640000Y-109690000D01*
X116249940Y-109430060D02*
X115990000Y-109690000D01*
X116249940Y-109430060D02*
X116249940Y-108749360D01*
X115640000Y-109690000D02*
X115200000Y-109250000D01*
X127100000Y-97450000D02*
X125830000Y-97450000D01*
X123420000Y-102400000D02*
X123420000Y-99860000D01*
X121320060Y-104499940D02*
X123420000Y-102400000D01*
X120499360Y-104499940D02*
X121320060Y-104499940D01*
D40*
X127100000Y-97450000D02*
X128227500Y-97450000D01*
D43*
X125830000Y-97450000D02*
X123420000Y-99860000D01*
D40*
X128227500Y-97450000D02*
X128230000Y-97452500D01*
D43*
X94250000Y-117498600D02*
X94250000Y-118050000D01*
X93550000Y-118750000D02*
X93012000Y-118750000D01*
X94250000Y-118050000D02*
X93550000Y-118750000D01*
X95050001Y-117498600D02*
X95050001Y-118289999D01*
X94748000Y-118592000D02*
X94748000Y-119350000D01*
X95050001Y-118289999D02*
X94748000Y-118592000D01*
D42*
X142702500Y-103770000D02*
X142702500Y-104572500D01*
X142702500Y-104572500D02*
X143550000Y-105420000D01*
X143550000Y-105420000D02*
X143550000Y-107000000D01*
D43*
X119249680Y-103750640D02*
X119249680Y-103040320D01*
X120200000Y-102090000D02*
X121020000Y-102090000D01*
X119249680Y-103040320D02*
X120200000Y-102090000D01*
D42*
X133000000Y-109540000D02*
X153830000Y-109540000D01*
D43*
X121740000Y-102810000D02*
X120010000Y-102810000D01*
X119750060Y-103069940D02*
X120010000Y-102810000D01*
X119750060Y-103750640D02*
X119750060Y-103069940D01*
D42*
X154940000Y-108430000D02*
X154940000Y-106680000D01*
X153830000Y-109540000D02*
X154940000Y-108430000D01*
D43*
X96250001Y-113889999D02*
X96750000Y-113390000D01*
X96250001Y-114501400D02*
X96250001Y-113889999D01*
X90500000Y-115297500D02*
X90500000Y-113680000D01*
X90920000Y-113260000D02*
X91488000Y-113260000D01*
X90500000Y-113680000D02*
X90920000Y-113260000D01*
X94250000Y-114501400D02*
X94250000Y-113890000D01*
X93620000Y-113260000D02*
X93012000Y-113260000D01*
X94250000Y-113890000D02*
X93620000Y-113260000D01*
D42*
X130770000Y-97452500D02*
X132307500Y-97452500D01*
X136180000Y-93390000D02*
X137540000Y-94750000D01*
X134450000Y-93390000D02*
X136180000Y-93390000D01*
X133730000Y-94110000D02*
X134450000Y-93390000D01*
X133730000Y-96030000D02*
X133730000Y-94110000D01*
X132307500Y-97452500D02*
X133730000Y-96030000D01*
D45*
G36*
X144150000Y-104301422D02*
X144150000Y-108600000D01*
X142450000Y-108600000D01*
X142450000Y-103370000D01*
X143218578Y-103370000D01*
X144150000Y-104301422D01*
X144150000Y-104301422D01*
G37*
X144150000Y-104301422D02*
X144150000Y-108600000D01*
X142450000Y-108600000D01*
X142450000Y-103370000D01*
X143218578Y-103370000D01*
X144150000Y-104301422D01*
M02*
