G04 #@! TF.FileFunction,Soldermask,Bot*
%FSLAX46Y46*%
G04 Gerber Fmt 4.6, Leading zero omitted, Abs format (unit mm)*
G04 Created by KiCad (PCBNEW 4.0.2+dfsg1-stable) date mer. 17 juil. 2019 11:13:31 CEST*
%MOMM*%
G01*
G04 APERTURE LIST*
%ADD10C,0.100000*%
%ADD11C,5.400000*%
%ADD12C,1.200000*%
%ADD13C,1.924000*%
%ADD14C,2.200000*%
%ADD15C,1.900000*%
%ADD16C,2.100000*%
%ADD17R,2.200000X2.200000*%
G04 APERTURE END LIST*
D10*
D11*
X104750000Y-101000000D03*
D12*
X104750000Y-99000000D03*
X106750000Y-101000000D03*
X104750000Y-103000000D03*
X102750000Y-101000000D03*
X106160000Y-99590000D03*
X106160000Y-102410000D03*
X103340000Y-102410000D03*
X103340000Y-99590000D03*
D11*
X104750000Y-109000000D03*
D12*
X104750000Y-107000000D03*
X106750000Y-109000000D03*
X104750000Y-111000000D03*
X102750000Y-109000000D03*
X106160000Y-107590000D03*
X106160000Y-110410000D03*
X103340000Y-110410000D03*
X103340000Y-107590000D03*
D11*
X175250000Y-105000000D03*
D12*
X175250000Y-103000000D03*
X177250000Y-105000000D03*
X175250000Y-107000000D03*
X173250000Y-105000000D03*
X176660000Y-103590000D03*
X176660000Y-106410000D03*
X173840000Y-106410000D03*
X173840000Y-103590000D03*
D11*
X186750000Y-101000000D03*
D12*
X186750000Y-99000000D03*
X188750000Y-101000000D03*
X186750000Y-103000000D03*
X184750000Y-101000000D03*
X188160000Y-99590000D03*
X188160000Y-102410000D03*
X185340000Y-102410000D03*
X185340000Y-99590000D03*
D11*
X186750000Y-109000000D03*
D12*
X186750000Y-107000000D03*
X188750000Y-109000000D03*
X186750000Y-111000000D03*
X184750000Y-109000000D03*
X188160000Y-107590000D03*
X188160000Y-110410000D03*
X185340000Y-110410000D03*
X185340000Y-107590000D03*
D13*
X146250000Y-89200000D03*
X143750000Y-89200000D03*
X84730000Y-127000000D03*
X87270000Y-127000000D03*
X84730000Y-83000000D03*
X87270000Y-83000000D03*
D14*
X94500000Y-126270000D03*
X94500000Y-123730000D03*
X151370000Y-81530000D03*
X154170000Y-81530000D03*
X156970000Y-81530000D03*
X159770000Y-81530000D03*
X162600000Y-81480000D03*
D15*
X165250000Y-81530000D03*
X167100000Y-81530000D03*
X168950000Y-81530000D03*
X170800000Y-81530000D03*
D16*
X122000000Y-84890000D03*
X120000000Y-84890000D03*
X118000000Y-84890000D03*
D15*
X124000000Y-82490000D03*
X116000000Y-82490000D03*
D14*
X137540000Y-94750000D03*
X135000000Y-94750000D03*
X132460000Y-94750000D03*
D13*
X195580000Y-104140000D03*
X106680000Y-116840000D03*
X109220000Y-116840000D03*
X104140000Y-116840000D03*
X111760000Y-116840000D03*
D14*
X116840000Y-93980000D03*
X119380000Y-93980000D03*
X121920000Y-93980000D03*
D13*
X127000000Y-93980000D03*
D14*
X201320000Y-83000000D03*
X203890000Y-83000000D03*
X206430000Y-83000000D03*
X209000000Y-83000000D03*
X201320000Y-127000000D03*
X203890000Y-127000000D03*
X206430000Y-127000000D03*
X209000000Y-127000000D03*
D13*
X104140000Y-114300000D03*
X129540000Y-109220000D03*
X127000000Y-106680000D03*
D17*
X149860000Y-106680000D03*
D14*
X152400000Y-106680000D03*
X154940000Y-106680000D03*
X157480000Y-106680000D03*
M02*
